<?xml version="1.0" encoding="UTF-8" standalone="no"?>
<!DOCTYPE svg PUBLIC "-//W3C//DTD SVG 1.1//EN" "http://www.w3.org/Graphics/SVG/1.1/DTD/svg11.dtd">
<svg width="100%" height="100%" viewBox="0 0 65 65" version="1.1" xmlns="http://www.w3.org/2000/svg" xmlns:xlink="http://www.w3.org/1999/xlink" xml:space="preserve" xmlns:serif="http://www.serif.com/" style="fill-rule:evenodd;clip-rule:evenodd;">
    <g transform="matrix(1,0,0,1,-583,-2431)">
        <g transform="matrix(1,0,0,1,-2128.33,1732)">
            <g transform="matrix(0.449499,0,0,0.449499,-2977.57,220.755)">
                <path d="M12709.5,1135.04C12708.5,1131.9 12708,1128.58 12708,1125.13C12708,1110.46 12717.4,1097.95 12730.4,1093.25C12734,1091.97 12737.9,1091.27 12741.9,1091.27C12760.6,1091.27 12775.7,1106.44 12775.7,1125.13C12775.7,1139.69 12766.5,1152.11 12753.6,1156.89C12754.3,1155.37 12754.6,1153.68 12754.3,1152.03C12753.9,1149.12 12752,1146.44 12749.4,1145.3L12724,1135.21C12721.8,1134.25 12719.4,1133.72 12717,1133.67C12716,1133.66 12715,1133.73 12713.9,1133.88C12713,1134.03 12712.5,1134.11 12711,1134.54C12710.5,1134.7 12710,1134.87 12709.5,1135.04Z" style="fill:rgb(179,229,255);"/>
                <g transform="matrix(1,0,0,1,5.87439,4.7213)">
                    <path d="M12709.5,1135.04C12708.5,1131.9 12708,1128.58 12708,1125.13C12708,1106.44 12723.2,1091.27 12741.9,1091.27C12760.6,1091.27 12775.7,1106.44 12775.7,1125.13C12775.7,1139.69 12766.5,1152.11 12753.6,1156.89" style="fill:none;stroke:rgb(0,51,102);stroke-width:1.86px;"/>
                </g>
                <g transform="matrix(-1,0,-0,1,25361,0)">
                    <rect x="12665" y="1140" width="31" height="38" style="fill:none;stroke:rgb(0,56,116);stroke-width:1.86px;stroke-linecap:round;stroke-linejoin:round;stroke-miterlimit:1.5;"/>
                </g>
                <circle cx="12688" cy="1150" r="3" style="fill:white;stroke:rgb(237,28,36);stroke-width:1.33px;stroke-linejoin:round;stroke-miterlimit:1.41421;"/>
                <path d="M12700.7,1141.75L12700.7,1172C12708.2,1170.92 12715.9,1171.06 12724,1174L12741,1181C12744.6,1182.76 12748.5,1183.06 12752.9,1179.87L12786.9,1159.55C12794,1151.69 12786.8,1143.37 12778.4,1146.76L12750,1164.79C12747.7,1166.83 12744.7,1167.5 12739.9,1164.7L12731.9,1161.63C12728.4,1160.34 12728.9,1155.76 12733.6,1155.66L12743.2,1159.41C12751,1163.21 12756,1151.69 12748.5,1147.38L12723.2,1137.29C12719.4,1135.65 12715.4,1135.44 12711.1,1136.89C12707,1138.1 12703.4,1139.63 12700.7,1141.75Z" style="fill:rgb(72,124,182);"/>
                <g transform="matrix(1.32495,0,0,1.32495,12747.8,1107.5)">
                    <path d="M-8.691,-0.375C-8.691,-0.375 3.735,-0.374 3.735,-0.374L3.735,0.376L-5.404,0.376C-5.322,0.416 -5.241,0.458 -5.16,0.5C-5.068,0.549 -4.978,0.599 -4.888,0.651C-3.593,1.416 -2.49,2.54 -2.1,3.994C-1.931,4.622 -1.775,5.479 -1.775,5.479L-1.711,5.81L4.262,5.786L4.265,6.536L-1.712,6.56C-1.723,6.648 -1.737,6.735 -1.751,6.822C-2.303,10.019 -5.285,12.18 -9.031,12.466C-9.031,12.466 -8.721,12.866 -8.41,13.25L0.301,24.957L-0.301,25.405L-9.003,13.71C-9.552,13.032 -10.288,12.579 -11.16,12.514C-11.16,12.514 -12.824,12.509 -12.824,12.509L-12.824,11.724C-12.162,11.727 -11.213,11.759 -11.213,11.759C-7.603,11.759 -3.243,11.054 -2.491,6.698L-2.469,6.56L-12.882,6.56L-12.894,5.81L-12.112,5.786L-2.48,5.786C-2.739,4.458 -3.096,3.107 -4.131,2.141C-5.31,1.041 -6.902,0.435 -8.525,0.379L-8.66,0.376L-13.284,0.376L-13.285,-0.374C-11.754,-0.378 -10.222,-0.383 -8.691,-0.375Z" style="fill:rgb(0,56,116);fill-rule:nonzero;"/>
                </g>
            </g>
        </g>
    </g>
</svg>
