<?xml version="1.0" encoding="UTF-8" standalone="no"?><!DOCTYPE svg PUBLIC "-//W3C//DTD SVG 1.1//EN" "http://www.w3.org/Graphics/SVG/1.1/DTD/svg11.dtd"><svg width="100%" height="100%" viewBox="0 0 16 16" version="1.1" xmlns="http://www.w3.org/2000/svg" xmlns:xlink="http://www.w3.org/1999/xlink" xml:space="preserve" xmlns:serif="http://www.serif.com/" style="fill-rule:evenodd;clip-rule:evenodd;"><g><path d="M1.44,10.37l2.318,-1.44l0.526,0.878l2.599,-1.966l0.492,0.737l2.985,-1.369l0.386,0.737l3.304,-1.42" style="fill:none;stroke:#c32127;stroke-width:0.2px;"/><path d="M14.736,6.246l-1.259,-0.127l0.519,1.154l0.74,-1.027Z" style="fill:#c32127;fill-rule:nonzero;"/><path d="M6.884,3.352l3.789,0" style="fill:none;stroke:#036;stroke-width:0.2px;"/><path d="M10.256,4.629l0,1.317c0,2.841 -4.466,2.841 -4.466,0l0,-0.553c0,0 0.583,-0.664 2.068,-0.354c1.485,0.31 2.398,-0.41 2.398,-0.41" style="fill:#b3e5ff;fill-rule:nonzero;"/><path d="M10.216,12.417l0,-2.198c0,-2.797 -4.395,-2.797 -4.395,0l0,2.198" style="fill:#b3e5ff;fill-rule:nonzero;"/><path d="M3.436,3.352l2.63,0" style="fill:none;stroke:#036;stroke-width:0.2px;"/><path d="M4.786,3.298l0,2.233c0,2.842 4.466,2.842 4.466,0l0,-2.233" style="fill:none;stroke:#036;stroke-width:0.2px;"/><path d="M8.375,12.253l-4.986,0" style="fill:none;stroke:#036;stroke-width:0.2px;"/><path d="M10.626,12.253l-1.513,0" style="fill:none;stroke:#036;stroke-width:0.2px;"/><path d="M9.275,12.307l0,-2.232c0,-2.842 -4.465,-2.842 -4.465,0l0,2.232" style="fill:none;stroke:#036;stroke-width:0.2px;"/></g></svg>