<?xml version="1.0" encoding="UTF-8" standalone="no"?>
<!DOCTYPE svg PUBLIC "-//W3C//DTD SVG 1.1//EN" "http://www.w3.org/Graphics/SVG/1.1/DTD/svg11.dtd">
<svg width="100%" height="100%" viewBox="0 0 65 65" version="1.1" xmlns="http://www.w3.org/2000/svg" xmlns:xlink="http://www.w3.org/1999/xlink" xml:space="preserve" xmlns:serif="http://www.serif.com/" style="fill-rule:evenodd;clip-rule:evenodd;stroke-linecap:round;stroke-linejoin:round;stroke-miterlimit:1.5;">
    <g transform="matrix(1,0,0,1,-1664,-2425)">
        <g transform="matrix(1,0,0,1,-2128.33,1732)">
            <g transform="matrix(1.63337,0,0,6.8173,3281.56,-2277.32)">
                <g transform="matrix(-1.2805,0,0,0.306798,17266.6,-216.29)">
                    <path d="M13222.2,2131C13216.5,2131 13211.8,2135.7 13211.8,2141.5C13211.8,2147.3 13216.5,2152 13222.2,2152C13228,2152 13232.8,2147.3 13232.8,2141.5L13222.2,2141.5L13222.2,2131Z" style="fill:rgb(179,229,255);"/>
                </g>
                <g transform="matrix(1,0,0,0.239593,-12888,-64.69)">
                    <path d="M13231.7,2098.96C13233.1,2101.11 13234,2103.71 13234,2106.5C13234,2113.95 13227.9,2120 13220.5,2120C13217.6,2120 13214.9,2119.07 13212.7,2117.49" style="fill:none;stroke:rgb(0,56,116);stroke-width:0.6px;"/>
                </g>
                <g transform="matrix(1,0,0,0.239593,-12888,-64.69)">
                    <path d="M13212.7,2117.49C13209.2,2115.04 13207,2111.03 13207,2106.5C13207,2099.05 13213,2093 13220.5,2093C13225.2,2093 13229.3,2095.37 13231.7,2098.96" style="fill:none;stroke:rgb(0,56,116);stroke-width:0.6px;"/>
                </g>
                <g transform="matrix(0.866025,0.119796,-0.5,0.207493,-10061.8,-1580.6)">
                    <path d="M13218.5,2093L13218.5,2096" style="fill:none;stroke:rgb(0,56,116);stroke-width:0.6px;"/>
                </g>
                <g transform="matrix(0.5,0.207493,-0.866025,0.119796,-4452.47,-2555.09)">
                    <path d="M13218.5,2093L13218.5,2096" style="fill:none;stroke:rgb(0,56,116);stroke-width:0.6px;"/>
                </g>
                <g transform="matrix(2.77556e-16,0.239593,-1,5.55112e-17,2439,-2727.04)">
                    <path d="M13218.5,2093L13218.5,2096" style="fill:none;stroke:rgb(0,56,116);stroke-width:0.6px;"/>
                </g>
                <g transform="matrix(-0.5,0.207493,-0.866025,-0.119796,8766.03,-2050.39)">
                    <path d="M13218.5,2093L13218.5,2096" style="fill:none;stroke:rgb(0,56,116);stroke-width:0.6px;"/>
                </g>
                <g transform="matrix(-0.866025,0.119796,-0.5,-0.207493,12833.3,-706.431)">
                    <path d="M13218.5,2093L13218.5,2096" style="fill:none;stroke:rgb(0,56,116);stroke-width:0.6px;"/>
                </g>
                <g transform="matrix(1,0,0,0.239593,-12886,-58.9403)">
                    <path d="M13218.5,2093L13218.5,2096" style="fill:none;stroke:rgb(0,56,116);stroke-width:0.6px;"/>
                </g>
                <g transform="matrix(0.866025,0.119796,-0.5,0.207493,-10073.8,-1575.62)">
                    <path d="M13218.5,2093L13218.5,2096" style="fill:none;stroke:rgb(0,56,116);stroke-width:0.6px;"/>
                </g>
                <g transform="matrix(0.5,0.207493,-0.866025,0.119796,-4473.25,-2552.21)">
                    <path d="M13218.5,2093L13218.5,2096" style="fill:none;stroke:rgb(0,56,116);stroke-width:0.6px;"/>
                </g>
                <g transform="matrix(2.77556e-16,0.239593,-1,5.55112e-17,2415,-2727.04)">
                    <path d="M13218.5,2093L13218.5,2096" style="fill:none;stroke:rgb(0,56,116);stroke-width:0.6px;"/>
                </g>
                <g transform="matrix(-0.5,0.207493,-0.866025,-0.119796,8745.25,-2053.26)">
                    <path d="M13218.5,2093L13218.5,2096" style="fill:none;stroke:rgb(0,56,116);stroke-width:0.6px;"/>
                </g>
                <g transform="matrix(-0.866025,0.119796,-0.5,-0.207493,12821.3,-711.41)">
                    <path d="M13218.5,2093L13218.5,2096" style="fill:none;stroke:rgb(0,56,116);stroke-width:0.6px;"/>
                </g>
                <g transform="matrix(1,0,0,0.239593,-12886,-64.69)">
                    <path d="M13218.5,2093L13218.5,2096" style="fill:none;stroke:rgb(237,28,36);stroke-width:0.6px;"/>
                </g>
            </g>
        </g>
    </g>
</svg>
