<svg viewBox="0 0 600 264" xmlns="http://www.w3.org/2000/svg" fill-rule="evenodd" clip-rule="evenodd" stroke-miterlimit="10"><path fill="none" d="M0 0h600v264H0z"/><path d="M275.6 18.4a226 226 0 0 0-64.4-9.6c-32.6.8-63.9 13.8-79.2 32.9-13 16.1-14.6 35-20.2 53-7 22.1-20.1 43-34.2 63.6-7.6 11-15.6 22.3-16.9 34.4-1.7 16.8 10.4 33.5 29.4 44.7 19 11.1 44.2 17 69.5 18.3 13.5.7 27.5 0 39.5-4 12.7-4.5 21.9-12.4 34.6-16.7 11.8-4 25.5-4.6 38.8-4.1 17.3.7 34.3 3 50.6 7.1 18.4 4.6 35.6 11.3 54 16 18.5 4.6 39 7.2 58 3.3a116.2 116.2 0 0 0 44.2-21.5 454 454 0 0 0 56.5-47.4c11.4-11.3 22-23.2 27-36.3 9.6-25.2-3.6-53.6-33-70.8-24.3-14.2-57-20.4-89-24.2-29-3.4-62.7-3.6-89.6-12.5-25.6-8.5-48.8-19-75.6-26.2z" fill="#53b7e8" fill-opacity=".1" fill-rule="nonzero"/><path d="M509.5 177.5l.5.5.2-.9-.2-1h-.7l.2 1.4z" fill="#464a5f" fill-rule="nonzero"/><path d="M509.5 177.5l.5.5.2-.9-.2-1h-.7l.2 1.4z" fill-opacity=".1" fill-rule="nonzero"/><path d="M509.5 177.5l.5.5-.5.7-.6-.3-.1-.2.7-.7z" fill="#9c9ca1" fill-rule="nonzero"/><path d="M509.5 177.5l.5.5-.5.7-.6-.3-.1-.2.7-.7z" fill-opacity=".1" fill-rule="nonzero"/><path d="M411.1 80.5l-58.4 58.4a5.6 5.6 0 0 0 0 7.9l89.5 90.3a5.6 5.6 0 0 0 8 0l59.3-58.4L411 80.5z" fill="#9c9ca1" fill-rule="nonzero"/><path d="M411.1 80.5l-58.4 58.4a5.6 5.6 0 0 0 0 7.9l89.5 90.3a5.6 5.6 0 0 0 8 0l59.3-58.4L411 80.5z" fill-opacity=".1" fill-rule="nonzero"/><path d="M411.1 79.3l-58.4 58.4a5.6 5.6 0 0 0 0 8l89.5 90.2a5.6 5.6 0 0 0 8 0l59.3-58.4L411 79.3z" fill="#9c9ca1" fill-rule="nonzero"/><path d="M417.3 38.2L411.9 79l98.3 98.2 5.7-41.3a6 6 0 0 0-1.8-5.1l-94.8-93.2a1.2 1.2 0 0 0-2 .7z" fill="#464a5f" fill-rule="nonzero"/><path d="M417.3 38.2L411.9 79l98.3 98.2 5.7-41.3a6 6 0 0 0-1.8-5.1l-94.8-93.2a1.2 1.2 0 0 0-2 .7z" fill-opacity=".1" fill-rule="nonzero"/><path d="M416.5 38.6l-5.4 40.7 98.4 98.2L515 136a6 6 0 0 0-1.7-5l-94.9-93.2a1.2 1.2 0 0 0-2 .7z" fill="#464a5f" fill-rule="nonzero"/><path d="M411.4 98l-3.6 3.6a1.1 1.1 0 0 0 0 1.6l3.6 3.7c.5.4 1.2.4 1.6 0l3.6-3.3c.4-.5.5-1.2 0-1.6l-3.6-4a1.1 1.1 0 0 0-1.6 0zm6.6 6.6l-3.5 3.6a1.1 1.1 0 0 0 0 1.6l3.6 3.7a1.1 1.1 0 0 0 1.6 0l3.5-3.3a1.1 1.1 0 0 0 0-1.6l-3.5-4a1.1 1.1 0 0 0-1.7 0zm7 7l-3.6 3.6a1.1 1.1 0 0 0 0 1.5l3.6 3.7c.5.5 1.2.5 1.6 0l3.6-3.3c.4-.4.5-1.1 0-1.6l-3.6-3.9a1.1 1.1 0 0 0-1.6 0zm7 7l-3.5 3.6a1.1 1.1 0 0 0 0 1.6l3.6 3.7c.4.4 1.1.4 1.6 0l3.5-3.3a1.1 1.1 0 0 0 0-1.6l-3.5-4a1.1 1.1 0 0 0-1.7 0zm7 7l-3.5 3.6a1.1 1.1 0 0 0 0 1.6l3.6 3.7c.4.5 1.2.5 1.6 0l3.6-3.3a1.1 1.1 0 0 0 0-1.6l-3.6-3.9a1.1 1.1 0 0 0-1.6 0zm7.5 6.6l-4.4 4.5c-.2.2-.2.5 0 .7l4.5 4.6c.2.2.5.2.7 0l4.4-4.2a.5.5 0 0 0 0-.7l-4.4-4.9a.5.5 0 0 0-.8 0zm7 7l-4.3 4.5a.5.5 0 0 0 0 .8l4.4 4.5c.2.2.5.2.7 0l4.4-4.1a.5.5 0 0 0 0-.8l-4.4-4.8a.5.5 0 0 0-.7 0zm6.3 6.3l-4.4 4.5a.5.5 0 0 0 0 .7l4.4 4.6c.2.1.6.1.8 0l4.4-4.2a.5.5 0 0 0 0-.7l-4.4-4.9a.5.5 0 0 0-.8 0zm7 7l-4.4 4.4a.5.5 0 0 0 0 .8l4.4 4.5a.5.5 0 0 0 .7 0l4.4-4.1a.5.5 0 0 0 0-.8l-4.4-4.8a.5.5 0 0 0-.7 0zm6.7 6.7l-4.4 4.5a.5.5 0 0 0 0 .7l4.5 4.6c.2.2.5.2.7 0l4.4-4.2a.5.5 0 0 0 0-.7l-4.4-4.9a.5.5 0 0 0-.8 0zm6.8 6.8l-4.4 4.4a.5.5 0 0 0 0 .8l4.4 4.5c.2.2.5.2.8 0l4.4-4.1a.5.5 0 0 0 0-.8L481 166a.5.5 0 0 0-.8 0zm6.7 6.7l-4.4 4.5c-.2.2-.2.5 0 .7l4.5 4.6c.2.2.5.2.7 0l4.4-4.2a.5.5 0 0 0 0-.7l-4.4-4.8a.5.5 0 0 0-.8 0zm-82-68.3l-3.6 3.6a1.1 1.1 0 0 0 0 1.6l3.6 3.7a1.1 1.1 0 0 0 1.6 0l3.6-3.3a1.1 1.1 0 0 0 0-1.6l-3.6-4a1.1 1.1 0 0 0-1.6 0zm-14 14l-3.6 3.7a1.1 1.1 0 0 0 0 1.6l3.6 3.6a1.1 1.1 0 0 0 1.6 0l3.5-3.3a1.1 1.1 0 0 0 0-1.6l-3.6-3.9a1.1 1.1 0 0 0-1.6 0zm20.6-7.4l-3.5 3.6a1.1 1.1 0 0 0 0 1.6l3.6 3.7c.4.5 1.1.5 1.6 0l3.5-3.3a1.1 1.1 0 0 0 0-1.6l-3.6-4a1.1 1.1 0 0 0-1.6 0zm7 7l-3.6 3.6a1.1 1.1 0 0 0 0 1.6l3.6 3.7a1.1 1.1 0 0 0 1.6 0l3.5-3.3a1.1 1.1 0 0 0 .1-1.6l-3.6-4a1.1 1.1 0 0 0-1.7 0zm7 7l-3.6 3.6a1.1 1.1 0 0 0 0 1.6l3.7 3.7a1.1 1.1 0 0 0 1.5 0l3.6-3.3a1.1 1.1 0 0 0 0-1.6l-3.6-4a1.1 1.1 0 0 0-1.6 0zm-27.8-.1l-3.6 3.6a1.1 1.1 0 0 0 0 1.5l3.6 3.7a1.1 1.1 0 0 0 1.6 0l3.6-3.3a1.1 1.1 0 0 0 0-1.6l-3.6-4a1.1 1.1 0 0 0-1.6 0zm7 7l-3.6 3.5a1.1 1.1 0 0 0 0 1.6l3.6 3.7a1.1 1.1 0 0 0 1.6 0l3.5-3.3a1.1 1.1 0 0 0 0-1.6l-3.5-4a1.1 1.1 0 0 0-1.7 0zm7 7l-3.6 3.6a1.1 1.1 0 0 0 0 1.5l3.6 3.7c.5.5 1.2.5 1.6 0l3.6-3.3a1.1 1.1 0 0 0 0-1.6l-3.6-3.9a1.1 1.1 0 0 0-1.6 0zm20.8-6.8l-3.5 3.6a1.1 1.1 0 0 0 0 1.5l3.6 3.7a1.1 1.1 0 0 0 1.6 0l3.5-3.3a1.1 1.1 0 0 0 0-1.6l-3.5-3.9a1.1 1.1 0 0 0-1.7 0zm7 7l-3.5 3.6a1.1 1.1 0 0 0 0 1.6l3.6 3.7a1.1 1.1 0 0 0 1.6 0l3.6-3.3a1.1 1.1 0 0 0 0-1.6l-3.6-4a1.1 1.1 0 0 0-1.6 0zm7.5 6.6l-4.4 4.5a.5.5 0 0 0 0 .7l4.5 4.5a.5.5 0 0 0 .7 0l4.4-4.1a.5.5 0 0 0 0-.8l-4.4-4.8a.5.5 0 0 0-.8 0zm6.3 6.2l-4.4 4.5a.5.5 0 0 0 0 .7l4.4 4.6a.5.5 0 0 0 .7 0l4.4-4.2a.5.5 0 0 0 0-.7l-4.4-4.9a.5.5 0 0 0-.7 0zm7 7l-4.5 4.5a.5.5 0 0 0 0 .7l4.5 4.6c.2.2.5.2.7 0l4.4-4.2a.5.5 0 0 0 0-.7l-4.4-4.9a.5.5 0 0 0-.8 0zm6.7 6.8l-4.4 4.4a.5.5 0 0 0 0 .8l4.4 4.5c.2.2.6.2.8 0l4.4-4.1a.5.5 0 0 0 0-.8l-4.4-4.8a.5.5 0 0 0-.8 0zm-55.2-41l-3.6 3.6a1.1 1.1 0 0 0 0 1.6l3.6 3.7a1.1 1.1 0 0 0 1.6 0l3.6-3.3c.4-.5.4-1.2 0-1.6l-3.6-4a1.1 1.1 0 0 0-1.6 0zm7 7l-3.5 3.6a1.1 1.1 0 0 0 0 1.6l3.6 3.7a1.1 1.1 0 0 0 1.6 0l3.5-3.3a1.1 1.1 0 0 0 0-1.6l-3.5-4a1.1 1.1 0 0 0-1.7 0zm7 7l-3.5 3.6a1.1 1.1 0 0 0 0 1.6l3.6 3.7a1.1 1.1 0 0 0 1.6 0l3.5-3.3a1.1 1.1 0 0 0 0-1.6l-3.5-4a1.1 1.1 0 0 0-1.7 0zm7 7.1l-3.5 3.6a1.1 1.1 0 0 0 0 1.6l3.6 3.7a1.1 1.1 0 0 0 1.6 0l3.6-3.3a1.1 1.1 0 0 0 0-1.6l-3.6-4a1.1 1.1 0 0 0-1.6 0zm7.6 6.6l-4.4 4.4c-.2.2-.2.6 0 .8l4.4 4.5a.5.5 0 0 0 .7 0l4.4-4.1a.5.5 0 0 0 0-.8l-4.4-4.8a.5.5 0 0 0-.7 0zm6.2 6.2l-4.4 4.5c-.2.2-.2.5 0 .7l4.4 4.6a.5.5 0 0 0 .7 0l4.4-4.2a.5.5 0 0 0 0-.7l-4.3-4.9a.5.5 0 0 0-.8 0zm7 7l-4.4 4.5c-.2.2-.2.5 0 .7l4.4 4.5a.5.5 0 0 0 .7 0l4.4-4.1a.5.5 0 0 0 0-.7l-4.4-4.9a.5.5 0 0 0-.7 0zm6.7 6.8l-4.4 4.4c-.2.2-.2.5 0 .7l4.4 4.6a.5.5 0 0 0 .8 0l4.4-4.2a.5.5 0 0 0 0-.7l-4.4-4.8a.5.5 0 0 0-.8 0zm13.5 0l-4.4 4.5a.5.5 0 0 0 0 .7l4.4 4.6a.5.5 0 0 0 .7 0l4.4-4.2a.5.5 0 0 0 0-.7l-4.4-4.9a.5.5 0 0 0-.7 0zm6.7 6.8l-4.4 4.4a.5.5 0 0 0 0 .8l4.4 4.5a.5.5 0 0 0 .8 0l4.4-4.1a.5.5 0 0 0 0-.8l-4.4-4.8a.5.5 0 0 0-.8 0zm-34.2-6.3l-4.2 4.2a.7.7 0 0 0 0 1l4.2 4.2a.7.7 0 0 0 1 0l4.2-3.9a.7.7 0 0 0 0-1l-4.2-4.5a.7.7 0 0 0-1 0zm6.7 6.7l-4.1 4.2a.7.7 0 0 0 0 1l4.2 4.3a.7.7 0 0 0 1 0l4.1-3.9a.7.7 0 0 0 0-1l-4.1-4.6a.7.7 0 0 0-1 0zm6.8 6.8l-4.1 4.2a.7.7 0 0 0 0 1l4.1 4.2a.7.7 0 0 0 1 0l4.2-3.8a.7.7 0 0 0 0-1l-4.2-4.6a.7.7 0 0 0-1 0zm6.9 6.6l-4.4 4.5c-.2.2-.2.5 0 .7l4.4 4.5a.5.5 0 0 0 .8 0l4.4-4.1a.5.5 0 0 0 0-.8l-4.4-4.8a.5.5 0 0 0-.8 0zM398 111l-3.8 3.9a1.1 1.1 0 0 0 0 1.6l10.6 10.4c.4.4 1.1.4 1.5 0l4-3.7a1.1 1.1 0 0 0 0-1.6L399.6 111a1.1 1.1 0 0 0-1.6 0zm69 68.2l-4.6 4.7c-.2.2-.2.5 0 .7l11.4 11.3a.5.5 0 0 0 .7 0l4.8-4.6a.5.5 0 0 0 0-.7L467.7 179a.5.5 0 0 0-.7 0zm-48-33.7l-4.4 4.3a.5.5 0 0 0 0 .8l24.5 25.1c.3.2.6.2.8 0l4.8-4.5a.5.5 0 0 0 0-.8l-25-25a.5.5 0 0 0-.7 0z" fill-rule="nonzero"/><path d="M411.4 97.2l-3.6 3.6a1.1 1.1 0 0 0 0 1.6l3.6 3.7c.5.4 1.2.4 1.6 0l3.6-3.3c.4-.4.5-1.2 0-1.6l-3.6-4a1.1 1.1 0 0 0-1.6 0zm6.6 6.6l-3.5 3.6a1.1 1.1 0 0 0 0 1.6l3.6 3.7a1.1 1.1 0 0 0 1.6 0l3.5-3.3a1.1 1.1 0 0 0 0-1.6l-3.5-4a1.1 1.1 0 0 0-1.7 0zm7 7l-3.6 3.6a1.1 1.1 0 0 0 0 1.6l3.6 3.7c.5.4 1.2.4 1.6 0l3.6-3.4a1.1 1.1 0 0 0 0-1.5l-3.6-4a1.1 1.1 0 0 0-1.6 0zm7 7l-3.5 3.6a1.1 1.1 0 0 0 0 1.6l3.6 3.7c.4.5 1.1.5 1.6 0l3.5-3.3a1.1 1.1 0 0 0 0-1.6l-3.5-4a1.1 1.1 0 0 0-1.7 0zm7 7l-3.5 3.7a1.1 1.1 0 0 0 0 1.6l3.6 3.6c.4.5 1.2.5 1.6 0l3.6-3.3a1.1 1.1 0 0 0 0-1.6l-3.6-3.9a1.1 1.1 0 0 0-1.6 0zm7.5 6.7l-4.4 4.4a.5.5 0 0 0 0 .8l4.5 4.5c.2.2.5.2.7 0l4.4-4.1a.5.5 0 0 0 0-.8l-4.4-4.8a.5.5 0 0 0-.8 0zm7 7l-4.3 4.5a.5.5 0 0 0 0 .7l4.4 4.5c.2.2.5.2.7 0l4.4-4.1a.5.5 0 0 0 0-.8l-4.4-4.8a.5.5 0 0 0-.7 0zm6.3 6.2l-4.4 4.5a.5.5 0 0 0 0 .7l4.4 4.6c.2.2.6.2.8 0l4.4-4.2a.5.5 0 0 0 0-.7l-4.4-4.9a.5.5 0 0 0-.8 0zm7 7l-4.4 4.5a.5.5 0 0 0 0 .7l4.4 4.5a.5.5 0 0 0 .7 0l4.4-4.1a.5.5 0 0 0 0-.7l-4.4-4.9a.5.5 0 0 0-.7 0zm6.7 6.8l-4.4 4.4a.5.5 0 0 0 0 .7l4.5 4.6c.2.2.5.2.7 0l4.4-4.1a.5.5 0 0 0 0-.8l-4.4-4.8a.5.5 0 0 0-.8 0zm6.8 6.7l-4.4 4.5a.5.5 0 0 0 0 .7l4.4 4.6c.2.2.6.2.8 0l4.4-4.2a.5.5 0 0 0 0-.7l-4.4-4.9a.5.5 0 0 0-.8 0zm6.7 6.8l-4.4 4.4c-.2.2-.2.6 0 .8l4.5 4.5c.2.2.5.2.7 0l4.4-4.1a.5.5 0 0 0 0-.8l-4.4-4.8a.5.5 0 0 0-.8 0zm-82-68.3l-3.6 3.5a1.1 1.1 0 0 0 0 1.6l3.6 3.7a1.1 1.1 0 0 0 1.6 0l3.6-3.3a1.1 1.1 0 0 0 0-1.6l-3.6-4a1.1 1.1 0 0 0-1.6 0zm-14 14l-3.6 3.6a1.1 1.1 0 0 0 0 1.6l3.6 3.7a1.1 1.1 0 0 0 1.6 0l3.5-3.3c.5-.5.5-1.2 0-1.6l-3.6-4a1.1 1.1 0 0 0-1.6 0zm20.6-7.4l-3.5 3.6a1.1 1.1 0 0 0 0 1.5l3.6 3.7a1.1 1.1 0 0 0 1.6 0l3.5-3.3a1.1 1.1 0 0 0 0-1.6l-3.6-4a1.1 1.1 0 0 0-1.6 0zm7 7l-3.6 3.5a1.1 1.1 0 0 0 0 1.6l3.6 3.7a1.1 1.1 0 0 0 1.6 0l3.5-3.3a1.1 1.1 0 0 0 .1-1.6l-3.6-4a1.1 1.1 0 0 0-1.7 0zm7 7l-3.6 3.6a1.1 1.1 0 0 0 0 1.5l3.7 3.7a1.1 1.1 0 0 0 1.5 0l3.6-3.3a1.1 1.1 0 0 0 0-1.6l-3.6-4a1.1 1.1 0 0 0-1.6 0zm-27.8-.2l-3.6 3.6a1.1 1.1 0 0 0 0 1.6l3.6 3.7a1.1 1.1 0 0 0 1.6 0l3.6-3.3a1.1 1.1 0 0 0 0-1.6l-3.6-4a1.1 1.1 0 0 0-1.6 0zm7 7l-3.6 3.5a1.1 1.1 0 0 0 0 1.6l3.6 3.7c.4.5 1.1.5 1.6 0l3.5-3.3a1.1 1.1 0 0 0 0-1.6l-3.5-4a1.1 1.1 0 0 0-1.7 0zm7 7l-3.6 3.6a1.1 1.1 0 0 0 0 1.6l3.6 3.7c.5.4 1.2.4 1.6 0l3.6-3.3a1.1 1.1 0 0 0 0-1.6l-3.6-4a1.1 1.1 0 0 0-1.6 0zm20.8-6.8l-3.5 3.6a1.1 1.1 0 0 0 0 1.6l3.6 3.7a1.1 1.1 0 0 0 1.6 0l3.5-3.3a1.1 1.1 0 0 0 0-1.6l-3.5-4a1.1 1.1 0 0 0-1.7 0zm7 7l-3.5 3.6a1.1 1.1 0 0 0 0 1.6l3.6 3.7a1.1 1.1 0 0 0 1.6 0l3.6-3.3a1.1 1.1 0 0 0 0-1.6l-3.6-4a1.1 1.1 0 0 0-1.6 0zm7.5 6.6l-4.4 4.5a.5.5 0 0 0 0 .7l4.5 4.6a.5.5 0 0 0 .7 0l4.4-4.2a.5.5 0 0 0 0-.7l-4.4-4.9a.5.5 0 0 0-.8 0zm6.3 6.3l-4.4 4.4a.5.5 0 0 0 0 .8l4.4 4.5a.5.5 0 0 0 .7 0l4.4-4.2a.5.5 0 0 0 0-.7l-4.4-4.8a.5.5 0 0 0-.7 0zm7 7l-4.5 4.4a.5.5 0 0 0 0 .7l4.5 4.6c.2.2.5.2.7 0l4.4-4.2a.5.5 0 0 0 0-.7l-4.4-4.9a.5.5 0 0 0-.8 0zm6.7 6.7l-4.4 4.4a.5.5 0 0 0 0 .8l4.4 4.5c.2.2.6.2.8 0l4.4-4.1a.5.5 0 0 0 0-.8l-4.4-4.8a.5.5 0 0 0-.8 0zm-55.2-41l-3.6 3.6a1.1 1.1 0 0 0 0 1.6l3.6 3.7a1.1 1.1 0 0 0 1.6 0l3.6-3.3c.4-.5.4-1.2 0-1.6l-3.6-4a1.1 1.1 0 0 0-1.6 0zm7 7l-3.5 3.6a1.1 1.1 0 0 0 0 1.6l3.6 3.7a1.1 1.1 0 0 0 1.6 0l3.5-3.3a1.1 1.1 0 0 0 0-1.6l-3.5-4a1.1 1.1 0 0 0-1.7 0zm7 7l-3.5 3.7a1.1 1.1 0 0 0 0 1.6l3.6 3.7a1.1 1.1 0 0 0 1.6 0l3.5-3.4a1.1 1.1 0 0 0 0-1.6l-3.5-3.9a1.1 1.1 0 0 0-1.7 0zm7 7.1l-3.5 3.6a1.1 1.1 0 0 0 0 1.6l3.6 3.7a1.1 1.1 0 0 0 1.6 0l3.6-3.3a1.1 1.1 0 0 0 0-1.6l-3.6-4a1.1 1.1 0 0 0-1.6 0zm7.6 6.6l-4.4 4.5c-.2.2-.2.5 0 .7l4.4 4.6a.5.5 0 0 0 .7 0l4.4-4.2a.5.5 0 0 0 0-.7l-4.4-4.9a.5.5 0 0 0-.7 0zm6.2 6.2l-4.4 4.5c-.2.2-.2.5 0 .7l4.4 4.6a.5.5 0 0 0 .7 0l4.4-4.2a.5.5 0 0 0 0-.7l-4.3-4.8a.5.5 0 0 0-.8 0zm7 7l-4.4 4.5c-.2.2-.2.5 0 .7l4.4 4.6a.5.5 0 0 0 .7 0l4.4-4.2a.5.5 0 0 0 0-.7l-4.4-4.9a.5.5 0 0 0-.7 0zm6.7 6.8L456 176c-.2.2-.2.6 0 .8l4.4 4.5a.5.5 0 0 0 .8 0l4.4-4.1a.5.5 0 0 0 0-.8l-4.4-4.8a.5.5 0 0 0-.8 0zm13.5 0l-4.4 4.5a.5.5 0 0 0 0 .8l4.4 4.5a.5.5 0 0 0 .7 0l4.4-4.2a.5.5 0 0 0 0-.7l-4.4-4.8a.5.5 0 0 0-.7 0zm6.7 6.8l-4.4 4.5a.5.5 0 0 0 0 .7l4.4 4.6a.5.5 0 0 0 .8 0l4.4-4.2a.5.5 0 0 0 0-.7l-4.4-4.9a.5.5 0 0 0-.8 0zm-34.2-6.3l-4.2 4.2a.7.7 0 0 0 0 1l4.2 4.3a.7.7 0 0 0 1 0l4.2-4a.7.7 0 0 0 0-1l-4.2-4.5a.7.7 0 0 0-1 0zm6.7 6.7L449 183a.7.7 0 0 0 0 1l4.2 4.3a.7.7 0 0 0 1 0l4.1-3.9a.7.7 0 0 0 0-1l-4.1-4.5a.7.7 0 0 0-1 0zm6.8 6.8l-4.1 4.2a.7.7 0 0 0 0 1l4.1 4.3a.7.7 0 0 0 1 0l4.2-4a.7.7 0 0 0 0-1l-4.2-4.5a.7.7 0 0 0-1 0zm6.9 6.6l-4.4 4.5c-.2.2-.2.5 0 .7l4.4 4.6c.2.2.6.2.8 0l4.4-4.2a.5.5 0 0 0 0-.7l-4.4-4.8a.5.5 0 0 0-.8 0zm-68.8-82l-3.8 3.9a1.1 1.1 0 0 0 0 1.6l10.6 10.4c.4.5 1.1.5 1.5 0l4-3.7a1.1 1.1 0 0 0 0-1.6l-10.7-10.6a1.1 1.1 0 0 0-1.6 0zm69 68.2l-4.6 4.7c-.2.2-.2.5 0 .7l11.4 11.3a.5.5 0 0 0 .7 0l4.8-4.5a.5.5 0 0 0 0-.8l-11.6-11.4a.5.5 0 0 0-.7 0zm-48-33.7l-4.4 4.4a.5.5 0 0 0 0 .7l24.5 25.1c.3.2.6.2.8 0l4.8-4.5a.5.5 0 0 0 0-.7l-25-25a.5.5 0 0 0-.7 0z" fill="#464a5f" fill-rule="nonzero"/><path d="M401.7 147.8L382.4 167a2.9 2.9 0 0 0 0 4l35.7 36.8a2.9 2.9 0 0 0 4.1 0l20-19.5a2.9 2.9 0 0 0 0-4.1l-36.4-36.4a2.9 2.9 0 0 0-4 0z" fill-opacity=".1" fill-rule="nonzero"/><path d="M401.7 147l-19.3 19.2a2.9 2.9 0 0 0 0 4l35.7 36.9a2.9 2.9 0 0 0 4.1 0l20-19.6a2.9 2.9 0 0 0 0-4L405.8 147a2.9 2.9 0 0 0-4 0z" fill="#939498" fill-rule="nonzero"/><path d="M420.3 46l-4.9 34.3 90.9 90.6 4.6-34a6 6 0 0 0-1.7-5l-86.9-86.6a1.2 1.2 0 0 0-2 .7z" fill="#53b7e8" fill-rule="nonzero"/><ellipse cx="295.1" cy="682.4" rx="23.1" ry="3.2" fill="#53b7e8" fill-opacity=".1" transform="matrix(.4082 0 0 .41313 40 -63.2)"/><ellipse cx="206.6" cy="691.3" rx="23.1" ry="3.2" fill="#53b7e8" fill-opacity=".1" transform="matrix(.4082 0 0 .41313 40 -63.2)"/><ellipse cx="102.3" cy="679.2" rx="23.1" ry="3.2" fill="#53b7e8" fill-opacity=".1" transform="matrix(.4082 0 0 .41313 40 -63.2)"/><ellipse cx="242" cy="716.9" rx="16.4" ry="2.3" fill="#53b7e8" fill-opacity=".1" transform="matrix(.4082 0 0 .41313 40 -63.2)"/><ellipse cx="150.1" cy="714.6" rx="16.4" ry="2.3" fill="#53b7e8" fill-opacity=".1" transform="matrix(.4082 0 0 .41313 40 -63.2)"/><path d="M124.2 222.1s13.2-43.9-2-61.4a28.6 28.6 0 0 0-30.3-10 10.8 10.8 0 0 0-7 5.9c-2 4.4-1.6 11.6 12.7 20 24 14.1 25.6 33.5 25.6 33.5l1 12z" fill="#53b7e8" fill-rule="nonzero"/><path d="M175 570s95.6 29.8 74.1 157.8m-18.3-147.2s-13.1 8.9-9 22.2m-37.2-14.3s8-8.2 17.8-3.6m20 44.8s14.1-7.2 17.8 1.8m17.1 13.1s-10.6-.8-10.8 4.2" fill="none" stroke="#fff" stroke-width="1.2" transform="matrix(.4082 0 0 .41313 22.5 -78.5)"/><path d="M124.7 222.5s-15.5-32-19.7-31.2c-2 .3-3 2.3-3.4 4.4a13 13 0 0 0 .8 7.7 34.2 34.2 0 0 0 22.3 19z" fill="#53b7e8" fill-rule="nonzero"/><path d="M202.4 667.7s39.8 57.8 47.5 60.3" fill="none" stroke="#fff" stroke-width="1.2" transform="matrix(.4082 0 0 .41313 22.5 -78.5)"/><path d="M155.6 639.6h9.3" fill="none" stroke="#fff" stroke-width="1.2" transform="matrix(.4082 0 0 .41313 40 -63.2)"/><path d="M108.1 209.8l6 .2" fill="none" stroke="#fff" stroke-width=".5"/><path d="M175.6 643.8l-1.6 7.6m17.1 15.6l-.3 6.9" fill="none" stroke="#fff" stroke-width="1.2" transform="matrix(.4082 0 0 .41313 40 -63.2)"/><path d="M124.3 222.5s15.5-32 19.7-31.2c2 .3 3 2.3 3.4 4.4a13 13 0 0 1-.8 7.7 34.1 34.1 0 0 1-22.3 19z" fill="#53b7e8" fill-rule="nonzero"/><path d="M297.4 667.7S257.6 725.5 250 728" fill="none" stroke="#fff" stroke-width="1.2" transform="matrix(.4082 0 0 .41313 22.5 -78.5)"/><path d="M258 639.6h-9.3m-1.8 21.1l-14.6.7m5.7-17.6l1.6 7.6M222.5 667l.3 6.9" fill="none" stroke="#fff" stroke-width="1.2" transform="matrix(.4082 0 0 .41313 40 -63.2)"/><path d="M97.7 230a2.7 2.7 0 0 1-1-1.4c0-.6.2-1.1.7-1.4.6-.2 1.2.2 1.6.6.5.4 1 .9 1.6.8a2.5 2.5 0 0 1-.7-2.3 1 1 0 0 1 .2-.5c.3-.3.9-.2 1.2.1 1.2.9 1.6 2.5 1.6 4a7.6 7.6 0 0 0 0-1.7 1.7 1.7 0 0 1 .6-1.4 1.8 1.8 0 0 1 1-.2 1.9 1.9 0 0 1 1.4.4c.5.5.4 1.3 0 1.8a5.8 5.8 0 0 1-1.6 1.3 3.4 3.4 0 0 0-1.1 1v.3h-3.5a9.4 9.4 0 0 1-2-1.5zm59-13a2.7 2.7 0 0 1-.9-1.3 1.2 1.2 0 0 1 .6-1.3c.6-.2 1.2.2 1.7.6.4.4 1 .8 1.6.7a2.5 2.5 0 0 1-.8-2.3l.2-.4c.3-.4.9-.2 1.3 0 1.2.9 1.5 2.5 1.5 4a7.6 7.6 0 0 0 0-1.6 1.7 1.7 0 0 1 .6-1.5l1-.2a1.9 1.9 0 0 1 1.5.4c.4.5.3 1.3 0 1.9-.5.5-1 1-1.6 1.2a3.6 3.6 0 0 0-1.1 1.1.9.9 0 0 0-.1.2h-3.4a9.4 9.4 0 0 1-2-1.4zM137 230a2.7 2.7 0 0 1-.9-1.4c0-.6.2-1.1.7-1.4.5-.2 1.1.2 1.6.6.5.4 1 .9 1.6.8a2.5 2.5 0 0 1-.8-2.3 1 1 0 0 1 .2-.5c.4-.3 1-.2 1.3.1 1.2.9 1.5 2.5 1.5 4a7.6 7.6 0 0 0 0-1.7 1.7 1.7 0 0 1 .7-1.4 1.8 1.8 0 0 1 .9-.2 1.9 1.9 0 0 1 1.5.4c.5.5.3 1.3 0 1.8a5.8 5.8 0 0 1-1.6 1.3 3.4 3.4 0 0 0-1.1 1l-.1.3H139a9.4 9.4 0 0 1-2-1.5zm-55.8-26s-1.2 1.6.6 4.2c1.9 2.5 3.4 4.6 2.8 6.2 0 0-2.8-4.7-5.1-4.8-2.3 0-.8-2.8 1.7-5.6z" fill="#53b7e8" fill-rule="nonzero"/><path d="M81.2 204a2 2 0 0 0-.2.5c-2.3 2.6-3.4 5-1.3 5.1 2 .1 4.4 3.7 5 4.6l-.1.2s-2.8-4.7-5.1-4.8c-2.3 0-.8-2.8 1.7-5.6z" fill-opacity=".1" fill-rule="nonzero"/><path d="M78.9 206.1l.1 1s.2-.4.2-1-.1-.3-.2-.3c0 0-.1-.3-.1.3zM78 206.8l1 .4s-.3-.4-.8-.7c-.5-.2-.3 0-.3 0 0 .1-.3 0 .2.3z" fill="#ffd037" fill-rule="nonzero"/><path d="M87.9 204s1.3 1.6-.6 4.2c-1.8 2.5-3.4 4.6-2.7 6.2 0 0 2.7-4.7 5-4.8 2.3 0 .8-2.8-1.7-5.6z" fill="#53b7e8" fill-rule="nonzero"/><path d="M87.9 204l.3.5c2.2 2.6 3.3 5 1.2 5.1-2 .1-4.3 3.7-5 4.6l.2.2s2.7-4.7 5-4.8c2.3 0 .8-2.8-1.7-5.6z" fill-opacity=".1" fill-rule="nonzero"/><path d="M90.3 206.1c0 .6-.1 1-.2 1l-.1-1c0-.6 0-.3.1-.3s.1-.3.1.3z" fill="#ffd037" fill-rule="nonzero"/><path d="M91 206.8c-.4.3-.9.5-1 .4l1-.7c.4-.2.2 0 .3 0 0 .1.3 0-.2.3z" fill="#ffd037" fill-rule="nonzero"/><path d="M89.8 214.2s-3.5-.1-4.6-.9c-1-.8-5.4-1.7-5.7-.5-.3 1.3-5.3 6.2-1.3 6.2s9.3-.6 10.3-1.3c1.1-.6 1.3-3.5 1.3-3.5z" fill="#a8a8a8" fill-rule="nonzero"/><path d="M78.1 218.6c4 0 9.3-.7 10.4-1.3.8-.5 1.1-2.3 1.2-3.1h.1s-.2 2.9-1.2 3.5c-1.1.7-6.4 1.3-10.4 1.3-1.1 0-1.5-.4-1.5-1 .2.3.6.6 1.4.6z" fill-opacity=".2" fill-rule="nonzero"/><path d="M215.6 371.2c-.2 4.2 3.4 9.8 3.4 9.8 1.1 2.6 14.6 15 14.6 15l10 6.6a55.9 55.9 0 0 1-6.3 4c-5 2.6-7.6 10.8-7.6 10.8s-7.4 17.7 7.6 20.2h.2l1.4 1.5a99 99 0 0 0 8.7 8.8c2.5 1.7 10.2 14.6 10.2 14.6s8.2 13.4 19 14c10.8.6 10.8-11.8 10-12.6a5 5 0 0 1-.7-1.7c2.6 4.2 6.1 9.6 7.3 10.4 1.9 1.2 8 11 8 11s7.7 17.6 9 19.4c1.2 2 3.4 11.2 3.4 11.2s4.4 13 6.4 14.7c2 1.7 3.1 7.9 3.1 7.9l7.6 10.9a66 66 0 0 1 3.4 7c1 2.4 3.5 5.6 3.5 7.7 0 2.2 7.2 6 7.2 6s5.2 6 8.2 7.1c3 1.1 5.8 8.2 6.2 7.8.3-.2.6-.2 1-.2l1.1 1.2c4.8 4.8 14.3 14.2 16.7 16.4 3.3 3 10.9 3.4 17.1 2.2 3.3-.7 7.2-3.7 10.2-6.5a7 7 0 0 0 .2-10.1c-3-3-6.5-6.1-8-6.6a47 47 0 0 1-14.6-11.2c-2-2.4-5.5-4.7-8.5-6.4l-.3-.2a31.2 31.2 0 0 1-1-5.2c-.1-1.8 5.2-11.7 2.4-12.3-2.8-.6-13.5-19.1-13.5-19.1-.1-14-13-25.8-13-25.8s-6.4-15.3-8.3-18.5a5 5 0 0 1 0-5.6c1.1-1.7-3.6-2.8-4.2-4.2-.7-1.4-3.6-12-3.6-12s-3.7-6.4-3.8-9.4c-.2-3-7.2-11.2-7.2-11.2s-2.9-13.8-6-16.3c-.6-.5-.5-2.3 0-5l.1-.1.5-.5.2-.1a51.3 51.3 0 0 0 4-4.5v-.1l.7-.7c4.5-6.3 7.3-21 7.3-21l2.1-1.1a19.7 19.7 0 0 0 4.5-3.1 1 1 0 0 0 .2-.3 1.4 1.4 0 0 0 0-.2.5.5 0 0 0 0-.1 1.3 1.3 0 0 0 0-.3v-.4-.4V383.7l-.2-.3a1 1 0 0 0 0-.1v-.4l-.8-1.6-.2-.5c-.5-1-1-1.9-1.6-2.7 1-3.2 3.2-8.7 5.1-10.6 2.9-2.8-1.5-17.7-1.5-17.7s-1-10.6-2.2-13.7c-1.3-3.1 0-3.6-1-6.2-1.2-3-2.1-2.8-.6-9.7.6-2.6 1.5-5.4 2.4-8l1 .9c5.8 5.4 14.9 12.6 14.9 12.6s17.9 16.1 19.4 16.6c1.6.5 6.3 16.3 6.3 16.3s-1 26.3 13.3 27.4c6.2.5 8.8-4.3 9.7-9.9a29.8 29.8 0 0 0-7-24.4L384 342l-7.7-13.7A139.3 139.3 0 0 1 364 304a68.1 68.1 0 0 0-15-22.3l-.7-.6.8-.8s-1.3-10.2-2.2-11.5c-1-1.2-4.4-8.4-4.4-10 0-1.6-2.2-1.8-3.4-3.7 0 0-2.2-4.3-4.3-5a3 3 0 0 1-1-.6 22.5 22.5 0 0 0-12.8-5.6l-1.2-.1a69.9 69.9 0 0 0-8.4.1c-2.2-.6-3.8-2.3-5.4-3.8a42.4 42.4 0 0 0-8.8-6c-3.3-1.7-7-3-10.6-2.4-2.8.5-5.4 2-8.1 2.8-4 1.1-8.8.9-11.3 4.1-1.2 1.6-1.5 3.6-2.6 5.2-1.6 2.3-4.5 3.3-6.1 5.5a8.5 8.5 0 0 0-1.4 5.6 15.3 15.3 0 0 0 .5 4.6l1 4a5 5 0 0 1-.2.7c-.2 1-.7 1.8-1 2.8a5 5 0 0 0 0 1.6c-.3 2.4 1.3 4.7 2.3 6.9a18.4 18.4 0 0 1 1.6 5.5 51.9 51.9 0 0 0-7.6 2.9 21.6 21.6 0 0 0-8.4 6.4 42.7 42.7 0 0 1-11.3 11 88.8 88.8 0 0 0-3.5 10.2c-1 4-1.9 10.6-4.7 14-2.8 3.4-4.1 13.6-4.1 13.6s-3.8 6-3.8 7.3-.5 7 0 8.7a5.1 5.1 0 0 0 1.1 1.4l-.3 1c-1.3 4.6-3 11.2-3.1 13.8zm88.4-70l-.3 1v-1h.3zM268.3 434l-.5-.5-.3-.2.1-.4.7 1zm-26-63.7l.2-.3.7-1.4 6-4.9.8.7s-.7 6.6-2.2 6.3c-.4-.1-.5 1.4-.6 3.7-2.8-2.4-5-4-5-4z" fill="url(#_Linear1)" fill-rule="nonzero" transform="translate(67.1 -65.5) scale(.44843)"/><path d="M200 46.3s8.4-.8 10.4-.6h.6a9.8 9.8 0 0 1 5.5 2.6l.5.2c.9.3 1.9 2.2 1.9 2.2l-2.2 17c0 .3-4.4 7.9-4.4 7.9l-4.2 1.6-7.4 1-.2-3s3.6-2 3.2-6c-.4-4-3.6-23-3.6-23z" fill="#464353" fill-rule="nonzero"/><path d="M204.2 66.3s-1.8 8 0 10.7c1.8 2.6-17.7-4.3-17.7-4.3l-3.6-6.4 2.8-2.2c2.2-1.8 4.7-4 4.7-5 0-1.6 13.8 7.2 13.8 7.2z" fill="#ecb4b6" fill-rule="nonzero"/><path d="M204.2 66.3s-1.8 8 0 10.7c1.8 2.6-17.7-4.3-17.7-4.3l-3.6-6.4 2.8-2.2c2.2-1.8 4.7-4 4.7-5 0-1.6 13.8 7.2 13.8 7.2z" fill-opacity=".1" fill-rule="nonzero"/><circle cx="253.3" cy="242" r="26.6" fill-opacity=".1" transform="translate(86.5 -48.9) scale(.44843)"/><circle cx="253.3" cy="240.8" r="26.6" fill="#ecb4b6" transform="translate(86.5 -48.9) scale(.44843)"/><path d="M215.5 74c0 .4.9 1.3 2 2.4 2.6 2.4 6.6 5.6 6.6 5.6s7.8 7.1 8.5 7.3c.7.2 2.7 7.2 2.7 7.2s-.4 11.6 5.9 12.1c2.7.2 3.8-1.9 4.2-4.4a13.2 13.2 0 0 0-3-10.7l-3.8-4.4-3.4-6a61.4 61.4 0 0 1-5.4-10.8 30 30 0 0 0-6.6-9.8l-1.2-1.1-3.1 1s-3.5 10.2-3.4 11.5z" fill="#ecb4b6" fill-rule="nonzero"/><path d="M227.5 194.9l1.2 1.2 7.3 7.2c1.5 1.3 4.8 1.5 7.5 1a11 11 0 0 0 4.5-3 3 3 0 0 0 0-4.4 16 16 0 0 0-3.5-2.9c-1.2-.4-4.7-2.8-6.4-4.9-.8-1-2.4-2-3.6-2.8a27.2 27.2 0 0 0-2.2-1.1l-4.8 9.7z" fill="#c17174" fill-rule="nonzero"/><path d="M229.2 194.9a176.2 176.2 0 0 0 7.2 7.1c1.3 1.1 4 1.3 6.4.8 1-.2 2.3-1 3.4-2a3 3 0 0 0 0-4.5c-1-1-2-2-2.5-2.1-1-.4-4-2.5-5.5-4.2a11.5 11.5 0 0 0-3-2.4 22.8 22.8 0 0 0-2-1l-4 8.3z" fill-opacity=".1" fill-rule="nonzero"/><path d="M173 129.7a202.4 202.4 0 0 0 5.9 6.1c1 .8 4.4 6.5 4.4 6.5s3.6 5.9 8.3 6.2c4.8.2 4.8-5.3 4.4-5.6-.3-.3-.8-3.4-1.5-5.7-.5-1.7-4.8-5.8-6.8-7.7a72.7 72.7 0 0 0-1-1l-13.7 1.2z" fill="#c17174" fill-rule="nonzero"/><path d="M174 130.4a146 146 0 0 0 5.4 5.7c1 .7 4 5.9 4 5.9s3.3 5.3 7.6 5.6c4.3.2 4.3-4.8 4-5-.3-.4-.8-3.2-1.4-5.3a31.3 31.3 0 0 0-7.2-7.9l-12.4 1z" fill-opacity=".1" fill-rule="nonzero"/><path d="M173 129.7l2 2.3c6 .9 8.9-.1 8.9-.1s2.8-1.3 3.4-1.3c.2 0 .3-.5.4-1a72.7 72.7 0 0 0-1-1l-13.7 1z" fill-opacity=".1" fill-rule="nonzero"/><path d="M180.2 113.5s-3.7 3-5.9 4.2c-2.1 1-3.3 4.7-3.3 4.7s-3.2 7.8 3.3 8.9c6.5 1 9.6 0 9.6 0s2.8-1.2 3.4-1.3c.6 0 .6-6 2.9-7.8l7.5-5.8-17.5-3z" fill="#5e5a6b" fill-rule="nonzero"/><path d="M180.2 113.5s-3.7 3-5.9 4.2c-2.1 1-3.3 4.7-3.3 4.7s-3.2 7.8 3.3 8.9c6.5 1 9.6 0 9.6 0s2.8-1.2 3.4-1.3c.6 0 .6-6 2.9-7.8l7.5-5.8-17.5-3z" fill-opacity=".1" fill-rule="nonzero"/><path d="M215.5 104s2.7 3.7 1.9 4.6c-.9.9-3 1.8-3 1.8s-1.2 6.6-3.2 9.3c-2 2.8-5.9 5.8-5.9 5.8l2.8-15.3 7.4-6.1z" fill="#5e5a6b" fill-rule="nonzero"/><path d="M205.4 125.5a45.3 45.3 0 0 0 3.5-3.1 22 22 0 0 0 2.3-2.7c2-2.7 3.3-9.3 3.3-9.3s2-1 2.9-1.8c.5-.5-.3-2-1-3.2l-.9-1.3-3.9 3.2-3.5 2.9-1 5.9-1.7 9.4zm22.1 69.4l1.2 1.2h1.9s5.6-6.6 4.7-7.8a5.7 5.7 0 0 1-.8-2 27.2 27.2 0 0 0-2.2-1.1l-4.8 9.7z" fill-opacity=".1" fill-rule="nonzero"/><path d="M185.1 124.6c0 1.2 9.3 15.4 9.3 15.4s3.7 6.2 4.5 6.8c.8.5 3.5 4.8 3.5 4.8s3.4 7.8 4 8.6c.5.8 1.4 5 1.4 5s2 5.6 2.8 6.4c1 .7 1.4 3.5 1.4 3.5l3.3 4.8a29.5 29.5 0 0 1 1.5 3c.4 1.1 1.5 2.5 1.5 3.5s3.2 2.6 3.2 2.6 2.2 2.7 3.5 3.2c1.3.4 2.6 3.6 2.8 3.4.2-.2 2.5 0 2.5 0s5.6-6.7 4.7-7.8c-1-1.2-1.1-4-1.1-4s2.2-5.1 1-5.4c-1.2-.2-5.9-8.4-5.9-8.4 0-6.2-5.7-11.4-5.7-11.4s-2.8-6.7-3.6-8.1a2.2 2.2 0 0 1 0-2.5c.5-.8-1.6-1.2-1.9-1.9l-1.5-5.2s-1.6-2.9-1.7-4.2c0-1.3-3.1-4.9-3.1-4.9s-1.3-6.1-2.6-7.2c-.3-.2-.3-1 0-2.2.6-3 2.6-8.6 4-12.3l1.4-3.5-2.7.7-22.6 5.6-2.3 6.4c-.8 2.4-1.6 4.8-1.6 5.3z" fill="#5e5a6b" fill-rule="nonzero"/><path d="M229 180.8s7-2.8 3.5.7c-3.4 3.5-10.1 3.3-10.1 3.3l6.6-4zm-12.1-14s-4 2.2-3.3 4.3c.8 2.1 3.3-4.3 3.3-4.3zm-4-17a4.2 4.2 0 0 1-4 2c-2.8 0 4-2 4-2zm-37.3-30.6s1.5 4.7 0 5c-1.5.4 0-5 0-5zM215.5 74c0 .5.9 1.4 2 2.5.7-2 1.3-4 1-4.7-.6-1 1.5-3 1.2-4.3-.3-1 2.2-3.7 3.5-5l-1.2-1-3.1 1s-3.5 10.2-3.4 11.5zm-28.8 45.4c2.6-.1 8.7-2 8.7-2s7-.3 11.7-1.2c2.2-.4 3.8-1 3.8-2s1-2.6 2-4l2.3-2.6c.4-.4.8-1 1-1.5l.2-.6-.9-1.3-3.9 3.2-22.6 5.6-2.3 6.4z" fill-opacity=".1" fill-rule="nonzero"/><path d="M179.2 114.8s5 3 6.6 3.6c1.5.6 9.6-2 9.6-2s15.5-.5 15.5-3c0-2.1 3-5.3 4.3-6.7l1-1.6c.4-1.3 1.4-3.8 2.3-4.7 1.2-1.2-.7-7.8-.7-7.8s-.4-4.7-1-6c-.5-1.4 0-1.6-.4-2.8-.6-1.3-1-1.2-.3-4.3s2.4-6.8 1.8-7.8c-.5-1 1.6-3 1.2-4.4-.4-1.3 4.2-5.5 4.2-5.5s-.6-4.4-1-5c-.4-.6-2-3.7-2-4.4 0-.7-.9-.8-1.4-1.7s-7 21.3-7 21.3l-9.1 2.1-.6.1s-5.2.3-8.6-1.6c0 0-6-1-7.8-10.7-1.5.3-3 .8-4.3 1.5a9.5 9.5 0 0 0-3.7 2.9 18.7 18.7 0 0 1-5 4.8 40 40 0 0 0-1.4 4.5c-.4 1.8-.9 4.7-2 6.2-1.3 1.5-1.9 6-1.9 6L180 99.1s-.3 2.8-1 2.7c-.7-.1.3 13 .3 13z" fill="#464353" fill-rule="nonzero"/><path d="M181.5 64l6.6 13.7s2.8 1.8 3.7.8c1-1 4.6-1 4.6-1l.5 1 7-1.6-1.1-2.2h-.5s-5.3.3-8.7-1.6c0 0-5.9-1-7.8-10.7a22.6 22.6 0 0 0-4.3 1.6z" fill-opacity=".1" fill-rule="nonzero"/><path d="M181.5 63.4l6.6 13.8s2.8 1.8 3.7.8c1-1 4.6-1 4.6-1l.5 1 7-1.7-1.1-2.2-.5.1s-5.3.3-8.7-1.6c0 0-5.9-1-7.8-10.7-1.5.3-3 .8-4.3 1.5z" fill="#464353" fill-rule="nonzero"/><path d="M184.4 103.4s14.6 4.6 15.7 5.2c1 .6-15.6-3.6-15.7-5.2zm9.2 7s-3.8 2.2-5.2 1.4c-1.4-.7 5.2-1.4 5.2-1.4zm12-25.4s3.7 19.7-1.7 25.4l1.7-25.4zm6-29.7a4.1 4.1 0 0 0 .2-5.4l-1.5-1.5a6.7 6.7 0 0 0-.7-1.2c-.7-.8-1.9-.6-2.9-.9-1-.3-1.6-1-2.3-1.6a18.5 18.5 0 0 0-3.9-2.7c-1.4-.8-3-1.3-4.6-1-1.2.1-2.3.8-3.5 1.2-1.8.5-3.9.4-5 1.8-.5.7-.6 1.6-1.1 2.3-.7 1-2 1.4-2.7 2.4-.8 1.1-.7 2.6-.4 4 .2.8.6 1.7.4 2.6-.1.4-.4.8-.4 1.2-.3 1.1.5 2.2 1 3.2a8 8 0 0 1 .7 3.6 1.6 1.6 0 0 0 0 .8l.6.5 2 1.3a.9.9 0 0 0 .4.1c.4 0 .7-.4 1-.7.6-.8 2-.8 2.9-.3 1 .5 1.8 1.2 2.7 1.7 2.3 1 5 0 7.5-.4a16.4 16.4 0 0 0 2.5-.6 11.7 11.7 0 0 0 2.2-1.1 7.8 7.8 0 0 0 1.8-1.5 2.7 2.7 0 0 0 .7-2.4c-.2-.8-.9-1.4-.8-2.2.3-1.4 2.4-2.2 3.3-3.2z" fill-opacity=".1" fill-rule="nonzero"/><path d="M211.7 54.8a4.1 4.1 0 0 0 .1-5.4c-.4-.6-1-1-1.5-1.6a6.9 6.9 0 0 0-.7-1.2c-.7-.7-1.9-.5-2.9-.8-1-.3-1.6-1-2.3-1.7a18.3 18.3 0 0 0-3.9-2.7c-1.4-.7-3-1.3-4.6-1-1.2.2-2.3.9-3.5 1.2-1.8.5-3.9.4-5 1.8-.5.7-.6 1.6-1.1 2.3-.7 1-2 1.5-2.7 2.4-.8 1.1-.7 2.7-.4 4 .2.8.6 1.7.4 2.6-.1.4-.4.8-.4 1.2-.3 1.1.5 2.2 1 3.2a8 8 0 0 1 .7 3.6l.1.9c.1.2.3.3.6.4l2 1.3.3.2c.4 0 .7-.4 1-.7.6-.9 2-.8 3-.3.9.4 1.7 1.2 2.7 1.6 2.3 1 4.9.2 7.4-.3a17 17 0 0 0 2.5-.6 11.7 11.7 0 0 0 2.2-1.2 7.9 7.9 0 0 0 1.9-1.4 2.6 2.6 0 0 0 .6-2.5c-.2-.7-.9-1.3-.7-2.1.2-1.5 2.3-2.3 3.2-3.2z" fill="#464353" fill-rule="nonzero"/><path d="M164.9 102c-.1 1.9 1.5 4.3 1.5 4.3.4 1.2 6.3 6.6 6.3 6.6l4.7 3.2s6.3 3.8 7.7 4.5c.8.3 1.6 1.8 2.2 3.2l1 2.7a6.2 6.2 0 0 0 5.2-5.5c.2-1.7.3-3.3.2-3.4-.4 0-4.2-2.9-4.2-2.9s-4.5-2.9-6-5.8c-1.4-2.8-7-7.2-7-7.2l.1-.2.3-.6.7-2.3-10.7-4.8-.6 2.1c-.6 2-1.4 5-1.4 6.1z" fill="#ecb4b6" fill-rule="nonzero"/><path d="M166.2 96a59.7 59.7 0 0 0 6.6 5.5c.6.4 3 .1 3.8 0l.3-.6.7-2.2-10.7-4.9-.7 2.1z" fill-opacity=".1" fill-rule="nonzero"/><path d="M177 87.6s5.4 3.3 5.2 4.7c-.3 1.5-2.7 6.4-2.7 6.4L177 101s-3.3.5-4.2 0c-.8-.5-6.6-5.3-6.8-6-.2-.8 0-3.3 0-3.9 0-.5 1.6-3.2 1.6-3.2l2.4-4.3 7 4z" fill="#464353" fill-rule="nonzero"/><path d="M195.4 117.3l1.6 4.3-2.7 2.6-.1.7-6 3.5-2-4.8 9.2-6.3z" fill-opacity=".1" fill-rule="nonzero"/><path d="M195.4 117l1.6 4.3-2.7 2.6-.1.8-6 3.4-2-4.8 9.2-6.3z" fill="#5e5a6b" fill-rule="nonzero"/><path d="M208.6 57.6a1.6 1.6 0 0 1-.1-.8c.2-1.4 2.3-2.2 3.2-3a4 4 0 0 0 1-2.3 4 4 0 0 1-1 3.3c-.9.8-2.7 1.6-3.1 2.8zM183.2 56c.2.7.6 1.5 1 2.2a8 8 0 0 1 .7 3.5l.1.8c.1.2.3.4.6.5l2 1.3a.8.8 0 0 0 .3.2c.4 0 .7-.4 1-.7.6-.9 2-.8 3-.3.9.4 1.7 1.2 2.7 1.6 2.3 1 4.9.2 7.4-.3.8-.2 1.7-.3 2.5-.6s1.5-.7 2.2-1.2a7.9 7.9 0 0 0 1.9-1.4 3 3 0 0 0 .6-1.3 2.7 2.7 0 0 1-.6 2.3 8 8 0 0 1-2 1.5c-.6.5-1.3.9-2.1 1.2a17 17 0 0 1-2.5.6c-2.5.4-5.1 1.4-7.4.3-1-.4-1.8-1.2-2.8-1.6-1-.5-2.3-.6-3 .2-.2.4-.5.8-.9.8a.9.9 0 0 1-.3-.2l-2-1.3a1.6 1.6 0 0 1-.6-.5 1.6 1.6 0 0 1-.1-.8 8 8 0 0 0-.7-3.5c-.5-1-1.2-2.1-1-3.2a.7.7 0 0 1 0-.1zm0-4.9c.3.9.6 1.7.4 2.6 0-.5-.2-1-.4-1.5a6.5 6.5 0 0 1-.2-2.3l.2 1.2z" fill-rule="nonzero"/><circle cx="21.6" cy="133.1" r="21.6" fill="#53b7e8" fill-opacity=".1" transform="translate(51.1 .2) scale(.31943)"/><circle cx="608.7" cy="42" r="21.6" fill="#53b7e8" fill-opacity=".1" transform="translate(153.1 .2) scale(.31943)"/><circle cx="951.9" cy="127.4" r="21.6" fill="#53b7e8" fill-opacity=".1" transform="translate(153.1 .2) scale(.31943)"/><circle cx="64.9" cy="252.5" r="36.3" fill="#53b7e8" fill-opacity=".1" transform="translate(51.1 .2) scale(.31943)"/><circle cx="507.6" cy="789.5" r="36.3" fill="#53b7e8" fill-opacity=".1" transform="translate(74.1 .2) scale(.31943)"/><circle cx="990.5" cy="768.6" r="36.3" fill="#53b7e8" fill-opacity=".1" transform="translate(196.1 .2) scale(.31943)"/><defs><linearGradient id="_Linear1" x2="1" gradientUnits="userSpaceOnUse" gradientTransform="rotate(-90 457.6 146) scale(372.13)"><stop offset="0" stop-color="gray" stop-opacity=".2"/><stop offset=".5" stop-color="gray" stop-opacity=".1"/><stop offset="1" stop-color="gray" stop-opacity=".1"/></linearGradient></defs></svg>