<svg viewBox="0 0 600 264" xmlns="http://www.w3.org/2000/svg" fill-rule="evenodd" clip-rule="evenodd" stroke-miterlimit="10"><path fill="none" d="M0 0h600v264H0z"/><path d="M572.3 212.3l-1.6.7a68.2 68.2 0 0 1-6.4 2.4 190.6 190.6 0 0 1-39.7 6.8c-31.2 2.8-63 3.3-94.8 3.9-85.7 1.4-171.6 2.8-257-.5a578.7 578.7 0 0 1-99-10.2 253 253 0 0 1-12.8-3.2c-8.5-2.3-16.7-5.1-23.5-8.6a41 41 0 0 1-14.7-11c-6.5-8.7-3-18.4 4.3-27 3-3.4 6.5-6.7 10.4-9.9 5.7-4.7 12-9.4 17.7-14.2 20.4-17 33.7-38.6 14.9-56-5.4-5-13.3-9.5-17.7-14.7-5.6-6.7-5.2-14.1-3.4-21.4l.7-2.7a40 40 0 0 1 26.6-29c18.4-7 44.6-6.6 67.4-4 35.6 3.8 68.4 11.9 101.5 19.2a531 531 0 0 0 104.3 14.7c32.2.6 69.7-4.1 91-16.5 20.8-12 59.7-12.8 87.8-5.6 19.3 5 33.7 13.9 39.8 24 1.2 2 2 4 2.6 6.2a17.8 17.8 0 0 1 0 8.7c-4.7 19.9-38.5 35.5-59 53.2-10 8.7-17.1 19-10.2 28.4 10.5 14.2 47 19.3 69.2 29.9 4.1 1.9 7.8 4.2 10.9 6.8 10.7 9.4 6.7 22.1-9.3 29.6z" fill="#487cb6" fill-opacity=".1" fill-rule="nonzero"/><path d="M210.8 101.3S197 77 176.5 70c-8.7-3-16.2-8.5-21.4-16a70.7 70.7 0 0 1-6.3-11.3" fill="none" stroke="#535461" stroke-width=".6"/><path d="M135.9 38.3c2.3 2.2 13.3 4.6 13.3 4.6s-2.7-10.8-5-13.1a6 6 0 0 0-4.1-1.6 6 6 0 0 0-4.2 10zm6.2 19.6c3.2.7 13.6-3.3 13.6-3.3s-8.1-7.7-11.3-8.3a5.9 5.9 0 0 0-7 5.8 6 6 0 0 0 4.7 5.8zm22.5 21.3c3-1 10-9.8 10-9.8S163.9 67 160.8 68a6 6 0 0 0-4.2 5.6 6 6 0 0 0 8 5.6zm20.6 12.2c3.3-.5 11.7-7.9 11.7-7.9s-10.4-4.3-13.6-3.8a6 6 0 0 0-5 5.9 6 6 0 0 0 7 5.8zm-20.4-45.3c0 3.3-5.9 12.8-5.9 12.8S153 49.4 153 46V46a6 6 0 0 1 6-6 6 6 0 0 1 5.8 6v.1zm24 14.6c-1 3.2-9.4 10.5-9.4 10.5s-2.9-10.9-1.9-14a6 6 0 0 1 5.6-4 6 6 0 0 1 5.7 7.5zm21.4 17.5c-.5 3.2-7.6 11.8-7.6 11.8s-4.6-10.2-4.1-13.4a6 6 0 0 1 5.8-5 6 6 0 0 1 5.9 6.6z" fill="#487cb6" fill-rule="nonzero"/><path d="M135.9 38.3c2.3 2.2 13.3 4.6 13.3 4.6s-2.7-10.8-5-13.1a6 6 0 0 0-4.1-1.6 6 6 0 0 0-4.2 10zm6.2 19.6c3.2.7 13.6-3.3 13.6-3.3s-8.1-7.7-11.3-8.3a5.9 5.9 0 0 0-7 5.8 6 6 0 0 0 4.7 5.8zm22.5 21.3c3-1 10-9.8 10-9.8S163.9 67 160.8 68a6 6 0 0 0-4.2 5.6 6 6 0 0 0 8 5.6zm20.6 12.2c3.3-.5 11.7-7.9 11.7-7.9s-10.4-4.3-13.6-3.8a6 6 0 0 0-5 5.9 6 6 0 0 0 7 5.8zm-20.4-45.3c0 3.3-5.9 12.8-5.9 12.8S153 49.4 153 46V46a6 6 0 0 1 6-6 6 6 0 0 1 5.8 6v.1zm24 14.6c-1 3.2-9.4 10.5-9.4 10.5s-2.9-10.9-1.9-14a6 6 0 0 1 5.6-4 6 6 0 0 1 5.7 7.5zm21.4 17.5c-.5 3.2-7.6 11.8-7.6 11.8s-4.6-10.2-4.1-13.4a6 6 0 0 1 5.8-5 6 6 0 0 1 5.9 6.6z" fill-opacity=".3" fill-rule="nonzero"/><path d="M210 100.8s-2.7-27.7-18.7-42.4a42.1 42.1 0 0 1-13-23.3 70.8 70.8 0 0 1-1.2-13" fill="none" stroke="#535461" stroke-width=".6"/><path d="M167 12.8c1.3 3 10.3 9.7 10.3 9.7s2-11 .7-14a6 6 0 0 0-5.5-3.8 6 6 0 0 0-5.5 8.1zm-2.3 20.5c2.7 1.9 13.9 2.5 13.9 2.5s-4.4-10.3-7-12.2a6 6 0 0 0-3.5-1 6 6 0 1 0-3.4 10.8zm12 28.6C180 62 190 57 190 57s-9-6.7-12.2-7a5.9 5.9 0 0 0-.6 0 6 6 0 0 0-6 6 6 6 0 0 0 5.6 5.9zm14 19.5c3.1.9 13.8-2.5 13.8-2.5s-7.7-8.1-10.9-9a6 6 0 0 0-1.4 0 6 6 0 0 0-6 5.8 6 6 0 0 0 4.4 5.7zm-.3-49.7c-1.4 3-10.6 9.3-10.6 9.3s-1.6-11-.3-14a6 6 0 0 1 5.5-3.7 6 6 0 0 1 5.4 8.4zm16 23.1a47 47 0 0 1-13 5.7s1.9-11 4-13.5a6 6 0 0 1 4.5-2 6 6 0 0 1 6 6 6 6 0 0 1-1.6 3.8zm12.4 24.6a47 47 0 0 1-11.7 7.8s0-11.2 1.6-14a6 6 0 0 1 5-2.8 6 6 0 0 1 6 6 6 6 0 0 1-.9 3z" fill="#487cb6" fill-rule="nonzero"/><ellipse cx="408.2" cy="837.2" rx="111.5" ry="14.5" fill="#487cb6" fill-opacity=".1" transform="translate(134 4.7) scale(.29725)"/><ellipse cx="182.9" cy="836.1" rx="33.9" ry="5.8" fill="#487cb6" fill-opacity=".1" transform="translate(134 4.7) scale(.29725)"/><path d="M190.6 234s1.7 2.2-.7 5.4-4.4 6-3.6 8c0 0 3.6-6 6.6-6.1 2.9-.1 1-3.7-2.3-7.3z" fill="#487cb6" fill-rule="nonzero"/><path d="M190.6 234l.4.7c2.8 3.4 4.4 6.5 1.6 6.6-2.6 0-5.6 4.6-6.4 5.8l.1.2c0 .1 3.6-6 6.6-6 2.9-.1 1-3.7-2.3-7.3z" fill-opacity=".1" fill-rule="nonzero"/><path d="M193.7 236.8c0 .7-.1 1.3-.2 1.3s-.2-.6-.2-1.3c0-.8.1-.4.2-.4s.2-.4.2.3z" fill="#ffd037" fill-rule="nonzero"/><path d="M194.7 237.6c-.6.4-1.2.6-1.3.5l1.1-.8c.7-.3.4 0 .5 0 0 .1.4 0-.3.3z" fill="#ffd037" fill-rule="nonzero"/><path d="M182 234s-1.6 2.2.8 5.4c2.3 3.2 4.3 6 3.5 8 0 0-3.6-6-6.5-6.1-3-.1-1-3.7 2.2-7.3z" fill="#487cb6" fill-rule="nonzero"/><path d="M182 234a2.6 2.6 0 0 0-.3.7c-2.9 3.4-4.4 6.5-1.7 6.6 2.6 0 5.7 4.6 6.4 5.8v.2c-.1.1-3.7-6-6.6-6-3-.1-1-3.7 2.2-7.3z" fill-opacity=".1" fill-rule="nonzero"/><path d="M179 236.8c0 .7 0 1.3.2 1.3s.1-.6.1-1.3c0-.8 0-.4-.2-.4s-.1-.4-.1.3z" fill="#ffd037" fill-rule="nonzero"/><path d="M178 237.6c.6.4 1.2.6 1.2.5l-1-.8c-.8-.3-.5 0-.5 0 0 .1-.4 0 .2.3z" fill="#ffd037" fill-rule="nonzero"/><path d="M179.5 247s4.6 0 6-1c1.3-1 7-2.2 7.3-.6.3 1.5 6.9 7.8 1.7 7.8-5.1 0-12-.8-13.3-1.6-1.4-.9-1.7-4.5-1.7-4.5z" fill="#a8a8a8" fill-rule="nonzero"/><path d="M194.6 252.7c-5.2 0-12-.8-13.4-1.7-1-.6-1.4-2.9-1.6-4h-.1s.3 3.7 1.7 4.6c1.3.8 8.1 1.7 13.3 1.6 1.5 0 2-.5 2-1.3-.2.5-.8.8-1.9.8z" fill-opacity=".2" fill-rule="nonzero"/><path d="M332 246.9s-12.6-.8-11.1 8c0 0-.3 1.6 1 2.3 0 0 .1-.7 1.4-.4h1.3a2.8 2.8 0 0 0 1.7-.7c.5-.4 3.5-1.4 5-7.2 0 0 1-1.2.9-1.6l-2.1 1s.7 1.5.1 2.7c0 0 0-2.7-.4-2.7l-1.1.6s1.2 2.7.3 4.6c0 0 .3-3.3-.7-4.4l-1.5.8s1.4 2.8.4 5c0 0 .3-3.4-.7-4.7l-1.4 1s1.4 2.7.5 4.6c0 0 0-4-.8-4.3 0 0-1.2 1-1.4 1.5 0 0 1 2 .4 3 0 0-.4-2.7-.6-2.7 0 0-1.2 1.8-1.3 3 0 0 0-1.8 1-3.2a3.5 3.5 0 0 0-1.8 1c-.5.4.1-1.3 2-1.4 0 0 1-1.4 1.3-1.4 0 0-2-.2-3 .3 0 0 1-1.2 3.3-.6l1.4-1.1s-2.5-.4-3.6 0c0 0 1.2-1 4-.3l1.4-.8s-2.2-.5-3.4-.3c0 0 1.3-.8 3.8 0l1-.5-2-.3c-.4 0-.5-.2-.5-.2a5.4 5.4 0 0 1 3 .3c1 .4 2.2-.8 2.2-1z" fill="#487cb6" fill-rule="nonzero"/><ellipse cx="636.6" cy="852" rx="29.9" ry="5.1" fill="#487cb6" fill-opacity=".1" transform="translate(134 4.7) scale(.29725)"/><path d="M310 247.4s-7.1-.5-6.3 4.5a1.2 1.2 0 0 0 .6 1.3c.5.2 0-.4.8-.3h.7c.4 0 .7 0 1-.3.2-.2 2-.8 2.7-4.1 0 0 .6-.7.6-.9l-1.2.5s.4.9 0 1.6c0 0 0-1.5-.2-1.5l-.6.3s.7 1.5.2 2.6c0 0 .2-1.9-.4-2.5l-.9.5s.9 1.5.3 2.8c0 0 .1-2-.4-2.7l-.8.6s.8 1.5.3 2.6c0 0 0-2.3-.5-2.5a4.7 4.7 0 0 0-.7.9c-.3.3.5 1 .2 1.7 0 0-.2-1.5-.4-1.5 0 0-.7 1-.7 1.6 0-.6.2-1.2.5-1.7a2 2 0 0 0-1 .5c-.3.3.1-.7 1.2-.8l.7-.8s-1 0-1.7.2c0 0 .5-.7 1.9-.4l.7-.6s-1.4-.2-2 0c0 0 .7-.5 2.3-.1l.8-.5a7.3 7.3 0 0 0-2-.2c-.6 0 .8-.4 2.2 0l.6-.2-1.1-.2h-.3a3 3 0 0 1 1.7 0c.5.3 1.2-.4 1.1-.4z" fill="#487cb6" fill-rule="nonzero"/><ellipse cx="575.2" cy="837.4" rx="16.9" ry="2.9" fill="#487cb6" fill-opacity=".1" transform="translate(134 4.7) scale(.29725)"/><path d="M323.4 236.8s-8.5-.5-7.5 5.5a1.5 1.5 0 0 0 .7 1.6c.6.2 0-.5 1-.3h.9a2 2 0 0 0 1-.5c.4-.2 2.5-1 3.4-4.9l.7-1-1.4.5s.4 1 0 2c0 0 0-2-.3-1.9l-.7.4s.8 1.8.2 3.1c0 0 .2-2.2-.5-3l-1 .6s1 1.9.3 3.4c0 0 .2-2.3-.5-3.3l-1 .8s1 1.8.4 3c0 0 0-2.7-.5-2.9l-1 1s.7 1.4.3 2c0 0-.3-1.7-.5-1.7 0 0-.8 1.2-.9 2a4.4 4.4 0 0 1 .7-2.2c-.4.1-.9.4-1.2.7-.3.3.1-.9 1.4-1l.9-1s-1.3 0-2.1.3c0 0 .7-.8 2.3-.4l1-.8s-1.8-.2-2.5 0c0 0 .8-.6 2.7-.1l1-.6s-1.5-.3-2.4-.2c0 0 1-.5 2.7 0l.7-.3-1.4-.2c-.3 0-.3-.2-.3-.2a3.7 3.7 0 0 1 2 .3c.6.2 1.5-.6 1.4-.7z" fill="#487cb6" fill-rule="nonzero"/><ellipse cx="617.2" cy="806.3" rx="20.4" ry="3.4" fill="#487cb6" fill-opacity=".1" transform="translate(134 4.7) scale(.29725)"/><path d="M1130 606.1V117H178.6v461a189.4 189.4 0 0 0 42 25.7 308 308 0 0 0 23 9.5h875l11.4-7z" fill="url(#_Linear1)" fill-rule="nonzero" transform="translate(121.6 -1.7) scale(.29725)"/><path d="M457 178.6V37.3H175.4v140.9a2.4 2.4 0 0 0 2.4 2.4h275.8l3.4-2z" fill="#fff" fill-rule="nonzero"/><path fill="#5a5773" d="M175.3 33.5H457V41H175.3z"/><circle cx="157.8" cy="109.5" r="6.5" fill="#fff" transform="translate(134 4.7) scale(.29725)"/><circle cx="175.3" cy="109.5" r="6.5" fill="#fff" transform="translate(134 4.7) scale(.29725)"/><circle cx="192.8" cy="109.5" r="6.5" fill="#fff" transform="translate(134 4.7) scale(.29725)"/><path fill="#487cb6" d="M247.3 57.4h46.5v29.2h-46.5z"/><path fill="#5a5773" fill-opacity=".2" d="M183 57.4h46.4v29.2H183zm128.7 0h46.5v29.2h-46.5zM183 99.2h46.5v29.2H183zm64.4 0h46.5v29.2h-46.5zm64.4 0h46.5v29.2h-46.5zM183 141h46.5v29.2H183zm64.4 0h46.5v29.2h-46.5zm64.4 0h46.5v29.2h-46.5z"/><path d="M551.4 445.2s-28.1-51.4-23.4-59.7c4.7-8.4 8.2-20.5 8.2-20.5s10.4-7.1 10.4-10c0-2.9 8.2-9.6 12.6-12.5s2.1-16.7 0-18.4c-2.2-1.7-5.6-7.5-5.6-7.5s3-8.4 0-10.9.4-5 0-7.5c-.5-2.5 0-11.7 0-11.7a18.8 18.8 0 0 0-11-8l-.4-1.3-1.9-7.8s9-17.3-5.6-26.3a24.3 24.3 0 0 0-3.2-1.7c-1.1-.5 0-.4 0-1.1-.3-2.6-.9-9-2.2-13.2-.8-2.4-1.7-4-3-3.7a2 2 0 0 0-.8.5 9.1 9.1 0 0 0-1.6 1.8c-.4.7 0 0 0 0a.4.4 0 0 1 0 .1 31.3 31.3 0 0 0-3.5 9.6 55.3 55.3 0 0 0-1 6 33 33 0 0 0-1.6 3.7c-1.8 4.6-3.9 12.5-.1 18.4l10.6 16.9.1.1.2.3-.3.2v.8l.3 4.2 2.4 36.4a15.4 15.4 0 0 0-2.2-.5 20.2 20.2 0 0 0-3.3-.2c-2-8.3-7.9-16-9-24.6a23 23 0 0 1-.1-2.7c0-5.4 1.4-10.9 1.3-16.3v-3l-.2-.9a24.6 24.6 0 0 0-13.3-18.6c-2.5-1.2-5.3-2-7.7-3.4-5.6-3.2-9.3-8.9-14.4-12.8-3.8-3-9.5-4.5-13.7-3-2.3.3-4.5.8-6.7 1.4a60.4 60.4 0 0 0-15.3 6.3l-2 1.3a8.5 8.5 0 0 0-3 3.6 9.5 9.5 0 0 0-.5 3.9v2.9c-.2 16-17.5 28.3-18.9 44v4c.2 6.9 3.7 13.3 4.4 20v1.9a30.3 30.3 0 0 1-1.7 9.2 26.9 26.9 0 0 0-6.2 2.5c-5.2 3.4-14.7 9.2-18.1 20.3a29.8 29.8 0 0 0-1.4 9 186.2 186.2 0 0 1-2.9 31.8 59.6 59.6 0 0 1-1.8 7.8 1.8 1.8 0 0 0 0 .8l-2.2 27-.3 4.7-.5 6.8a30.6 30.6 0 0 0 1.1 4.2c.6 2.3.7 4.7.3 7a4.8 4.8 0 0 1-1.4 2.6 1 1 0 0 0-.2.2c-.6.8-1.1 3.3-1.6 6.9l-.5 4.6c-1 10.7-1.6 26.6-2 39.8-.4 13-.5 23.3-.5 23.3a26.5 26.5 0 0 0 5.4 2.6l-.5 1.1a52.5 52.5 0 0 0-3.2 13.7c-.9 9.9 1.9 20.8 15.6 26.4a22.1 22.1 0 0 0 2.7 1c3 .7 5.2.5 6.8-.5l.1 1.7.3 6.6c.5 11.7 3.4 32.2 3.4 32.2s1 8.3.1 10.8 0 12.5 0 12.5 3 5 0 7.6c-3 2.5-3.9 15-3 16.7v.2c.7 4.1-3 65.8-3 65.8s-3.5 9.4-6.4 19.2c-2.7 9.5-4.8 19.4-2.2 21.3 1.2.9 4.2 1.6 7.9 2.1l-.1 1.3c-.4 4.4-1 9.1-1.8 10.3a121 121 0 0 0-3 22v.8a73.7 73.7 0 0 0-3.3 9.3c-.8 3.2-9.6 24-6.3 30.3a5.1 5.1 0 0 0 1.2 1.4c0 .2.2.2.3.3 4.6 3.7 16.1 4.5 20.3 4.7l-.1 5.9v.2h5.4v-.1l.3-8.8.1-2.6.1-2a37 37 0 0 0 2.4-13.4 58.6 58.6 0 0 1 2.1-15.5 43 43 0 0 1 2.8-7.6c1.1-2.4 1.7-9-.7-15.3a11.1 11.1 0 0 0-2-3.5v-2a57.7 57.7 0 0 1 1.3-12.8 1.3 1.3 0 0 1 0-.2l.2-1 .1-.2h1.8l9.4.2s4.3-22.2 3.9-31.8v-1.3c-.2-9.5 2.6-22.5 2.6-22.5l3.5-33.8s-1.7-5.9 0-10c1-2.6 3.3-7.4 4.8-10.7l1.5-3.3.2-.2a6.5 6.5 0 0 1-1.6-.8c-1.4-1-2.6-2.8 1.6-5.5 6.5-4.2 4.3-14.6 4.3-14.6s-1.9-3.8.4-7.1 0-15.9 0-15.9a52.5 52.5 0 0 0 4.4-10.4 624.2 624.2 0 0 0 8.6-47.6v.6l.1.6.6 5.6v.7l1 10.6s2 27.6.8 38.5v.2a12.8 12.8 0 0 1-.7 3.3c-2.3 5.2-2 25.8-1.8 30.4v1c0 .2-1.6 4-1.2 7 0 .8.3 1.5.8 2.1.6 1 .8 2.1.7 3.2v1.6a27.5 27.5 0 0 1-1.6 5.6c-.7 1.9-2.3 6.1-1.4 9.3 0 .5.3.8.5 1.2l.4 1.2a572 572 0 0 1-2.6 52.8l-.8 10.7-3.5 35.5.4.3 2 1.3v1.1c-.6 3.5-1.2 7.5-2 10.5l-.1.7a9.6 9.6 0 0 0-3.7 1.4c-7.3 13-4 23.2 0 26.2 1.2.8 2 3.2 2.5 6l1 13v1.5c0 .4 0 .8.2 1.1l.3 4 .4 5.4h3.3V849h.2c5.2.2 13.7.4 17.4.1l1-.1c.3 0 .5 0 .6-.2 2-.9 6.9-14.7 2.5-17.8-4.4-3.1-5.4-12-5.4-12l-1.1-3.3v-.7c-.1-4.3 0-9 .5-11.5.7-2.7 1-8.6 1.1-13.7v-1.2a17.1 17.1 0 0 0 2.3-.8h.1a15.7 15.7 0 0 0 3.8-2.2l12.2-54.3 1.3-6.3 7.3-35.9s-2.6-12.5 0-14.6c1-.7 1.2-4 1.2-7.7-.1-6.6-1.2-14.8-1.2-14.8s3.5-5.5 5.2-8.8c1.8-3.3 0-12.1 0-12.1l3.5-20.1s3.9-23.8 13.4-43.9c7-14.7 2.5-54.5-2-75.7l-.4-1.6v-.1l7.6-3.7 1-.5c3.6-1.7 7.3-3.4 10.7-4.8l.2-.1a74.5 74.5 0 0 1 7.4-2.8 12.5 12.5 0 0 1 2.3-.5c6-.4-12.1-32.1-12.1-32.1zm-135.3 68h1.8l-.6 1.1-.4.8a46 46 0 0 0-1.8 4 182.9 182.9 0 0 1 1-6zm-4.9 26a.8.8 0 0 0 0-.1l-.1-.5a17 17 0 0 1-.4-1l2-.6v.3a59.6 59.6 0 0 1-.1 1.6l-.1 1-.3 2.2-.6-1.9-.4-1z" fill="url(#_Linear2)" fill-rule="nonzero" transform="translate(121.6 -1.7) scale(.29725)"/><path d="M282.4 83l-3.2 1.2-1.1-2a508.9 508.9 0 0 0-3-5c-1.7-2.6.4-6.5.4-6.5s.4-4 1.8-5.2c1.3-1.3 1.7 5.2 1.7 5.2 5.4 2.4 2.5 8.3 2.5 8.3l.5 2.3.4 1.7z" fill="#efb7b9" fill-rule="nonzero"/><path d="M282.4 83l-3.2 1.2-1.1-2v-.1s1.8-1.3 4-.8l.3 1.7z" fill-opacity=".1" fill-rule="nonzero"/><path d="M277.3 96l1.6-1.3-.8-12.3s4.1-2.8 7.2 1.6v3.5c.1.7-.9 1.5 0 2.2.9.8 0 3.2 0 3.2s1 1.8 1.6 2.3c.6.5 1.2 4.6 0 5.4-1.2.9-3.6 2.9-3.6 3.7 0 .9-3 3-3 3l-2.6-3.4-.4-7.9z" fill="#ff6484" fill-rule="nonzero"/><path d="M242.5 170.4c-6-2.5-4.7-8.7-3.6-11.9l.8-1.8 3.4-2 1.4 4c1.7 5.5 3.7 14.1-2 11.7zm8.2 56.7a10.1 10.1 0 0 0-.9 2.5 18 18 0 0 0-.4 4.3c0 1 .2 1.6.2 1.6l-6.7 4.6v-1.3c.2-2.1.6-6 1-6.5.2-.4.3-1.8.4-3l.2-2.5s8-3 6.2.3zm15.8 3.3v2.8c0 1.5-.2 3.2-.4 4-.1.8-.2 2.2-.1 3.4l.1 2.9s-6.8-6.5-6-7l.4-1.4c.3-1 .4-2 .6-3.1l.3-2.2 5.1.6z" fill="#efb7b9" fill-rule="nonzero"/><path d="M250.7 227.1a10.1 10.1 0 0 0-.9 2.5 54.6 54.6 0 0 1-5.4-.4 67.8 67.8 0 0 0 .1-2.4s8-3 6.2.3zm15.8 3.3v2.8c-2.2.5-4.4-.6-5.4-1.2l.3-2.2 5.1.6z" fill-opacity=".1" fill-rule="nonzero"/><path d="M280.5 167.2c-2.7 6-3.9 13-3.9 13l-1 6s.5 2.5 0 3.5l-1.4 2.6s.7 6 0 6.7c-.8.6 0 4.3 0 4.3l-2.5 12.5-3.5 16.1c-3.3 2.7-7.8-.7-7.8-.7l1-10.5s1.5-18.5.9-19.2c-.6-.8.2-3.1.2-3.1s.9-2.3.3-3.1c-.6-.9.1-2.7.1-2.7s-.2-7.6.5-9.3c.7-1.8 0-12.5 0-12.5l-.3-3.3-.2-1.9v-.1l-.3 1.8c-.5 3.5-1.7 10.8-2.2 12.3a16 16 0 0 1-1.2 3c-.6 1 .6 3.8 0 4.8-.7 1-.1 2-.1 2s.6 3.2-1.3 4.4c-1.8 1.2 0 1.9 0 1.9l-1.8 4.2c-.5 1.2 0 3 0 3l-1 10s-.9 4.2-.8 7c.2 2.9-1 9.4-1 9.4s-9.6 0-11-1.1c-1.5-1.1 2.4-12 2.4-12s1.1-19 .8-19.5c-.2-.5 0-4.3 1-5 .8-.7 0-2.2 0-2.2s-.3-3 0-3.7c.2-.8-.1-3.3-.1-3.3s-.9-6-1-9.5c0-3.4-.7-11.2-.7-11.2s.6-4.9.7-7.2c0-.8.4-1.9 1-2.9a25.8 25.8 0 0 1 1.8-3.2c.7-1 29.3-8.7 30.5-7.8.3.2.8 1.8 1.3 4 1.3 6.3 2.6 18.1.6 22.5z" fill="#444053" fill-rule="nonzero"/><circle cx="431.7" cy="263.5" r="28.7" fill="#a1616a" transform="translate(134 4.7) scale(.29725)"/><path d="M279.9 144.7l-1.7.9s-13.8 6.6-17.8 6.2c-3-.3-10.8-.1-14.2 0a25.8 25.8 0 0 1 1.9-3.3c.7-1 29.3-8.7 30.5-7.8.3.2.8 1.8 1.3 4z" fill-opacity=".1" fill-rule="nonzero"/><path d="M256.5 96.7s-8 1.2-9.8 2.4c-1.9 1.3-5.6 3.6-5.6 8.7 0 5-.8 10.3-1.3 11.8-.5 1.4 7.8 13.4 7.8 13.4l-3 18.2s11.9-.3 15.8 0c4 .4 17.9-6.2 17.9-6.2s8.1-4.3 9.9-4.4c1.7-.1-3.5-9.5-3.5-9.5s-8-15.3-6.7-17.7c1.4-2.5 2.4-6.1 2.4-6.1l-1.5-12.6s-2.3-.8-4.1.6c-1.9 1.4-8.2.6-8.2.6l-10.1.8z" fill="#ff6484" fill-rule="nonzero"/><path d="M243 118.7l-3 .9-1 11.6s1.2 3 0 4c-1 1-1.3 22.2-1.3 22.2s3.6 2.6 7.8.7c0 0-.6-2.4 1.3-11 1.8-8.5 1.8-12.8 1.8-12.8s0-10.7.9-12.4c.8-1.7 0-6 0-6s-1.8-2.4-1.6-3.3c0-.8-4.9 6-4.9 6z" fill-opacity=".1" fill-rule="nonzero"/><path d="M244.5 158.7a8 8 0 0 1-5.6-.2l.8-1.8 3.4-2 1.4 4z" fill-opacity=".1" fill-rule="nonzero"/><path d="M242.8 118.7l-3 .9-1 11.6s1.2 3 0 4c-1 1-1.3 22.2-1.3 22.2s3.6 2.6 7.8.6c0 0-.6-2.3 1.3-10.8 1.8-8.6 1.8-13 1.8-13s0-10.6.9-12.3c.9-1.7 0-6 0-6s-1.7-2.4-1.6-3.3c.1-.8-4.8 6-4.8 6z" fill="#ff6484" fill-rule="nonzero"/><path d="M274.5 120.5s-1.6 13.9-6.3 16.5c0 0 10.5-3 6.3-16.5zm-23.6 1.3s5.8 2.8 4.5 4.8c-1.4 2-4.5-4.8-4.5-4.8zm0 5.7s3.7 3.8 3 5.2c-.8 1.3-3-5.2-3-5.2zm30-31.8s1.4 2.4 1.5 4c.2 1.7-1.6-4-1.6-4zm0-3.4s.7-.6 2.5 0c2 .6-2.6 0-2.6 0zm-7.2 72.4a17.2 17.2 0 0 1-9-1.2l-1.6 4-.2-1.9c.3-1.5.8-3.2 1.7-3.6 0 0 3.5 2.8 9.1 2.7zm-25.4 5.2s7.6 1.5 9.8 1.3l-9.8-1.3zm.8 2s3.3-.2 4.9.5l-4.9-.5zm.4 1.3l4.5.6-4.5-.6zm-.2 17c.1 0 6.5-1.5 7.3-.5l-7.3.5zm0 2s5.5-.7 5.6 0c.2.6-5.6 0-5.6 0zm0 1.7s5.9-1.2 6.6-.9c.7.3-6.6 1-6.6 1zm.3 41.6l-6.7 4.6v-1.3c1.6-3.7 3.5-5.6 3.5-5.6 1.5-.4 2.5 0 3 .7 0 1 .2 1.6.2 1.6z" fill-opacity=".1" fill-rule="nonzero"/><path d="M250.2 239.7a16.6 16.6 0 0 0-1.4 6.8 10.6 10.6 0 0 1-1.4 5.5l-.5.7c-.1.2-4.6 0-6.2-1.4a1.6 1.6 0 0 1-.5-.5c-.9-1.9 1.8-9 1.8-9 1.5-5.5 4.4-8.4 4.4-8.4 5.2-1.4 3.8 6.3 3.8 6.3z" fill="#444053" fill-rule="nonzero"/><path d="M247.4 252l-.5.7c-.1.2-4.6 0-6.2-1.4.8-2.7 3.3-10.7 4.5-9.3a32 32 0 0 1 2.2 10z" fill-opacity=".1" fill-rule="nonzero"/><path d="M246.8 242.5l-.4 12h1.6s.3-10.6 1-12c.6-1.5-2.2 0-2.2 0z" fill="#444053" fill-rule="nonzero"/><path d="M266.1 243.5s-6.8-6.5-6-7l.4-1.4c1.4-.2 3.6.3 5.5 5.5l.1 2.9z" fill-opacity=".1" fill-rule="nonzero"/><path d="M267.2 250.7a.7.7 0 0 1-.2 0h-5.4a1.2 1.2 0 0 1-1.2-1.2V248c0-1.9-.3-4-1-4.5-1.1-1-2-4 0-7.8 0 0 4-3 7 6.1 0 0 .2 2.6 1.4 3.6 1.3.9 0 5-.6 5.3z" fill="#444053" fill-rule="nonzero"/><path d="M267 250.7h-5.4a1.2 1.2 0 0 1-1.2-1.2V248c.5-2.2 1.2-4.5 2.2-5 0 0 2.8-.4 4.4 7.7z" fill-opacity=".1" fill-rule="nonzero"/><path d="M260 242.7l.7 10h1v-10.9l-1.7.9z" fill="#444053" fill-rule="nonzero"/><path d="M262.3 69.4a17 17 0 0 0-7.6 2.5c-.6.3-1.2.8-1.5 1.4-.2.6 0 1.2 0 1.8 0 5.1-5.7 9-5.5 14 0 2.1 1 4 1.2 6 .4 3.4-1.6 6.5-3.6 9.3a7.7 7.7 0 0 0 5.5-1.8 41.1 41.1 0 0 1 .7 20.7h2.8l.8.1.6.5c2.6 2.6 4.3 6.3 3.3 9.8l5.8-2.2c1.4-.5 2.8-1 4-1.9a5.8 5.8 0 0 0 2.5-3.6c.2-.9.1-2 .9-2.4a4.6 4.6 0 0 1 1.1-.5c1.6-.5 2.3-2.4 2.6-4 .4-2 .6-4.2.4-6.3-.2-3.4-1.3-7-.4-10.4.5-1.9 1.5-3.6 1.6-5.6.2-3.2-2.4-6-2.8-9.3-.2-2.2.6-4.5.3-6.7a7.3 7.3 0 0 0-3.8-5.6l-2.2-1c-1.6-1-2.6-2.6-4.1-3.8-1.5-1.1-4-1.6-5 0l2.4-1z" fill-opacity=".1" fill-rule="nonzero"/><path d="M262.3 69a17 17 0 0 0-7.6 2.5c-.6.3-1.2.8-1.5 1.4-.2.6 0 1.2 0 1.8 0 5.1-5.7 9-5.5 14.1 0 2 1 4 1.2 6 .4 3.3-1.6 6.4-3.6 9.2a7.7 7.7 0 0 0 5.5-1.7 41.1 41.1 0 0 1 .7 20.7H255.1l.6.5c2.6 2.6 4.3 6.4 3.3 9.8l5.8-2.1c1.4-.6 2.8-1.1 4-2a5.8 5.8 0 0 0 2.5-3.5c.2-1 .1-2 .9-2.5a4.6 4.6 0 0 1 1.1-.4c1.6-.6 2.3-2.5 2.6-4.1.5-2 .6-4.2.4-6.2-.2-3.5-1.3-7-.4-10.4.5-2 1.5-3.7 1.6-5.7.2-3.2-2.4-6-2.8-9.2-.2-2.3.6-4.6.3-6.8a7.3 7.3 0 0 0-3.8-5.5l-2.2-1c-1.6-1-2.6-2.7-4.1-3.8-1.5-1.2-4-1.6-5-.1l2.4-1z" fill="#925978" fill-rule="nonzero"/><path d="M253.1 73.5a3.3 3.3 0 0 0 0 .3v-.3zm21.6 11.9c.1-1.6.5-3.2.3-4.8 0 1.6-.4 3.2-.3 4.8zM249 93.2c-.1-1.8-1-3.6-1.2-5.4v1c0 2 1 3.9 1.2 5.9a8 8 0 0 0 0-1.5zm27 7.3a12.8 12.8 0 0 0-.3 3.7l.3-2.1c.5-2 1.5-3.7 1.6-5.7v-1c-.3 1.8-1.2 3.4-1.6 5.1zm-25.1.2a7.7 7.7 0 0 1-4.4 1.8 67.5 67.5 0 0 1-1 1.5 7.7 7.7 0 0 0 5.4-1.8 41 41 0 0 1 1.7 11.2 41.1 41.1 0 0 0-1.7-12.7zM276 117c-.4 1.7-1 3.5-2.7 4.1-.4 0-.8.2-1.1.4-.8.5-.7 1.6-.9 2.5a5.7 5.7 0 0 1-2.5 3.6c-1.2.8-2.6 1.4-4 1.9l-5.5 2a7.7 7.7 0 0 1-.3 1.7l5.8-2.2c1.4-.5 2.8-1 4-1.9a5.8 5.8 0 0 0 2.5-3.6c.2-.9.1-2 .9-2.4a4.6 4.6 0 0 1 1.1-.5c1.6-.5 2.3-2.4 2.7-4 .3-1.8.4-3.5.4-5.3a23.3 23.3 0 0 1-.4 3.7zm-20.3 4.9a2 2 0 0 0-.6-.5 2.1 2.1 0 0 0-.8 0h-2.5l-.3 1.5H255.1l.6.5c1.9 1.9 3.3 4.4 3.5 7a11 11 0 0 0-3.5-8.5z" fill-rule="nonzero" opacity=".1"/><path d="M242.1 132.1s2.2-1 2.7 0-2.7 0-2.7 0zm.8 1.6s2.2-1 2.7 0-2.7 0-2.7 0z" fill-opacity=".1" fill-rule="nonzero"/><path d="M380 13.7s-11.3-.7-10 7.2c0 0-.3 1.4 1 2 0 0 0-.5 1.2-.3h1.2a2.5 2.5 0 0 0 1.5-.6c.4-.3 3.2-1.3 4.4-6.5 0 0 1-1.1.9-1.4l-2 .8s.7 1.4.2 2.5c0 0 0-2.4-.4-2.4l-1 .5s1.1 2.4.3 4.1c0 0 .3-3-.6-4l-1.4.9s1.3 2.4.4 4.5c0 0 .3-3.1-.7-4.3l-1.2.9s1.2 2.4.5 4.1c0 0-.1-3.6-.8-3.9l-1.2 1.3s.9 1.8.3 2.8c0 0-.3-2.5-.6-2.5 0 0-1 1.6-1.1 2.7a5.8 5.8 0 0 1 .9-2.8 3.2 3.2 0 0 0-1.6.8c-.5.5.1-1.1 1.8-1.2l1.2-1.3s-1.8-.1-2.8.3c0 0 1-1 3-.6l1.3-1s-2.3-.2-3.2 0c0 0 1-.9 3.5-.2l1.3-.8s-2-.4-3-.2c0 0 1.1-.7 3.4 0l1-.4-2-.3c-.3 0-.3-.2-.3-.2a4.9 4.9 0 0 1 2.6.3c.8.4 2-.7 2-.8zm-16.1-6.4s-9.6 6.1-3.8 11.7c0 0 .6 1.3 2 1 0 0-.3-.4.7-1a5.2 5.2 0 0 0 1-.6 2.6 2.6 0 0 0 .9-1.4c.1-.6 1.8-3-.3-7.9l-.1-1.6-1 1.7s1.2.8 1.5 2c0 0-1.5-2-1.8-1.7l-.5 1s2.3 1.2 2.7 3.1c0 0-1.5-2.5-2.9-2.8l-.6 1.4s2.5 1.3 3 3.4c0 0-1.6-2.6-3.1-3l-.4 1.5s2.4 1.2 2.8 3c0 0-2.2-2.9-2.9-2.7 0 0-.3 1.4-.2 1.8 0 0 1.7 1 1.9 2 0 0-1.7-1.8-2-1.6 0 0 .2 1.9.7 2.8a5.8 5.8 0 0 1-1-2.8 3.2 3.2 0 0 0-.7 1.7c-.1.6-.6-1 .8-2.1v-1.7s-1.4.9-2 1.8c0 0 .2-1.4 2.2-2.2l.4-1.5s-2 1-2.6 1.9c0 0 .3-1.4 2.7-2.3l.6-1.4s-1.8.8-2.6 1.6c0 0 .6-1.3 2.8-2l.5-.9-1.7.8c-.3.2-.4.1-.4.1a4.9 4.9 0 0 1 2.3-1.3c.9-.2 1.2-1.8 1-1.8zm-14.5 7.1s-5.7 9.8 2 12.2c0 0 1.1.9 2.2 0 0 0-.5-.3.2-1.2a5.2 5.2 0 0 0 .6-1 2.6 2.6 0 0 0 .1-1.7c-.1-.5.3-3.4-3.8-6.9 0 0-.6-1.3-.9-1.4l-.1 2s1.5.1 2.3 1.1c0 0-2.2-1-2.4-.7v1.1s2.7 0 3.9 1.6c0 0-2.5-1.6-3.8-1.2v1.5s2.9 0 4.3 1.7c0 0-2.7-1.6-4.2-1.3l.3 1.5s2.7 0 3.9 1.4c0 0-3.3-1.5-3.8-1l.6 1.6s2 0 2.6 1c0 0-2.3-.8-2.4-.6 0 0 1 1.7 1.8 2.2a5.8 5.8 0 0 1-2-2 3.2 3.2 0 0 0 0 1.8c.1.6-1-.7-.3-2.2l-.7-1.6s-.8 1.5-1 2.6c0 0-.4-1.3 1-3l-.4-1.5s-1.3 1.9-1.4 2.9c0 0-.3-1.4 1.4-3.3l-.2-1.5S348 20 347.6 21c0 0 0-1.4 1.6-3v-1l-1 1.4c-.2.4-.4.3-.4.3a4.9 4.9 0 0 1 1.5-2.2c.7-.6.2-2.1 0-2.2z" fill="#487cb6" fill-opacity=".1" fill-rule="nonzero"/><path d="M398.2 126.3c-2.3 0-4.3 1.9-4.3 4.2 0 2.3 2 4.3 4.3 4.3s4.3-2 4.3-4.3-2-4.2-4.3-4.2zm-12.4-33.4V97h4.2l7.7 15.5-3.2 5.3a4 4 0 0 0-.6 2c0 2.8 2 4.2 4.6 4.2h24.9v-4H399a.5.5 0 0 1-.5-.6l.2-.5 2.2-3.4h15.8c1.6 0 3-.8 3.7-2.2l7.7-13.2.2-1a2 2 0 0 0-2.1-2h-31.5l-2-4.3h-7zm33.3 33.4c-2.3 0-4.2 1.9-4.2 4.2 0 2.3 2 4.3 4.2 4.3 2.4 0 4.3-2 4.3-4.3s-2-4.2-4.3-4.2z" fill="#487cb6" fill-rule="nonzero"/><path d="M413.7 104.6H410v-3.5h-2.7v3.5H404v2.7h3.6v3.6h2.6v-3.6h3.6v-2.7z" fill="#fff" fill-rule="nonzero"/><defs><linearGradient id="_Linear1" x2="1" gradientUnits="userSpaceOnUse" gradientTransform="rotate(-90 633.8 -20.5) scale(496.24)"><stop offset="0" stop-color="gray" stop-opacity=".2"/><stop offset=".5" stop-color="gray" stop-opacity=".1"/><stop offset="1" stop-color="gray" stop-opacity=".1"/></linearGradient><linearGradient id="_Linear2" x2="1" gradientUnits="userSpaceOnUse" gradientTransform="rotate(-90 668.7 193) scale(638.43)"><stop offset="0" stop-color="gray" stop-opacity=".2"/><stop offset=".5" stop-color="gray" stop-opacity=".1"/><stop offset="1" stop-color="gray" stop-opacity=".1"/></linearGradient></defs></svg>