<svg viewBox="0 0 601 264" xmlns="http://www.w3.org/2000/svg" fill-rule="evenodd" clip-rule="evenodd" stroke-linejoin="round" stroke-miterlimit="1.4"><path fill="none" d="M.5 0h600v264H.5z"/><path d="M344 50.1c-28.8-.7-56.1-7.2-82.2-14.4s-52-15.1-80-19c-18-2.4-38.6-2.7-53.1 4.1-14 6.6-18.5 18-21 28.5-1.8 8-2.9 16.3 2.1 23.7 3.5 5.2 9.7 9.5 14 14.4 27.4 18 16.7 39.3-11.8 55.2-7.5 7.9-16.3 15.4-22.1 23.7-5.8 8.4-8.5 18-3.4 26.6 5 8.4 17 14.8 30 19.3 26.6 9 57.7 11.7 88.2 13.1 67.3 3.3 135 1.9 202.5.5 25-.5 50-1 74.7-3.8 13.6-1.5 27.7-4 37.6-9.8 12.6-7.4 15.7-19.9 7.3-29.1-14.2-15.6-53.2-19.4-63.1-36.1-5.5-9.2-11.9-24.4-4-33 17-18.2 57.4-29.2 58.9-50 1-14.4-12.6-28.8-33.8-35.6-22.1-7-52.8-6.2-69.2 5.6-16.8 12-46.4 16.8-71.6 16v.1z" fill="#487cb6" fill-opacity=".1" fill-rule="nonzero"/><path d="M133.7 44.8h81.5v81.5h-81.5V44.8zm252 0h81.5v81.5h-81.5V44.8z" fill="#e8e9ed"/><path d="M179.4 16l-.8-.8h-.2l-5.7 5.7-2-2H170.4l-.8.8v.2l2.5 2.6c.1.2.4.3.6.3.2 0 .4-.1.5-.3l6.2-6.2V16z" fill="#3acc6c" fill-opacity=".5" fill-rule="nonzero"/><path d="M174.5 10.7a8.3 8.3 0 1 1 0 16.5 8.3 8.3 0 0 1-8.3-8.2 8.2 8.2 0 0 1 8.3-8.3m0-1.3h-.1a9.6 9.6 0 0 0-9.6 9.6c0 5.3 4.3 9.6 9.6 9.6s9.6-4.3 9.6-9.6-4.4-9.6-9.6-9.6h.1z" fill="#487cb6" fill-opacity=".5" fill-rule="nonzero"/><path d="M242.3 42.9l-1-1.1h-.2-.1l-7.1 7.1-2.6-2.5H231l-1 1V47.7l3.2 3.3c.2.2.4.3.7.3.2 0 .5-.1.7-.3l7.7-7.8V43 43z" fill="#3acc6c" fill-opacity=".8" fill-rule="nonzero"/><path d="M236.1 36c5.8 0 10.5 4.8 10.5 10.5S241.9 57 236 57a10.5 10.5 0 0 1-7.4-17.9c2-2 4.6-3 7.4-3m0-1.7a12 12 0 0 0-11.9 12 12 12 0 0 0 12 12 12 12 0 0 0 12-11.9 12 12 0 0 0-12-12l-.1-.1z" fill="#487cb6" fill-opacity=".8" fill-rule="nonzero"/><path d="M426.5 10.7c4.2.5 7.3 4 7.3 8.2 0 4.3-3.2 7.9-7.4 8.3a8.3 8.3 0 0 1-8.2-8.2 8.2 8.2 0 0 1 8.3-8.3m0-1.3h-.1a9.6 9.6 0 0 0-9.6 9.6c0 5.3 4.3 9.6 9.6 9.6s9.6-4.3 9.6-9.6-4.4-9.6-9.6-9.6h.1z" fill="#487cb6" fill-opacity=".5" fill-rule="nonzero"/><path d="M364.4 36c6.6 0 10.3 5.1 10.3 10.5 0 5.3-5 9.9-10.3 10.4a10.5 10.5 0 0 1-7.4-17.8c2-2 4.6-3 7.4-3m0-1.7a12 12 0 0 0-12 12 12 12 0 0 0 12 12 12 12 0 0 0 12-11.9c0-6.6-4.7-12.2-12-12v-.1z" fill="#487cb6" fill-opacity=".8" fill-rule="nonzero"/><path d="M300 55.2c7.6 0 13.8 6.2 13.8 13.8 0 7.6-6.3 13.8-13.9 13.8a14 14 0 0 1-9.7-23.5c2.6-2.6 6-4 9.7-4m0-2.2a16 16 0 0 0-16 16 16 16 0 0 0 16 15.9h.1a16 16 0 0 0 16-16 16 16 0 0 0-16-16l-.1.1z" fill="#487cb6" fill-rule="nonzero"/><path d="M190.7 66.1h90.8V157h-90.8V66.1zm128.2 0h90.9V157h-90.9V66.1z" fill="#f3f5f7"/><path d="M141.9 59.2h30.3v3.4h-30.3v-3.4zm258.5 0h30.3v3.4h-30.3v-3.4zM202.4 85.5h30.3V89h-30.3v-3.5zm55.9 29.6h18v3.4h-18v-3.4zm0 22.6H285v3.4h-26.7v-3.4zm-55.9-40.3h30.3v3.3h-30.3v-3.3zm136.3-11.9H369V89h-30.3v-3.5zm0 11.9H369v3.3h-30.3v-3.3z" fill-opacity=".1"/><path d="M295.6 73.7l.9-1.1c.8.8 1.9 1.3 3 1.3 1.5 0 2.5-.7 2.5-1.9s-1-2-3.8-2v-1.3c2.5 0 3.5-.8 3.5-2 0-.9-.9-1.5-2.1-1.5-1 0-2 .3-2.7 1l-.9-1c1-.9 2.3-1.4 3.6-1.4 2.2 0 3.8 1 3.8 2.9 0 1.3-1 2-2.3 2.6 1.5.3 2.7 1.3 2.7 2.8 0 2-2 3.2-4.1 3.2-2 0-3.2-.7-4-1.6h-.1z" fill="#487cb6" fill-rule="nonzero"/><path d="M365.4 44.8v-2l-1.1 1.6-2.5 3.2h6.6V49H360v-1l5-6.7h1.9v10.5h-1.5v-7z" fill="#487cb6" fill-opacity=".8" fill-rule="nonzero"/><path d="M423.2 22.3l.6-.8a3 3 0 0 0 2 .9c1 0 1.8-.6 1.8-1.6s-.7-1.6-1.7-1.6c-.5 0-1 .2-1.5.5l-.6-.4.2-3.7h4.4v1h-3.3l-.2 2 1.3-.2c1.4 0 2.6.7 2.6 2.3 0 1.7-1.4 2.6-2.8 2.6-1 0-2-.3-2.8-1z" fill="#487cb6" fill-opacity=".5" fill-rule="nonzero"/><path fill="#487cb6" fill-opacity=".1" d="M242.7 95H355v112.2H242.7z"/><path fill="#fff" d="M246.5 89.6h112.3V202H246.5z"/><path fill="#487cb6" fill-opacity=".5" d="M258.3 102H347v3.4h-88.7z"/><path d="M258.3 126.4h56.5v3.4h-56.5v-3.4zm0 22.6H313v3.4h-54.8l.1-3.4zm0 11.3H333v3.4h-74.7v-3.4z" fill-opacity=".1"/><path d="M330.8 126.7l-.4-.4h-.1l-2.7 2.7-1-1h-.1l-.4.4v.1l1.2 1.3h.5l3-3v-.1z" fill="#3acc6c" fill-opacity=".5" fill-rule="nonzero"/><path d="M328.4 124.1a4 4 0 0 1 4 4 4 4 0 0 1-4 4 4 4 0 0 1-4-4 4 4 0 0 1 4-4m0-.6c-2.5 0-4.5 2-4.5 4.6 0 2.5 2 4.5 4.5 4.5s4.6-2 4.6-4.5-2-4.6-4.6-4.6zm2.4 25.8l-.4-.4h-.1l-2.7 2.7-1-1h-.1l-.4.4v.1l1.2 1.3h.5l3-3v-.1z" fill="#3acc6c" fill-opacity=".5" fill-rule="nonzero"/><path d="M328.4 146.7a4 4 0 0 1 4 4 4 4 0 0 1-4 4 4 4 0 0 1-4-4 4 4 0 0 1 4-4m0-.6c-2.5 0-4.5 2-4.5 4.6 0 2.5 2 4.5 4.5 4.5s4.6-2 4.6-4.5-2-4.6-4.6-4.6z" fill="#3acc6c" fill-opacity=".5" fill-rule="nonzero"/><ellipse cx="512.5" cy="782.4" rx="71.4" ry="12" fill="#487cb6" fill-opacity=".1" transform="matrix(.314 0 0 .314 133.7 6)"/><path d="M319.3 151c-.3-.4-2-6-2-6l-3.2-8.1s-2-10.8-4.8-8.1c-3 2.7 1.5 9.1 1.5 9.1s1.9 4.7 1.8 5.7c-.1.9 1 4.4 1 4.4l-.4 2h-.7s-.3.3-.6.3h-2.1c-.5 0-.9-.3-1.3-.5-.2-.4-1.2-.6-2.2-.7-.7-1.8-1.6-3.4-1.8-5.2 0-.5 0-1 .3-1.5l.2-.2.9-.7.4-.4c2.4-2.3 2-6-.2-8.4-2.5-3-13.8-9.1-17.3-3.8-.4.7-.5 1.6-.6 2.4-.3 2-1.3 4-2.7 5.4-1.1 1.2-2.6 2.3-3.3 3.7-.2.2-.3.5-.3.8-.4 1.7.8 3.3 1.3 5l.5 1.6v-.3c.2.8.2 1.7.2 2.5-4.2.8-4.2 8-4.2 8s-.5 2.8-.4 3.8l.1 3.7-.6 4.2c0 .5-.8 2.6 1 3l.5.1c0 1.7.2 5.3 0 6 0 0 .7 4.8 1.3 6l1.3 2-.3.9c-.3.4-.2.7.3.9v.5c-.5 3.6-.3 7.2.7 10.7l.3 1.2c.3.4.9 4.3.9 5 0 .6 1.4 6.3 1 7.7-.4 1.3-.1 3.2-.1 3.2s-.3 3.4-.6 4c-.2.8-.4 12.4 0 15.4.6 3 .9 5.5.9 5.5s-.4 2.7 0 3.1c.2.4.6 2.7.3 2.8-.4.1-.5 1-.5 1l.6.9-.4-.2.6.7-.3 3v.1c0 .2.2.5.4.5 1.5.4 3.1 0 4.2-1.2 2.1-2.1 2.8-1.8 3.2-3.1l.1-.5v-.2c0-.7-.6-1.4-1.3-1.4l-.6.1c.1-1 .2-2 .1-2.6-.2-1.2-.1-4.4-.1-4.4L292 225s.5-3 1.1-4.2c.7-1.2.6-5.3.6-5.3l.7-13.7.7-6.6s.7-2.2 1.5.3c0 0-.4 5.1-.2 6.3.2 1.3.5 7.2.3 8.5a43 43 0 0 0-.6 10.4c.6 1.5 1 3 1.1 4.7l-.5 16.3s1.1 3 .3 4c-.9 1 0 4.9 0 4.9l.2.1v.3l-.3 3.5c0 .3.2.5.4.6 1.5.4 3.1 0 4.2-1.2 2.1-2.2 2.8-1.9 3.2-3.2l.1-.4v-.3c0-.7-.6-1.4-1.3-1.4-.4 0-.7.1-1 .4l-.1.1c.1-.9.4-2.6.3-3.3-.2-1.2.2-4.6.2-4.6s1.2-4.2 1.3-5.8l.3-13.2.1-6.7c.2-1.3 1.5-12.6 2.9-16 1-2.6 1.5-9.2 1.2-12.6v-.5c1.6-1.2 1.8-3.2 1.8-3.2s-1.5-3-3-4.2a5.7 5.7 0 0 1-1.7-4.3c0-.5-.2-1-.5-1.5-.4-.4-.7-2.2-1.2-2.4v-.1c-.4-.4-.1-1.3-.1-1.3 0-.2.3-1.7.2-2l.1-2.3s1-3.2.9-5.7c-.2-2.6 2.2-2.4 2.2-2.4h8.1l1-1a2 2 0 0 0 1.6-.4c1.6-1.4 1.4-4.2 1.2-4.6zm-34 22v-1.3l.3.2v1c-.1.4-.3.7-.6.8h-.1l-.1-.7h.5z" fill-opacity=".1" fill-rule="nonzero"/><path d="M638.9 522.6s13.3 8.5 18.3 4c5-4.6 4.4-13.3 3.7-14.7-.7-1.4-6-19.1-6-19.1l-10.5-26.3s-6.3-34.6-15.8-26c-9.5 8.6 5 29.3 5 29.3s6 15.2 5.8 18.2a64 64 0 0 0 3.3 14.1l-3.8 20.5z" fill="url(#_Linear1)" fill-rule="nonzero" transform="matrix(.314 0 0 .314 112 -10.6)"/><path d="M614.2 830.7l-.4 1.3c-1.2 4.3-3.5 3.3-10.4 10.2a13.7 13.7 0 0 1-13.6 3.8c-.8-.2-1.3-1-1.2-1.7l.9-11.2.4-5.4s10.9 3 16.4-.8l.5-.4.2-.1c.8-.6 1.8-1 2.8-1a4.5 4.5 0 0 1 4.4 5.3z" fill="url(#_Linear2)" fill-rule="nonzero" transform="matrix(.314 0 0 .314 112 -10.6)"/><path d="M580 826.5l-.3 1.3c-1.3 4.2-3.6 3.3-10.4 10.2a13.8 13.8 0 0 1-13.6 3.8c-.8-.1-1.4-.9-1.3-1.7l.9-11.2.4-5.4s10.9 3 16.4-.8l.6-.5h.1c.8-.7 1.8-1.1 2.9-1.1a4.5 4.5 0 0 1 4.3 5.4z" fill="url(#_Linear3)" fill-rule="nonzero" transform="matrix(.314 0 0 .314 112 -10.6)"/><path d="M568.7 828.2l.5 5.8c-6.3 6.2-13.7-3-16-6 5.8 2.9 15.5.2 15.5.2z" fill="url(#_Linear4)" fill-rule="nonzero" transform="matrix(.314 0 0 .314 112 -10.6)"/><path d="M605.5 830.5l.8-.5c-5.7 8.6-14.2 4.6-16.8 3.1l.4-5.4s10.9 3 16.4-.8l-.8 3.7v-.1z" fill="url(#_Linear5)" fill-rule="nonzero" transform="matrix(.314 0 0 .314 112 -10.6)"/><path d="M622.9 667.5c-4.4 10.9-8.8 47.2-9.3 51.5-.6 4.2-.5 21.4-.5 21.4l-1.1 42.4c-.1 5.3-4.1 18.6-4.1 18.6s-1.4 11.1-.7 14.8c0 4.5-.6 9-1.8 13.3l.9-.6c-6.9 10.3-17.7 2.6-17.7 2.6s-2.6-12.5.1-15.6c2.8-3.1-1-12.8-1-12.8s1.4-50 1.9-52.4c.4-2.3-1.6-9.4-3.6-15.2-2-5.8 1-29 1.8-33.1.7-4.2-.3-23.4-1-27.3-.7-4 .8-20.4.8-20.4-2.7-8.1-5-.8-5-.8l-2.1 21.3-2.3 43.8s.3 13.3-1.8 17.1a70 70 0 0 0-3.8 13.6l1 49.4s-.1 10.3.6 14.3c.7 3.9-1.5 14-1.5 14-7.7 18-20-1.4-20-1.4s.5-3 1.6-3.4c1.1-.4-.4-7.7-1.2-9-.9-1.3.1-10 .1-10s-1-8-2.5-17.7-1-46.8-.1-49.1c1-2.3 1.8-13 1.8-13s-1.1-6.1.3-10.5c1.3-4.3-3.3-22.6-3.3-24.7a81 81 0 0 0-3.8-19.8c0-1.3-.1-2.7-2.4-10.8-1.7-6-.7-17.7 0-23.6l.4-3.6s78.6-12.6 81.7-9.8c.8.7 1.2 3 1.5 6.3a123 123 0 0 1-4 40.2h.1z" fill="url(#_Linear6)" fill-rule="nonzero" transform="matrix(.314 0 0 .314 112 -10.6)"/><path d="M593.1 728.5c.4 0 9 .8 12.3.1 3.2-.6-12.2 0-12.2 0l-.1-.1z" fill="url(#_Linear7)" fill-rule="nonzero" transform="matrix(.314 0 0 .314 112 -10.6)"/><path d="M593.8 733.6s12 2 12.6 1c.6-1-12.6-1-12.6-1z" fill="url(#_Linear8)" fill-rule="nonzero" transform="matrix(.314 0 0 .314 112 -10.6)"/><path d="M557.2 731.4s6.2.3 9.6 1.9c3.4 1.6-9.6-1.9-9.6-1.9z" fill="url(#_Linear9)" fill-rule="nonzero" transform="matrix(.314 0 0 .314 112 -10.6)"/><path d="M534.7 579.2s1 19 .4 22.3c0 0 2.2 15.3 4 19.1a55 55 0 0 0 5.8 8.8l5.4-37.5L549 579l-14.3.2z" fill="url(#_Linear10)" fill-rule="nonzero" transform="matrix(.314 0 0 .314 112 -10.6)"/><ellipse cx="522.2" cy="419.3" rx="21.1" ry="20.9" fill="url(#_Linear11)" transform="matrix(.314 0 0 .314 133.7 6)"/><path d="M580.3 481.9s-6.6 12.7-13.1 18.7c-6.6 6 39.4 12.8 40.5 12.8 1 0-8.3-27.2-6.6-30.4 1.6-3.3-20.8-1.1-20.8-1.1z" fill="url(#_Linear12)" fill-rule="nonzero" transform="matrix(.314 0 0 .314 112 -10.6)"/><path d="M626.8 627.2c-1 .8-2.1 1.4-3.3 1.9-8.4 3.2-17.6 7.7-23.8 6-6.2-1.8-19.3 0-19.3 0s-26.5-2.2-31.8-1c-1.7.5-3.6.6-5.4.2l.4-3.6s78.6-12.6 81.7-9.8c.8.7 1.3 3 1.5 6.3z" fill="url(#_Linear13)" fill-rule="nonzero" transform="matrix(.314 0 0 .314 112 -10.6)"/><path d="M632.6 615.1s-.7 9-9.1 12.3c-8.4 3.3-17.6 7.8-23.8 6-6.2-1.8-19.3 0-19.3 0s-26.5-2.2-31.8-.9c-5.3 1.3-8-.3-6.4-2.7 1.6-2.4 1.5-10.1 1.5-13.4 0-3.3-1.8-16.5-.2-18.8 1.6-2.4 3.1-11.4 6.4-12.9 1-.4 1.7-1.3 2-2.3.3-1 .3-2.2 0-3.3-.2-1-.5-.4-1.3-1.1-1.9-1.7-5.2-4.9-4.1-6 1.4-1.4 0-10.8 0-10.8s-3.5-7.2-2.2-10c1.3-2.7-11.2-17-11.2-17s0-24.6 15-25.7c0 0 10.6.4 12-4.3 1.2-4.7 9.6-7.4 9.6-7.4l19.1 4.1s17 3.7 20.1 1.5c3.1-2.2 5.5 2.9 5.5 2.9s10.6.5 11.7 2.7c1 2.2-3.5 23.3-3.5 23.3s-7.7-.7-7.1 7.5c.5 8.1-3 18.4-3 18.4s-.5 6-.1 7.3a21 21 0 0 1-.9 6.4c-.2.7-.8 3 .2 4.2l.3.2c1.5.8 3.7 7.8 3.7 7.8a7.1 7.1 0 0 1 1.6 5c-.1 2.8 1 9.7 5.7 13.7s9.6 13.3 9.6 13.3z" fill="url(#_Linear14)" fill-rule="nonzero" transform="matrix(.314 0 0 .314 112 -10.6)"/><path d="M551.2 573.2v.8l-.4 8.5s-11.2.9-17.3-.7c-6.1-1.5-3.5-8.2-3.3-9.6.2-1.3 1.8-11.9 1.8-13.6 0-1.7 0-8.8-.3-12-.2-3.2 1.4-12.3 1.4-12.3l1.2-1.5 12.9 5 4 35.4z" fill="url(#_Linear15)" fill-rule="nonzero" transform="matrix(.314 0 0 .314 112 -10.6)"/><path d="M551.1 574l-.3 8.5s-11.2.9-17.3-.7c-6.2-1.5-3.6-8.2-3.3-9.6l21 1.8h-.1z" fill="url(#_Linear16)" fill-rule="nonzero" transform="matrix(.314 0 0 .314 112 -10.6)"/><path d="M552 582.4c.3-1 .3-2.2 0-3.3-.3-1-.6-.5-1.3-1.1 9.6-1.4 48-6.6 60.8-7.1 12.8-.5-.7 3 .2 4.2l-59.7 7.3z" fill="url(#_Linear17)" fill-rule="nonzero" transform="matrix(.314 0 0 .314 112 -10.6)"/><path d="M612.9 589s2.3 13.3-6.5 18c0 0 5-6.6 6.5-18z" fill="url(#_Linear18)" fill-rule="nonzero" transform="matrix(.314 0 0 .314 112 -10.6)"/><path d="M555 607.3s21.3-3.6 25.5-.8c4.2 2.8-25.6.8-25.6.8h.1z" fill="url(#_Linear19)" fill-rule="nonzero" transform="matrix(.314 0 0 .314 112 -10.6)"/><path d="M605.5 524.9s-3.3 13.4-.8 16.5c2.4 3 .8-16.5.8-16.5z" fill="url(#_Linear20)" fill-rule="nonzero" transform="matrix(.314 0 0 .314 112 -10.6)"/><path d="M543.6 514s3 5 1.2 10c-1.8 5.2-1.2-10-1.2-10z" fill="url(#_Linear21)" fill-rule="nonzero" transform="matrix(.314 0 0 .314 112 -10.6)"/><path d="M537.4 557.5s3.8 2.3 2.5 5.8c-1.2 3.6-2.5-5.8-2.5-5.8z" fill="url(#_Linear22)" fill-rule="nonzero" transform="matrix(.314 0 0 .314 112 -10.6)"/><path d="M537 547.2s3.6 2 4 4.7c.4 2.8-4-4.7-4-4.7z" fill="url(#_Linear23)" fill-rule="nonzero" transform="matrix(.314 0 0 .314 112 -10.6)"/><path d="M589.8 655.5s22.3 2.3 26.8-3c0 0-20.2 4-26.8 3z" fill="url(#_Linear24)" fill-rule="nonzero" transform="matrix(.314 0 0 .314 112 -10.6)"/><path d="M551.2 654.2s24 5.6 28.7 1.2c0 0-20.6 1.5-28.7-1.2z" fill="url(#_Linear25)" fill-rule="nonzero" transform="matrix(.314 0 0 .314 112 -10.6)"/><path d="M552.8 667s5 5.6 10.5 4.6c5.6-1-10.5-4.5-10.5-4.5v-.1z" fill="url(#_Linear26)" fill-rule="nonzero" transform="matrix(.314 0 0 .314 112 -10.6)"/><path d="M562.5 441c-1.6 2.4-1.6 5.1-2 7.8a32.3 32.3 0 0 1-8.8 17.2c-4.3 4.6-10.4 8.8-11.5 14.4-1 5.4 2.6 10.5 4.5 15.7 5 13.8-2 28.2-4 42.4-.6 3.9 0 8.9 5 10.2 1.5.4 3.2.4 4.6 1 1.8.9 2.4 2.7 2.7 4.3a65.7 65.7 0 0 1 1.3 17.7c-.3 3.4-.5 7.2 2.7 9.5a16 16 0 0 0 5.2 2c5 1.4 11.5 2.5 14.9-.6 1.4-1.3 2-3.2 3.7-4.2 2.6-1.6 6.4-.5 9.7-.4 6.4.3 12.4-3 15.8-8.4a22.4 22.4 0 0 0 1.5-15.5c-1-5.2-2.7-10.3-2.9-15.5a9 9 0 0 1 1.2-5.3c2-3.1 6.8-4.5 10-7 6-4.6 6-12.1 3.8-18.4-2.1-6.3-6.1-12.4-6.6-18.9-.2-1.6.1-3.2.9-4.6 1-1.3 2.3-2.4 3.7-3.4 8.8-7.4 7.8-19.6.5-27.9-8.2-9.3-44.8-29.2-55.9-12.1z" fill="url(#_Linear27)" fill-rule="nonzero" transform="matrix(.314 0 0 .314 112 -10.6)"/><path d="M545.8 501.8c.9-5.5.4-11-1.4-16.3l-3.3-7.9c-.5 1-.9 2-1.1 3-1.1 5.4 2.5 10.5 4.4 15.7.6 1.8 1.1 3.6 1.4 5.5z" fill="url(#_Linear28)" fill-rule="nonzero" transform="matrix(.314 0 0 .314 112 -10.6)"/><path d="M554 561.1c.4-6 0-11.9-1.3-17.7-.3-1.6-.9-3.5-2.7-4.3-1.4-.7-3.1-.6-4.6-1a6.3 6.3 0 0 1-4.3-3.5l-.7 4.1c-.6 4 .1 9 5 10.2 1.5.4 3.3.4 4.6 1 1.9.9 2.4 2.7 2.8 4.3a65 65 0 0 1 1.1 8.2l.1-1.3z" fill="url(#_Linear29)" fill-rule="nonzero" transform="matrix(.314 0 0 .314 112 -10.6)"/><path d="M606 559a17.7 17.7 0 0 1-15.8 8.4c-3.3-.1-7-1.2-9.7.4-1.8 1-2.3 2.9-3.7 4.2-3.4 3.1-9.9 2-14.9.7a16 16 0 0 1-5.2-2 6.5 6.5 0 0 1-2.6-4.3l-.1 5.6c-.3 3.4-.5 7.2 2.7 9.5a16 16 0 0 0 5.2 2c5 1.4 11.5 2.5 14.9-.7 1.4-1.3 2-3.1 3.7-4.2 2.6-1.5 6.4-.5 9.7-.3 6.4.3 12.5-3 15.8-8.4a22 22 0 0 0 1.6-14.9c-.4 1.4-.9 2.7-1.6 4z" fill="url(#_Linear30)" fill-rule="nonzero" transform="matrix(.314 0 0 .314 112 -10.6)"/><path d="M617.6 470.4c-1.4 1-2.6 2.1-3.7 3.4-.8 1.4-1.1 3-.9 4.6.2 2 .6 4 1.3 5.8a25 25 0 0 1 3.3-3c6-5 7.4-12.1 5.5-18.8-1 3.1-3 6-5.5 8z" fill="url(#_Linear31)" fill-rule="nonzero" transform="matrix(.314 0 0 .314 112 -10.6)"/><path d="M615.8 515.7c-3.2 2.4-8 3.9-10 7a9 9 0 0 0-1.2 5.3c.1 2 .4 4.2.8 6.3l.4-.7c2-3.2 6.8-4.6 10-7 5.6-4.3 6-10.9 4.4-16.8-.9 2.4-2.4 4.4-4.4 5.9z" fill="url(#_Linear32)" fill-rule="nonzero" transform="matrix(.314 0 0 .314 112 -10.6)"/><path d="M657.5 518c-3.7 9.3-8.6 13-8.6 13h-2.7l-23.7.3-2.7-7.4 3.8-16 2.4.1c1.4.7 3 1.2 4.6 1.4a27 27 0 0 1 6.5.4c1 0 1.9-1.4 1.9-1.4s22.2 0 18.5 9.5v.1z" fill="url(#_Linear33)" fill-rule="nonzero" transform="matrix(.314 0 0 .314 112 -10.6)"/><path d="M657.5 518c-3.7 9.3-8.6 13-8.6 13h-2.7c1.4-3.7 4.4-11.4 5.5-13.1 1.2-1.8-8.8-5.9-14.6-8.1 1-.1 1.9-1.4 1.9-1.4s22.2 0 18.5 9.5v.1z" fill="url(#_Linear34)" fill-rule="nonzero" transform="matrix(.314 0 0 .314 112 -10.6)"/><path d="M312.5 154.3s4 2.7 5.6 1.3c1.6-1.5 1.4-4.2 1.2-4.6-.3-.4-2-6-2-6l-3.2-8.1s-2-10.8-4.8-8.1c-3 2.7 1.5 9.1 1.5 9.1s1.9 4.7 1.8 5.7c-.1.9 1 4.4 1 4.4l-1.1 6.3z" fill="#efb7b9" fill-rule="nonzero"/><path d="M304.8 250.3v.4c-.5 1.3-1.2 1-3.3 3.2a4.2 4.2 0 0 1-4.2 1.2.5.5 0 0 1-.4-.6l.3-3.4.1-1.7s3.4 1 5-.3l.3-.1c.2-.2.6-.4.9-.4a1.4 1.4 0 0 1 1.3 1.7zm-10.5-1.3l-.2.4c-.3 1.3-1 1-3.2 3.2a4.2 4.2 0 0 1-4.2 1.2.5.5 0 0 1-.3-.6l.2-3.5.1-1.7s3.4 1 5.1-.2l.2-.1c.3-.3.6-.4 1-.4a1.4 1.4 0 0 1 1.3 1.7z" fill="#487cb6" fill-rule="nonzero"/><path d="M290.8 249.5l.1 1.8c-2 2-4.2-1-4.9-1.9 1.8 1 4.8.1 4.8.1zm11.3.8l.3-.2c-1.8 2.7-4.4 1.4-5.2 1l.1-1.7s3.4 1 5-.3c0 .7-.2 1.2-.2 1.2z" fill-opacity=".1" fill-rule="nonzero"/><path d="M307.5 199.5c-1.4 3.4-2.7 14.7-2.9 16l-.1 6.7-.3 13.2c0 1.6-1.3 5.8-1.3 5.8s-.4 3.4-.2 4.6c.2 1.1-.6 4.1-.6 4.1l.3-.2c-2.1 3.3-5.5.8-5.5.8s-.8-3.8 0-4.8c1-1-.2-4-.2-4l.5-16.3c.2-.7-.5-3-1-4.8-.7-1.8.3-9 .5-10.3a57 57 0 0 0-.3-8.5c-.2-1.2.2-6.3.2-6.3-.8-2.6-1.5-.3-1.5-.3l-.7 6.7-.7 13.6s.1 4.1-.5 5.3a21 21 0 0 0-1.2 4.3l.3 15.3s0 3.3.2 4.5c.2 1.2-.5 4.4-.5 4.4-2.4 5.6-6.2-.5-6.2-.5s.2-1 .5-1c.4-.2-.1-2.5-.4-2.8-.2-.4 0-3.2 0-3.2l-.7-5.5c-.4-3-.3-14.6 0-15.3.3-.7.5-4 .5-4s-.3-2 .1-3.3c.4-1.4-1-7-1-7.7 0-.6-.6-4.6-.9-5-.2-.4-.2-.8-.2-1.2 0-.4 0-.8-.8-3.4-.5-1.8-.2-5.5 0-7.3l.1-1.1s24.3-4 25.3-3c.2.2.4.9.4 1.9.3 3.4-.2 10-1.2 12.6z" fill="#444053" fill-rule="nonzero"/><path d="M298.3 218.5c.1 0 2.8.2 3.8 0s-3.8 0-3.8 0zm.2 1.6s3.7.6 4 .3c.1-.4-4-.3-4-.3zm-11.3-.7s2 0 3 .5-3-.5-3-.5z" fill-opacity=".1" fill-rule="nonzero"/><path d="M280.3 172s.3 5.9 0 6.9c0 0 .8 4.8 1.3 6 .5 1 1.1 1.8 1.8 2.7l1.7-11.7-.4-4h-4.4v.1z" fill="#efb7b9" fill-rule="nonzero"/><circle cx="522.3" cy="422.3" r="20.7" fill="#efb7b9" transform="matrix(.314 0 0 .314 133.7 6)"/><path d="M294.4 141.7s-2 4-4.1 5.8c-2 1.9 12.2 4 12.5 4 .3 0-2.5-8.5-2-9.5s-6.5-.3-6.5-.3h.1z" fill="#efb7b9" fill-rule="nonzero"/><path d="M308.7 187l-1 .5c-2.6 1-5.4 2.4-7.3 1.9-2-.6-6 0-6 0s-8.2-.7-9.8-.3c-.6.2-1.1.2-1.7 0l.1-1s24.3-4 25.3-3.1c.2.2.3.9.4 2z" fill-opacity=".1" fill-rule="nonzero"/><path d="M310.5 183.2s-.2 2.8-2.8 3.8c-2.6 1-5.4 2.4-7.3 1.9-2-.6-6 0-6 0s-8.2-.7-9.8-.3c-1.7.4-2.5-.1-2-.9.5-.7.5-3.1.5-4.1 0-1-.6-5.2-.1-6 .5-.6 1-3.5 2-4 .3 0 .5-.3.6-.6v-1c0-.4-.2-.2-.4-.4-.6-.5-1.6-1.5-1.3-1.9.5-.4 0-3.3 0-3.3s-1-2.3-.7-3.1c.4-.9-3.4-5.3-3.4-5.3s0-7.7 4.6-8c0 0 3.3 0 3.7-1.4.4-1.5 3-2.3 3-2.3l5.9 1.3s5.2 1.1 6.2.4c1-.6 1.7 1 1.7 1s3.2.1 3.6.8c.3.6-1.1 7.2-1.1 7.2s-2.4-.2-2.2 2.4c.2 2.5-1 5.7-1 5.7v2.3c.1.4-.2 1.7-.2 2 0 .3-.3 1 0 1.3h.1c.5.3 1.2 2.5 1.2 2.5.3.4.5 1 .5 1.5 0 .9.3 3 1.7 4.3 1.5 1.2 3 4.2 3 4.2z" fill="#487cb6" fill-rule="nonzero"/><path d="M285.4 170.1v.2l-.1 2.7s-3.5.3-5.4-.2c-1.9-.5-1-2.6-1-3l.6-4.2-.1-3.8c-.1-1 .4-3.8.4-3.8l.4-.5 4 1.5 1.2 11.1z" fill="#487cb6" fill-rule="nonzero"/><path d="M285.3 170.3v2.7s-3.5.3-5.4-.2c-1.9-.5-1-2.6-1-3l6.4.5z" fill-opacity=".1" fill-rule="nonzero"/><path d="M285.6 173v-1c0-.4-.2-.2-.4-.4 3-.4 14.8-2 18.8-2.2 4-.2-.2 1 0 1.3l-18.4 2.3zm18.8 2s.7 4.2-2 5.6c0 0 1.6-2 2-5.6zm-17.9 5.7s6.6-1 8-.2c1.2.9-8 .2-8 .2zm15.6-25.6s-1 4.1-.2 5c.7 1 .2-5 .2-5zm-19-3.5s.9 1.6.3 3.2c-.6 1.6-.4-3.2-.4-3.2h.1z" fill-opacity=".1" fill-rule="nonzero"/><path d="M281.1 165.2s1.2.7.8 1.8c-.4 1.1-.8-1.8-.8-1.8z" fill="#487cb6" fill-rule="nonzero"/><path d="M281 162s1 .6 1.2 1.5c.2.9-1.2-1.5-1.2-1.5zm16.3 33.7s6.9.7 8.3-1c0 .1-6.3 1.3-8.3 1zm-12-.4s7.5 1.8 9 .4c0 0-6.4.5-9-.4zm12.5 2.7l4.6.1h-4.6v-.1zm-12 1.3s1.6 1.8 3.3 1.4c1.7-.3-3.2-1.4-3.2-1.4h-.1z" fill-opacity=".1" fill-rule="nonzero"/><path d="M288.8 129c-.4.7-.4 1.5-.6 2.3-.3 2-1.3 4-2.7 5.4-1.3 1.4-3.2 2.7-3.5 4.5-.4 1.6.7 3.2 1.3 4.9 1.6 4.2-.6 8.7-1.2 13.2-.2 1.2 0 2.7 1.5 3.1l1.5.4c.5.2.7.8.8 1.3.4 1.8.5 3.7.4 5.5 0 1-.2 2.3.8 3 .5.3 1 .5 1.6.6 1.6.4 3.6.8 4.6-.2.5-.4.6-1 1.2-1.3.8-.5 2-.2 3-.1 2 0 3.9-1 4.9-2.7a7 7 0 0 0 .4-4.8c-.3-1.6-.8-3.2-.9-4.8 0-.6.1-1.2.4-1.6.6-1 2-1.5 3-2.2 2-1.5 2-3.8 1.3-5.8s-2-3.8-2-5.8c-.2-.5 0-1 .2-1.5l1.2-1c2.7-2.3 2.4-6.1.1-8.7-2.5-2.9-13.8-9-17.3-3.8v.1z" fill="#e3787d" fill-rule="nonzero"/><path d="M283.7 147.9c.3-1.7.1-3.5-.4-5.1-.3-.8-.8-1.6-1-2.5l-.4 1c-.3 1.6.8 3.2 1.4 4.9l.4 1.7zm2.5 18.4c.1-1.8 0-3.7-.4-5.5 0-.5-.2-1-.8-1.3-.4-.2-1-.2-1.4-.3a2 2 0 0 1-1.4-1.1l-.2 1.3c-.2 1.2 0 2.7 1.6 3.1l1.4.4c.6.2.7.8.8 1.3l.4 2.1zm16.1-.6c-1 1.7-3 2.7-4.9 2.6-1 0-2.2-.4-3 .1-.5.3-.7.9-1.1 1.3-1 1-3 .7-4.6.2a5 5 0 0 1-1.6-.6 2 2 0 0 1-.8-1.3v1.7c-.1 1-.2 2.3.8 3 .5.3 1 .5 1.6.6 1.5.4 3.5.8 4.6-.2.4-.4.6-1 1.1-1.3.8-.5 2-.2 3-.1 2 .1 3.9-.9 4.9-2.6a7 7 0 0 0 .5-4.7 5 5 0 0 1-.5 1.3zm3.6-27.6l-1.2 1c-.2.5-.3 1-.2 1.5l.3 1.8 1-1a5.5 5.5 0 0 0 1.8-5.8c-.3 1-1 1.8-1.7 2.5zm-.6 14c-1 .9-2.4 1.3-3 2.3-.3.5-.4 1-.4 1.6 0 .7 0 1.3.2 2l.1-.2c.7-1 2.1-1.5 3.1-2.2 1.7-1.3 1.9-3.4 1.4-5.3a4 4 0 0 1-1.4 1.9v-.1z" fill-opacity=".2" fill-rule="nonzero"/><path d="M318.2 152.9c-1.2 3-2.7 4-2.7 4h-.8l-7.3.1-.8-2.3 1.1-5h.8c.4.3.9.5 1.4.5l1.9.1h.1c.3 0 .6-.4.6-.4s6.9 0 5.7 3z" fill="#487cb6" fill-rule="nonzero"/><path d="M318.2 152.9c-1.2 3-2.7 4-2.7 4h-.8l1.7-4c.4-.6-2.7-1.8-4.5-2.5.3 0 .6-.5.6-.5s6.9 0 5.7 3z" fill-opacity=".1" fill-rule="nonzero"/><defs><linearGradient id="_Linear1" x2="1" gradientUnits="userSpaceOnUse" gradientTransform="matrix(0 -88.74 88.74 0 39611.5 527.8)"><stop offset="0" stop-color="gray" stop-opacity=".2"/><stop offset=".5" stop-color="gray" stop-opacity=".1"/><stop offset="1" stop-color="gray" stop-opacity=".1"/></linearGradient><linearGradient id="_Linear2" x2="1" gradientUnits="userSpaceOnUse" gradientTransform="matrix(0 -21.21 21.21 0 18108.2 846.5)"><stop offset="0" stop-color="gray" stop-opacity=".2"/><stop offset=".5" stop-color="gray" stop-opacity=".1"/><stop offset="1" stop-color="gray" stop-opacity=".1"/></linearGradient><linearGradient id="_Linear3" x2="1" gradientUnits="userSpaceOnUse" gradientTransform="matrix(0 -21.21 21.21 0 17982.8 842.3)"><stop offset="0" stop-color="gray" stop-opacity=".2"/><stop offset=".5" stop-color="gray" stop-opacity=".1"/><stop offset="1" stop-color="gray" stop-opacity=".1"/></linearGradient><linearGradient id="_Linear4" x2="1" gradientUnits="userSpaceOnUse" gradientTransform="matrix(0 -8.16 8.16 0 7317.7 836.1)"><stop offset="0" stop-color="gray" stop-opacity="0"/><stop offset=".5" stop-color="gray" stop-opacity="0"/><stop offset="1" stop-color="gray" stop-opacity="0"/></linearGradient><linearGradient id="_Linear5" x2="1" gradientUnits="userSpaceOnUse" gradientTransform="matrix(0 -8.49 8.49 0 7618.3 835.4)"><stop offset="0" stop-color="gray" stop-opacity="0"/><stop offset=".5" stop-color="gray" stop-opacity="0"/><stop offset="1" stop-color="gray" stop-opacity="0"/></linearGradient><linearGradient id="_Linear6" x2="1" gradientUnits="userSpaceOnUse" gradientTransform="matrix(0 -214.53 214.53 0 133721 835)"><stop offset="0" stop-color="gray" stop-opacity=".2"/><stop offset=".5" stop-color="gray" stop-opacity=".1"/><stop offset="1" stop-color="gray" stop-opacity=".1"/></linearGradient><linearGradient id="_Linear7" x2="1" gradientUnits="userSpaceOnUse" gradientTransform="matrix(0 -.57 .57 0 1014.6 728.9)"><stop offset="0" stop-color="gray" stop-opacity="0"/><stop offset=".5" stop-color="gray" stop-opacity="0"/><stop offset="1" stop-color="gray" stop-opacity="0"/></linearGradient><linearGradient id="_Linear8" x2="1" gradientUnits="userSpaceOnUse" gradientTransform="rotate(-90 1148 -413) scale(1.31)"><stop offset="0" stop-color="gray" stop-opacity="0"/><stop offset=".5" stop-color="gray" stop-opacity="0"/><stop offset="1" stop-color="gray" stop-opacity="0"/></linearGradient><linearGradient id="_Linear9" x2="1" gradientUnits="userSpaceOnUse" gradientTransform="matrix(0 -2.21 2.21 0 2178.7 733.7)"><stop offset="0" stop-color="gray" stop-opacity="0"/><stop offset=".5" stop-color="gray" stop-opacity="0"/><stop offset="1" stop-color="gray" stop-opacity="0"/></linearGradient><linearGradient id="_Linear10" x2="1" gradientUnits="userSpaceOnUse" gradientTransform="matrix(0 -50.41 50.41 0 29729.9 629.5)"><stop offset="0" stop-color="gray" stop-opacity=".2"/><stop offset=".5" stop-color="gray" stop-opacity=".1"/><stop offset="1" stop-color="gray" stop-opacity=".1"/></linearGradient><linearGradient id="_Linear11" x2="1" gradientUnits="userSpaceOnUse" gradientTransform="matrix(0 -41.82 41.82 0 17183.3 440.2)"><stop offset="0" stop-color="gray" stop-opacity=".2"/><stop offset=".5" stop-color="gray" stop-opacity=".1"/><stop offset="1" stop-color="gray" stop-opacity=".1"/></linearGradient><linearGradient id="_Linear12" x2="1" gradientUnits="userSpaceOnUse" gradientTransform="matrix(0 -32.21 32.21 0 16086.1 513.4)"><stop offset="0" stop-color="gray" stop-opacity=".2"/><stop offset=".5" stop-color="gray" stop-opacity=".1"/><stop offset="1" stop-color="gray" stop-opacity=".1"/></linearGradient><linearGradient id="_Linear13" x2="1" gradientUnits="userSpaceOnUse" gradientTransform="rotate(-90 5248.4 -4613) scale(14.95)"><stop offset="0" stop-color="gray" stop-opacity="0"/><stop offset=".5" stop-color="gray" stop-opacity="0"/><stop offset="1" stop-color="gray" stop-opacity="0"/></linearGradient><linearGradient id="_Linear14" x2="1" gradientUnits="userSpaceOnUse" gradientTransform="matrix(0 -137.1 137.1 0 68694.1 633.8)"><stop offset="0" stop-color="gray" stop-opacity=".2"/><stop offset=".5" stop-color="gray" stop-opacity=".1"/><stop offset="1" stop-color="gray" stop-opacity=".1"/></linearGradient><linearGradient id="_Linear15" x2="1" gradientUnits="userSpaceOnUse" gradientTransform="matrix(0 -49.96 49.96 0 27159 582.7)"><stop offset="0" stop-color="gray" stop-opacity=".2"/><stop offset=".5" stop-color="gray" stop-opacity=".1"/><stop offset="1" stop-color="gray" stop-opacity=".1"/></linearGradient><linearGradient id="_Linear16" x2="1" gradientUnits="userSpaceOnUse" gradientTransform="matrix(0 -10.53 10.53 0 6565.6 582.7)"><stop offset="0" stop-color="gray" stop-opacity="0"/><stop offset=".5" stop-color="gray" stop-opacity="0"/><stop offset="1" stop-color="gray" stop-opacity="0"/></linearGradient><linearGradient id="_Linear17" x2="1" gradientUnits="userSpaceOnUse" gradientTransform="rotate(-90 3878.5 -3296) scale(11.55)"><stop offset="0" stop-color="gray" stop-opacity="0"/><stop offset=".5" stop-color="gray" stop-opacity="0"/><stop offset="1" stop-color="gray" stop-opacity="0"/></linearGradient><linearGradient id="_Linear18" x2="1" gradientUnits="userSpaceOnUse" gradientTransform="matrix(0 -18.02 18.02 0 11223.6 607)"><stop offset="0" stop-color="gray" stop-opacity="0"/><stop offset=".5" stop-color="gray" stop-opacity="0"/><stop offset="1" stop-color="gray" stop-opacity="0"/></linearGradient><linearGradient id="_Linear19" x2="1" gradientUnits="userSpaceOnUse" gradientTransform="matrix(0 -2.56 2.56 0 2118 608)"><stop offset="0" stop-color="gray" stop-opacity="0"/><stop offset=".5" stop-color="gray" stop-opacity="0"/><stop offset="1" stop-color="gray" stop-opacity="0"/></linearGradient><linearGradient id="_Linear20" x2="1" gradientUnits="userSpaceOnUse" gradientTransform="matrix(0 -16.8 16.8 0 9423.2 541.7)"><stop offset="0" stop-color="gray" stop-opacity="0"/><stop offset=".5" stop-color="gray" stop-opacity="0"/><stop offset="1" stop-color="gray" stop-opacity="0"/></linearGradient><linearGradient id="_Linear21" x2="1" gradientUnits="userSpaceOnUse" gradientTransform="matrix(0 -11.21 11.21 0 6306.3 525.2)"><stop offset="0" stop-color="gray" stop-opacity="0"/><stop offset=".5" stop-color="gray" stop-opacity="0"/><stop offset="1" stop-color="gray" stop-opacity="0"/></linearGradient><linearGradient id="_Linear22" x2="1" gradientUnits="userSpaceOnUse" gradientTransform="matrix(0 -6.6 6.6 0 4218.3 564.1)"><stop offset="0" stop-color="gray" stop-opacity=".2"/><stop offset=".5" stop-color="gray" stop-opacity=".1"/><stop offset="1" stop-color="gray" stop-opacity=".1"/></linearGradient><linearGradient id="_Linear23" x2="1" gradientUnits="userSpaceOnUse" gradientTransform="matrix(0 -5.34 5.34 0 3461 552.6)"><stop offset="0" stop-color="gray" stop-opacity="0"/><stop offset=".5" stop-color="gray" stop-opacity="0"/><stop offset="1" stop-color="gray" stop-opacity="0"/></linearGradient><linearGradient id="_Linear24" x2="1" gradientUnits="userSpaceOnUse" gradientTransform="matrix(0 -3.47 3.47 0 2867.4 656)"><stop offset="0" stop-color="gray" stop-opacity="0"/><stop offset=".5" stop-color="gray" stop-opacity="0"/><stop offset="1" stop-color="gray" stop-opacity="0"/></linearGradient><linearGradient id="_Linear25" x2="1" gradientUnits="userSpaceOnUse" gradientTransform="matrix(0 -2.88 2.88 0 2449.6 657.1)"><stop offset="0" stop-color="gray" stop-opacity="0"/><stop offset=".5" stop-color="gray" stop-opacity="0"/><stop offset="1" stop-color="gray" stop-opacity="0"/></linearGradient><linearGradient id="_Linear26" x2="1" gradientUnits="userSpaceOnUse" gradientTransform="matrix(0 -4.65 4.65 0 3660.3 671.7)"><stop offset="0" stop-color="gray" stop-opacity="0"/><stop offset=".5" stop-color="gray" stop-opacity="0"/><stop offset="1" stop-color="gray" stop-opacity="0"/></linearGradient><linearGradient id="_Linear27" x2="1" gradientUnits="userSpaceOnUse" gradientTransform="matrix(0 -150.27 150.27 0 65843.3 584.5)"><stop offset="0" stop-color="gray" stop-opacity=".2"/><stop offset=".5" stop-color="gray" stop-opacity=".1"/><stop offset="1" stop-color="gray" stop-opacity=".1"/></linearGradient><linearGradient id="_Linear28" x2="1" gradientUnits="userSpaceOnUse" gradientTransform="matrix(0 -24.2 24.2 0 12100.9 501.8)"><stop offset="0" stop-color="gray" stop-opacity=".2"/><stop offset=".5" stop-color="gray" stop-opacity=".1"/><stop offset="1" stop-color="gray" stop-opacity=".1"/></linearGradient><linearGradient id="_Linear29" x2="1" gradientUnits="userSpaceOnUse" gradientTransform="rotate(-90 8004.4 -7442) scale(27.87)"><stop offset="0" stop-color="gray" stop-opacity=".2"/><stop offset=".5" stop-color="gray" stop-opacity=".1"/><stop offset="1" stop-color="gray" stop-opacity=".1"/></linearGradient><linearGradient id="_Linear30" x2="1" gradientUnits="userSpaceOnUse" gradientTransform="rotate(-90 8872 -8287) scale(29.87)"><stop offset="0" stop-color="gray" stop-opacity=".2"/><stop offset=".5" stop-color="gray" stop-opacity=".1"/><stop offset="1" stop-color="gray" stop-opacity=".1"/></linearGradient><linearGradient id="_Linear31" x2="1" gradientUnits="userSpaceOnUse" gradientTransform="matrix(0 -21.84 21.84 0 10717.2 484.2)"><stop offset="0" stop-color="gray" stop-opacity=".2"/><stop offset=".5" stop-color="gray" stop-opacity=".1"/><stop offset="1" stop-color="gray" stop-opacity=".1"/></linearGradient><linearGradient id="_Linear32" x2="1" gradientUnits="userSpaceOnUse" gradientTransform="matrix(0 -24.48 24.48 0 13092.7 534.2)"><stop offset="0" stop-color="gray" stop-opacity=".2"/><stop offset=".5" stop-color="gray" stop-opacity=".1"/><stop offset="1" stop-color="gray" stop-opacity=".1"/></linearGradient><linearGradient id="_Linear33" x2="1" gradientUnits="userSpaceOnUse" gradientTransform="matrix(0 -23.44 23.44 0 12544 531.2)"><stop offset="0" stop-color="gray" stop-opacity=".2"/><stop offset=".5" stop-color="gray" stop-opacity=".1"/><stop offset="1" stop-color="gray" stop-opacity=".1"/></linearGradient><linearGradient id="_Linear34" x2="1" gradientUnits="userSpaceOnUse" gradientTransform="matrix(0 -22.66 22.66 0 12167.8 531)"><stop offset="0" stop-color="gray" stop-opacity="0"/><stop offset=".5" stop-color="gray" stop-opacity="0"/><stop offset="1" stop-color="gray" stop-opacity="0"/></linearGradient></defs></svg>