<svg viewBox="0 0 600 264" xmlns="http://www.w3.org/2000/svg" fill-rule="evenodd" clip-rule="evenodd" stroke-miterlimit="10"><path fill="none" d="M0 0h600v264H0z"/><g transform="translate(116.2 5.6) scale(.31485)"><ellipse cx="559" cy="734.9" rx="559" ry="68" fill="#487cb6" fill-opacity=".1"/><path d="M956.5 768.2s29.1-37.1 26.8-74a71.5 71.5 0 0 1 11.2-43.7 121.5 121.5 0 0 1 13.7-17.2" fill="none" stroke="#535461" stroke-width="2"/><path d="M1006.9 610c-2 5.2 1.3 23.9 1.3 23.9s15.3-11.2 17.3-16.4c.5-1.2.8-2.4.8-3.7a10 10 0 1 0-19.4-3.7zM980 632.6c1 5.4 14 19.2 14 19.2s6.7-17.7 5.7-23.1a10 10 0 0 0-10-8.1 10 10 0 0 0-9.8 12zm-18.8 49c3.7 4.2 21.9 9.5 21.9 9.5s-3.2-18.7-6.9-22.8a10 10 0 0 0-7.5-3.4 10 10 0 0 0-7.5 16.7zm-5.9 40.3c3 4.7 20 13.1 20 13.1s0-19-2.9-23.7a10 10 0 0 0-8.5-4.7 10 10 0 0 0-8.6 15.3zm58-61.3c-5.2 2.2-24-1-24-1s11-15.4 16.2-17.5a10 10 0 0 1 3.9-.7 10 10 0 1 1 3.8 19.3zm-7.5 47c-5.6.6-22.5-8-22.5-8s15.2-11.4 20.7-12h.9a10 10 0 0 1 10 10c0 5.3-4 9.6-9.1 10zm-13.5 44.8c-5.4 1.4-23.5-4.2-23.5-4.2s13-13.8 18.3-15.2a10 10 0 0 1 12.6 9.7 10 10 0 0 1-7.5 9.7z" fill="#487cb6" fill-rule="nonzero"/><path d="M1006.9 610c-2 5.2 1.3 23.9 1.3 23.9s15.3-11.2 17.3-16.4c.5-1.2.8-2.4.8-3.7a10 10 0 1 0-19.4-3.7zM980 632.6c1 5.4 14 19.2 14 19.2s6.7-17.7 5.7-23.1a10 10 0 0 0-10-8.1 10 10 0 0 0-9.8 12zm-18.8 49c3.7 4.2 21.9 9.5 21.9 9.5s-3.2-18.7-6.9-22.8a10 10 0 0 0-7.5-3.4 10 10 0 0 0-7.5 16.7zm-5.9 40.3c3 4.7 20 13.1 20 13.1s0-19-2.9-23.7a10 10 0 0 0-8.5-4.7 10 10 0 0 0-8.6 15.3zm58-61.3c-5.2 2.2-24-1-24-1s11-15.4 16.2-17.5a10 10 0 0 1 3.9-.7 10 10 0 1 1 3.8 19.3zm-7.5 47c-5.6.6-22.5-8-22.5-8s15.2-11.4 20.7-12h.9a10 10 0 0 1 10 10c0 5.3-4 9.6-9.1 10zm-13.5 44.8c-5.4 1.4-23.5-4.2-23.5-4.2s13-13.8 18.3-15.2a10 10 0 0 1 12.6 9.7 10 10 0 0 1-7.5 9.7z" fill-opacity=".3" fill-rule="nonzero"/><path d="M956.7 766.6s41.7-22 54.5-56.7a71.6 71.6 0 0 1 28-35.5c6.2-4 12.7-7.3 19.5-10.1" fill="none" stroke="#535461" stroke-width="2"/><path d="M1066.9 642.5c-4 3.9-8.5 22.3-8.5 22.3s18.5-4 22.5-8a10 10 0 0 0 3-7.1 10 10 0 0 0-17-7.2zm-33.6 9.6c-1.2 5.4 5 23.3 5 23.3s13.3-13.4 14.6-18.9l.2-2.2a10 10 0 1 0-19.8-2.2zm-37 37.2c1.6 5.3 16 17.6 16 17.6s4.8-18.3 3-23.6a10 10 0 0 0-9.5-7 10.1 10.1 0 0 0-9.6 13zm-21.7 34.5c.7 5.5 12.9 20 12.9 20s7.7-17.3 7-22.7a10 10 0 1 0-19.9 2.7zm77.7-32.5c-5.5-.2-21.4-10.6-21.4-10.6s16.4-9.7 22-9.5a10 10 0 0 1 9.7 10 10 10 0 0 1-10.3 10zm-25.9 40c-5.2-1.8-17.2-16.5-17.2-16.5s18.5-4.3 23.7-2.5a10 10 0 0 1 6.8 9.5 10 10 0 0 1-13.3 9.5zM996 766.6c-5.4-1-19.7-13.4-19.7-13.4s17.5-7.3 23-6.5a10 10 0 0 1-1.6 20l-1.6-.1z" fill="#487cb6" fill-rule="nonzero"/><path d="M637.1 95c-55.2-1.8-107.8-19.7-158-39.2-50.3-19.5-100-41.1-154-51.4-34.6-6.6-74.3-7.6-102.2 11-26.9 17.9-35.6 48.7-40.3 77.4-3.5 21.5-5.6 44.2 4 64.4 6.7 14 18.6 25.8 26.8 39.2 28.6 46.7 8.4 104.3-22.6 150-14.5 21.3-31.3 41.7-42.6 64.5-11.2 22.8-16.3 48.9-6.5 72.1 9.7 23 32.8 40.3 58 52.5 50.9 24.7 111 31.8 169.4 35.8 129.6 8.8 259.9 5 389.8 1.1 48-1.4 96.4-2.8 143.7-10.3 26.2-4 53.4-10.6 72.4-26.5 24.2-20 30.2-54 14-79.2-27.2-42.3-102.4-52.8-121.4-98-10.5-25 .3-52.8 15.5-76 32.6-49.6 87.3-93.2 90.2-150 2-39-24.3-78-65-96.3C865.7 16.7 806.6 19 775 51c-32.3 33-89.2 45.7-138 44z" fill="#487cb6" fill-opacity=".1" fill-rule="nonzero"/><path d="M593 316.5h-24.9c0-1.9.2-3.8.4-5.7.8-6.8 3.2-17.8 10.6-23 7-4.8 16 2.5 12.5 10.2l-.1.2a16.9 16.9 0 0 0-1 9.4 39.4 39.4 0 0 0 2.5 9z" fill="#487cb6" fill-rule="nonzero"/><path d="M593 316.5h-24.9c0-1.9.2-3.8.4-5.7a52 52 0 0 1 22-3.2 39.4 39.4 0 0 0 2.5 9z" fill-opacity=".1" fill-rule="nonzero"/><path d="M609.1 342.9c-6.4 5.2-15.4 5.3-24.7 3-18.9-4.6-38.6-19-38.6-19a44.2 44.2 0 0 1 4.3-4.2 55.3 55.3 0 0 1 49.5-12.6 24.4 24.4 0 0 1 14.4 9.6c4 5.8 6 14.3-4.9 23.2z" fill="#487cb6" fill-rule="nonzero"/><path d="M601.5 332.3s-14.4-12.2-34.2 4" fill-opacity=".1" fill-rule="nonzero"/><path d="M197.1 435.5s-46.3-35.6-48.6-3.3c-2.4 32.3 9.3 62.7 19.3 65.3 10 2.7 29.3-62 29.3-62z" fill="#487cb6" fill-rule="nonzero"/><path d="M197.1 435.5s-46.3-35.6-48.6-3.3c-2.4 32.3 9.3 62.7 19.3 65.3 10 2.7 29.3-62 29.3-62z" fill-opacity=".2" fill-rule="nonzero"/><path d="M166.8 446.9s1 29.7 10.3 25-4.3-23.7-10.3-25z" fill-opacity=".1" fill-rule="nonzero"/><path d="M311 689a54.4 54.4 0 0 1-5 13.2l-1.9 3.3c-10.9 18.2-36.1 25.7-36.1 21.7s-2.5-14.3-8.8-11.3-16 2.3-16 2.3c-17.5-1.3-14.5-18.5-8.7-33.1a134 134 0 0 1 6.5-14l3.8-6.6 66.7 10.7s1.5 5.2-.5 13.9z" fill="#487cb6" fill-rule="nonzero"/><path d="M584.4 346c-18.9-4.7-38.6-19.1-38.6-19.1a44.2 44.2 0 0 1 4.3-4.2l8.7 4.8a165 165 0 0 1 25.6 18.4zM311 689c-18-1.6-44.3-6-70-17.9l3.8-6.6 66.7 10.7s1.5 5.2-.5 13.9z" fill-opacity=".1" fill-rule="nonzero"/><path d="M591.8 602.5s-1.2 21.4-13.3 45.5a115.4 115.4 0 0 1-41.4 46.5c-17.8 11.4-10.6 8.7-11.3-15.3 0 0-4.7-5-36.7 16.8 0 0-19.3 11.8-14-37.4l-1.3.8c-2.4 1.4-7.2 4.2-13 7.1-10.5 5.3-24.2 10.7-31 7.3a102 102 0 0 1-11.3 35.6 60 60 0 0 1-34 29.6 23.9 23.9 0 0 1-24.1-5.9l-2-1.9s-14.6 10-22 6.7-13.3-12.7-3.3-30l1.2-3.6c1.6-5.3 4-15 .2-16.4 0 0-155.4 8-176-130-20.7-138 116-188.7 154.6-183.4 0 0 102.7-129.3 244.7-46 142 83.4 34 274 34 274z" fill="#487cb6" fill-rule="nonzero"/><path d="M313.1 374.5s169.2-.6 157.6 218.7" fill="none" stroke="#000" stroke-opacity=".1"/><path d="M306 702.2l-1.9 3.3c-10.9 18.2-36.1 25.7-36.1 21.7s-2.5-14.3-8.8-11.3-16 2.3-16 2.3c-17.5-1.3-14.5-18.5-8.7-33.1 16.3 8.2 45.9 20.4 71.5 17.1zm112.5 7.2a60 60 0 0 1-34 29.6 23.9 23.9 0 0 1-24.1-5.9l-2-1.9s-14.6 10-22 6.7-13.3-12.7-3.3-30l1.2-3.6c13 4.6 47.7 14.4 84.2 5.1z" fill-opacity=".2" fill-rule="nonzero"/><path d="M475.1 658.5c60.4-31.3 70.7-56.3 70.7-56.3" fill-opacity=".1" fill-rule="nonzero"/><path d="M578.5 648a115.4 115.4 0 0 1-41.4 46.5c-17.8 11.4-10.6 8.7-11.3-15.3 0 0-4.7-5-36.7 16.8 0 0-19.3 11.8-14-37.4l16-8.9c34.5 19.2 69.1 7.5 87.4-1.7z" fill-opacity=".2" fill-rule="nonzero"/><path d="M331.1 393.9s34-52 59.7-35.7c25.7 16.3-4.7 77.3-4.7 77.3s-50.3-1-55-41.6z" fill="#487cb6" fill-rule="nonzero"/><path d="M331.1 393.9s34-52 59.7-35.7c25.7 16.3-4.7 77.3-4.7 77.3s-50.3-1-55-41.6z" fill-opacity=".2" fill-rule="nonzero"/><path d="M386.5 379.5s-44.7 21.7-31 34.4c13.6 12.6 31-34.4 31-34.4z" fill-opacity=".1" fill-rule="nonzero"/><path d="M504.8 320.9a185.6 185.6 0 0 0-33.8 6h-.3a104.9 104.9 0 0 0-45.6 24s-28.3-12-36-10c0 0 23-28 84.9-28.7h.1s16 1.3 30.7 8.7z" fill="none"/><ellipse cx="308.2" cy="588.8" rx="62.4" ry="51.7" fill-opacity=".1" transform="rotate(-13 74.5 744.5)"/><ellipse cx="308.2" cy="586.8" rx="62.4" ry="51.7" fill="#487cb6" transform="rotate(-13 74.5 742.5)"/><ellipse cx="308.2" cy="586.8" rx="62.4" ry="51.7" fill-opacity=".2" transform="rotate(-13 74.5 742.5)"/><path d="M240.8 538.2s.7 19.3 6.3 13.7.4-13.7-6.3-13.7zm32.3-14.7s.7 19.3 6.4 13.7.3-13.8-6.4-13.7zM328 634.2s13.9 13.7 30.9-5.3M389.1 340.9c7.7-2 36 10 36 10a105 105 0 0 1 45.6-24l3.3-14.7c-62 .7-84.9 28.7-84.9 28.7z" fill-opacity=".1" fill-rule="nonzero"/><path d="M474.1 312.2l-3 14.7a185.6 185.6 0 0 1 33.7-6c-14.7-7.4-30.7-8.7-30.7-8.7z" fill-opacity=".3" fill-rule="nonzero"/><path d="M474 312.2l-3.2 14.8.3-.1 3-14.7h-.1z" fill-opacity=".1" fill-rule="nonzero"/><path d="M340.1 714.1l1.2-3.5c1.6-5.4 4-15 .2-16.5l-5 .1a49.6 49.6 0 0 1-2.2 10.4l-1.2 3.5c-10 17.4-4 26.7 3.4 30l.3.2c-2.9-5-3.1-13 3.3-24.2zm-174.6-150c-20.7-138 120.4-194 159-188.7l-11.4-.6c-38.6-5.3-175.3 45.4-154.6 183.4 6.5 43.3 26.3 72.3 50.4 91.6a140.5 140.5 0 0 1-43.4-85.7zM482 665v-.1l-1.3.8h-.1a196 196 0 0 1-6.4 3.8c-1 22.7 4.9 27.6 9.5 28-2.3-5.2-3.6-15-1.7-32.5zm50.7 20.6s-1.2-1.3-6.5.3c1.4 9.9 5.2 11 8 10.4a42 42 0 0 1-1.5-10.7z" fill="#fff" fill-rule="nonzero" opacity=".1"/><path d="M334.5 687.9s86.6-5.4 95.3-14" fill-opacity=".1" fill-rule="nonzero"/><ellipse cx="542.6" cy="664.5" rx="37.6" ry="39.9" fill="#fbd56f"/><ellipse cx="542.6" cy="664.5" rx="37.6" ry="39.9" fill-opacity=".1"/><ellipse cx="549" cy="665.4" rx="37.6" ry="39" fill="#fbd56f"/><path d="M564.3 700.7l-4-2.1s-1.8 7.6-1.2 13a2.7 2.7 0 0 0 2 2.4c9 2.2 51.8 11.7 81.3-1.7a2.7 2.7 0 0 0 1.6-2.2c.3-3.3-1-10.2-1.5-11.5-1-3-78.2 2.1-78.2 2.1z" fill="#fbd56f" fill-rule="nonzero"/><path d="M564.3 700.7l-4-2.1s-1.8 7.6-1.2 13a2.7 2.7 0 0 0 2 2.4c9 2.2 51.8 11.7 81.3-1.7a2.7 2.7 0 0 0 1.6-2.2c.3-3.3-1-10.2-1.5-11.5-1-3-78.2 2.1-78.2 2.1z" fill-opacity=".1" fill-rule="nonzero"/><ellipse cx="601.5" cy="698.6" rx="41.1" ry="9.3" fill="#fbd56f"/><path d="M580 687l-3.9-2.1s-1.8 7.6-1.2 13a2.7 2.7 0 0 0 2 2.4c9 2.2 51.8 11.7 81.3-1.7a2.7 2.7 0 0 0 1.5-2.1c.4-3.4-1-10.3-1.4-11.6-1.1-2.9-78.3 2.2-78.3 2.2z" fill="#fbd56f" fill-rule="nonzero"/><path d="M580 687l-3.9-2.1s-1.8 7.6-1.2 13a2.7 2.7 0 0 0 2 2.4c9 2.2 51.8 11.7 81.3-1.7a2.7 2.7 0 0 0 1.5-2.1c.4-3.4-1-10.3-1.4-11.6-1.1-2.9-78.3 2.2-78.3 2.2z" fill-opacity=".1" fill-rule="nonzero"/><ellipse cx="617.2" cy="684.9" rx="41.1" ry="9.3" fill="#fbd56f"/><path d="M593.9 669.1l-4-2.2s-1.8 7.7-1.2 13a2.7 2.7 0 0 0 2 2.4c9 2.3 51.8 11.8 81.3-1.6a2.7 2.7 0 0 0 1.6-2.2c.3-3.3-1-10.2-1.5-11.6-1-2.9-78.2 2.2-78.2 2.2z" fill="#fbd56f" fill-rule="nonzero"/><path d="M593.9 669.1l-4-2.2s-1.8 7.7-1.2 13a2.7 2.7 0 0 0 2 2.4c9 2.3 51.8 11.8 81.3-1.6a2.7 2.7 0 0 0 1.6-2.2c.3-3.3-1-10.2-1.5-11.6-1-2.9-78.2 2.2-78.2 2.2z" fill-opacity=".1" fill-rule="nonzero"/><ellipse cx="631" cy="666.9" rx="41.1" ry="9.3" fill="#fbd56f"/><path d="M578.5 650.4l-4-2.2s-1.8 7.7-1.2 13a2.7 2.7 0 0 0 2 2.4c9 2.3 51.9 11.8 81.3-1.6a2.7 2.7 0 0 0 1.6-2.2c.3-3.3-1-10.2-1.5-11.6-1-2.9-78.2 2.2-78.2 2.2z" fill="#fbd56f" fill-rule="nonzero"/><path d="M578.5 650.4l-4-2.2s-1.8 7.7-1.2 13a2.7 2.7 0 0 0 2 2.4c9 2.3 51.9 11.8 81.3-1.6a2.7 2.7 0 0 0 1.6-2.2c.3-3.3-1-10.2-1.5-11.6-1-2.9-78.2 2.2-78.2 2.2z" fill-opacity=".1" fill-rule="nonzero"/><ellipse cx="615.7" cy="648.2" rx="41.1" ry="9.3" fill="#fbd56f"/><path d="M613 635.4l-3.8-2.2s-1.9 7.7-1.3 13a2.7 2.7 0 0 0 2 2.4c9 2.3 51.8 11.8 81.3-1.6a2.7 2.7 0 0 0 1.6-2.2c.3-3.3-1-10.2-1.5-11.6-1-2.9-78.2 2.2-78.2 2.2z" fill="#fbd56f" fill-rule="nonzero"/><path d="M613 635.4l-3.8-2.2s-1.9 7.7-1.3 13a2.7 2.7 0 0 0 2 2.4c9 2.3 51.8 11.8 81.3-1.6a2.7 2.7 0 0 0 1.6-2.2c.3-3.3-1-10.2-1.5-11.6-1-2.9-78.2 2.2-78.2 2.2z" fill-opacity=".1" fill-rule="nonzero"/><ellipse cx="650.3" cy="633.2" rx="41.1" ry="9.3" fill="#fbd56f"/><path d="M589.7 625.3l-4-2.2s-1.7 7.6-1.1 13a2.7 2.7 0 0 0 2 2.4c9 2.2 51.8 11.8 81.2-1.6a2.7 2.7 0 0 0 1.6-2.2c.4-3.3-1-10.2-1.4-11.6-1.1-2.9-78.3 2.2-78.3 2.2z" fill="#fbd56f" fill-rule="nonzero"/><path d="M589.7 625.3l-4-2.2s-1.7 7.6-1.1 13a2.7 2.7 0 0 0 2 2.4c9 2.2 51.8 11.8 81.2-1.6a2.7 2.7 0 0 0 1.6-2.2c.4-3.3-1-10.2-1.4-11.6-1.1-2.9-78.3 2.2-78.3 2.2z" fill-opacity=".1" fill-rule="nonzero"/><ellipse cx="626.9" cy="623.1" rx="41.1" ry="9.3" fill="#fbd56f"/><path d="M605.3 605.8l-4-2.2s-1.7 7.7-1.1 13.1a2.7 2.7 0 0 0 2 2.3c9 2.3 51.8 11.8 81.2-1.6a2.7 2.7 0 0 0 1.6-2.2c.4-3.3-1-10.2-1.4-11.6-1-2.8-78.3 2.2-78.3 2.2z" fill="#fbd56f" fill-rule="nonzero"/><path d="M605.3 605.8l-4-2.2s-1.7 7.7-1.1 13.1a2.7 2.7 0 0 0 2 2.3c9 2.3 51.8 11.8 81.2-1.6a2.7 2.7 0 0 0 1.6-2.2c.4-3.3-1-10.2-1.4-11.6-1-2.8-78.3 2.2-78.3 2.2z" fill-opacity=".1" fill-rule="nonzero"/><ellipse cx="642.5" cy="603.6" rx="41.1" ry="9.3" fill="#fbd56f"/><path d="M613 582.7l-4-2.2s-1.7 7.7-1.1 13a2.7 2.7 0 0 0 2 2.4c9 2.3 51.8 11.8 81.2-1.6a2.7 2.7 0 0 0 1.6-2.2c.4-3.3-1-10.2-1.4-11.6-1.1-2.9-78.3 2.2-78.3 2.2z" fill="#fbd56f" fill-rule="nonzero"/><path d="M613 582.7l-4-2.2s-1.7 7.7-1.1 13a2.7 2.7 0 0 0 2 2.4c9 2.3 51.8 11.8 81.2-1.6a2.7 2.7 0 0 0 1.6-2.2c.4-3.3-1-10.2-1.4-11.6-1.1-2.9-78.3 2.2-78.3 2.2z" fill-opacity=".1" fill-rule="nonzero"/><ellipse cx="650.2" cy="580.5" rx="41.1" ry="9.3" fill="#fbd56f"/><path d="M682.4 706.1l-4-2.2s-1.7 7.7-1.1 13a2.7 2.7 0 0 0 2 2.4c9 2.3 51.8 11.8 81.2-1.6a2.7 2.7 0 0 0 1.6-2.2c.4-3.3-1-10.2-1.4-11.6-1.1-2.9-78.3 2.2-78.3 2.2z" fill="#fbd56f" fill-rule="nonzero"/><path d="M682.4 706.1l-4-2.2s-1.7 7.7-1.1 13a2.7 2.7 0 0 0 2 2.4c9 2.3 51.8 11.8 81.2-1.6a2.7 2.7 0 0 0 1.6-2.2c.4-3.3-1-10.2-1.4-11.6-1.1-2.9-78.3 2.2-78.3 2.2z" fill-opacity=".1" fill-rule="nonzero"/><ellipse cx="719.6" cy="703.9" rx="41.1" ry="9.3" fill="#fbd56f"/><path d="M696.3 688.1l-4-2.1s-1.8 7.6-1.2 13a2.7 2.7 0 0 0 2 2.4c9 2.2 51.8 11.7 81.3-1.7a2.7 2.7 0 0 0 1.6-2.2c.3-3.3-1-10.2-1.5-11.5-1-3-78.2 2.1-78.2 2.1z" fill="#fbd56f" fill-rule="nonzero"/><path d="M696.3 688.1l-4-2.1s-1.8 7.6-1.2 13a2.7 2.7 0 0 0 2 2.4c9 2.2 51.8 11.7 81.3-1.7a2.7 2.7 0 0 0 1.6-2.2c.3-3.3-1-10.2-1.5-11.5-1-3-78.2 2.1-78.2 2.1z" fill-opacity=".1" fill-rule="nonzero"/><ellipse cx="733.5" cy="686" rx="41.1" ry="9.3" fill="#fbd56f"/><path d="M680.9 669.4l-4-2.2s-1.7 7.7-1.1 13.1a2.7 2.7 0 0 0 2 2.3c9 2.3 51.8 11.8 81.2-1.6a2.7 2.7 0 0 0 1.6-2.2c.4-3.3-1-10.2-1.4-11.6-1-2.8-78.3 2.2-78.3 2.2z" fill="#fbd56f" fill-rule="nonzero"/><path d="M680.9 669.4l-4-2.2s-1.7 7.7-1.1 13.1a2.7 2.7 0 0 0 2 2.3c9 2.3 51.8 11.8 81.2-1.6a2.7 2.7 0 0 0 1.6-2.2c.4-3.3-1-10.2-1.4-11.6-1-2.8-78.3 2.2-78.3 2.2z" fill-opacity=".1" fill-rule="nonzero"/><ellipse cx="718.1" cy="667.3" rx="41.1" ry="9.3" fill="#fbd56f"/><path d="M715.5 654.4l-4-2.2s-1.7 7.7-1.1 13a2.7 2.7 0 0 0 2 2.4c9 2.2 51.8 11.7 81.2-1.7a2.7 2.7 0 0 0 1.6-2.1c.3-3.4-1-10.3-1.4-11.6-1.1-2.8-78.3 2.2-78.3 2.2z" fill="#fbd56f" fill-rule="nonzero"/><path d="M715.5 654.4l-4-2.2s-1.7 7.7-1.1 13a2.7 2.7 0 0 0 2 2.4c9 2.2 51.8 11.7 81.2-1.7a2.7 2.7 0 0 0 1.6-2.1c.3-3.4-1-10.3-1.4-11.6-1.1-2.8-78.3 2.2-78.3 2.2z" fill-opacity=".1" fill-rule="nonzero"/><ellipse cx="752.7" cy="652.3" rx="41.1" ry="9.3" fill="#fbd56f"/><path d="M692.1 644.3l-3.9-2.1s-1.8 7.6-1.2 13a2.7 2.7 0 0 0 2 2.3c9 2.3 51.8 11.8 81.3-1.6a2.7 2.7 0 0 0 1.5-2.2c.4-3.3-.9-10.2-1.4-11.5-1-3-78.3 2.1-78.3 2.1z" fill="#fbd56f" fill-rule="nonzero"/><path d="M692.1 644.3l-3.9-2.1s-1.8 7.6-1.2 13a2.7 2.7 0 0 0 2 2.3c9 2.3 51.8 11.8 81.3-1.6a2.7 2.7 0 0 0 1.5-2.2c.4-3.3-.9-10.2-1.4-11.5-1-3-78.3 2.1-78.3 2.1z" fill-opacity=".1" fill-rule="nonzero"/><ellipse cx="729.3" cy="642.2" rx="41.1" ry="9.3" fill="#fbd56f"/><path d="M707.7 624.9l-3.9-2.2s-1.8 7.6-1.2 13a2.7 2.7 0 0 0 2 2.4c9 2.2 51.8 11.7 81.3-1.7a2.7 2.7 0 0 0 1.5-2.1c.4-3.4-.9-10.3-1.4-11.6-1-3-78.3 2.2-78.3 2.2z" fill="#fbd56f" fill-rule="nonzero"/><path d="M707.7 624.9l-3.9-2.2s-1.8 7.6-1.2 13a2.7 2.7 0 0 0 2 2.4c9 2.2 51.8 11.7 81.3-1.7a2.7 2.7 0 0 0 1.5-2.1c.4-3.4-.9-10.3-1.4-11.6-1-3-78.3 2.2-78.3 2.2z" fill-opacity=".1" fill-rule="nonzero"/><ellipse cx="744.9" cy="622.7" rx="41.1" ry="9.3" fill="#fbd56f"/><path d="M715.4 601.7l-3.9-2.1s-1.8 7.6-1.2 13a2.7 2.7 0 0 0 2 2.4c9 2.2 51.8 11.7 81.3-1.7a2.7 2.7 0 0 0 1.5-2.2c.4-3.3-.9-10.2-1.4-11.5-1-3-78.3 2.1-78.3 2.1z" fill="#fbd56f" fill-rule="nonzero"/><path d="M715.4 601.7l-3.9-2.1s-1.8 7.6-1.2 13a2.7 2.7 0 0 0 2 2.4c9 2.2 51.8 11.7 81.3-1.7a2.7 2.7 0 0 0 1.5-2.2c.4-3.3-.9-10.2-1.4-11.5-1-3-78.3 2.1-78.3 2.1z" fill-opacity=".1" fill-rule="nonzero"/><ellipse cx="752.6" cy="599.6" rx="41.1" ry="9.3" fill="#fbd56f"/><path d="M408.6 314.4a38.3 38.3 0 0 1 43.6-38.5 35.5 35.5 0 0 0-12.5-2.3c-20.8 0-37.6 17.9-37.6 39.9a40 40 0 0 0 23 36.8l2.4-2a39.3 39.3 0 0 1-18.9-33.9z" fill="#fbd56f" fill-rule="nonzero"/><path d="M408.6 314.4a38.3 38.3 0 0 1 43.6-38.5 35.5 35.5 0 0 0-12.5-2.3c-20.8 0-37.6 17.9-37.6 39.9a40 40 0 0 0 23 36.8l2.4-2a39.3 39.3 0 0 1-18.9-33.9z" fill-opacity=".1" fill-rule="nonzero"/><path d="M477.2 313.6a42.2 42.2 0 0 1-2 12.8c2.3-.6 4.7-1 7.1-1.5a40.5 40.5 0 0 0 1.4-10.5 38.6 38.6 0 0 0-31.5-38.4 39.9 39.9 0 0 1 25 37.6z" fill="#fbd56f" fill-rule="nonzero"/><path d="M408.6 314.4a39.3 39.3 0 0 0 19 33.9c7-5.6 22.6-16 47.6-22a42.2 42.2 0 0 0 2-12.8c0-17.3-10.4-32-25-37.5a36.9 36.9 0 0 0-6-.6 38.3 38.3 0 0 0-37.6 39z" fill="#fbd56f" fill-rule="nonzero"/><path d="M1004.2 809.2c-5.7-.2-6-2.4-13.3-6.2a76 76 0 0 1-15.1-13.5l-1.1-1.2h2s-1.9-16.1-.2-20c1.6-3.9.4-26.6.4-26.6s1-17.4-.9-21.4c-1.8-4 .6-29.8.6-29.8s1.7-15.4 2-46.6c.4-31.3-18-32.3-18-32.3l-6.1-.5-1.1-.2c2.4-5 3.8-8.8 3.8-8.8s-3-29.2-4-34.3c-.7-5-5.6-25.8-5.6-25.8s-3.5-8.9-5.5-15.1c-2-6.3-8.2-13.5-8.2-13.5s-11-21.8-14.1-25c-1.4-1.5-3.4-3.4-5.2-5l-.9-.9c.5-2.2.8-4.5.8-6.9 0-2.3-11.5-11.3-12.3-14-.8-2.9-11.6-13.4-11.6-13.4s-6.2-11.3-13.1-11.5a56.6 56.6 0 0 0-9.9.3c1.5-5.3 3.2-10.8 4.7-15.5l.5-1.6a35 35 0 0 0 12.5-15.2l.4-1h1.2c2.2-.5 4.1-3 3-5 .2.2.5.3.8.3.7 0 1.6-1.1 1.8-2v-.6l.2-.6v-3V391.6a18 18 0 0 0-.7-3.2c-1.1-3.8-3.5-7.5-2.6-11.3v-.1c.8-3 3.3-5.1 4.9-7.7l.4-.8v-.1l.3-.6.2-.4c0-.2 0-.4.2-.6l.1-.5.1-.4.1-.6.1-.4.1-.7v-2.4-1a14.5 14.5 0 0 0-3-7 18 18 0 0 0-14.7-6.4 24.6 24.6 0 0 1-4.6.1c-2.6-.4-4.8-2-6.8-3.6l-17.1-13.2a21.3 21.3 0 0 0-6.5-3.8c-2.4-.7-5.3-.5-7.1 1.3-3.2 3.1-1.2 8.6-2.5 12.9-1 3.7-4.7 6.2-8.4 7.5s-7.7 1.5-11.5 2.4a6.3 6.3 0 0 0-3 1.4 6 6 0 0 0-1.4 4.3c0 3.8.9 7.6 2.7 11l2.3 4 .2.4.3.5c0 .3.2.5.3.8l.2.3.2.6.1.3.2.7a7.4 7.4 0 0 1 .2 4c-.6 2.2-2.3 3.9-3.8 5.6a10.9 10.9 0 0 0-2.5 4.6V391a2.9 2.9 0 0 0 .2.7l.3.3.1.1.3.2h.2l.4.2h1l.6-.1h.2a8.6 8.6 0 0 0 1-.3 21 21 0 0 0 3.4-1.3v1a34 34 0 0 0 2.2 11.6 35 35 0 0 0 10.6 14.7l-.2 1c-1 4.9-3 9.7-4.3 9.4a17 17 0 0 0-3.8-.4h-1.1a15.5 15.5 0 0 0-3.5 0 3.7 3.7 0 0 1-1.5-.3 20.7 20.7 0 0 0-10.2-.5c-7 1.4-17.8 4-20.8 7.2-4.5 4.9-11 9.5-18.4 29.7 0 0-3.6 12.3-6.5 13.9l2-.9a5.2 5.2 0 0 1-1.6 1.7 22.7 22.7 0 0 1 3.2-1.3c-2.2 13.1 1.1 50.7 1.1 50.7s-2.7 6.5.8 10.3c2 2.3 3.2 5.8 3.8 8.3l-.5.8c-1.9 2.9-4.3 6.6-6 8.6-2.8 3.7-2 15.2-2 15.2s-.6 5.4-2.6 7.4-1.7 9.5-1.7 9.5l-5.2 19.7s-5 4.4-5 6.5c0 2-3.8 7.6-3.8 7.6s-6 9.7 0 8.3a18.5 18.5 0 0 0 6-3v1.2c-.2 10.5 1 25.4 8.8 25.4 12 0 43 14.3 43 14.3 6.4 4.8 15 3.2 15 3.2S800 686.6 800.4 693c.5 6.2-8.5 16.5-8.5 16.5L764 763.7a41.4 41.4 0 0 0 2 11l-.4.4c-10.7 9.8-11.6 29-11.6 29l-2.5 10 37.2 16.3s48.2 1 56.6-1.2c8.4-2.2 6.5-11.5-4.5-13.3-11-1.8-13.7-6.7-17.4-8.9a175.2 175.2 0 0 1-16.7-17.3l-.3-.2 1.3-7c2.5-1.3 6.1-13.4 6.1-13.4s0-4.8 2.5-6.2c2.4-1.4 7.5-16 7.5-16s11-18.3 10.5-20.7c-.6-2.4 8-14.7 8-14.7s14.5-14.1 13.9-16.7c-.7-2.5 11.6-15.4 11.6-15.4a40.8 40.8 0 0 0 10.9-12.5l3.5-.6a589 589 0 0 0 45.7-8.7c4-1.8 3.3 6.3 1.6 13.1-1.6 6.9-2.8 39.8-1 44 1.9 4.3 1 11.1 1 11.1l-2.4 37 1.6 7.8s-5.5 4.4-3.3 7c2.3 2.7.2 14 .2 14l.7-.2-.5 1.3c-3.2 9-1.4 23.9-1.4 23.9v11.7s56.6 1 69 1c12.5 0 29.7-6 30.7-11 1-4.8-14.3-8.9-20-9zm-161-209.9l-3.7.3a29.2 29.2 0 0 1 3.7-.3zm22.6-154.8a167 167 0 0 1 1.9-7.4l-1.9 7.4zm7 160.4a15 15 0 0 1-11 0c-3.5-1.3.2-14 1.8-20 1.7-5.8 4-16.5 4-16.5s1.8-14.7 3.6-21.4c1.8-6.6 9-43.7 12.7-46.1 3.6-2.5 5.7 1.8 5.7 1.8l1.5-.1.6 1.2c4.3 8.8 17.1 26.9 17.1 26.9a29.4 29.4 0 0 1 9.4 9.3c3.5 5.8 4.5 19.5 4.5 19.5s7.8 30.5 11.4 34.7c1.9 2.1 1 3.4-.2 4.1a18.1 18.1 0 0 0-6.5 6l-1.6 2.7c-1.4-.3-2.7-.6-3.7-1-10.1-3.3-43.8-3.5-49.3-1z" fill="url(#_Linear1)" fill-rule="nonzero" transform="translate(-41 -48.6)"/><path d="M882.1 768v11.6s55.4 1 67.6 1c12.2 0 29-6 30-10.8 1-4.8-14-8.8-19.6-9-5.6-.2-5.8-2.4-13-6.2a75 75 0 0 1-14.8-13.4c-3.5-3.8-6.2-7-6.2-7s-29.8-.6-38.4 4.2c-2 1.1-3.3 3.3-4.2 6-3.1 9-1.3 23.6-1.3 23.6z" fill="#343639" fill-rule="nonzero"/><path d="M883.5 744.4c6.2-2.2 42.8-3 48.8-3.1l-6.2-7s-29.7-.6-38.3 4.2c-2 1-3.4 3.2-4.3 6z" fill-opacity=".1" fill-rule="nonzero"/><path d="M722.8 559.4l3.2 2 1.2.7 4.7 2.9c25.2 15.1 93.7 56.2 97.5 55.9l8-1.2 3.4-.6c15.7-2.6 41.8-7.3 44.7-8.7 4-1.8 3.2 6.2 1.6 13s-2.8 39.4-1 43.6c1.8 4.2 1 11 1 11l-2.4 36.6 1.6 7.8s-5.4 4.4-3.2 7c2.2 2.6.2 13.8.2 13.8 6.4-2.4 49.8-3.2 49.8-3.2s-1.8-16-.2-19.8c1.6-3.8.4-26.4.4-26.4s1-17.2-.8-21.2.6-29.5.6-29.5 1.6-15.2 2-46.2c.4-31-17.6-32-17.6-32l-6-.6c-7.1-.7-19-2-27-3.7a43.4 43.4 0 0 1-4.7-1.3c-9.8-3.3-42.8-3.4-48.2-1a14.5 14.5 0 0 1-10.8 0l-4.2-6.8-40.1 3.4-4.2.3-39.5 3.4-2.8.2-7.2.6z" fill="#032553" fill-rule="nonzero"/><path d="M883.5 590.1c11.7 5.7 22.8-14.4 28-25.8-7-.7-19-2-26.9-3.7-5.3 8.7-12.2 24-1 29.5z" fill-opacity=".1" fill-rule="nonzero"/><path d="M848.5 454a12.5 12.5 0 0 0 1.5 4c4.2 8.7 16.7 26.7 16.7 26.7a29 29 0 0 1 9.2 9.2c3.4 5.8 4.4 19.4 4.4 19.4s7.6 30.2 11.2 34.4c1.8 2 1 3.3-.2 4a17.9 17.9 0 0 0-6.3 6c-5.3 8.4-13.6 25-1.8 30.8 16 7.8 31-33 31-33s-3-29-3.9-34c-.7-5-5.5-25.7-5.5-25.7s-3.4-8.8-5.4-15c-2-6.2-8-13.4-8-13.4s-10.8-21.5-13.8-24.7l-5-5-3.6-3.2s-20.6 14.8-20.4 19.6z" fill="#ee8e9e" fill-rule="nonzero"/><path d="M713 765.6l36.4 16.2s47.2 1 55.4-1.2c8.2-2.2 6.4-11.4-4.4-13.2-10.8-1.8-13.4-6.6-17-8.8-2.4-1.5-11-11-16.4-17.1l-4.4-5s-7-18.6-26.4-14.4a19.9 19.9 0 0 0-9.4 5c-10.5 9.6-11.4 28.8-11.4 28.8l-2.4 9.7z" fill="#343639" fill-rule="nonzero"/><path d="M727.2 562.1l4.7 2.9c25.2 15.1 93.7 56.2 97.5 55.8 1 0 3.9-.5 8-1.1l3.4-.6.2-.3a45.3 45.3 0 0 0 4.5-11.2c4.3-16-16.5-28.2-16.5-28.2l-4.4-3.4c-5-8.4-41-16.4-41-16.4l-4.6-3.1-2.5-1.7-.7-.4-5.6-3.8-28.2 2-8.4 5.4-.8.6-3.2 2-2.4 1.5zm-.5 164.9c7.7 26.5 39.7 17.8 39.7 17.8l.6-3.3-4.4-5s-7-18.6-26.4-14.4a19.9 19.9 0 0 0-9.5 4.9z" fill-opacity=".1" fill-rule="nonzero"/><path d="M718.4 606.8c11.8 0 42.2 14.2 42.2 14.2 6.2 4.8 14.6 3.2 14.6 3.2s-14.8 15-14.4 21.2c.4 6.2-8.4 16.4-8.4 16.4l-27.2 53.8c2 38.2 41.2 27.6 41.2 27.6l1.6-9c2.4-1.2 6-13.2 6-13.2s0-4.8 2.4-6.2c2.4-1.4 7.4-15.8 7.4-15.8s10.8-18.2 10.2-20.6c-.6-2.4 7.8-14.6 7.8-14.6s14.2-14 13.6-16.5c-.6-2.5 11.4-15.3 11.4-15.3a40.5 40.5 0 0 0 10.6-12.3 45.3 45.3 0 0 0 4.6-11.3c3.4-12.9-9.4-23.3-14.6-26.8-1.2-1-2-1.4-2-1.4l-4.4-3.4c-2.2-3.8-11-7.6-19.7-10.5-6.4-2.1-12.8-3.8-16.9-4.8l-4.4-1-4.6-3.2-1.7-1.1-1.5-1-5.6-3.8-12.6.9-15.6 1.1-8.4 5.4-4 2.6-15.6 10s-.4 3.9-.6 9v1.2c-.2 10.5 1 25.2 8.6 25.2z" fill="#032553" fill-rule="nonzero"/><path d="M778.6 382.9l4.2 15s7.4 25.8 8.2 27.6c.8 1.8 20.2 20 21 20.4l11.3 6.4s.9-33 0-42.6c0-2.1.1-4.3.5-6.3 1.3-7.5 4.5-18.6 7.2-27l4.1-12.5s-46.8-2-45.2 2.6c.6 1.7.4 4.6-.2 7.5-1 4.8-3 9.6-4.2 9.3a17 17 0 0 0-3.7-.4h-3.2z" fill="#ee8e9e" fill-rule="nonzero"/><path d="M789.8 374a34.7 34.7 0 0 0 41.3 2.3l4-12.4s-46.7-2-45.1 2.6c.6 1.7.4 4.6-.2 7.5z" fill-opacity=".1" fill-rule="nonzero"/><path d="M846.6 346.3a34.5 34.5 0 0 1-1.8 10.8l-1 2.6a34.7 34.7 0 0 1-64.3-1.3 34 34 0 0 1-2.1-11.5v-.6a38.4 38.4 0 0 1 0-.6c0-19 15.6-34.6 34.6-34.6a34.8 34.8 0 0 1 34.6 35.2z" fill="#ee8e9e" fill-rule="nonzero"/><path d="M778.6 382.9l4.2 15s7.4 25.8 8.2 27.6c.8 1.8 20.2 20 21 20.4l11.3 6.4s.9-33 0-42.6c0-2.1.1-4.3.5-6.3l-2.7 11 .2 22.3 1.6 1.2-3.6 5.4v-4s-12.8-12.4-14.8-17.6c-2-5.2-9.2-14.7-9.2-14.7s-8.2-13.7-8.4-16.1c-.1-1.9-3.6-6.2-5-8h-3.3zm70 71.2a12.5 12.5 0 0 0 1.4 3.9c4.3-.5 19.2-3.2 22.5-20.3l-3.6-3.2s-20.6 14.8-20.4 19.6zM709.8 581.7c4-2.9 7.9-6.8 10.2-7.9 3.4-1.6 8.6-6.8 8.6-6.8l3.3-2c3.7-2.2 9.8-5.4 14.5-5.8l29-1.9 14.2-.9s13-4.6 18.6-1.6a58.8 58.8 0 0 0 12.6 4.6c4.4 1.1 0-.4 0-1.1l-4.2-6.8-44.4 3.7-5.6-3.8-28.2 2-8.4 5.4-7.2.6 3.2 2-15.6 10s-.5 4.5-.6 10.3z" fill-opacity=".1" fill-rule="nonzero"/><path d="M704 583.4a18.1 18.1 0 0 0 5.9-3c4-2.8 7.8-6.7 10.1-7.8 3.4-1.6 8.6-6.8 8.6-6.8s10.6-7.2 17.8-7.8l11-.8 16.3-1 8.5-.5 7.4-.5s13-4.6 18.6-1.6a58.8 58.8 0 0 0 12.6 4.6c4.4 1 .2-14 1.8-19.8 1.6-5.8 3.8-16.3 3.8-16.3s1.8-14.6 3.6-21.2 8.8-43.4 12.4-45.8c3.6-2.4 5.6 1.8 5.6 1.8s24-.4 24.4-26.8c0 0-11.2-11.2-12-14-.8-2.8-11.4-13.2-11.4-13.2s-6-11.2-12.8-11.4a54.4 54.4 0 0 0-9.6.3l-5.8 23.5.2 22.2 1.6 1.2-3.6 5.4v-4s-12.8-12.4-14.8-17.6c-2-5.2-9.2-14.7-9.2-14.7s-8.2-13.7-8.4-16.1c-.2-2.4-5.8-8.9-5.8-8.9a14.8 14.8 0 0 0-3.4 0 3.5 3.5 0 0 1-1.5-.2 20 20 0 0 0-10-.5c-7 1.4-17.4 4-20.3 7.2-4.4 4.8-10.8 9.4-18 29.4l38.8 14-3.4 6.3-30.9 58.7-2.4 3.8a133 133 0 0 1-5.8 8.6c-2.8 3.6-2 15-2 15s-.6 5.4-2.6 7.4-1.6 9.4-1.6 9.4l-5.2 19.4s-4.8 4.4-4.8 6.4-3.8 7.6-3.8 7.6-5.7 9.6.1 8.1z" fill="#a5dfff" fill-rule="nonzero"/><path d="M908.7 597.9s-12.6 4.1-16 10.1c-3.4 6 16-10.1 16-10.1zm-6.4-13.3c-.3.6-17.2 17.6-16.1 21.6 1 4.1 16.1-21.6 16.1-21.6zm-92.5 12s-18.8 9-20.4 12.8c-1.7 4 20.4-12.8 20.4-12.8zm-1.2 11.4s-17 7.2-19.3 9c-2.3 1.8 19.3-9 19.3-9zm-7.8 15.4s-7.5 5.6-11.7 1.2c-4.2-4.4 11.7-1.2 11.7-1.2zm28.2-146c-.4.7-25.4 45.7-32 49-6.6 3.5 32-49 32-49zm-1.2 17c0 1-24.4 53.3-28.4 53.9-4 .6 28.4-53.8 28.4-53.8zM735 528s-11.8 25.2-16.4 26.6C714 556.1 735 528 735 528zm-2-11.1s-4 8.8-6.5 8.8 6.5-8.8 6.5-8.8zm113.6-170.6a34.5 34.5 0 0 1-1.8 10.8l-1 2.6a10.2 10.2 0 0 1-4.8-2 12 12 0 0 1-3.6-4 48.7 48.7 0 0 1-1.8-5 11.8 11.8 0 0 0-9.5-7.2c1.2 2-.7 4.6-3 5-2.2.3-4.4-1-6-2.7-1.5-1.7-2.6-3.7-4.1-5.4s-3.8-3-6-2.6c-2 .3-3.6 1.8-5.2 3-1.7 1-4 1.8-5.6.6-1-.7-1.4-1.8-2.2-2.5-2.2-1.9-5.7 0-7.3 2.4-2.5 3.7-4 6-7.3 7.6v-.6a38.4 38.4 0 0 1 0-.6c0-19 15.6-34.6 34.6-34.6a34.8 34.8 0 0 1 34.6 35.2z" fill-opacity=".1" fill-rule="nonzero"/><path d="M784.7 338.3c1.6-2.4 5-4.3 7.3-2.4.8.7 1.3 1.8 2.2 2.5 1.6 1.2 4 .5 5.6-.7 1.6-1.1 3.2-2.6 5.2-3 2.2-.3 4.4 1 6 2.8 1.5 1.6 2.6 3.7 4.2 5.3 1.5 1.7 3.7 3 6 2.7 2.2-.4 4-3 3-5a11.7 11.7 0 0 1 9.4 7.2 51 51 0 0 0 1.8 5 12 12 0 0 0 3.6 3.9c1.8 1.3 4 2.5 6.3 2 2.2-.3 4.1-3 3.1-5 .7 1.2 2.3-.3 2.5-1.6.5-2.8.3-5.7-.5-8.5-1-3.7-3.4-7.4-2.5-11.1.7-3 3.3-5.2 4.8-7.8 2.8-4.7 2-11-1.3-15.3a17.4 17.4 0 0 0-14.4-6.4 24.5 24.5 0 0 1-4.5.1 15 15 0 0 1-6.7-3.5l-16.7-13a20.6 20.6 0 0 0-6.4-4c-2.3-.6-5.2-.4-7 1.4-3.1 3.1-1.1 8.5-2.4 12.8-1 3.6-4.6 6.1-8.2 7.4-3.6 1.2-7.5 1.5-11.3 2.4a6.2 6.2 0 0 0-3 1.4 6 6 0 0 0-1.3 4.3 23.1 23.1 0 0 0 2.6 10.8c2 3.7 5 7.5 4 11.6-.6 2.1-2.3 3.8-3.8 5.5-3.1 3.6-4.2 9 1.8 7.1 5.7-1.8 7.4-4.1 10.6-8.9z" fill="#6c6c6c" fill-rule="nonzero"/><path d="M850.9 348c-.3 1.3-1.8 2.9-2.5 1.8 1 2-.9 4.6-3.1 5-2.3.4-4.5-.8-6.3-2.1a12 12 0 0 1-3.6-3.9c-.9-1.6-1.2-3.4-1.8-5a11.8 11.8 0 0 0-9.5-7.2c1.2 2-.7 4.6-3 5-2.2.3-4.4-1-6-2.7-1.5-1.7-2.6-3.7-4.1-5.4-1.6-1.7-3.8-3-6-2.7-2 .4-3.6 1.9-5.2 3-1.7 1.1-4 1.9-5.6.7-1-.7-1.4-1.8-2.2-2.6-2.3-1.8-5.7.1-7.3 2.5-3.3 4.7-4.9 7.1-10.6 9-1.9.5-3 .4-3.7-.2-1.3 2.9-.7 5.4 3.7 4 5.7-1.8 7.3-4.1 10.6-8.9 1.6-2.4 5-4.3 7.3-2.4.8.7 1.2 1.8 2.1 2.5 1.7 1.2 4 .5 5.6-.7 1.7-1 3.3-2.6 5.2-2.9 2.3-.4 4.5 1 6 2.7 1.6 1.6 2.7 3.7 4.3 5.3 1.5 1.7 3.7 3 6 2.7 2.2-.3 4-3 2.9-5a11.7 11.7 0 0 1 9.5 7.2 48.7 48.7 0 0 0 1.8 5 12 12 0 0 0 3.6 4c1.8 1.3 4 2.4 6.3 2 2.2-.4 4.1-3 3-5 .8 1 2.3-.4 2.6-1.7.3-1.7.3-3.5.2-5.2l-.2 1.3zM776 330.9v-.1c1.1-4.1-2-8-3.9-11.7a23.2 23.2 0 0 1-2.5-8.4 12 12 0 0 0 0 1.6c-.1 3.7.8 7.4 2.5 10.8 1.4 2.5 3.2 5.1 3.9 7.8zm76.7-10.1c-1.6 2.6-4.1 4.8-4.8 7.7a8.7 8.7 0 0 0 0 3.9c.7-3 3.2-5 4.7-7.7a13 13 0 0 0 1.6-8.4 12.1 12.1 0 0 1-1.5 4.5z" fill-rule="nonzero" opacity=".1"/><path d="M729.8 501.5l.6 3.4c.1 1 15.8 37 17.8 39.2.6.6 2.9 4 5.8 8.2l3.4 5 12.8 19.2 14.8 13s32.2 2.5 42.4-8l-2-1.3-4.4-3.4c-2.3-3.8-11-7.6-19.7-10.5-8.1 0-14.8.7-14.8.7l-2-5.5-2.3-5.8-11.2-29.5s-7.2-37.1-9.6-39c-2.4-1.8-1.8-7.3-1.8-7.3s4.4-15.8 2.8-18c-1.6-2.2 2.6-18.4 2.6-18.4a16.4 16.4 0 0 0-2-4.5l-30.8 58.7-2.4 3.8z" fill-opacity=".1" fill-rule="nonzero"/><path d="M765.4 442.3s-4.2 16.2-2.6 18.4c1.6 2.2-2.8 18-2.8 18s-.6 5.6 1.8 7.4c2.4 1.8 9.6 39 9.6 39l15.5 40.8s48.5-4.8 43.5 10.4-45 12-45 12l-14.8-13s-20-30.2-22-32.4c-2-2.2-17.8-39.2-17.8-39.2s-.8-7.4-4.2-11.2c-3.4-3.8-.8-10.3-.8-10.3s-4.2-48.3.2-54.1c4.4-5.8 34.8-3.2 39.4 14.2z" fill="#ee8e9e" fill-rule="nonzero"/><path d="M740.6 411.9l-12.6 7.6s-3.6 12.2-6.4 13.8c0 0 25.2-14 44.2 18.2 0 0-.6-4.2 2-6.2s2-10.6 2-10.6a34.6 34.6 0 0 0 1.8-4.2c1.8-4.4-7.6-29.6-31-18.6z" fill-opacity=".1" fill-rule="nonzero"/><path d="M740.2 411l-12.6 7.7s-3.6 12.2-6.4 13.8c0 0 25.2-14 44.2 18.2 0 0-.6-4.2 2-6.2s2-10.6 2-10.6a34.6 34.6 0 0 0 1.8-4.2c1.8-4.4-7.6-29.6-31-18.6z" fill="#7bd1ff" fill-rule="nonzero"/><ellipse cx="627.9" cy="721.4" rx="37.6" ry="39.9" fill="#fbd56f"/><ellipse cx="627.9" cy="721.4" rx="37.6" ry="39.9" fill-opacity=".1"/><ellipse cx="634.4" cy="722.3" rx="37.6" ry="39" fill="#fbd56f"/><ellipse cx="90.1" cy="735.5" rx="46.4" ry="7.8" fill="#487cb6"/><path d="M109.3 722.6c2-1.8 3.9-4 4.4-6.6.6-2.7-.5-5.8-3-6.8-2.9-1.1-6 .9-8.2 2.9-2.3 2-5 4.2-8 3.8a12.1 12.1 0 0 0 3.8-11.3 4.7 4.7 0 0 0-1-2.3c-1.6-1.7-4.5-1-6.3.3-6 4.3-7.7 12.4-7.7 19.7-.7-2.6-.1-5.4-.2-8 0-2.8-.7-5.8-3-7.3a9.3 9.3 0 0 0-4.6-1c-2.7-.2-5.7.1-7.5 2-2.3 2.5-1.7 6.7.2 9.4 2 2.7 5 4.3 7.9 6.2a17.4 17.4 0 0 1 5.5 5.3l.4 1h17a47 47 0 0 0 10.3-7.2z" fill="#487cb6" fill-rule="nonzero"/><path d="M424.3 299.6l38-19 14 12.8 3.3 9.2L483 318l-3.1 6.7-24.3 4.5s-12.9-.8-14.9.2-10.1 2.7-10.1 2.7l-6.4-15.6v-17z" fill="#fbd56f" fill-rule="nonzero"/></g><defs><linearGradient id="_Linear1" x2="1" gradientUnits="userSpaceOnUse" gradientTransform="matrix(0 -504.04 504.04 0 882 830.6)"><stop offset="0" stop-color="gray" stop-opacity=".2"/><stop offset=".5" stop-color="gray" stop-opacity=".1"/><stop offset="1" stop-color="gray" stop-opacity=".1"/></linearGradient></defs></svg>