<?xml version="1.0" encoding="UTF-8" standalone="no"?>
<!DOCTYPE svg PUBLIC "-//W3C//DTD SVG 1.1//EN" "http://www.w3.org/Graphics/SVG/1.1/DTD/svg11.dtd">
<svg width="100%" height="100%" viewBox="0 0 65 65" version="1.1" xmlns="http://www.w3.org/2000/svg" xmlns:xlink="http://www.w3.org/1999/xlink" xml:space="preserve" xmlns:serif="http://www.serif.com/" style="fill-rule:evenodd;clip-rule:evenodd;">
    <g transform="matrix(1,0,0,1,-1342,-2428)">
        <g transform="matrix(1,0,0,1,-2128.33,1732)">
            <g transform="matrix(1.58408,0,0,6.61155,3447.63,-222.166)">
                <g transform="matrix(0.859913,0,0,0.239593,-10985.3,-64.6893)">
                    <path d="M12796,874L12801,877L12815,870L12823,874L12833,870" style="fill:none;stroke:rgb(0,56,116);stroke-width:0.44px;"/>
                </g>
                <g transform="matrix(0.859913,0,0,0.239593,-10985.3,-66.3664)">
                    <path d="M12796,877L12803,874L12823,884L12833,880" style="fill:none;stroke:rgb(237,28,36);stroke-width:0.53px;"/>
                </g>
                <g transform="matrix(1,0,0,0.239593,-12812.6,-58.939)">
                    <path d="M12832.8,838.51L12832.8,840.518L12830.8,840.518L12830.8,840.991L12832.8,840.991L12832.8,843L12833.2,843L12833.2,840.991L12835.2,840.991L12835.2,840.518L12833.2,840.518L12833.2,838.51L12832.8,838.51Z" style="fill:rgb(179,229,255);fill-rule:nonzero;"/>
                </g>
                <g transform="matrix(-1,0,0,0.239593,12880.8,-55.5239)">
                    <path d="M12832.8,838.51L12832.8,840.518L12830.8,840.518L12830.8,840.991L12832.8,840.991L12832.8,843L12833.2,843L12833.2,840.991L12835.2,840.991L12835.2,840.518L12833.2,840.518L12833.2,838.51L12832.8,838.51Z" style="fill:rgb(179,229,255);fill-rule:nonzero;"/>
                </g>
                <g transform="matrix(1,0,0,0.239593,-12799.3,-55.5239)">
                    <rect x="12830.8" y="840.518" width="4.49" height="0.473" style="fill:rgb(72,124,182);fill-rule:nonzero;"/>
                </g>
                <g transform="matrix(-1,0,0,0.239593,12862.2,-58.4011)">
                    <rect x="12830.8" y="840.518" width="4.49" height="0.473" style="fill:rgb(72,124,182);fill-rule:nonzero;"/>
                </g>
                <g transform="matrix(1.31904,0,0,0.316032,-16877.2,-130.125)">
                    <path d="M12821.9,857.004C12823.4,858.408 12824.9,859.849 12826.6,861.131C12826.7,861.164 12826.7,861.169 12826.8,861.153C12828.8,861.158 12830.9,861.263 12833,861.217C12832.9,864.562 12830.1,867.237 12826.7,867.237C12823.3,867.237 12820.5,864.427 12820.5,860.966C12820.5,859.464 12821,858.084 12821.9,857.004ZM12831,856.391C12832.2,857.492 12832.9,859.041 12833,860.764L12827.2,860.753L12831,856.391ZM12826.5,860.526L12822.1,856.694C12823.2,855.511 12824.8,854.754 12826.5,854.699L12826.5,860.526ZM12827,854.701C12828.4,854.756 12829.7,855.279 12830.7,856.119C12829.4,857.528 12828.1,858.912 12826.9,860.392C12826.9,858.495 12827,856.596 12827,854.701Z" style="fill:rgb(179,229,255);"/>
                </g>
                <g transform="matrix(1.31904,0,0,0.316032,-16877.2,-130.125)">
                    <path d="M12821.9,857.004C12823.4,858.408 12824.9,859.849 12826.6,861.131C12826.7,861.164 12826.7,861.169 12826.8,861.153C12828.8,861.158 12830.9,861.263 12833,861.217C12832.9,864.562 12830.1,867.237 12826.7,867.237C12823.3,867.237 12820.5,864.427 12820.5,860.966C12820.5,859.464 12821,858.084 12821.9,857.004ZM12831,856.391C12832.2,857.492 12832.9,859.041 12833,860.764L12827.2,860.753L12831,856.391ZM12826.5,860.526L12822.1,856.694C12823.2,855.511 12824.8,854.754 12826.5,854.699L12826.5,860.526Z" style="fill:rgb(72,124,182);"/>
                </g>
            </g>
        </g>
    </g>
</svg>
