<?xml version="1.0" encoding="UTF-8" standalone="no"?>
<!DOCTYPE svg PUBLIC "-//W3C//DTD SVG 1.1//EN" "http://www.w3.org/Graphics/SVG/1.1/DTD/svg11.dtd">
<svg width="100%" height="100%" viewBox="0 0 65 65" version="1.1" xmlns="http://www.w3.org/2000/svg" xmlns:xlink="http://www.w3.org/1999/xlink" xml:space="preserve" xmlns:serif="http://www.serif.com/" style="fill-rule:evenodd;clip-rule:evenodd;">
    <g transform="matrix(1,0,0,1,-1767,-2425)">
        <g transform="matrix(1,0,0,1,-2128.33,1732)">
            <g transform="matrix(1.19537,0,0,1.19537,3511.84,-29.1118)">
                <g transform="matrix(1,0,0,1,338.686,618.963)">
                    <path d="M0,0.001C0,-5.572 4.518,-10.091 10.091,-10.091C15.663,-10.091 20.182,-5.572 20.182,0.001C20.182,5.573 15.663,10.092 10.091,10.092C6.747,10.092 3.783,8.465 1.946,5.96" style="fill:none;stroke:rgb(0,56,116);stroke-width:0.71px;"/>
                </g>
                <g transform="matrix(1,0,0,1,348.504,646.416)">
                    <path d="M0,-13.027L-5.363,1.148L-11.685,1.148L-13.791,-8.334C-13.791,-8.334 -13.887,-14.175 -7.183,-11.782L0,-13.027Z" style="fill:rgb(72,124,182);fill-rule:nonzero;"/>
                </g>
                <g transform="matrix(1,0,0,1,339.214,641.817)">
                    <path d="M0.338,5.854C0.338,5.854 -0.479,10.344 1.245,12.26C2.969,14.175 19.921,13.121 20.592,12.547C21.262,11.973 22.22,8.429 22.22,8.429L21.52,3.34L21.166,-4.213C21.166,-4.213 20.975,-7.47 18.58,-7.948C16.186,-8.428 8.113,-8.428 8.113,-8.428L0.338,5.854Z" style="fill:rgb(179,229,255);fill-rule:nonzero;"/>
                </g>
                <g transform="matrix(1,0,0,1,359.731,641.288)">
                    <path d="M0,5.962L-16.104,5.962C-16.104,5.962 -17.344,6.349 -17.344,7.046C-17.344,7.743 -17.498,11.305 -17.421,11.769C-17.344,12.233 -16.725,12.156 -16.337,12.233C-15.95,12.311 1.161,12.156 1.161,12.156C1.161,12.156 3.252,12.311 3.794,10.375C4.336,8.44 6.116,-1.316 6.116,-1.316C6.116,-1.316 5.032,-6.349 -0.078,-4.103L0,5.962Z" style="fill:rgb(72,124,182);fill-rule:nonzero;"/>
                </g>
                <g transform="matrix(1,0,0,1,341.388,643.894)">
                    <path d="M0,6.999C-0.229,7.641 -0.773,8.026 -1.544,8.23L-5.334,8.23C-5.757,8.158 -6.131,7.981 -6.262,7.303L-6.575,3.947L-9.523,3.947C-10.819,3.745 -10.912,2.025 -9.523,1.83L-4.902,1.83C-4.424,1.228 -4.652,0.75 -5.622,0.404C-6.019,-0.024 -5.622,-0.779 -5.622,-0.779C-5.204,-1.231 -4.644,-1.124 -3.913,-0.621L-0.364,1.074" style="fill:white;fill-rule:nonzero;stroke:rgb(0,56,116);stroke-width:0.71px;"/>
                </g>
                <g transform="matrix(1,0,0,1,358.712,638.547)">
                    <path d="M0,5.962L-16.104,5.962C-16.104,5.962 -17.344,6.349 -17.344,7.046C-17.344,7.742 -17.498,11.304 -17.421,11.769C-17.344,12.233 -16.724,12.156 -16.337,12.233C-15.949,12.311 1.161,12.156 1.161,12.156C1.161,12.156 3.252,12.311 3.794,10.375C4.336,8.44 6.116,-1.316 6.116,-1.316C6.116,-1.316 5.032,-6.349 -0.077,-4.103" style="fill:none;stroke:rgb(0,56,116);stroke-width:0.71px;"/>
                </g>
                <g transform="matrix(1,0,0,1,341.988,625.602)">
                    <path d="M-0.713,19.164L3.425,11.212" style="fill:none;stroke:white;stroke-width:0.5px;"/>
                </g>
                <g transform="matrix(1,0,0,1,334.168,631.036)">
                    <path d="M0,12.621L-1.239,6.35C-1.239,6.35 -0.542,0 5.11,2.788" style="fill:none;stroke:rgb(0,56,116);stroke-width:0.71px;"/>
                </g>
                <g transform="matrix(1,0,0,1,341.988,625.602)">
                    <path d="M-0.919,6.786C-0.919,6.786 -2.556,7.369 -2.71,8.222C-2.865,9.073 -4.801,13.873 -4.801,13.873" style="fill:none;stroke:white;stroke-width:0.5px;"/>
                </g>
                <g transform="matrix(1,0,0,1,348.408,640.286)">
                    <path d="M0,-9.386L6.991,-9.386C6.991,-9.386 11.205,-9.003 10.344,-5.076C9.481,-1.15 9.003,0 9.003,0" style="fill:none;stroke:rgb(0,56,116);stroke-width:0.71px;"/>
                </g>
                <g transform="matrix(1,0,0,1,345.058,625.909)">
                    <path d="M0,10.939C0.616,11.232 1.274,11.119 1.963,10.718L4.644,8.039C4.891,7.688 5.03,7.299 4.644,6.726L2.491,4.132L4.577,2.047C5.351,0.988 4.199,-0.293 3.08,0.55L-0.187,3.818C-0.953,3.73 -1.129,3.231 -0.687,2.301C-0.71,1.717 -1.524,1.463 -1.524,1.463C-2.14,1.44 -2.46,1.912 -2.621,2.785L-3.932,6.493" style="fill:white;fill-rule:nonzero;stroke:rgb(0,56,116);stroke-width:0.71px;"/>
                </g>
                <g transform="matrix(1,0,0,1,347.448,620.368)">
                    <path d="M0,-4.932C0.398,-5.261 0.657,-5.753 0.657,-6.311C0.657,-7.303 -0.146,-8.108 -1.14,-8.108C-2.132,-8.108 -2.937,-7.303 -2.937,-6.311C-2.937,-6.284 -2.93,-6.258 -2.929,-6.232C-3.127,-6.306 -3.339,-6.353 -3.563,-6.353C-4.556,-6.353 -5.36,-5.548 -5.36,-4.555C-5.36,-4.222 -5.264,-3.914 -5.105,-3.647C-5.609,-3.328 -5.945,-2.771 -5.945,-2.131C-5.945,-1.585 -5.697,-1.103 -5.313,-0.773C-5.342,-0.645 -5.36,-0.513 -5.36,-0.376C-5.36,0.617 -4.556,1.421 -3.563,1.421C-3.339,1.421 -3.127,1.375 -2.929,1.299C-2.93,1.327 -2.937,1.352 -2.937,1.38C-2.937,2.372 -2.132,3.176 -1.14,3.176C-0.146,3.176 0.657,2.372 0.657,1.38C0.657,0.949 0.501,0.56 0.249,0.251C0.501,-0.059 0.657,-0.448 0.657,-0.877C0.657,-1.411 0.42,-1.886 0.051,-2.215C0.42,-2.544 0.657,-3.019 0.657,-3.552C0.657,-4.11 0.398,-4.602 0,-4.932Z" style="fill:white;fill-rule:nonzero;stroke:rgb(237,28,36);stroke-width:0.71px;"/>
                </g>
                <g transform="matrix(0,-1,-1,-0,347.415,618.509)">
                    <path d="M-0.951,1.722C0.19,0.951 0.489,1.156 1.722,1.722" style="fill:white;fill-rule:nonzero;stroke:rgb(237,28,36);stroke-width:0.71px;"/>
                </g>
                <g transform="matrix(1,0,0,1,346.144,618.109)">
                    <path d="M0,0L1.355,0" style="fill:white;fill-rule:nonzero;stroke:rgb(237,28,36);stroke-width:0.71px;"/>
                </g>
                <g transform="matrix(1,0,0,1,350.294,620.181)">
                    <path d="M0,-4.93C-0.398,-5.26 -0.658,-5.752 -0.658,-6.31C-0.658,-7.302 0.146,-8.107 1.14,-8.107C2.132,-8.107 2.937,-7.302 2.937,-6.31C2.937,-6.283 2.93,-6.257 2.929,-6.23C3.126,-6.305 3.339,-6.351 3.563,-6.351C4.556,-6.351 5.36,-5.547 5.36,-4.554C5.36,-4.221 5.264,-3.913 5.105,-3.646C5.609,-3.327 5.945,-2.77 5.945,-2.13C5.945,-1.584 5.697,-1.102 5.313,-0.772C5.342,-0.644 5.36,-0.512 5.36,-0.375C5.36,0.618 4.556,1.422 3.563,1.422C3.339,1.422 3.126,1.376 2.929,1.3C2.93,1.328 2.937,1.353 2.937,1.381C2.937,2.373 2.132,3.177 1.14,3.177C0.146,3.177 -0.658,2.373 -0.658,1.381C-0.658,0.95 -0.501,0.561 -0.249,0.252C-0.501,-0.058 -0.658,-0.447 -0.658,-0.876C-0.658,-1.41 -0.42,-1.885 -0.051,-2.214C-0.42,-2.543 -0.658,-3.017 -0.658,-3.551C-0.658,-4.109 -0.398,-4.601 0,-4.93Z" style="fill:white;fill-rule:nonzero;stroke:rgb(237,28,36);stroke-width:0.71px;"/>
                </g>
                <g transform="matrix(0,-1,-1,-0,353,617.551)">
                    <path d="M-1.722,0.951C-0.581,1.722 -0.282,1.517 0.951,0.951" style="fill:white;fill-rule:nonzero;stroke:rgb(237,28,36);stroke-width:0.71px;"/>
                </g>
                <g transform="matrix(-1,-0,0,1,350.244,617.923)">
                    <path d="M-1.355,0L0,0" style="fill:white;fill-rule:nonzero;stroke:rgb(237,28,36);stroke-width:0.71px;"/>
                </g>
            </g>
        </g>
    </g>
</svg>
