<?xml version="1.0" encoding="UTF-8" standalone="no"?>
<!DOCTYPE svg PUBLIC "-//W3C//DTD SVG 1.1//EN" "http://www.w3.org/Graphics/SVG/1.1/DTD/svg11.dtd">
<svg width="100%" height="100%" viewBox="0 0 65 65" version="1.1" xmlns="http://www.w3.org/2000/svg" xmlns:xlink="http://www.w3.org/1999/xlink" xml:space="preserve" xmlns:serif="http://www.serif.com/" style="fill-rule:evenodd;clip-rule:evenodd;">
    <g transform="matrix(1,0,0,1,-1559,-2428)">
        <g transform="matrix(1,0,0,1,-2128.33,1732)">
            <g transform="matrix(1.16131,0,0,1.16131,3314.89,471.65)">
                <g transform="matrix(1,0,0,1,370.17,234.354)">
                    <path d="M0,-0.091L-20.783,0L-42.705,0" style="fill:none;stroke:rgb(237,28,36);stroke-width:1px;"/>
                </g>
                <g transform="matrix(0,-0.933382,-0.933382,-0,336.549,201.518)">
                    <ellipse cx="-10.928" cy="0" rx="10.928" ry="10.928" style="fill:none;stroke:rgb(179,229,255);stroke-width:0.67px;stroke-dasharray:5.39,2.7;"/>
                </g>
                <g transform="matrix(0.933382,0,0,0.933382,338.382,206.643)">
                    <path d="M0,11.968L-3.959,6.647C-4.056,6.528 -4.142,6.426 -4.219,6.343C-4.297,6.259 -4.393,6.193 -4.506,6.145C-4.619,6.098 -4.769,6.065 -4.954,6.047C-5.139,6.029 -5.375,6.02 -5.661,6.02L-5.661,5.518L-4.676,5.518C-4.056,5.518 -3.521,5.453 -3.072,5.321C-2.625,5.19 -2.248,5.008 -1.943,4.775C-1.64,4.542 -1.403,4.258 -1.236,3.924C-1.069,3.59 -0.967,3.219 -0.932,2.813L-5.858,2.813L-5.506,2.802L-0.919,2.802C-0.979,2.539 -1.099,1.762 -1.254,1.487C-1.409,1.212 -1.618,0.965 -1.881,0.743C-2.144,0.523 -2.451,0.343 -2.804,0.206C-3.156,0.069 -3.554,0 -3.995,0L-5.841,0L-6.039,0.03L1.7,0.03M-0.292,2.802L2.234,2.802" style="fill:none;stroke:rgb(179,229,255);stroke-width:0.5px;stroke-dasharray:4,2;"/>
                </g>
                <g transform="matrix(0,-0.933382,-0.933382,-0,360.844,211.718)">
                    <circle cx="-10.928" cy="0" r="10.928" style="fill:none;stroke:rgb(72,124,182);stroke-width:0.67px;stroke-dasharray:5.39,2.7;"/>
                </g>
                <g transform="matrix(0.933382,0,0,0.933382,362.678,216.842)">
                    <path d="M0,11.968L-3.96,6.647C-4.056,6.528 -4.142,6.426 -4.22,6.343C-4.298,6.259 -4.393,6.193 -4.507,6.145C-4.62,6.098 -4.77,6.065 -4.954,6.047C-5.14,6.029 -5.375,6.02 -5.662,6.02L-5.662,5.518L-4.677,5.518C-4.056,5.518 -3.521,5.453 -3.073,5.321C-2.625,5.19 -2.249,5.008 -1.944,4.775C-1.64,4.542 -1.404,4.258 -1.236,3.924C-1.069,3.59 -0.968,3.219 -0.932,2.813L-5.859,2.813L-5.506,2.802L-0.92,2.802C-0.979,2.539 -1.1,1.762 -1.255,1.487C-1.41,1.212 -1.619,0.965 -1.882,0.743C-2.145,0.523 -2.452,0.343 -2.805,0.206C-3.156,0.069 -3.554,0 -3.996,0L-5.841,0L-6.04,0.03L1.7,0.03M-0.292,2.802L2.234,2.802" style="fill:none;stroke:rgb(72,124,182);stroke-width:0.5px;stroke-dasharray:4,2;"/>
                </g>
                <g transform="matrix(0.933382,0,0,0.933382,357.686,215.821)">
                    <path d="M0,0C0,6.036 -4.894,10.928 -10.929,10.928C-16.964,10.928 -21.856,6.036 -21.856,0C-21.856,-6.036 -16.964,-10.928 -10.929,-10.928C-4.894,-10.928 0,-6.036 0,0" style="fill:white;fill-rule:nonzero;"/>
                </g>
                <g transform="matrix(0.933382,0,0,0.933382,359.341,217.222)">
                    <path d="M0,0C0,6.035 -4.893,10.928 -10.929,10.928C-16.964,10.928 -21.856,6.035 -21.856,0C-21.856,-6.036 -16.964,-10.928 -10.929,-10.928C-4.893,-10.928 0,-6.036 0,0" style="fill:rgb(179,229,255);fill-rule:nonzero;"/>
                </g>
                <g transform="matrix(0,-0.933382,-0.933382,-0,347.484,205.592)">
                    <circle cx="-10.928" cy="0" r="10.928" style="fill:none;stroke:rgb(0,56,116);stroke-width:0.67px;"/>
                </g>
                <g transform="matrix(0.933382,0,0,0.933382,350.022,210.262)">
                    <path d="M0,12.488L-0.753,12.488L-4.712,7.167C-4.808,7.048 -4.895,6.946 -4.972,6.862C-5.05,6.779 -5.146,6.713 -5.259,6.665C-5.372,6.617 -5.521,6.584 -5.707,6.567C-5.892,6.549 -6.128,6.54 -6.414,6.54L-6.414,6.038L-5.429,6.038C-4.808,6.038 -4.273,5.972 -3.825,5.841C-3.378,5.709 -3.001,5.527 -2.696,5.294C-2.392,5.061 -2.156,4.778 -1.989,4.444C-1.822,4.109 -1.72,3.739 -1.685,3.333L-6.611,3.333L-6.271,2.813L-1.685,2.813C-1.744,2.55 -1.852,2.281 -2.007,2.007C-2.162,1.732 -2.371,1.485 -2.634,1.263C-2.896,1.042 -3.204,0.863 -3.557,0.725C-3.909,0.589 -4.307,0.52 -4.748,0.52L-6.594,0.52L-6.253,0L1.487,0L1.146,0.52L-2.795,0.52C-2.544,0.627 -2.32,0.77 -2.123,0.949C-1.926,1.129 -1.753,1.32 -1.604,1.523C-1.454,1.726 -1.332,1.938 -1.236,2.159C-1.141,2.38 -1.081,2.598 -1.058,2.813L1.469,2.813L1.129,3.333L-1.075,3.333C-1.111,3.834 -1.225,4.27 -1.416,4.64C-1.606,5.01 -1.852,5.33 -2.15,5.599C-2.449,5.868 -2.786,6.083 -3.162,6.244C-3.539,6.405 -3.941,6.522 -4.372,6.593L0,12.488Z" style="fill:rgb(0,56,116);fill-rule:nonzero;"/>
                </g>
            </g>
        </g>
    </g>
</svg>
