<?xml version="1.0" encoding="UTF-8" standalone="no"?>
<!DOCTYPE svg PUBLIC "-//W3C//DTD SVG 1.1//EN" "http://www.w3.org/Graphics/SVG/1.1/DTD/svg11.dtd">
<svg width="100%" height="100%" viewBox="0 0 65 65" version="1.1" xmlns="http://www.w3.org/2000/svg" xmlns:xlink="http://www.w3.org/1999/xlink" xml:space="preserve" xmlns:serif="http://www.serif.com/" style="fill-rule:evenodd;clip-rule:evenodd;">
    <g transform="matrix(1,0,0,1,-1445,-2427)">
        <g transform="matrix(1,0,0,1,-2128.33,1732)">
            <g transform="matrix(0.915695,0,0,0.915695,-7981.35,-113.22)">
                <g transform="matrix(0.396213,0,0,0.396213,7627.61,538.438)">
                    <path d="M12689.5,903C12661.1,903 12638,926.057 12638,954.5C12638,982.924 12661.1,1006 12689.5,1006C12717.9,1006 12741,982.943 12741,954.5L12689.5,954.5L12689.5,903Z" style="fill:rgb(179,229,255);"/>
                </g>
                <g transform="matrix(0.396213,0,0,0.396213,7624.05,542.342)">
                    <path d="M12689.5,903C12661.1,903 12638,926.057 12638,954.5C12638,982.924 12661.1,1006 12689.5,1006C12717.9,1006 12741,982.943 12741,954.5L12689.5,954.5L12689.5,903Z" style="fill:none;stroke:rgb(0,56,116);stroke-width:2.55px;"/>
                </g>
                <g transform="matrix(0.396213,0,0,0.396213,7631.57,533.987)">
                    <path d="M12741,954.5C12741,926.057 12717.9,903 12689.5,903L12689.5,954.5L12741,954.5Z" style="fill:rgb(72,124,182);"/>
                </g>
                <g transform="matrix(1.3816,0,0,1.3816,12648.1,912.323)">
                    <path d="M0,12.488L-0.753,12.488L-4.712,7.167C-4.808,7.048 -4.895,6.946 -4.972,6.862C-5.05,6.779 -5.146,6.713 -5.259,6.665C-5.372,6.617 -5.521,6.584 -5.707,6.567C-5.892,6.549 -6.128,6.54 -6.414,6.54L-6.414,6.038L-5.429,6.038C-4.808,6.038 -4.273,5.972 -3.825,5.841C-3.378,5.709 -3.001,5.527 -2.696,5.294C-2.392,5.061 -2.156,4.778 -1.989,4.444C-1.822,4.109 -1.72,3.739 -1.685,3.333L-6.611,3.333L-6.271,2.813L-1.685,2.813C-1.744,2.55 -1.852,2.281 -2.007,2.007C-2.162,1.732 -2.371,1.485 -2.634,1.263C-2.896,1.042 -3.204,0.863 -3.557,0.725C-3.909,0.589 -4.307,0.52 -4.748,0.52L-6.594,0.52L-6.253,0L1.487,0L1.146,0.52L-2.795,0.52C-2.544,0.627 -2.32,0.77 -2.123,0.949C-1.926,1.129 -1.753,1.32 -1.604,1.523C-1.454,1.726 -1.332,1.938 -1.236,2.159C-1.141,2.38 -1.081,2.598 -1.058,2.813L1.469,2.813L1.129,3.333L-1.075,3.333C-1.111,3.834 -1.225,4.27 -1.416,4.64C-1.606,5.01 -1.852,5.33 -2.15,5.599C-2.449,5.868 -2.786,6.083 -3.162,6.244C-3.539,6.405 -3.941,6.522 -4.372,6.593L0,12.488Z" style="fill:rgb(0,56,116);fill-rule:nonzero;"/>
                </g>
            </g>
        </g>
    </g>
</svg>
