<?xml version="1.0" encoding="UTF-8" standalone="no"?><!DOCTYPE svg PUBLIC "-//W3C//DTD SVG 1.1//EN" "http://www.w3.org/Graphics/SVG/1.1/DTD/svg11.dtd"><svg width="100%" height="100%" viewBox="0 0 128 80" version="1.1" xmlns="http://www.w3.org/2000/svg" xmlns:xlink="http://www.w3.org/1999/xlink" xml:space="preserve" xmlns:serif="http://www.serif.com/" style="fill-rule:evenodd;clip-rule:evenodd;stroke-linecap:square;stroke-miterlimit:1.5;"><g><rect x="3.36" y="3.6" width="119.76" height="72.24" style="fill:#ffd366;fill-opacity:0.6;stroke:#036;stroke-width:0.36px;stroke-dasharray:1.8,1.8,0,0;"/><rect x="12.568" y="12.085" width="101.345" height="55.27" style="fill:#fff;stroke:#036;stroke-width:0.36px;"/><rect x="21.963" y="21.848" width="82.554" height="35.743" style="fill:#5bce8b;fill-opacity:0.6;stroke:#036;stroke-width:0.36px;stroke-dasharray:1.8,1.8,0,0;"/><rect x="30.269" y="30.065" width="65.942" height="19.309" style="fill:#fff;stroke:#036;stroke-width:0.36px;"/><path d="M56.24,7.002c0.054,-0.112 0.121,-0.196 0.203,-0.249c0.082,-0.054 0.181,-0.081 0.297,-0.081c0.211,0 0.359,0.081 0.446,0.245c0.087,0.163 0.13,0.47 0.13,0.922l0,1.521l-0.394,0l0,-1.502c0,-0.371 -0.02,-0.601 -0.062,-0.691c-0.041,-0.089 -0.116,-0.134 -0.226,-0.134c-0.125,0 -0.21,0.048 -0.257,0.144c-0.046,0.096 -0.069,0.323 -0.069,0.681l0,1.502l-0.393,0l0,-1.502c0,-0.375 -0.023,-0.607 -0.067,-0.694c-0.045,-0.088 -0.125,-0.131 -0.24,-0.131c-0.114,0 -0.194,0.048 -0.238,0.144c-0.045,0.096 -0.067,0.323 -0.067,0.681l0,1.502l-0.392,0l0,-2.625l0.392,0l0,0.225c0.051,-0.094 0.116,-0.165 0.193,-0.214c0.078,-0.05 0.165,-0.074 0.264,-0.074c0.119,0 0.218,0.027 0.296,0.082c0.079,0.054 0.141,0.137 0.184,0.248Z" style="fill-rule:nonzero;"/><path d="M59.191,8.04l-0.143,0c-0.251,0 -0.441,0.045 -0.568,0.133c-0.127,0.088 -0.191,0.22 -0.191,0.395c0,0.158 0.047,0.28 0.143,0.368c0.095,0.087 0.227,0.131 0.396,0.131c0.237,0 0.424,-0.082 0.56,-0.247c0.136,-0.165 0.205,-0.393 0.206,-0.683l0,-0.097l-0.403,0Zm0.837,-0.178l0,1.498l-0.434,0l0,-0.389c-0.092,0.156 -0.208,0.271 -0.348,0.346c-0.14,0.074 -0.31,0.111 -0.51,0.111c-0.267,0 -0.48,-0.075 -0.639,-0.226c-0.16,-0.151 -0.239,-0.353 -0.239,-0.606c0,-0.292 0.098,-0.514 0.294,-0.666c0.196,-0.151 0.484,-0.227 0.863,-0.227l0.579,0l0,-0.068c-0.001,-0.209 -0.054,-0.361 -0.159,-0.456c-0.105,-0.094 -0.272,-0.142 -0.502,-0.142c-0.147,0 -0.295,0.021 -0.445,0.064c-0.15,0.042 -0.296,0.104 -0.438,0.185l0,-0.431c0.159,-0.061 0.312,-0.107 0.458,-0.138c0.146,-0.03 0.288,-0.045 0.425,-0.045c0.218,0 0.403,0.032 0.557,0.096c0.154,0.064 0.279,0.16 0.374,0.288c0.059,0.078 0.101,0.175 0.126,0.29c0.025,0.114 0.038,0.287 0.038,0.516Z" style="fill-rule:nonzero;"/><path d="M63.143,7.276c-0.092,-0.071 -0.186,-0.124 -0.282,-0.157c-0.095,-0.032 -0.2,-0.049 -0.314,-0.049c-0.268,0 -0.474,0.085 -0.616,0.253c-0.142,0.169 -0.213,0.413 -0.213,0.732l0,1.305l-0.434,0l0,-2.625l0.434,0l0,0.513c0.072,-0.186 0.182,-0.328 0.331,-0.427c0.15,-0.1 0.327,-0.149 0.531,-0.149c0.106,0 0.206,0.013 0.298,0.04c0.092,0.026 0.18,0.068 0.265,0.124l0,0.44Z" style="fill-rule:nonzero;"/><path d="M65.336,8.026c0,-0.323 -0.052,-0.569 -0.158,-0.737c-0.105,-0.168 -0.259,-0.252 -0.46,-0.252c-0.211,0 -0.372,0.084 -0.483,0.252c-0.111,0.168 -0.166,0.414 -0.166,0.737c0,0.324 0.055,0.57 0.167,0.74c0.112,0.169 0.274,0.254 0.486,0.254c0.199,0 0.351,-0.085 0.456,-0.255c0.106,-0.171 0.158,-0.417 0.158,-0.739Zm0.432,1.165c0,0.394 -0.093,0.692 -0.279,0.896c-0.186,0.203 -0.46,0.304 -0.82,0.304c-0.119,0 -0.243,-0.011 -0.373,-0.033c-0.13,-0.021 -0.26,-0.053 -0.389,-0.096l0,-0.426c0.153,0.072 0.292,0.125 0.417,0.159c0.125,0.035 0.24,0.052 0.345,0.052c0.232,0 0.402,-0.064 0.508,-0.19c0.106,-0.127 0.159,-0.327 0.159,-0.602l0,-0.019l0,-0.293c-0.068,0.147 -0.162,0.256 -0.281,0.328c-0.119,0.072 -0.263,0.108 -0.433,0.108c-0.307,0 -0.551,-0.123 -0.734,-0.368c-0.183,-0.246 -0.274,-0.574 -0.274,-0.985c0,-0.412 0.091,-0.741 0.274,-0.986c0.183,-0.246 0.427,-0.368 0.734,-0.368c0.168,0 0.311,0.033 0.429,0.1c0.117,0.068 0.212,0.172 0.285,0.312l0,-0.34l0.432,0l0,2.447Z" style="fill-rule:nonzero;"/><path d="M66.956,6.744l1.104,0l0,2.281l0.855,0l0,0.335l-2.142,0l0,-0.335l0.856,0l0,-1.945l-0.673,0l0,-0.336Zm0.673,-1.019l0.431,0l0,0.544l-0.431,0l0,-0.544Z" style="fill-rule:nonzero;"/><path d="M71.569,7.733l0,1.627l-0.434,0l0,-1.627c0,-0.236 -0.041,-0.409 -0.124,-0.52c-0.083,-0.111 -0.213,-0.166 -0.389,-0.166c-0.202,0 -0.357,0.071 -0.466,0.214c-0.108,0.143 -0.162,0.348 -0.162,0.615l0,1.484l-0.432,0l0,-2.625l0.432,0l0,0.394c0.076,-0.15 0.18,-0.264 0.311,-0.341c0.131,-0.078 0.287,-0.116 0.467,-0.116c0.267,0 0.466,0.088 0.598,0.263c0.132,0.176 0.199,0.442 0.199,0.798Z" style="fill-rule:nonzero;"/><path d="M56.587,17.107c0,-0.334 -0.053,-0.586 -0.159,-0.757c-0.106,-0.17 -0.263,-0.255 -0.471,-0.255c-0.21,0 -0.368,0.085 -0.476,0.256c-0.108,0.172 -0.162,0.424 -0.162,0.756c0,0.332 0.054,0.583 0.162,0.755c0.108,0.172 0.266,0.258 0.476,0.258c0.208,0 0.365,-0.085 0.471,-0.256c0.106,-0.17 0.159,-0.422 0.159,-0.757Zm-1.268,-0.979c0.069,-0.128 0.164,-0.227 0.285,-0.296c0.121,-0.068 0.261,-0.103 0.421,-0.103c0.315,0 0.564,0.122 0.745,0.365c0.181,0.243 0.272,0.577 0.272,1.004c0,0.433 -0.091,0.772 -0.273,1.018c-0.182,0.246 -0.432,0.369 -0.749,0.369c-0.156,0 -0.294,-0.034 -0.414,-0.101c-0.119,-0.068 -0.215,-0.167 -0.287,-0.297l0,0.331l-0.431,0l0,-3.647l0.431,0l0,1.357Z" style="fill-rule:nonzero;"/><path d="M58.769,16.095c-0.218,0 -0.384,0.085 -0.497,0.255c-0.112,0.171 -0.168,0.423 -0.168,0.757c0,0.333 0.056,0.585 0.168,0.756c0.113,0.171 0.279,0.257 0.497,0.257c0.221,0 0.387,-0.086 0.5,-0.257c0.112,-0.171 0.168,-0.423 0.168,-0.756c0,-0.334 -0.056,-0.586 -0.168,-0.757c-0.113,-0.17 -0.279,-0.255 -0.5,-0.255Zm0,-0.366c0.364,0 0.643,0.118 0.836,0.354c0.193,0.236 0.289,0.577 0.289,1.024c0,0.449 -0.096,0.791 -0.288,1.026c-0.192,0.235 -0.471,0.352 -0.837,0.352c-0.364,0 -0.642,-0.117 -0.834,-0.352c-0.192,-0.235 -0.288,-0.577 -0.288,-1.026c0,-0.447 0.096,-0.788 0.288,-1.024c0.192,-0.236 0.47,-0.354 0.834,-0.354Z" style="fill-rule:nonzero;"/><path d="M62.922,16.334c-0.092,-0.072 -0.186,-0.124 -0.281,-0.157c-0.095,-0.033 -0.2,-0.049 -0.314,-0.049c-0.269,0 -0.474,0.084 -0.616,0.253c-0.142,0.169 -0.214,0.412 -0.214,0.731l0,1.306l-0.433,0l0,-2.625l0.433,0l0,0.513c0.072,-0.186 0.183,-0.329 0.332,-0.428c0.149,-0.099 0.326,-0.149 0.531,-0.149c0.106,0 0.205,0.014 0.298,0.04c0.092,0.027 0.18,0.068 0.264,0.124l0,0.441Z" style="fill-rule:nonzero;"/><path d="M65.116,16.128l0,-1.357l0.431,0l0,3.647l-0.431,0l0,-0.331c-0.072,0.13 -0.167,0.229 -0.287,0.297c-0.119,0.067 -0.257,0.101 -0.414,0.101c-0.317,0 -0.566,-0.123 -0.748,-0.369c-0.182,-0.246 -0.273,-0.585 -0.273,-1.018c0,-0.427 0.091,-0.761 0.274,-1.004c0.183,-0.243 0.432,-0.365 0.747,-0.365c0.158,0 0.297,0.034 0.418,0.102c0.12,0.068 0.214,0.167 0.283,0.297Zm-1.268,0.979c0,0.335 0.053,0.587 0.16,0.757c0.106,0.171 0.263,0.256 0.471,0.256c0.207,0 0.366,-0.086 0.474,-0.258c0.109,-0.172 0.163,-0.423 0.163,-0.755c0,-0.332 -0.054,-0.584 -0.163,-0.756c-0.108,-0.171 -0.267,-0.256 -0.474,-0.256c-0.208,0 -0.365,0.085 -0.471,0.255c-0.107,0.171 -0.16,0.423 -0.16,0.757Z" style="fill-rule:nonzero;"/><path d="M68.62,16.889l0,0.211l-1.868,0l0,0.014c-0.012,0.358 0.056,0.615 0.205,0.771c0.149,0.157 0.36,0.235 0.632,0.235c0.137,0 0.281,-0.022 0.431,-0.066c0.15,-0.044 0.31,-0.11 0.481,-0.199l0,0.429c-0.165,0.067 -0.323,0.117 -0.475,0.151c-0.152,0.034 -0.3,0.05 -0.442,0.05c-0.408,0 -0.726,-0.122 -0.956,-0.366c-0.23,-0.245 -0.345,-0.582 -0.345,-1.012c0,-0.418 0.113,-0.753 0.338,-1.003c0.225,-0.25 0.525,-0.375 0.9,-0.375c0.334,0 0.598,0.114 0.791,0.34c0.193,0.227 0.296,0.5 0.308,0.82Zm-0.431,-0.126c-0.019,-0.181 -0.085,-0.338 -0.198,-0.47c-0.114,-0.132 -0.276,-0.198 -0.489,-0.198c-0.208,0 -0.379,0.069 -0.513,0.206c-0.135,0.138 -0.208,0.292 -0.22,0.464l1.42,-0.002Z" style="fill-rule:nonzero;"/><path d="M71.592,16.334c-0.092,-0.072 -0.186,-0.124 -0.281,-0.157c-0.096,-0.033 -0.2,-0.049 -0.314,-0.049c-0.269,0 -0.475,0.084 -0.617,0.253c-0.142,0.169 -0.213,0.412 -0.213,0.731l0,1.306l-0.434,0l0,-2.625l0.434,0l0,0.513c0.072,-0.186 0.182,-0.329 0.332,-0.428c0.149,-0.099 0.326,-0.149 0.53,-0.149c0.107,0 0.206,0.014 0.298,0.04c0.092,0.027 0.181,0.068 0.265,0.124l0,0.441Z" style="fill-rule:nonzero;"/><path d="M54.006,27.305l0,1.329l-0.434,0l0,-3.624l0.434,0l0,0.335c0.072,-0.129 0.167,-0.228 0.287,-0.296c0.119,-0.068 0.257,-0.102 0.413,-0.102c0.318,0 0.566,0.123 0.747,0.368c0.18,0.245 0.271,0.585 0.271,1.019c0,0.427 -0.091,0.762 -0.272,1.005c-0.182,0.243 -0.43,0.364 -0.746,0.364c-0.159,0 -0.298,-0.034 -0.418,-0.102c-0.119,-0.068 -0.214,-0.167 -0.282,-0.296Zm1.265,-0.98c0,-0.334 -0.052,-0.587 -0.158,-0.757c-0.105,-0.17 -0.262,-0.255 -0.47,-0.255c-0.209,0 -0.368,0.085 -0.476,0.256c-0.107,0.171 -0.161,0.423 -0.161,0.756c0,0.331 0.054,0.583 0.161,0.755c0.108,0.172 0.267,0.258 0.476,0.258c0.208,0 0.365,-0.086 0.47,-0.256c0.106,-0.17 0.158,-0.423 0.158,-0.757Z" style="fill-rule:nonzero;"/><path d="M57.662,26.316l-0.143,0c-0.252,0 -0.441,0.044 -0.568,0.132c-0.128,0.088 -0.191,0.22 -0.191,0.395c0,0.158 0.047,0.28 0.143,0.368c0.095,0.087 0.227,0.131 0.396,0.131c0.237,0 0.424,-0.082 0.56,-0.247c0.136,-0.165 0.204,-0.393 0.206,-0.683l0,-0.096l-0.403,0Zm0.837,-0.178l0,1.497l-0.434,0l0,-0.389c-0.092,0.156 -0.208,0.272 -0.348,0.346c-0.14,0.074 -0.31,0.111 -0.51,0.111c-0.267,0 -0.48,-0.075 -0.64,-0.226c-0.159,-0.151 -0.239,-0.353 -0.239,-0.606c0,-0.292 0.098,-0.514 0.294,-0.665c0.197,-0.152 0.484,-0.228 0.864,-0.228l0.579,0l0,-0.068c-0.002,-0.209 -0.055,-0.361 -0.159,-0.456c-0.105,-0.094 -0.272,-0.141 -0.502,-0.141c-0.147,0 -0.295,0.021 -0.445,0.063c-0.15,0.042 -0.296,0.104 -0.439,0.185l0,-0.431c0.16,-0.061 0.313,-0.107 0.459,-0.137c0.146,-0.031 0.288,-0.046 0.425,-0.046c0.217,0 0.403,0.032 0.557,0.096c0.154,0.064 0.278,0.16 0.374,0.288c0.059,0.078 0.101,0.175 0.126,0.29c0.025,0.115 0.038,0.287 0.038,0.517Z" style="fill-rule:nonzero;"/><path d="M60.917,25.345l0,-1.357l0.432,0l0,3.647l-0.432,0l0,-0.33c-0.072,0.129 -0.167,0.228 -0.287,0.296c-0.119,0.068 -0.257,0.102 -0.413,0.102c-0.318,0 -0.567,-0.123 -0.749,-0.369c-0.182,-0.246 -0.273,-0.586 -0.273,-1.018c0,-0.427 0.091,-0.762 0.274,-1.005c0.183,-0.243 0.432,-0.364 0.748,-0.364c0.157,0 0.296,0.034 0.417,0.102c0.12,0.068 0.215,0.167 0.283,0.296Zm-1.268,0.98c0,0.334 0.054,0.587 0.16,0.757c0.106,0.17 0.263,0.256 0.471,0.256c0.208,0 0.366,-0.086 0.474,-0.258c0.109,-0.172 0.163,-0.424 0.163,-0.755c0,-0.333 -0.054,-0.585 -0.163,-0.756c-0.108,-0.171 -0.266,-0.256 -0.474,-0.256c-0.208,0 -0.365,0.085 -0.471,0.255c-0.106,0.17 -0.16,0.423 -0.16,0.757Z" style="fill-rule:nonzero;"/><path d="M63.807,25.345l0,-1.357l0.431,0l0,3.647l-0.431,0l0,-0.33c-0.072,0.129 -0.167,0.228 -0.287,0.296c-0.119,0.068 -0.257,0.102 -0.414,0.102c-0.317,0 -0.566,-0.123 -0.748,-0.369c-0.182,-0.246 -0.273,-0.586 -0.273,-1.018c0,-0.427 0.091,-0.762 0.274,-1.005c0.183,-0.243 0.432,-0.364 0.747,-0.364c0.158,0 0.297,0.034 0.418,0.102c0.12,0.068 0.214,0.167 0.283,0.296Zm-1.268,0.98c0,0.334 0.053,0.587 0.16,0.757c0.106,0.17 0.263,0.256 0.471,0.256c0.208,0 0.366,-0.086 0.474,-0.258c0.109,-0.172 0.163,-0.424 0.163,-0.755c0,-0.333 -0.054,-0.585 -0.163,-0.756c-0.108,-0.171 -0.266,-0.256 -0.474,-0.256c-0.208,0 -0.365,0.085 -0.471,0.255c-0.107,0.17 -0.16,0.423 -0.16,0.757Z" style="fill-rule:nonzero;"/><path d="M65.427,25.02l1.104,0l0,2.28l0.855,0l0,0.335l-2.142,0l0,-0.335l0.855,0l0,-1.945l-0.672,0l0,-0.335Zm0.672,-1.02l0.432,0l0,0.544l-0.432,0l0,-0.544Z" style="fill-rule:nonzero;"/><path d="M70.039,26.009l0,1.626l-0.433,0l0,-1.626c0,-0.236 -0.042,-0.41 -0.125,-0.521c-0.082,-0.111 -0.212,-0.166 -0.389,-0.166c-0.201,0 -0.356,0.071 -0.465,0.214c-0.108,0.143 -0.163,0.348 -0.163,0.616l0,1.483l-0.431,0l0,-2.625l0.431,0l0,0.394c0.077,-0.15 0.181,-0.264 0.312,-0.341c0.131,-0.077 0.287,-0.116 0.466,-0.116c0.268,0 0.467,0.088 0.599,0.264c0.132,0.175 0.198,0.441 0.198,0.798Z" style="fill-rule:nonzero;"/><path d="M72.477,26.302c0,-0.324 -0.053,-0.57 -0.158,-0.737c-0.106,-0.168 -0.259,-0.252 -0.461,-0.252c-0.211,0 -0.372,0.084 -0.483,0.252c-0.111,0.167 -0.166,0.413 -0.166,0.737c0,0.323 0.056,0.57 0.167,0.739c0.112,0.17 0.274,0.254 0.487,0.254c0.198,0 0.35,-0.085 0.456,-0.255c0.105,-0.17 0.158,-0.417 0.158,-0.738Zm0.431,1.164c0,0.394 -0.093,0.693 -0.279,0.896c-0.186,0.203 -0.459,0.304 -0.82,0.304c-0.119,0 -0.243,-0.01 -0.373,-0.032c-0.13,-0.022 -0.259,-0.054 -0.389,-0.096l0,-0.427c0.153,0.072 0.292,0.125 0.417,0.159c0.125,0.035 0.24,0.052 0.345,0.052c0.233,0 0.402,-0.063 0.508,-0.19c0.107,-0.126 0.16,-0.327 0.16,-0.602l0,-0.019l0,-0.293c-0.069,0.147 -0.163,0.256 -0.282,0.328c-0.118,0.072 -0.263,0.108 -0.433,0.108c-0.306,0 -0.551,-0.123 -0.734,-0.368c-0.183,-0.245 -0.274,-0.573 -0.274,-0.984c0,-0.413 0.091,-0.742 0.274,-0.987c0.183,-0.245 0.428,-0.368 0.734,-0.368c0.169,0 0.312,0.034 0.429,0.101c0.117,0.067 0.212,0.171 0.286,0.311l0,-0.339l0.431,0l0,2.446Z" style="fill-rule:nonzero;"/><path d="M55.619,41.238c-0.115,0.067 -0.234,0.117 -0.357,0.151c-0.123,0.033 -0.248,0.05 -0.376,0.05c-0.407,0 -0.724,-0.122 -0.953,-0.365c-0.229,-0.244 -0.343,-0.582 -0.343,-1.013c0,-0.431 0.114,-0.769 0.343,-1.012c0.229,-0.244 0.546,-0.366 0.953,-0.366c0.126,0 0.25,0.016 0.37,0.049c0.12,0.033 0.241,0.084 0.363,0.152l0,0.453c-0.114,-0.102 -0.228,-0.175 -0.343,-0.221c-0.115,-0.045 -0.245,-0.067 -0.39,-0.067c-0.271,0 -0.478,0.087 -0.624,0.262c-0.145,0.175 -0.218,0.425 -0.218,0.75c0,0.323 0.073,0.573 0.219,0.749c0.147,0.176 0.354,0.264 0.623,0.264c0.15,0 0.284,-0.024 0.403,-0.07c0.119,-0.046 0.229,-0.117 0.33,-0.214l0,0.448Z" style="fill-rule:nonzero;"/><path d="M57.466,39.049c-0.219,0 -0.384,0.085 -0.497,0.255c-0.112,0.17 -0.168,0.423 -0.168,0.757c0,0.333 0.056,0.585 0.168,0.756c0.113,0.171 0.278,0.257 0.497,0.257c0.22,0 0.387,-0.086 0.499,-0.257c0.113,-0.171 0.169,-0.423 0.169,-0.756c0,-0.334 -0.056,-0.587 -0.169,-0.757c-0.112,-0.17 -0.279,-0.255 -0.499,-0.255Zm0,-0.366c0.364,0 0.643,0.118 0.836,0.354c0.193,0.236 0.289,0.577 0.289,1.024c0,0.448 -0.096,0.79 -0.288,1.025c-0.192,0.236 -0.471,0.353 -0.837,0.353c-0.364,0 -0.642,-0.117 -0.834,-0.353c-0.192,-0.235 -0.288,-0.577 -0.288,-1.025c0,-0.447 0.096,-0.788 0.288,-1.024c0.192,-0.236 0.47,-0.354 0.834,-0.354Z" style="fill-rule:nonzero;"/><path d="M61.376,39.745l0,1.626l-0.434,0l0,-1.626c0,-0.236 -0.041,-0.41 -0.124,-0.521c-0.083,-0.111 -0.213,-0.166 -0.389,-0.166c-0.202,0 -0.357,0.071 -0.466,0.214c-0.108,0.143 -0.162,0.348 -0.162,0.616l0,1.483l-0.432,0l0,-2.625l0.432,0l0,0.394c0.076,-0.15 0.18,-0.264 0.311,-0.341c0.132,-0.077 0.287,-0.116 0.467,-0.116c0.267,0 0.466,0.088 0.599,0.264c0.132,0.175 0.198,0.441 0.198,0.798Z" style="fill-rule:nonzero;"/><path d="M63.241,38.001l0,0.745l0.98,0l0,0.335l-0.98,0l0,1.425c0,0.194 0.037,0.329 0.11,0.406c0.074,0.076 0.202,0.115 0.385,0.115l0.485,0l0,0.344l-0.527,0c-0.324,0 -0.552,-0.065 -0.685,-0.194c-0.133,-0.13 -0.199,-0.353 -0.199,-0.671l0,-1.425l-0.701,0l0,-0.335l0.701,0l0,-0.745l0.431,0Z" style="fill-rule:nonzero;"/><path d="M67.317,39.843l0,0.211l-1.868,0l0,0.014c-0.013,0.358 0.056,0.615 0.205,0.771c0.149,0.156 0.36,0.235 0.632,0.235c0.137,0 0.281,-0.022 0.431,-0.066c0.15,-0.044 0.31,-0.11 0.48,-0.199l0,0.429c-0.164,0.067 -0.322,0.117 -0.474,0.151c-0.153,0.033 -0.3,0.05 -0.442,0.05c-0.408,0 -0.727,-0.122 -0.956,-0.367c-0.23,-0.244 -0.345,-0.581 -0.345,-1.011c0,-0.419 0.113,-0.753 0.338,-1.003c0.225,-0.25 0.525,-0.375 0.9,-0.375c0.334,0 0.598,0.113 0.791,0.34c0.193,0.226 0.295,0.5 0.308,0.82Zm-0.431,-0.127c-0.019,-0.181 -0.085,-0.337 -0.198,-0.469c-0.114,-0.132 -0.277,-0.198 -0.489,-0.198c-0.208,0 -0.379,0.068 -0.513,0.206c-0.135,0.137 -0.208,0.292 -0.221,0.464l1.421,-0.003Z" style="fill-rule:nonzero;"/><path d="M70.045,39.745l0,1.626l-0.434,0l0,-1.626c0,-0.236 -0.041,-0.41 -0.124,-0.521c-0.083,-0.111 -0.212,-0.166 -0.389,-0.166c-0.201,0 -0.356,0.071 -0.465,0.214c-0.109,0.143 -0.163,0.348 -0.163,0.616l0,1.483l-0.431,0l0,-2.625l0.431,0l0,0.394c0.077,-0.15 0.181,-0.264 0.312,-0.341c0.131,-0.077 0.287,-0.116 0.466,-0.116c0.267,0 0.467,0.088 0.599,0.264c0.132,0.175 0.198,0.441 0.198,0.798Z" style="fill-rule:nonzero;"/><path d="M71.911,38.001l0,0.745l0.979,0l0,0.335l-0.979,0l0,1.425c0,0.194 0.036,0.329 0.11,0.406c0.073,0.076 0.201,0.115 0.384,0.115l0.485,0l0,0.344l-0.527,0c-0.323,0 -0.552,-0.065 -0.684,-0.194c-0.133,-0.13 -0.2,-0.353 -0.2,-0.671l0,-1.425l-0.7,0l0,-0.335l0.7,0l0,-0.745l0.432,0Z" style="fill-rule:nonzero;"/></g></svg>