<?xml version="1.0" encoding="UTF-8" standalone="no"?><!DOCTYPE svg PUBLIC "-//W3C//DTD SVG 1.1//EN" "http://www.w3.org/Graphics/SVG/1.1/DTD/svg11.dtd"><svg width="100%" height="100%" viewBox="0 0 919 703" version="1.1" xmlns="http://www.w3.org/2000/svg" xmlns:xlink="http://www.w3.org/1999/xlink" xml:space="preserve" xmlns:serif="http://www.serif.com/" style="fill-rule:evenodd;clip-rule:evenodd;stroke-miterlimit:10;"><rect id="Artboard1" x="0" y="0" width="918.21" height="702.7" style="fill:none;"/><clipPath id="_clip1"><rect id="Artboard11" serif:id="Artboard1" x="0" y="0" width="918.21" height="702.7"/></clipPath><g clip-path="url(#_clip1)"><path d="M213.11,566.49c12.31,0.81 25.32,5.08 36.52,-0.09c2.89,-1.33 5.51,-3.25 8.51,-4.32c6.89,-2.46 14.46,-0.07 21.4,2.23c54.332,17.983 102.18,-72.987 158.86,-65.07c11.68,1.63 23.87,3 35,-0.8c8.14,-2.77 15.19,-8.12 23.25,-11.12c13.18,-4.89 27.74,-3.07 41.77,-2.3c36.747,2.003 81.515,100.402 116,87.55l1.81,-0.69c17.4,-6.72 37.082,-4.075 52.09,7c5.86,4.298 12.076,8.089 18.58,11.33c21.735,10.959 30.932,37.594 20.59,59.63l-0.24,0.52c-5.72,12.47 -10.49,26.43 -21.7,34.35c-10.57,7.47 -24.44,7.78 -37.38,7.81l-79.43,0.19c-8.24,0 -16.58,0 -24.58,-1.94c-7.19,-1.77 -13.88,-5.09 -20.51,-8.39l-35.54,-17.63c-14.31,-7.11 -30,-14.43 -45.66,-11.16c-16,3.34 -27.53,16.79 -41.47,25.27c-21.63,13.17 -50.39,13.69 -72.48,1.29c-10.58,-5.94 -19.77,-14.6 -31.31,-18.33c-19.06,-6.17 -39.31,2.37 -58.92,6.46c-38.16,7.96 -83.11,-2.93 -112.35,-29.26c-37.66,-33.92 6.56,-75.19 47.19,-72.53Z" style="fill:#f0e4e4;fill-rule:nonzero;"/><path d="M68.8,623.13c0,0 -29.11,-98.78 5.46,-171.56c14.51,-30.53 19.33,-64.8 12.62,-97.93c-3.204,-15.725 -7.844,-31.123 -13.86,-46" style="fill:none;stroke:#535461;stroke-width:2px;"/><path d="M94.52,261.71c0,12.11 -21.93,47.23 -21.93,47.23c0,0 -21.93,-35.12 -21.93,-47.23c0,-12.03 9.9,-21.93 21.93,-21.93c12.03,0 21.93,9.9 21.93,21.93c0,0 0,0 0,0Z" style="fill:#c41425;fill-rule:nonzero;"/><path d="M130.77,328.8c-6.58,10.17 -44.08,27.73 -44.08,27.73c0,0 0.68,-41.4 7.26,-51.57c4.038,-6.237 10.98,-10.012 18.41,-10.012c12.032,0 21.932,9.9 21.932,21.932c0,4.229 -1.223,8.37 -3.522,11.92Z" style="fill:#c41425;fill-rule:nonzero;"/><path d="M129.19,443.44c-10.81,5.45 -52,1.69 -52,1.69c0,0 21.49,-35.4 32.3,-40.85c3.104,-1.598 6.546,-2.432 10.037,-2.432c12.03,0 21.93,9.9 21.93,21.93c0,8.332 -4.748,15.972 -12.217,19.662l-0.05,0Z" style="fill:#c41425;fill-rule:nonzero;"/><path d="M108.46,529.92c-9.74,7.2 -51,10.46 -51,10.46c0,0 15.2,-38.52 24.93,-45.72c3.735,-2.695 8.227,-4.147 12.833,-4.147c12.03,0 21.93,9.9 21.93,21.93c0,6.859 -3.217,13.334 -8.683,17.477l-0.01,0Z" style="fill:#c41425;fill-rule:nonzero;"/><path d="M40.65,358.87c8.69,8.44 49.16,17.18 49.16,17.18c0,0 -9.91,-40.2 -18.6,-48.64c-4.083,-3.925 -9.533,-6.119 -15.196,-6.119c-12.031,0 -21.93,9.9 -21.93,21.93c0,5.884 2.368,11.527 6.566,15.649Z" style="fill:#c41425;fill-rule:nonzero;"/><path d="M17.68,460.35c10.81,5.45 52,1.69 52,1.69c0,0 -21.49,-35.4 -32.3,-40.85c-2.884,-1.333 -6.024,-2.024 -9.202,-2.024c-12.031,0 -21.93,9.899 -21.93,21.93c0,8.015 4.395,15.417 11.432,19.254Z" style="fill:#c41425;fill-rule:nonzero;"/><path d="M8.89,561.97c9.74,7.2 51,10.46 51,10.46c0,0 -15.2,-38.52 -24.93,-45.72c-3.735,-2.695 -8.227,-4.147 -12.833,-4.147c-12.03,0 -21.93,9.9 -21.93,21.93c0,6.859 3.217,13.334 8.683,17.477l0.01,0Z" style="fill:#c41425;fill-rule:nonzero;"/><path d="M94.52,261.71c0,12.11 -21.93,47.23 -21.93,47.23c0,0 -21.93,-35.12 -21.93,-47.23c0,-12.03 9.9,-21.93 21.93,-21.93c12.03,0 21.93,9.9 21.93,21.93c0,0 0,0 0,0Z" style="fill-opacity:0.25;fill-rule:nonzero;"/><path d="M130.77,328.8c-6.58,10.17 -44.08,27.73 -44.08,27.73c0,0 0.68,-41.4 7.26,-51.57c4.038,-6.237 10.98,-10.012 18.41,-10.012c12.032,0 21.932,9.9 21.932,21.932c0,4.229 -1.223,8.37 -3.522,11.92Z" style="fill-opacity:0.25;fill-rule:nonzero;"/><path d="M129.19,443.44c-10.81,5.45 -52,1.69 -52,1.69c0,0 21.49,-35.4 32.3,-40.85c3.104,-1.598 6.546,-2.432 10.037,-2.432c12.03,0 21.93,9.9 21.93,21.93c0,8.332 -4.748,15.972 -12.217,19.662l-0.05,0Z" style="fill-opacity:0.25;fill-rule:nonzero;"/><path d="M108.46,529.92c-9.74,7.2 -51,10.46 -51,10.46c0,0 15.2,-38.52 24.93,-45.72c3.735,-2.695 8.227,-4.147 12.833,-4.147c12.03,0 21.93,9.9 21.93,21.93c0,6.859 -3.217,13.334 -8.683,17.477l-0.01,0Z" style="fill-opacity:0.25;fill-rule:nonzero;"/><path d="M40.65,358.87c8.69,8.44 49.16,17.18 49.16,17.18c0,0 -9.91,-40.2 -18.6,-48.64c-4.083,-3.925 -9.533,-6.119 -15.196,-6.119c-12.031,0 -21.93,9.9 -21.93,21.93c0,5.884 2.368,11.527 6.566,15.649Z" style="fill-opacity:0.25;fill-rule:nonzero;"/><path d="M17.68,460.35c10.81,5.45 52,1.69 52,1.69c0,0 -21.49,-35.4 -32.3,-40.85c-2.884,-1.333 -6.024,-2.024 -9.202,-2.024c-12.031,0 -21.93,9.899 -21.93,21.93c0,8.015 4.395,15.417 11.432,19.254Z" style="fill-opacity:0.25;fill-rule:nonzero;"/><path d="M8.89,561.97c9.74,7.2 51,10.46 51,10.46c0,0 -15.2,-38.52 -24.93,-45.72c-3.735,-2.695 -8.227,-4.147 -12.833,-4.147c-12.03,0 -21.93,9.9 -21.93,21.93c0,6.859 3.217,13.334 8.683,17.477l0.01,0Z" style="fill-opacity:0.25;fill-rule:nonzero;"/><path d="M599.52,349.27c-3.7,-29 7.89,-58.85 1,-87.24c-5.3,-21.93 -21,-40.24 -26.16,-62.21c-7.58,-32.56 9.76,-66 31.89,-91c15.22,-17.23 34.32,-32.87 57.09,-36c14.06,-2 28.51,1.09 41.49,6.82c26.67,11.957 47.191,34.498 56.6,62.17c3,8.9 4.73,18.21 8.42,26.84c6.35,14.87 18,26.87 25.25,41.33c9.766,19.797 10.732,42.824 2.66,63.37c-8.39,20.94 -26,38.46 -28.6,60.87c-1.89,16.15 4.17,33.84 -3.7,48.07c-5.94,10.74 -18.17,16.16 -29.75,20.22c-26.94,9.4 -64.6,24.6 -91.6,10.13c-23.62,-12.65 -41.17,-36.6 -44.59,-63.37Z" style="fill:#c41425;fill-rule:nonzero;"/><path d="M675.11,369.88c0,0 39.66,-16 44.66,-25c5,-9 12,-62 12,-62" style="fill:none;stroke:#333;stroke-width:3px;"/><path d="M674.73,614.9l0,-345" style="fill:none;stroke:#333;stroke-width:3px;"/><path d="M628.91,508.29c0.016,7.292 -5.968,13.308 -13.26,13.33l-306,0.74c-7.292,0.016 -13.308,-5.968 -13.33,-13.26l-0.21,-89.75l-1.17,-353.92c-0.016,-7.292 5.968,-13.308 13.26,-13.33l305.91,-0.74c7.292,-0.016 13.308,5.968 13.33,13.26l1.25,354.73l0.22,88.94Z" style="fill:#fff;fill-rule:nonzero;"/><path d="M714.52,349.27c-3.7,-29 7.89,-58.85 1,-87.24c-5.3,-21.93 -21,-40.24 -26.16,-62.21c-7.58,-32.56 9.76,-66 31.89,-91c15.22,-17.23 34.32,-32.87 57.09,-36c14.06,-2 28.51,1.09 41.49,6.82c26.67,11.957 47.191,34.498 56.6,62.17c3,8.9 4.73,18.21 8.42,26.84c6.35,14.87 18,26.87 25.25,41.33c9.768,19.812 10.723,42.857 2.63,63.41c-8.39,20.94 -26,38.46 -28.6,60.87c-1.89,16.15 4.17,33.84 -3.7,48.07c-5.94,10.74 -18.17,16.16 -29.75,20.22c-26.91,9.36 -64.57,24.56 -91.57,10.09c-23.62,-12.65 -41.17,-36.6 -44.59,-63.37Z" style="fill:#c41425;fill-rule:nonzero;"/><path d="M714.52,349.27c-3.7,-29 7.89,-58.85 1,-87.24c-5.3,-21.93 -21,-40.24 -26.16,-62.21c-7.58,-32.56 9.76,-66 31.89,-91c15.22,-17.23 34.32,-32.87 57.09,-36c14.06,-2 28.51,1.09 41.49,6.82c26.67,11.957 47.191,34.498 56.6,62.17c3,8.9 4.73,18.21 8.42,26.84c6.35,14.87 18,26.87 25.25,41.33c9.768,19.812 10.723,42.857 2.63,63.41c-8.39,20.94 -26,38.46 -28.6,60.87c-1.89,16.15 4.17,33.84 -3.7,48.07c-5.94,10.74 -18.17,16.16 -29.75,20.22c-26.91,9.36 -64.57,24.56 -91.57,10.09c-23.62,-12.65 -41.17,-36.6 -44.59,-63.37Z" style="fill-opacity:0.2;fill-rule:nonzero;"/><path d="M790.11,369.88c0,0 39.66,-16 44.66,-25c5,-9 12,-62 12,-62" style="fill:none;stroke:#333;stroke-width:3px;"/><path d="M789.73,614.9l0,-345" style="fill:none;stroke:#333;stroke-width:3px;"/><path d="M141.45,663.35c0,0 -12.72,-43.19 2.38,-75c6.42,-13.288 8.358,-28.308 5.52,-42.79c-1.402,-6.868 -3.43,-13.593 -6.06,-20.09" style="fill:none;stroke:#535461;stroke-width:2px;"/><path d="M152.69,505.41c0,5.29 -9.58,20.64 -9.58,20.64c0,0 -9.58,-15.35 -9.58,-20.64c0,-5.258 4.327,-9.585 9.585,-9.585c5.258,0 9.585,4.327 9.585,9.585l-0.01,0Z" style="fill:#c41425;fill-rule:nonzero;"/><path d="M168.54,534.73c-2.88,4.44 -19.26,12.12 -19.26,12.12c0,0 0.3,-18.09 3.17,-22.54c1.765,-2.725 4.798,-4.375 8.045,-4.375c5.258,0 9.585,4.327 9.585,9.585c0,1.849 -0.535,3.658 -1.54,5.21Z" style="fill:#c41425;fill-rule:nonzero;"/><path d="M167.84,584.83c-4.73,2.38 -22.75,0.74 -22.75,0.74c0,0 9.39,-15.47 14.12,-17.85c1.338,-0.675 2.816,-1.027 4.315,-1.027c5.256,0 9.582,4.326 9.582,9.582c0,3.612 -2.042,6.929 -5.267,8.555Z" style="fill:#c41425;fill-rule:nonzero;"/><path d="M158.78,622.62c-4.26,3.15 -22.29,4.57 -22.29,4.57c0,0 6.64,-16.83 10.9,-20c1.65,-1.22 3.648,-1.879 5.7,-1.879c5.258,0 9.584,4.326 9.584,9.584c0,3.037 -1.443,5.899 -3.884,7.705l-0.01,0.02Z" style="fill:#c41425;fill-rule:nonzero;"/><path d="M129.11,547.88c3.8,3.69 21.48,7.51 21.48,7.51c0,0 -4.33,-17.57 -8.13,-21.26c-1.788,-1.736 -4.183,-2.707 -6.675,-2.707c-5.257,0 -9.582,4.325 -9.582,9.582c0,2.589 1.049,5.071 2.907,6.875Z" style="fill:#c41425;fill-rule:nonzero;"/><path d="M119.11,592.2c4.73,2.38 22.75,0.74 22.75,0.74c0,0 -9.39,-15.47 -14.12,-17.85c-1.338,-0.675 -2.816,-1.027 -4.315,-1.027c-5.256,0 -9.582,4.326 -9.582,9.582c0,3.612 2.042,6.929 5.267,8.555Z" style="fill:#c41425;fill-rule:nonzero;"/><path d="M115.27,636.63c4.26,3.15 22.29,4.57 22.29,4.57c0,0 -6.64,-16.83 -10.9,-20c-1.65,-1.22 -3.648,-1.879 -5.7,-1.879c-5.258,0 -9.584,4.326 -9.584,9.584c0,3.037 1.443,5.899 3.884,7.705l0.01,0.02Z" style="fill:#c41425;fill-rule:nonzero;"/><path d="M152.69,505.41c0,5.29 -9.58,20.64 -9.58,20.64c0,0 -9.58,-15.35 -9.58,-20.64c0,-5.258 4.327,-9.585 9.585,-9.585c5.258,0 9.585,4.327 9.585,9.585l-0.01,0Z" style="fill-opacity:0.25;fill-rule:nonzero;"/><path d="M168.54,534.73c-2.88,4.44 -19.26,12.12 -19.26,12.12c0,0 0.3,-18.09 3.17,-22.54c1.765,-2.725 4.798,-4.375 8.045,-4.375c5.258,0 9.585,4.327 9.585,9.585c0,1.849 -0.535,3.658 -1.54,5.21Z" style="fill-opacity:0.25;fill-rule:nonzero;"/><path d="M167.84,584.83c-4.73,2.38 -22.75,0.74 -22.75,0.74c0,0 9.39,-15.47 14.12,-17.85c1.338,-0.675 2.816,-1.027 4.315,-1.027c5.256,0 9.582,4.326 9.582,9.582c0,3.612 -2.042,6.929 -5.267,8.555Z" style="fill-opacity:0.25;fill-rule:nonzero;"/><path d="M158.78,622.62c-4.26,3.15 -22.29,4.57 -22.29,4.57c0,0 6.64,-16.83 10.9,-20c1.65,-1.22 3.648,-1.879 5.7,-1.879c5.258,0 9.584,4.326 9.584,9.584c0,3.037 -1.443,5.899 -3.884,7.705l-0.01,0.02Z" style="fill-opacity:0.25;fill-rule:nonzero;"/><path d="M129.11,547.88c3.8,3.69 21.48,7.51 21.48,7.51c0,0 -4.33,-17.57 -8.13,-21.26c-1.788,-1.736 -4.183,-2.707 -6.675,-2.707c-5.257,0 -9.582,4.325 -9.582,9.582c0,2.589 1.049,5.071 2.907,6.875Z" style="fill-opacity:0.25;fill-rule:nonzero;"/><path d="M119.11,592.2c4.73,2.38 22.75,0.74 22.75,0.74c0,0 -9.39,-15.47 -14.12,-17.85c-1.338,-0.675 -2.816,-1.027 -4.315,-1.027c-5.256,0 -9.582,4.326 -9.582,9.582c0,3.612 2.042,6.929 5.267,8.555Z" style="fill-opacity:0.25;fill-rule:nonzero;"/><path d="M115.27,636.63c4.26,3.15 22.29,4.57 22.29,4.57c0,0 -6.64,-16.83 -10.9,-20c-1.65,-1.22 -3.648,-1.879 -5.7,-1.879c-5.258,0 -9.584,4.326 -9.584,9.584c0,3.037 1.443,5.899 3.884,7.705l0.01,0.02Z" style="fill-opacity:0.25;fill-rule:nonzero;"/><path d="M846.17,638.91c0,0 -15.76,-53.5 3,-92.88c7.948,-16.46 10.345,-35.063 6.83,-53c-1.738,-8.505 -4.252,-16.833 -7.51,-24.88" style="fill:none;stroke:#535461;stroke-width:2px;"/><path d="M860.11,443.23c0,6.56 -11.87,25.57 -11.87,25.57c0,0 -11.87,-19 -11.87,-25.57c0,-6.514 5.361,-11.875 11.875,-11.875c6.514,0 11.875,5.361 11.875,11.875l-0.01,0Z" style="fill:#c41425;fill-rule:nonzero;"/><path d="M879.72,479.55c-3.56,5.5 -23.86,15 -23.86,15c0,0 0.37,-22.41 3.93,-27.92c2.186,-3.375 5.944,-5.418 9.965,-5.418c6.513,0 11.873,5.36 11.873,11.873c0,2.29 -0.663,4.533 -1.908,6.455l0,0.01Z" style="fill:#c41425;fill-rule:nonzero;"/><path d="M878.87,541.62c-5.85,3 -28.18,0.91 -28.18,0.91c0,0 11.63,-19.16 17.49,-22.12c1.658,-0.836 3.489,-1.271 5.345,-1.271c6.512,0 11.871,5.359 11.871,11.871c0,4.475 -2.53,8.585 -6.526,10.6l0,0.01Z" style="fill:#c41425;fill-rule:nonzero;"/><path d="M867.64,588.44c-5.27,3.9 -27.62,5.66 -27.62,5.66c0,0 8.23,-20.85 13.5,-24.75c2.043,-1.511 4.519,-2.327 7.06,-2.327c6.513,0 11.872,5.359 11.872,11.872c0,3.762 -1.788,7.308 -4.812,9.545Z" style="fill:#c41425;fill-rule:nonzero;"/><path d="M830.93,495.84c4.7,4.57 26.62,9.3 26.62,9.3c0,0 -5.37,-21.77 -10.07,-26.33c-2.184,-1.982 -5.029,-3.081 -7.978,-3.081c-6.512,0 -11.87,5.358 -11.87,11.87c0,3.059 1.182,6.002 3.298,8.211l0,0.03Z" style="fill:#c41425;fill-rule:nonzero;"/><path d="M818.5,550.76c5.85,3 28.18,0.91 28.18,0.91c0,0 -11.63,-19.16 -17.49,-22.12c-1.658,-0.836 -3.489,-1.271 -5.345,-1.271c-6.512,0 -11.871,5.359 -11.871,11.871c0,4.475 2.53,8.585 6.526,10.6l0,0.01Z" style="fill:#c41425;fill-rule:nonzero;"/><path d="M813.74,605.79c5.27,3.9 27.62,5.66 27.62,5.66c0,0 -8.23,-20.85 -13.5,-24.75c-2.043,-1.511 -4.519,-2.327 -7.06,-2.327c-6.513,0 -11.872,5.359 -11.872,11.872c0,3.762 1.788,7.308 4.812,9.545Z" style="fill:#c41425;fill-rule:nonzero;"/><path d="M860.11,443.23c0,6.56 -11.87,25.57 -11.87,25.57c0,0 -11.87,-19 -11.87,-25.57c0,-6.514 5.361,-11.875 11.875,-11.875c6.514,0 11.875,5.361 11.875,11.875l-0.01,0Z" style="fill:#fff;fill-opacity:0.5;fill-rule:nonzero;"/><path d="M879.72,479.55c-3.56,5.5 -23.86,15 -23.86,15c0,0 0.37,-22.41 3.93,-27.92c2.186,-3.375 5.944,-5.418 9.965,-5.418c6.513,0 11.873,5.36 11.873,11.873c0,2.29 -0.663,4.533 -1.908,6.455l0,0.01Z" style="fill:#fff;fill-opacity:0.5;fill-rule:nonzero;"/><path d="M878.87,541.62c-5.85,3 -28.18,0.91 -28.18,0.91c0,0 11.63,-19.16 17.49,-22.12c1.658,-0.836 3.489,-1.271 5.345,-1.271c6.512,0 11.871,5.359 11.871,11.871c0,4.475 -2.53,8.585 -6.526,10.6l0,0.01Z" style="fill:#fff;fill-opacity:0.5;fill-rule:nonzero;"/><path d="M867.64,588.44c-5.27,3.9 -27.62,5.66 -27.62,5.66c0,0 8.23,-20.85 13.5,-24.75c2.043,-1.511 4.519,-2.327 7.06,-2.327c6.513,0 11.872,5.359 11.872,11.872c0,3.762 -1.788,7.308 -4.812,9.545Z" style="fill:#fff;fill-opacity:0.5;fill-rule:nonzero;"/><path d="M830.93,495.84c4.7,4.57 26.62,9.3 26.62,9.3c0,0 -5.37,-21.77 -10.07,-26.33c-2.184,-1.982 -5.029,-3.081 -7.978,-3.081c-6.512,0 -11.87,5.358 -11.87,11.87c0,3.059 1.182,6.002 3.298,8.211l0,0.03Z" style="fill:#fff;fill-opacity:0.5;fill-rule:nonzero;"/><path d="M818.5,550.76c5.85,3 28.18,0.91 28.18,0.91c0,0 -11.63,-19.16 -17.49,-22.12c-1.658,-0.836 -3.489,-1.271 -5.345,-1.271c-6.512,0 -11.871,5.359 -11.871,11.871c0,4.475 2.53,8.585 6.526,10.6l0,0.01Z" style="fill:#fff;fill-opacity:0.5;fill-rule:nonzero;"/><path d="M813.74,605.79c5.27,3.9 27.62,5.66 27.62,5.66c0,0 -8.23,-20.85 -13.5,-24.75c-2.043,-1.511 -4.519,-2.327 -7.06,-2.327c-6.513,0 -11.872,5.359 -11.872,11.872c0,3.762 1.788,7.308 4.812,9.545Z" style="fill:#fff;fill-opacity:0.5;fill-rule:nonzero;"/><path d="M376.09,112.36c0,-5.795 -4.705,-10.5 -10.5,-10.5l-43,0c-5.795,0 -10.5,4.705 -10.5,10.5l0,43c0,5.795 4.705,10.5 10.5,10.5l43,0c5.795,0 10.5,-4.705 10.5,-10.5l0,-43Z" style="fill:#036;"/><path d="M455.09,112.36c0,-5.795 -4.705,-10.5 -10.5,-10.5l-43,0c-5.795,0 -10.5,4.705 -10.5,10.5l0,43c0,5.795 4.705,10.5 10.5,10.5l43,0c5.795,0 10.5,-4.705 10.5,-10.5l0,-43Z" style="fill:#487cb6;"/><path d="M534.09,112.36c0,-5.795 -4.705,-10.5 -10.5,-10.5l-43,0c-5.795,0 -10.5,4.705 -10.5,10.5l0,43c0,5.795 4.705,10.5 10.5,10.5l43,0c5.795,0 10.5,-4.705 10.5,-10.5l0,-43Z" style="fill:#53b7e8;"/><path d="M613.09,112.36c0,-5.795 -4.705,-10.5 -10.5,-10.5l-43,0c-5.795,0 -10.5,4.705 -10.5,10.5l0,43c0,5.795 4.705,10.5 10.5,10.5l43,0c5.795,0 10.5,-4.705 10.5,-10.5l0,-43Z" style="fill:#b3e5ff;"/><path d="M375.76,208.36c0,-5.795 -4.705,-10.5 -10.5,-10.5l-43,0c-5.795,0 -10.5,4.705 -10.5,10.5l0,43c0,5.795 4.705,10.5 10.5,10.5l43,0c5.795,0 10.5,-4.705 10.5,-10.5l0,-43Z" style="fill:#c41425;"/><path d="M454.76,208.36c0,-5.795 -4.705,-10.5 -10.5,-10.5l-43,0c-5.795,0 -10.5,4.705 -10.5,10.5l0,43c0,5.795 4.705,10.5 10.5,10.5l43,0c5.795,0 10.5,-4.705 10.5,-10.5l0,-43Z" style="fill:#ed1c24;"/><path d="M533.76,208.36c0,-5.795 -4.705,-10.5 -10.5,-10.5l-43,0c-5.795,0 -10.5,4.705 -10.5,10.5l0,43c0,5.795 4.705,10.5 10.5,10.5l43,0c5.795,0 10.5,-4.705 10.5,-10.5l0,-43Z" style="fill:#ef4123;"/><path d="M612.76,208.36c0,-5.795 -4.705,-10.5 -10.5,-10.5l-43,0c-5.795,0 -10.5,4.705 -10.5,10.5l0,43c0,5.795 4.705,10.5 10.5,10.5l43,0c5.795,0 10.5,-4.705 10.5,-10.5l0,-43Z" style="fill:#f37032;"/><path d="M375.43,304.36c0,-5.795 -4.705,-10.5 -10.5,-10.5l-43,0c-5.795,0 -10.5,4.705 -10.5,10.5l0,43c0,5.795 4.705,10.5 10.5,10.5l43,0c5.795,0 10.5,-4.705 10.5,-10.5l0,-43Z" style="fill:#1a1a1a;"/><path d="M454.43,304.36c0,-5.795 -4.705,-10.5 -10.5,-10.5l-43,0c-5.795,0 -10.5,4.705 -10.5,10.5l0,43c0,5.795 4.705,10.5 10.5,10.5l43,0c5.795,0 10.5,-4.705 10.5,-10.5l0,-43Z" style="fill:#737373;"/><path d="M533.43,304.36c0,-5.795 -4.705,-10.5 -10.5,-10.5l-43,0c-5.795,0 -10.5,4.705 -10.5,10.5l0,43c0,5.795 4.705,10.5 10.5,10.5l43,0c5.795,0 10.5,-4.705 10.5,-10.5l0,-43Z" style="fill:#ebebec;"/><path d="M612.43,304.36c0,-5.795 -4.705,-10.5 -10.5,-10.5l-43,0c-5.795,0 -10.5,4.705 -10.5,10.5l0,43c0,5.795 4.705,10.5 10.5,10.5l43,0c5.795,0 10.5,-4.705 10.5,-10.5l0,-43Z" style="fill:#f5f5f5;"/><path d="M375.11,400.36c0,-5.795 -4.705,-10.5 -10.5,-10.5l-43,0c-5.795,0 -10.5,4.705 -10.5,10.5l0,43c0,5.795 4.705,10.5 10.5,10.5l43,0c5.795,0 10.5,-4.705 10.5,-10.5l0,-43Z" style="fill:#5bce8b;"/><path d="M454.11,400.36c0,-5.795 -4.705,-10.5 -10.5,-10.5l-43,0c-5.795,0 -10.5,4.705 -10.5,10.5l0,43c0,5.795 4.705,10.5 10.5,10.5l43,0c5.795,0 10.5,-4.705 10.5,-10.5l0,-43Z" style="fill:#ffd366;"/><path d="M533.11,400.36c0,-5.795 -4.705,-10.5 -10.5,-10.5l-43,0c-5.795,0 -10.5,4.705 -10.5,10.5l0,43c0,5.795 4.705,10.5 10.5,10.5l43,0c5.795,0 10.5,-4.705 10.5,-10.5l0,-43Z" style="fill:#656691;"/><path d="M612.11,400.36c0,-5.795 -4.705,-10.5 -10.5,-10.5l-43,0c-5.795,0 -10.5,4.705 -10.5,10.5l0,43c0,5.795 4.705,10.5 10.5,10.5l43,0c5.795,0 10.5,-4.705 10.5,-10.5l0,-43Z" style="fill:#d2d4de;"/><path d="M345.11,270.21l0,5.78l-24.38,-15.4l2.57,-3.21l1.19,0.7l18.87,-27.65l0,-16.08l7.19,0.64l0,-2.57c19,-21.82 20.91,2.57 17,9.63c-3.91,7.06 -11.11,12.19 -11.11,12.19c-4,3.36 -11,28.76 -12.69,35.13l1.36,0.84Z" style="fill:url(#_Linear2);fill-rule:nonzero;"/><path d="M160.26,320.6c0,0 18.61,36.41 12.83,72.82c-1.94,12.24 -1.13,19.72 0.81,24.28c-0.535,4.929 -1.886,9.735 -4,14.22c-7.06,14.76 -7.06,30.16 1.92,48.13l2.57,93c0,0 3.21,43.63 0,52.62c-3.21,8.99 1.28,52 1.28,52l-0.64,0l0,23.74l48.08,1.29c0,0 11.27,-5.35 13.27,-9.35l24.16,7.43c0,0 26.59,-4.58 11,-10.92c-11.61,-4.72 -14.49,-11.47 -15.21,-14.59l38,-109.26c0,0 -7.06,-93 -32.73,-125.13l-2.6,-18.92l0.36,0l5.45,-110.47l0.45,0.06l-0.13,0c14.05,2.245 28.385,2.025 42.36,-0.65c4.191,-0.745 8.3,-1.894 12.27,-3.43l0.73,-0.29l0.15,0c2.974,-1.219 5.778,-2.819 8.34,-4.76l16,-24.51l-24.38,-16.8l-8.34,11.9c0,0 -26.13,-5.52 -40.48,-11.34c-6.68,-2.727 -13.789,-4.254 -21,-4.51l-15.67,-0.54l-7.81,-4.69l2.44,-6.31c0.24,-0.11 0.48,-0.22 0.72,-0.35l0.22,-1.35c19.922,-4.947 32.247,-25.406 27.31,-45.33l0.51,0c-0.22,-13 -4.2,-14.27 -4.2,-14.27c0,-13.22 -11.55,-22.89 -24.71,-24c-6.815,-0.469 -13.661,0.131 -20.29,1.78c-9.723,2.321 -16.965,10.578 -18,20.52c-17.19,4.73 -11.43,13.73 -11.7,17.18c-1.32,16.8 4,26.73 9.9,32.52c2.497,2.609 5.432,4.761 8.67,6.36l-3.75,7.51l-1.1,0l-3.06,9l-0.15,0l-3.34,2.16c-20.569,13.926 -31.003,38.82 -26.51,63.25Zm51.33,357.07l0,-28.87l12.19,-85.34l0,-43.64l21.83,45.53l-23.5,98.76l-1.23,-0.34l-5.41,19.44c-1.764,-1.466 -3.101,-3.379 -3.87,-5.54l-0.01,0Z" style="fill:url(#_Linear3);fill-rule:nonzero;"/><path d="M340.22,222.88l0,15.41l-18.36,26.9l18.36,11.95c0,0 8.16,-31.44 12.56,-35.14c0,0 6.91,-4.93 10.67,-11.71c3.76,-6.78 1.88,-30.21 -16.33,-9.25l0,2.47l-6.9,-0.63Z" style="fill:#fda57d;fill-rule:nonzero;"/><path d="M194.04,259.64l7.27,-14.54c0.432,-0.869 1.301,-1.44 2.27,-1.49l27.61,-1.41c0.047,-0.003 0.095,-0.004 0.142,-0.004c1.476,0 2.69,1.215 2.69,2.69c0,0.333 -0.061,0.664 -0.182,0.974l-7.12,18.41c-0.431,1.116 -1.558,1.817 -2.75,1.71l-27.75,-2.47c-1.383,-0.12 -2.458,-1.292 -2.458,-2.68c0,-0.413 0.095,-0.82 0.278,-1.19Z" style="fill:#fda57d;fill-rule:nonzero;"/><path d="M196.08,253.4l-4.69,13.75l48.16,-1.73l-18.5,-11.1l-24.97,-0.92Z" style="fill:#edeef9;fill-rule:nonzero;"/><path d="M318.47,267.27l2.46,-3.08l20.96,12.33l0,5.55l-23.42,-14.8Z" style="fill:#edeef9;fill-rule:nonzero;"/><path d="M176.83,403.67c1.934,9.512 0.796,19.397 -3.25,28.22c-6.78,14.18 -6.78,29 1.85,46.24l2.47,89.4c0,0 3.08,41.93 0,50.56c-3.08,8.63 1.21,49.95 1.21,49.95l34.53,0l0,-27.75l11.71,-82l0,-41.94l21,43.78l-24,101.12l31.44,12.95l39.46,-113.45c0,0 -6.84,-89.4 -31.5,-120.22l-4.64,-33.61l-80.28,-3.25Z" style="fill:#7a7478;fill-rule:nonzero;"/><path d="M178.51,690.85l0,-22.81l35.14,0c0,0 2.47,9.25 18.5,11.1c16.03,1.85 -7.4,12.95 -7.4,12.95l-46.24,-1.24Z" style="fill:#333;fill-rule:nonzero;"/><path d="M216.47,676.65l6.12,-22l33.86,9.43c0,0 -0.11,9.57 14.84,15.65c14.95,6.08 -10.6,10.49 -10.6,10.49l-44.22,-13.57Z" style="fill:#333;fill-rule:nonzero;"/><path d="M257.11,408.77l-80.29,-3.25c0.994,4.788 1.201,9.706 0.61,14.56c3.67,8.64 11.55,6.28 11.55,6.28l70.25,-2.16l-2.12,-15.43Z" style="fill-opacity:0.1;fill-rule:nonzero;"/><path d="M193,262.03l-3.2,2.17c-19.75,13.377 -29.772,37.278 -25.47,60.74c4.302,23.462 17.88,35 12.33,70c-5.55,35 12.33,29.6 12.33,29.6l70.6,-2.17l5.24,-106.15c0,0 42.54,6.05 61.66,-8.75l15.41,-23.55l-23.43,-16.17l-8,11.44c0,0 -25.11,-5.3 -38.9,-10.9c-6.432,-2.624 -13.278,-4.09 -20.22,-4.33l-58.35,-1.93Z" style="fill:#4d8af0;fill-rule:nonzero;"/><path d="M193.62,432.82c0,0 -4.32,21.58 20.35,57.34" style="fill-opacity:0.1;fill-rule:nonzero;"/><path d="M265.11,316.29c0,0 29.59,-9.86 42.54,-9.86c12.95,0 10.79,5.59 10.79,5.59c0,0 -20.62,9.2 -53.33,4.27Z" style="fill-opacity:0.1;fill-rule:nonzero;"/><path d="M231.58,243.45l-11.78,1.41c-0.37,0 -0.71,0.51 -0.91,1.24c2.59,4.67 5.83,7.45 9.35,7.45c1.256,-0.019 2.486,-0.364 3.57,-1l0.9,-5.45c0.3,-1.81 -0.3,-3.75 -1.13,-3.65Z" style="fill-opacity:0.1;fill-rule:nonzero;"/><circle cx="223.36" cy="216.35" r="35.96" style="fill:#fda57d;"/><path d="M253.95,195.99l-1.84,1.66c-1.286,1.178 -2.02,2.844 -2.02,4.588c0,2.506 1.516,4.779 3.83,5.742c2.314,0.963 -16.11,16.11 -18.35,19.1c-2.24,2.99 0.37,10.86 0.37,10.86c0,0 7.12,13.11 -30.34,10.11c0,0 -24.72,-5.24 -22.1,-38.58c0.26,-3.34 -5.24,-12 11.24,-16.48c1.009,-9.569 8.003,-17.5 17.37,-19.7c6.371,-1.585 12.951,-2.162 19.5,-1.71c12.584,1.104 22.352,11.777 22.34,24.41Z" style="fill-opacity:0.1;fill-rule:nonzero;"/><path d="M254.73,194.03c0,0 3.82,1.18 4,13.71l-5.43,-0.37c0,0 -12.56,33.6 -11.24,29.22c4.87,-16.11 -4.87,-13.11 -7.12,-10.11c-2.25,3 0.37,10.86 0.37,10.86c0,0 7.12,13.11 -30.34,10.11c0,0 -24.72,-5.24 -22.1,-38.58c0.26,-3.34 -5.24,-12 11.24,-16.48c1.001,-9.564 7.982,-17.498 17.34,-19.71c6.371,-1.585 12.951,-2.162 19.5,-1.71c12.68,1.07 23.78,10.38 23.78,23.06Z" style="fill:#72351c;fill-rule:nonzero;"/></g><defs><linearGradient id="_Linear2" x1="0" y1="0" x2="1" y2="0" gradientUnits="userSpaceOnUse" gradientTransform="matrix(4.43383e-15,-72.41,72.41,4.43383e-15,344.92,275.99)"><stop offset="0" style="stop-color:#808080;stop-opacity:0.247059"/><stop offset="0.54" style="stop-color:#808080;stop-opacity:0.117647"/><stop offset="1" style="stop-color:#808080;stop-opacity:0.0980392"/></linearGradient><linearGradient id="_Linear3" x1="0" y1="0" x2="1" y2="0" gradientUnits="userSpaceOnUse" gradientTransform="matrix(3.32204e-14,-542.53,542.53,3.32204e-14,252.15,702.7)"><stop offset="0" style="stop-color:#808080;stop-opacity:0.247059"/><stop offset="0.54" style="stop-color:#808080;stop-opacity:0.117647"/><stop offset="1" style="stop-color:#808080;stop-opacity:0.0980392"/></linearGradient></defs></svg>