<?xml version="1.0" encoding="UTF-8" standalone="no"?><!DOCTYPE svg PUBLIC "-//W3C//DTD SVG 1.1//EN" "http://www.w3.org/Graphics/SVG/1.1/DTD/svg11.dtd"><svg width="100%" height="100%" viewBox="0 0 16 16" version="1.1" xmlns="http://www.w3.org/2000/svg" xmlns:xlink="http://www.w3.org/1999/xlink" xml:space="preserve" xmlns:serif="http://www.serif.com/" style="fill-rule:evenodd;clip-rule:evenodd;stroke-linecap:round;stroke-linejoin:round;stroke-miterlimit:1.5;"><g><rect x="2.363" y="3.137" width="12.48" height="7.956" style="fill:#b3e5ff;"/><rect x="1.108" y="3.728" width="12.72" height="8.268" style="fill:none;stroke:#036;stroke-width:0.13px;"/><circle cx="1.68" cy="4.32" r="0.24" style="fill:none;stroke:#036;stroke-width:0.13px;"/><circle cx="2.533" cy="4.32" r="0.24" style="fill:none;stroke:#036;stroke-width:0.13px;"/><circle cx="3.386" cy="4.32" r="0.24" style="fill:none;stroke:#036;stroke-width:0.13px;"/><path d="M2.773,6l4.907,0" style="fill:none;stroke:#036;stroke-width:0.13px;"/><path d="M10.16,6.421l-4.907,0" style="fill:none;stroke:#036;stroke-width:0.13px;"/><path d="M10.852,6.906l-4.907,0" style="fill:none;stroke:#036;stroke-width:0.13px;"/><path d="M10.178,7.428l-4.907,0" style="fill:none;stroke:#036;stroke-width:0.13px;"/><path d="M8.603,7.942l-2.517,0" style="fill:none;stroke:#036;stroke-width:0.13px;"/><path d="M11.694,8.451l-4.907,0" style="fill:none;stroke:#036;stroke-width:0.13px;"/><path d="M8.133,6l2.027,0" style="fill:none;stroke:#036;stroke-width:0.13px;"/><path d="M4.8,6.421l-2.027,0" style="fill:none;stroke:#036;stroke-width:0.13px;"/><path d="M5.492,6.906l-2.027,0" style="fill:none;stroke:#036;stroke-width:0.13px;"/><path d="M4.818,7.428l-2.027,0" style="fill:none;stroke:#036;stroke-width:0.13px;"/><path d="M5.633,7.942l-2.028,0" style="fill:none;stroke:#036;stroke-width:0.13px;"/><path d="M6.334,8.451l-2.027,0" style="fill:none;stroke:#036;stroke-width:0.13px;"/><path d="M5.724,9.002l-2.027,0" style="fill:none;stroke:#036;stroke-width:0.13px;"/><path d="M5.724,9.495l-2.027,0" style="fill:none;stroke:#e51a24;stroke-width:0.13px;"/></g></svg>