<?xml version="1.0" encoding="utf-8"?>
<!-- Generator: Adobe Illustrator 22.1.0, SVG Export Plug-In . SVG Version: 6.00 Build 0)  -->
<svg version="1.1" id="_x34_8db8ff6-3ea3-48c3-8611-92065ab20915"
	 xmlns="http://www.w3.org/2000/svg" xmlns:xlink="http://www.w3.org/1999/xlink" x="0px" y="0px" viewBox="0 0 1006.4 815.1"
	 style="enable-background:new 0 0 1006.4 815.1;" xml:space="preserve">
<style type="text/css">
	.st0{opacity:0.2;fill:#2E639F;enable-background:new    ;}
	.st1{opacity:0.1;fill:#56B7E8;enable-background:new    ;}
	.st2{opacity:0.1;fill:#999999;enable-background:new    ;}
	.st3{fill:#B3E5FF;}
	.st4{fill:none;stroke:#FFFFFF;stroke-miterlimit:10;}
	.st5{fill:#656691;}
	.st6{fill:url(#SVGID_1_);}
	.st7{fill:#D2D4DE;}
	.st8{fill:#FFFFFF;}
	.st9{fill:url(#SVGID_2_);}
	.st10{opacity:0.2;fill:#56B7E8;enable-background:new    ;}
	.st11{opacity:0.1;fill:#0B4D89;enable-background:new    ;}
	.st12{fill:none;stroke:#535461;stroke-miterlimit:10;}
	.st13{fill:#0B4D89;}
	.st14{opacity:0.1;fill:#C41425;enable-background:new    ;}
	.st15{fill:#C41425;}
	.st16{fill:none;stroke:#C41425;stroke-miterlimit:10;}
	.st17{opacity:0.1;enable-background:new    ;}
	.st18{fill:#A8A8A8;}
	.st19{opacity:0.2;enable-background:new    ;}
	.st20{fill:#1D3C6F;}
	.st21{fill:#FFD037;}
	.st22{fill:url(#SVGID_3_);}
	.st23{fill:#8C8296;}
	.st24{fill:#E7C4C3;}
	.st25{fill:#FFC7D1;}
	.st26{fill:#FFE09C;}
	.st27{fill:#AD5975;}
	.st28{opacity:0.1;}
	.st29{fill:url(#SVGID_4_);}
	.st30{fill:#FFBCC8;}
	.st31{fill:#40243E;}
	.st32{fill:#DFD5E3;}
	.st33{fill:#56B7E8;}
	.st34{opacity:5.000000e-02;enable-background:new    ;}
	.st35{opacity:5.000000e-02;}
	.st36{fill:url(#SVGID_5_);}
	.st37{fill:#FFDF9C;}
	.st38{opacity:0.1;fill:#1D3C6F;enable-background:new    ;}
	.st39{fill:#E2E7F0;}
	.st40{opacity:0.4;fill:#FFFFFF;enable-background:new    ;}
	.st41{fill:#D8E2F0;}
	.st42{fill:#497DB7;}
	.st43{fill:url(#SVGID_6_);}
	.st44{fill:#FFCDD3;}
	.st45{fill:#DCE6F2;}
	.st46{fill:#2D283D;}
	.st47{fill:url(#SVGID_7_);}
	.st48{fill:url(#SVGID_8_);}
	.st49{fill:#535461;}
	.st50{fill:#DB8B8B;}
	.st51{fill:#ABB1D1;}
	.st52{fill:none;stroke:#C1272D;stroke-miterlimit:10;}
	.st53{fill:#472727;}
	.st54{fill:url(#SVGID_9_);}
	.st55{fill:#F7BBC3;}
	.st56{fill:#CCCCCB;}
	.st57{fill:#CBCDDA;}
	.st58{opacity:0.1;fill:#E9E9EA;enable-background:new    ;}
	.st59{fill:#A95F60;}
</style>
<path class="st0" d="M912.3,607.6c0,0-63.6-10.1-69.4,46.9c-5.8,57-122.3,64.9-122.3,64.9s0.8,0.5,2.2,1.5
	C819,784,911,761.1,897.1,677.2C891.9,646,892.4,614.7,912.3,607.6z"/>
<path class="st1" d="M813,382.1c0,0-55.8,55.8-24.3,138.5s-54,220.3-54,220.3s0.9-0.1,2.6-0.4C851.9,720.2,908.8,589.2,845.1,492
	C821.5,455.8,802,413.4,813,382.1z"/>
<title>organize photos</title>
<path class="st2" d="M873.7,683.3c4.3,9.2-1.8,19.2,0.3,28.7c2.7,12,18.1,21.3,34.7,27.3s35.2,9.6,51.3,16c7,2.8,14.3,7.9,10.7,12.6
	c-1.3,1.6-3.6,2.8-5.9,3.8c-47.2,21.8-105.4,33.6-163.7,33.2c-61.6-0.4-121.9-14-183.5-12.4c-79.4,2-156.2,29.1-234.7,21.3
	c-33.3-3.3-64.3-12.8-96.7-18.6c-47.7-8.7-97.9-9.5-147.3-12.4c-37.1-2.1-79.5-7.7-97.2-28.5c-12.8-15.1-7.4-35,10.6-47.8
	s46.9-18.2,73.6-15.8c14.3,1.3,28.6,4.8,42.9,3.4c8.3-0.8,16-3.2,23.6-5.5c58.7-18.2,119.5-36.4,184.7-39
	c106-4.3,204.2,32.5,307.5,48.5c16.1,2.5,33.5,4.4,48.7,0.2c16-4.4,26.5-14.8,42.5-19.1c7.6-2.1,16.1-2.7,23.6-4.9
	c20.6-6.2,11-14.8,39.5-9C853.9,668.1,868.9,673,873.7,683.3z"/>
<path class="st3" d="M813,382.1c0,0-55.8,55.8-24.3,138.5s-54,220.3-54,220.3s0.9-0.1,2.6-0.4C851.9,720.2,908.8,589.2,845.1,492
	C821.5,455.8,802,413.4,813,382.1z"/>
<path class="st4" d="M813,382.1c0,0-31.5,68.4,0,124.1s5.4,212.2-78.2,234.7"/>
<path class="st5" d="M912.3,607.6c0,0-63.6-10.1-69.4,46.9c-5.8,57-122.3,64.9-122.3,64.9s0.8,0.5,2.2,1.5
	C819,784,911,761.1,897.1,677.2C891.9,646,892.4,614.7,912.3,607.6z"/>
<path class="st4" d="M912.3,607.6c0,0-49.4,10.8-45.3,55.8c4.1,44.9-73.3,98.7-146.4,56.1"/>
<linearGradient id="SVGID_1_" gradientUnits="userSpaceOnUse" x1="222.22" y1="8.39" x2="222.22" y2="755.54" gradientTransform="matrix(-1 0 0 -1 816.0699 773.43)">
	<stop  offset="0" style="stop-color:#808080;stop-opacity:0.25"/>
	<stop  offset="0.54" style="stop-color:#808080;stop-opacity:0.12"/>
	<stop  offset="1" style="stop-color:#808080;stop-opacity:0.1"/>
</linearGradient>
<path class="st6" d="M437.4,17.9h313c17.1,0,30.9,13.8,31,30.9v685.3c-0.1,17.1-13.9,30.9-31,30.9h-313c-17.1,0-30.9-13.8-31-30.9
	V48.8C406.4,31.7,420.3,17.9,437.4,17.9z"/>
<path class="st7" d="M751.6,762.2H436.1c-14.8,0-26.9-12-26.9-26.9V50.5c0-14.8,12-26.9,26.9-26.9h315.5c14.8,0,26.9,12,26.9,26.9
	v684.8C778.5,750.1,766.4,762.2,751.6,762.2z"/>
<rect x="436.4" y="92.3" class="st8" width="314.9" height="601.2"/>
<circle class="st8" cx="631" cy="58" r="2.9"/>
<path class="st8" d="M615.7,60.8h-61c-0.6,0-1-0.4-1-1v-3.7c0-0.6,0.4-1,1-1h61c0.6,0,1,0.4,1,1v3.7
	C616.7,60.4,616.3,60.8,615.7,60.8z"/>
<circle class="st8" cx="595.3" cy="722.1" r="20"/>
<linearGradient id="SVGID_2_" gradientUnits="userSpaceOnUse" x1="227.275" y1="392.74" x2="227.275" y2="627.67" gradientTransform="matrix(-1 0 0 -1 816.07 773.43)">
	<stop  offset="0" style="stop-color:#808080;stop-opacity:0.25"/>
	<stop  offset="0.54" style="stop-color:#808080;stop-opacity:0.12"/>
	<stop  offset="1" style="stop-color:#808080;stop-opacity:0.1"/>
</linearGradient>
<rect x="471.3" y="145.8" class="st9" width="234.9" height="234.9"/>
<rect x="474.8" y="149.2" class="st8" width="228" height="228"/>
<rect x="485.2" y="159.6" class="st10" width="207.2" height="155.3"/>
<path class="st11" d="M629.7,213.5c-0.8,0.7-1.9,4.2-1.9,4.2s3.6-0.6,4.4-1.3c0.8-0.7,0.9-1.9,0.2-2.7
	C631.7,212.9,630.5,212.8,629.7,213.5L629.7,213.5z"/>
<path class="st11" d="M623.1,215c-0.3,1,0.7,4.5,0.7,4.5s2.7-2.5,3-3.5c0.3-1-0.3-2.1-1.3-2.4C624.5,213.4,623.4,214,623.1,215z"/>
<path class="st12" d="M607.2,236.2c0,0,8.2-3.8,11.1-10.3c1.2-2.7,3.2-5,5.8-6.5c1.2-0.7,2.5-1.3,3.8-1.8"/>
<path class="st13" d="M629.7,213.5c-0.8,0.7-1.9,4.2-1.9,4.2s3.6-0.6,4.4-1.3c0.8-0.7,0.9-1.9,0.2-2.7
	C631.7,212.9,630.5,212.8,629.7,213.5L629.7,213.5z"/>
<path class="st13" d="M623.1,215c-0.3,1,0.7,4.5,0.7,4.5s2.7-2.5,3-3.5c0.3-1-0.3-2.1-1.3-2.4C624.5,213.4,623.4,214,623.1,215z"/>
<path class="st14" d="M615.6,221.7c0.3,1,2.9,3.5,2.9,3.5s1.1-3.5,0.8-4.5c-0.3-1-1.3-1.6-2.4-1.4
	C615.9,219.7,615.3,220.8,615.6,221.7L615.6,221.7z"/>
<path class="st13" d="M615.6,221.7c0.3,1,2.9,3.5,2.9,3.5s1.1-3.5,0.8-4.5c-0.3-1-1.3-1.6-2.4-1.4
	C615.9,219.7,615.3,220.8,615.6,221.7L615.6,221.7z"/>
<path class="st14" d="M626.3,222.7c-1.1-0.1-4-2.3-4-2.3s3.2-1.7,4.3-1.6c1.1,0.1,1.9,1,1.8,2.1C628.3,222,627.4,222.8,626.3,222.7
	L626.3,222.7z"/>
<path class="st14" d="M620.9,230.1c-1-0.4-3.1-3.4-3.1-3.4s3.6-0.6,4.6-0.2c1,0.4,1.5,1.5,1.1,2.5
	C623.1,230,621.9,230.5,620.9,230.1L620.9,230.1z"/>
<path class="st15" d="M611.1,228.1c0.1,1.1,2.3,4,2.3,4s1.7-3.2,1.6-4.3c-0.1-1.1-1-1.9-2.1-1.8S611,227.1,611.1,228.1L611.1,228.1
	L611.1,228.1z"/>
<path class="st13" d="M626.3,222.7c-1.1-0.1-4-2.3-4-2.3s3.2-1.7,4.3-1.6c1.1,0.1,1.9,1,1.8,2.1C628.3,222,627.4,222.8,626.3,222.7
	L626.3,222.7z"/>
<path class="st13" d="M620.9,230.1c-1-0.4-3.1-3.4-3.1-3.4s3.6-0.6,4.6-0.2c1,0.4,1.5,1.5,1.1,2.5
	C623.1,230,621.9,230.5,620.9,230.1L620.9,230.1z"/>
<path class="st15" d="M614.7,236.6c-1-0.2-3.7-2.8-3.7-2.8s3.4-1.2,4.5-1c1,0.2,1.7,1.3,1.5,2.3
	C616.8,236.2,615.7,236.8,614.7,236.6L614.7,236.6L614.7,236.6z"/>
<path class="st14" d="M611.1,228.1c0.1,1.1,2.3,4,2.3,4s1.7-3.2,1.6-4.3c-0.1-1.1-1-1.9-2.1-1.8S611,227.1,611.1,228.1L611.1,228.1
	L611.1,228.1z"/>
<path class="st14" d="M614.7,236.6c-1-0.2-3.7-2.8-3.7-2.8s3.4-1.2,4.5-1c1,0.2,1.7,1.3,1.5,2.3
	C616.8,236.2,615.7,236.8,614.7,236.6L614.7,236.6L614.7,236.6z"/>
<path class="st16" d="M538.4,270.8c0,0-3.1,6-0.6,9.4s-0.2,12.3-0.2,12.3"/>
<path class="st15" d="M537.5,268.9c0.5,0.5,1.3,0.5,1.7,0c0.5-0.5,0.5-1.3,0-1.7c-0.2-0.2-0.5-0.3-0.9-0.4
	C537.8,267.4,537.5,268.1,537.5,268.9z"/>
<path class="st16" d="M536.8,270.8c0,0,3.1,6,0.6,9.4s0.2,12.3,0.2,12.3"/>
<path class="st15" d="M537.7,268.9c-0.5,0.5-1.3,0.5-1.7,0c-0.5-0.5-0.5-1.3,0-1.7c0.2-0.2,0.5-0.3,0.9-0.4
	C537.4,267.4,537.7,268.1,537.7,268.9z"/>
<path class="st17" d="M537.7,268.9c-0.5,0.5-1.3,0.5-1.7,0c-0.5-0.5-0.5-1.3,0-1.7c0.2-0.2,0.5-0.3,0.9-0.4
	C537.4,267.4,537.7,268.1,537.7,268.9z"/>
<path class="st16" d="M535.5,270.8c0,0-3.1,6-0.6,9.4s-0.2,12.3-0.2,12.3"/>
<path class="st15" d="M534.6,268.9c0.5,0.5,1.3,0.5,1.7,0c0.5-0.5,0.5-1.3,0-1.7c-0.2-0.2-0.5-0.3-0.9-0.4
	C535,267.4,534.7,268.1,534.6,268.9z"/>
<path class="st15" d="M535.1,273.7c0.6,0.5,1.3,0.9,2.1,0.9c0-1.6-1.3-3-2.9-3C534.3,272.4,534.6,273.1,535.1,273.7z"/>
<path class="st15" d="M535,277.9c0.6,0.5,1.3,0.9,2.1,0.9c0-1.6-1.3-3-2.9-3C534.2,276.6,534.5,277.3,535,277.9z"/>
<path class="st15" d="M539.4,280.2c-0.5,0.6-0.7,1.4-0.7,2.2c1.6-0.1,2.9-1.5,2.8-3.2C540.7,279.3,539.9,279.6,539.4,280.2z"/>
<path class="st15" d="M538.7,271.3c-0.6,0.5-1.1,1.1-1.3,1.9c1.6,0.3,3.2-0.7,3.5-2.3C540.1,270.8,539.4,270.9,538.7,271.3z"/>
<path class="st17" d="M538.7,271.3c-0.6,0.5-1.1,1.1-1.3,1.9c1.6,0.3,3.2-0.7,3.5-2.3C540.1,270.8,539.4,270.9,538.7,271.3z"/>
<path class="st16" d="M533.9,270.8c0,0,3.1,6,0.6,9.4s0.2,12.3,0.2,12.3"/>
<path class="st15" d="M534.8,268.9c-0.5,0.5-1.3,0.5-1.7,0c-0.5-0.5-0.5-1.3,0-1.7c0.2-0.2,0.5-0.3,0.9-0.4
	C534.5,267.4,534.8,268.1,534.8,268.9z"/>
<path class="st17" d="M534.8,268.9c-0.5,0.5-1.3,0.5-1.7,0c-0.5-0.5-0.5-1.3,0-1.7c0.2-0.2,0.5-0.3,0.9-0.4
	C534.5,267.4,534.8,268.1,534.8,268.9z"/>
<path class="st15" d="M534.6,273.8c0.5,0.6,0.8,1.3,0.9,2.1c-1.7,0-3-1.3-3-3C533.3,273,534,273.3,534.6,273.8z"/>
<path class="st17" d="M534.6,273.8c0.5,0.6,0.8,1.3,0.9,2.1c-1.7,0-3-1.3-3-3C533.3,273,534,273.3,534.6,273.8z"/>
<path class="st15" d="M533,279.6c0.5,0.6,0.8,1.3,0.9,2.1c-1.7,0-3-1.3-3-3C531.6,278.8,532.4,279.1,533,279.6z"/>
<path class="st16" d="M535.4,278.3c0,0-1.9-2.9-4.5-3"/>
<path class="st16" d="M536.8,276.5c0,0,1.9-2.9,4.5-3"/>
<path class="st16" d="M537,280.7c0,0-1.9-2.9-4.5-3"/>
<circle class="st15" cx="531" cy="275.3" r="0.5"/>
<circle class="st15" cx="541.2" cy="273.6" r="0.5"/>
<path class="st16" d="M535.7,281.7c0,0,1.9-2.9,4.5-3"/>
<circle class="st15" cx="540.1" cy="278.7" r="0.5"/>
<circle class="st15" cx="532.5" cy="277.8" r="0.5"/>
<path class="st18" d="M525.4,288.9c0,0,4.5-0.9,5.7-2.1c1.2-1.2,6.6-3.3,7.2-1.8c0.6,1.5,8,6.6,3,7.5s-11.9,1.2-13.4,0.6
	S525.4,288.9,525.4,288.9z"/>
<path class="st19" d="M541.2,292c-5.1,0.9-11.9,1.2-13.4,0.6c-1.1-0.5-1.9-2.6-2.2-3.6h-0.2c0,0,0.9,3.6,2.4,4.2s8.3,0.3,13.4-0.6
	c1.5-0.3,1.9-0.9,1.7-1.6C542.8,291.4,542.3,291.8,541.2,292z"/>
<path class="st20" d="M641.9,280.6c0,0-1.5,1.9,0.7,4.8c2.2,2.9,3.9,5.4,3.2,7.2c0,0-3.3-5.4-5.9-5.5S639,283.8,641.9,280.6z"/>
<path class="st17" d="M641.9,280.6c-0.1,0.2-0.2,0.4-0.3,0.6c-2.6,3-4,5.9-1.5,5.9c2.3,0.1,5.1,4.2,5.8,5.2c0,0.1,0,0.2-0.1,0.2
	c0,0-3.3-5.4-5.9-5.5S639,283.8,641.9,280.6z"/>
<path class="st21" d="M639.2,283.1c0,0.7,0.1,1.2,0.2,1.2s0.2-0.5,0.2-1.2s-0.1-0.4-0.2-0.4C639.3,282.7,639.2,282.4,639.2,283.1z"
	/>
<path class="st21" d="M638.2,283.9c0.6,0.3,1.1,0.5,1.2,0.4c0-0.1-0.4-0.4-1-0.7s-0.4-0.1-0.4,0
	C637.9,283.7,637.7,283.5,638.2,283.9z"/>
<path class="st20" d="M649.7,280.6c0,0,1.5,1.9-0.7,4.8c-2.2,2.9-3.9,5.4-3.2,7.2c0,0,3.3-5.4,5.9-5.5S652.6,283.8,649.7,280.6z"/>
<path class="st17" d="M649.7,280.6c0.1,0.2,0.2,0.4,0.3,0.6c2.6,3,4,5.9,1.5,5.9c-2.3,0.1-5.1,4.2-5.8,5.2c0,0.1,0,0.2,0.1,0.2
	c0,0,3.3-5.4,5.9-5.5S652.6,283.8,649.7,280.6z"/>
<path class="st21" d="M652.5,283.1c0,0.7-0.1,1.2-0.2,1.2s-0.2-0.5-0.2-1.2s0.1-0.4,0.2-0.4C652.4,282.7,652.5,282.4,652.5,283.1z"
	/>
<path class="st21" d="M653.4,283.9c-0.6,0.3-1.1,0.5-1.2,0.4c0-0.1,0.4-0.4,1-0.7s0.4-0.1,0.4,0C653.7,283.7,654,283.5,653.4,283.9z
	"/>
<path class="st18" d="M652,292.4c0,0-4.1-0.1-5.4-1s-6.3-1.9-6.7-0.5c-0.3,1.4-6.2,7.1-1.5,7.1s10.8-0.7,12.1-1.5
	S652,292.4,652,292.4z"/>
<path class="st19" d="M638.3,297.4c4.7,0,10.8-0.7,12.1-1.5c0.9-0.6,1.3-2.6,1.4-3.6h0.1c0,0-0.3,3.3-1.5,4.1s-7.4,1.5-12.1,1.5
	c-1.3,0-1.8-0.5-1.8-1.2C636.8,297.2,637.3,297.4,638.3,297.4z"/>
<linearGradient id="SVGID_3_" gradientUnits="userSpaceOnUse" x1="245.5845" y1="465.2507" x2="245.5845" y2="540.2507" gradientTransform="matrix(-1 0 0 -1 816.0699 773.43)">
	<stop  offset="0" style="stop-color:#808080;stop-opacity:0.25"/>
	<stop  offset="0.54" style="stop-color:#808080;stop-opacity:0.12"/>
	<stop  offset="1" style="stop-color:#808080;stop-opacity:0.1"/>
</linearGradient>
<path class="st22" d="M542.4,273.5c0.4,0.8,1,1.5,1.7,2.1c2.1,1.9,4.9,2.7,7.6,2.2c0.3-0.1,0.6-0.2,0.9-0.3
	c2.1,3.9,0.6,10.5,0.6,10.5l-0.2,3.3c0.4,0.3,0.8,0.6,1.2,0.8l-0.1,0.3l-0.1,0.6c-1.9,11,8.3,12.2,8.3,12.2s10.6,2.2,18.6,1.5
	c3.7-0.3,7.3,0,10.9,0.8c0.6,0.1,1.2,0.3,1.6,0.4c0.9,0.2,1.7,0.3,2.6,0.2c0.4-0.1,0.7-0.1,1.1-0.2c0.5-0.2,1-0.4,1.4-0.7l0,0
	l0.2-0.1h0.1l0.1-0.1h0l0.1-0.1l0,0l0.1-0.1l0,0l0.1-0.1l0,0l0.1-0.1l0,0l0.1-0.1l0,0l0.1-0.1v0l0.1-0.1l0,0l0.1-0.1v-0.1v-0.1V306
	v-0.1c1.4-2.4-1.2-5.1-1.2-5.1c-3-2.2-6.6-3.4-10.3-3.3h-0.7l0,0l0,0h-0.1l-0.1-0.1l-0.1-0.2h0.1l-0.1-0.1c-0.1-0.1-0.1-0.3-0.2-0.5
	l0.1-0.1l-0.1,0l-0.1-0.4l0.1-0.1l-0.1-0.1c0-0.1-0.1-0.3-0.1-0.4l0.1-0.1l-0.1-0.1c0-0.2-0.1-0.3-0.1-0.5l0.1-0.1l-0.1-0.1v-0.2
	l0.1-0.1l-0.1,0c0-0.1,0-0.3-0.1-0.4l0.1-0.1l-0.1-0.1c0-0.2,0-0.3,0-0.5l0.1-0.1l-0.1,0c0-0.1,0-0.3,0-0.4l0,0l0,0v-0.1
	c0-0.3-0.2-0.5-0.5-0.5h-0.3c0-0.3,0.1-0.9,0.1-1.8v-0.2V290l0,0v-0.3l0,0c0.1-0.7,0.1-1.5,0.2-2.5l0,0l0.1-0.8l0,0v-0.4V286v-0.4
	l0,0v-0.4v-0.1v-0.4v-0.1v-0.3v-0.2v-0.4v-0.2v-0.3v-0.2v-0.4v-0.2v-0.4v-0.2v-0.4v-0.2l0.1-0.5v-0.2l0.1-0.5c0.3-2.5-0.2-4-1-4.9
	v-0.2l0,0l0,0l0.2,0.1l0,0l0.4,0.2l0,0l0.2,0.1l0,0l0.2,0.1l0,0l0.4,0.2l0,0l0.1,0.1l0,0l0.1,0.1l0,0l0.2,0.1l0,0l0.1,0.1l0,0h0.1
	l0,0l0.1,0l0,0l0.1,0l0,0h0.1l0,0h0.1l0,0h0.1l0,0h0.1l0,0l0,0l0,0l0,0l0,0l0,0h0.1c0-0.1,0-0.2,0.1-0.3v-0.3c0-0.1,0-0.2,0-0.2l0,0
	c0-0.1,0-0.2,0-0.2V275c0-0.1,0-0.1,0-0.2l0,0c0-0.1,0-0.1,0-0.2v-0.1c0-0.1,0-0.1,0-0.2l0,0c0-0.1,0-0.1,0-0.2v0v-0.2l0,0l-0.1-0.2
	l0,0l-0.1-0.1l0,0l-0.1-0.2l0,0l-0.1-0.1l0,0l-0.1-0.1l0,0l-0.1-0.1l0,0l-0.1-0.1l0,0l-0.1-0.1l0,0l-0.2-0.1l0,0l-0.2-0.1l0,0
	l-0.2-0.1l0,0l-0.2-0.1l0,0l-0.4-0.2l0,0c-0.5-0.2-1-0.4-1.5-0.5c-1-2.5-5.2-0.1-5.2-0.1v0.5h-0.2l-5.3,0.7
	c-0.3-0.4-0.5-0.9-0.6-1.4c-0.8-2.7-1.9-5.3-3.2-7.7c-0.5-2.3-1.6-4.3-3.2-6l-0.1-0.3c-0.3-1-0.5-2-0.6-3c0.6-1,0.9-2.2,0.8-3.5
	c2.7-0.8,4.6-3.4,4.6-6.2c0-0.4,0-0.9-0.1-1.3c0.5-0.2,0.8-0.5,1-1c0.3-1.2-0.8-3.5-1.3-4.6l-0.2-0.3c-1.3-3.2-4.9-4.8-8.2-3.5
	c-2.8,0.9-5.1,3-6.1,5.8c-0.1,0.6-0.5,1.2-1,1.6c-0.3,0.1-0.5,0.2-0.8,0.4c-0.2,0.2-0.3,0.5-0.4,0.7c-1,0.8-2,1.6-2.9,2.5
	c-0.6,0.6-1.2,1.2-1.9,1.8c-1.5,1.1-3.4,1.6-4.8,2.9c-1.6,1.7-2.5,3.9-2.3,6.3c0,2.3,0.5,4.6,0.7,6.8c0.3,2.3-0.2,4.6-1.5,6.6
	c-0.4,0.5-0.8,1-1.2,1.6C540.8,272.1,541.5,273,542.4,273.5z M578.6,275.2l-0.1-0.1l0.4-0.1L578.6,275.2z M572.5,292.7
	c3.7-2.7,8.5-9.2,8.5-9.2c0,1.5,0.2,3,0.3,4.4v0.1l0,0v0.1l0,0v0.1l0,0v0.1l0,0v0.3l0,0c0.2,0.9,0.3,2.3,0.4,2.9
	c-0.2,0-0.3,0.2-0.3,0.4l-0.1,3.9v0.2C578.3,295,575.4,293.9,572.5,292.7z"/>
<path class="st23" d="M568,287.9c0.2,3,0.8,6.1,2.8,5.3c0.6-0.2,1.1-0.5,1.6-0.9c3.6-2.6,8.2-9.1,8.2-9.1c0,1.5,0.1,2.9,0.3,4.4
	c0.2,1,0.5,4,0.5,4h4c0,0,0.2-3.9,1.2-12.4c1-8.5-6.8-5.2-6.8-5.2l-7.3,5.6l-4.6,3.5c0,0,0,0.7-0.1,1.7
	C567.9,285.7,568,286.8,568,287.9z"/>
<path class="st17" d="M568,287.9c0.2,3,0.8,6.1,2.8,5.3c0.6-0.2,1.1-0.5,1.6-0.9c3.6-2.6,8.2-9.1,8.2-9.1c0,1.5,0.1,2.9,0.3,4.4
	c0.2,0.7,0.4,2.5,0.5,3.4c0,0.4,0.1,0.6,0.1,0.6h4c0,0,0-0.1,0-0.5c0.1-1.3,0.4-5.1,1.2-11.9c1-8.5-6.8-5.2-6.8-5.2l-7.3,5.6
	l-4.6,3.5c0,0,0,0.7-0.1,1.7C567.9,285.8,568,286.8,568,287.9z"/>
<path class="st17" d="M581.4,291c0,0.4,0.1,0.6,0.1,0.6h4c0,0,0-0.1,0-0.5L581.4,291L581.4,291z"/>
<path class="st24" d="M581.1,296.3l7,1.3c-0.3-0.3-0.5-0.6-0.7-1c-0.6-1.5-1-3.1-1-4.7c0-0.3-0.2-0.5-0.5-0.5l-4.2-0.2
	c-0.2,0-0.4,0.1-0.4,0.3c0,0,0,0,0,0l-0.1,3.8L581.1,296.3z"/>
<path class="st17" d="M581.1,296.3l7,1.3c-0.3-0.3-0.5-0.6-0.7-1c-2.1-0.2-4.2-0.6-6.2-1.3L581.1,296.3z"/>
<path class="st23" d="M562.7,304.6c0,0,10.2,2.2,17.9,1.5c4.1-0.3,8.2,0.1,12.1,1.2c1.7,0.5,3.5,0.2,5-0.7c4.1-2.6,0.3-6.5,0.3-6.5
	c-2.8-2.1-6.3-3.3-9.9-3.3c-4.9,0-12.8-3.2-15.7-4.5l-1.1-0.5l-0.4-5.6l-0.2-2.5l-2.7,1l-12.6,4.8l-0.6,2.6l-0.1,0.6
	C552.8,303.5,562.7,304.6,562.7,304.6z"/>
<path class="st17" d="M554.7,292.7l0.1-0.6l0.6-2.6l0.4-0.1l-0.5,2l-0.1,0.6c-1.8,10.9,8,12,8,12s10.2,2.2,17.9,1.5
	c4.1-0.3,8.1,0,12.1,1.1c1.7,0.5,3.5,0.2,5-0.7c0.4-0.2,0.7-0.5,1-0.8c-0.4,0.7-0.9,1.2-1.5,1.6c-1.5,1-3.3,1.2-5,0.7
	c-3.9-1.1-8-1.5-12.1-1.2c-7.7,0.6-17.9-1.5-17.9-1.5S552.8,303.5,554.7,292.7z"/>
<path class="st25" d="M558.2,256.1L558.2,256.1l7,0.9l3.4,1.1c0,0-0.1-0.3-0.2-0.8c-0.5-1.9-1.5-6.6,0.2-9.4c2.3-3.6-6,0-6,0
	c0.2,2.8-1,5.6-3.2,7.3C559,255.4,558.6,255.7,558.2,256.1L558.2,256.1z"/>
<path class="st25" d="M574.6,272.5l9.9-1.3c0,0,5.8,0.1,4.6,4.6c-1.8-0.8-3.5-1.7-5.1-2.8l-6.7,2.5L574.6,272.5z"/>
<path class="st17" d="M574.6,272.5l2.6,2.9l3.5-1.3l3.2-1.2c0.6,0.4,1.1,0.8,1.7,1.1c1.1,0.7,2.3,1.3,3.5,1.8c0.9-3.3-2-4.2-3.6-4.5
	c-0.3-0.1-0.6-0.1-0.9-0.1l-4,0.5L574.6,272.5z"/>
<circle class="st25" cx="566.6" cy="244.8" r="6.4"/>
<path class="st17" d="M554.8,292.1c2.2,1.4,8.2,4,13-4l0.2-0.2c0.8-0.8,1.8-1.3,2.8-1.6c0.6-0.2,1.3-0.3,2-0.2
	c-0.2-1.4-0.3-2.8-0.3-4.2c0-0.7,0-1.5,0.1-2.2l-4.5,3.5c0,0,0,0.7-0.1,1.7l-12.6,4.8L554.8,292.1z"/>
<path class="st17" d="M558.3,256.1l7,0.9l3.4,1.1c0,0-0.1-0.3-0.2-0.8l-0.2-0.1c-1-1.1-2.4-1.8-3.9-2.1c-0.5,0-0.9-0.1-1.4-0.2
	c-1.2-0.3-2.5-0.2-3.6,0.4c-0.4,0.2-0.8,0.5-1.1,0.8L558.3,256.1z"/>
<path class="st26" d="M553.9,287.8l-0.2,3.3c0,0,7.9,6.6,13.9-3.4c1.3-1.4,3.1-2.1,5-2.1c-0.2-1.4-0.3-2.8-0.3-4.2
	c0-1.4,0.1-2.9,0.3-4.3c0.4-2.4-0.2-8-0.7-11.8l-0.1-1c-0.3-2.7-1.6-5.2-3.5-7.1c-1-1.1-2.4-1.8-3.9-2.1c-0.5,0-0.9-0.1-1.4-0.2
	c-1.3-0.4-4.3-0.6-6.1,3.4c-2.4,5.2-2.6,7-2.6,7s-4.5,7.9-1.7,11.1C555.6,279.9,553.9,287.8,553.9,287.8z"/>
<path class="st17" d="M580.5,271.8l0.2,2.4l3.2-1.2c0.6,0.4,1.1,0.8,1.7,1.1c0.1-0.7,0.1-1.4,0-2.2c0-0.2-0.1-0.4-0.2-0.6
	c-0.3-0.1-0.6-0.1-0.9-0.1L580.5,271.8z"/>
<path class="st25" d="M578.5,280.7l2.1-1l1.7-0.8l2.2-2c1.2-1.4,1.7-3.2,1.3-5c-0.5-3.3-5.1-0.6-5.1-0.6l0.3,4.2
	c-0.2,0.3-0.5,0.5-0.8,0.6c-0.3,0.1-0.7,0.2-1,0.2L578.5,280.7z"/>
<path class="st17" d="M543.3,270.8c0.3-0.6,0.7-1.1,1.1-1.6c1.2-1.9,1.7-4.2,1.4-6.5c-0.2-2.2-0.7-4.5-0.7-6.7
	c-0.1-2.3,0.7-4.5,2.3-6.2c1.3-1.2,3.2-1.7,4.6-2.8c0.6-0.5,1.2-1.1,1.8-1.7c0.9-0.9,1.8-1.7,2.8-2.5c0-0.3,0.2-0.5,0.4-0.7
	c0.2-0.1,0.5-0.3,0.8-0.4c0.5-0.4,0.8-1,1-1.6c1-2.7,3.2-4.8,5.9-5.7c1.5-0.5,3.2-0.5,4.7,0.1c1.5,0.7,2.6,2,3.2,3.5
	c0.5,1,1.6,3.3,1.3,4.5c-0.3,1.1-1.6,1.4-2.7,1.4c-0.3,0.3-0.7,0.7-1,1c-0.4,0.4-0.8,0.9-1.1,1.4c-0.7,1.3-0.5,2.9-0.5,4.4
	c0.1,1.5-0.1,3.2-1.3,4.2c-0.3,0.2-0.7,0.5-1.1,0.6c-2.6,1.5-4.1,4.4-5,7.3s-1.3,6-2.5,8.8c-1.2,2.8-3.3,5.5-6.3,6.1
	c-2.7,0.5-5.4-0.3-7.4-2.2C543.8,274.4,542.6,272.5,543.3,270.8z"/>
<path class="st27" d="M543.2,270.6c0.3-0.6,0.7-1.1,1.1-1.6c1.2-1.9,1.7-4.2,1.4-6.5c-0.2-2.2-0.7-4.5-0.7-6.7
	c-0.1-2.3,0.7-4.5,2.3-6.2c1.3-1.2,3.2-1.7,4.6-2.8c0.6-0.5,1.2-1.1,1.8-1.7c0.9-0.9,1.8-1.7,2.8-2.5c0-0.3,0.2-0.5,0.4-0.7
	c0.2-0.1,0.5-0.3,0.8-0.4c0.5-0.4,0.8-1,1-1.6c1-2.7,3.2-4.8,5.9-5.7c1.5-0.5,3.2-0.5,4.7,0.1c1.5,0.7,2.6,2,3.2,3.5
	c0.5,1,1.6,3.3,1.3,4.5c-0.3,1.1-1.6,1.4-2.7,1.4c-0.3,0.3-0.7,0.7-1,1c-0.4,0.4-0.8,0.9-1.1,1.4c-0.7,1.3-0.5,2.9-0.5,4.4
	c0.1,1.5-0.1,3.2-1.3,4.2c-0.3,0.2-0.7,0.5-1.1,0.6c-2.6,1.5-4.1,4.4-5,7.3s-1.3,6-2.5,8.8c-1.2,2.8-3.3,5.5-6.3,6.1
	c-2.6,0.5-5.4-0.3-7.3-2.1C543.7,274.2,542.5,272.3,543.2,270.6z"/>
<path class="st17" d="M564.9,272.8c1.9,3,4.9,7,7.4,8.6c0-1.4,0.1-2.9,0.3-4.3c0.4-2.4-0.2-8-0.7-11.8c-0.9-1.9-1.7-3.5-1.7-3.5
	s-3.8-2.9-6,1.9C562.9,266.7,563.1,270.1,564.9,272.8z"/>
<path class="st17" d="M578.5,280.7l2.1-1c0.4-1.2,0.3-2.5-0.4-3.6c-0.3,0.1-0.7,0.2-1,0.2L578.5,280.7z"/>
<path class="st26" d="M564.6,263.4c-1.4,2.9-1.1,6.3,0.7,9c2.3,3.5,6,8.6,8.8,9.3c4.3,1.1,4.9,0.9,4.9,0.9s3.2-4.2,0.5-6.7
	c0,0-4-1.4-4.8-4.7s-4.1-9.6-4.1-9.6S566.9,258.5,564.6,263.4z"/>
<path class="st17" d="M571.3,291.8c0,0,0.3,1.1-2.4,2.2c-2.7,1.1-4.3,4.6-4.3,4.6"/>
<g class="st28">
	<polygon points="587.3,296.9 587.4,296.8 586.5,296.3 586.9,295.6 586.2,295.3 586.6,294.6 586,294.2 586.5,293.6 585.7,293.2 
		586.3,292.5 585.6,292 585.6,292.1 586.2,292.5 585.6,293.2 586.3,293.6 585.9,294.2 586.5,294.6 586,295.3 586.8,295.7 
		586.3,296.3 	"/>
	<polygon points="586.6,296.8 587.2,296.3 586.5,295.6 586.8,295.1 586.1,294.6 586.5,294 586,293.6 586.4,293.1 585.7,292.6 
		586.2,292 586.2,291.9 585.6,292.6 586.2,293.1 585.9,293.7 586.4,294 586,294.7 586.6,295.2 586.3,295.6 587,296.3 586.6,296.7 	
		"/>
</g>
<polygon class="st23" points="587.4,296.9 587.5,296.8 586.6,296.3 587,295.6 586.3,295.3 586.7,294.6 586.2,294.2 586.6,293.6 
	585.8,293.2 586.4,292.5 585.7,292 585.7,292.1 586.3,292.5 585.7,293.2 586.4,293.6 586,294.2 586.6,294.6 586.1,295.3 
	586.9,295.7 586.4,296.3 "/>
<polygon class="st23" points="586.7,296.8 587.3,296.3 586.6,295.6 586.9,295.1 586.2,294.6 586.6,294 586.2,293.6 586.5,293.1 
	585.8,292.6 586.3,292 586.3,291.9 585.7,292.6 586.3,293.1 586,293.7 586.5,294 586.1,294.7 586.7,295.2 586.4,295.6 587.1,296.3 
	586.7,296.7 "/>
<path class="st17" d="M560.2,243c-0.1,0.6-0.5,1.2-0.9,1.6c-0.3,0.1-0.5,0.2-0.8,0.4c-0.2,0.2-0.3,0.5-0.4,0.7
	c-1,0.8-1.9,1.6-2.8,2.5c-0.6,0.6-1.2,1.2-1.8,1.7c-1.4,1.1-3.3,1.6-4.6,2.8c-1.6,1.7-2.4,3.9-2.3,6.2c0,2.3,0.5,4.5,0.7,6.7
	c0.3,2.3-0.2,4.5-1.4,6.5c-0.4,0.5-0.8,1-1.1,1.6c-0.2,0.4-0.2,0.7-0.2,1.1c-1.1-1.2-1.9-2.8-1.3-4.3c0.3-0.6,0.7-1.1,1.1-1.6
	c1.2-1.9,1.7-4.2,1.4-6.5c-0.2-2.2-0.7-4.5-0.7-6.7c-0.1-2.3,0.7-4.5,2.3-6.2c1.3-1.2,3.2-1.7,4.6-2.8c0.6-0.5,1.2-1.1,1.8-1.7
	c0.9-0.9,1.8-1.7,2.8-2.5c0-0.3,0.2-0.5,0.4-0.7c0.2-0.1,0.5-0.3,0.8-0.4c0.5-0.4,0.8-1,1-1.6c1-2.7,3.2-4.8,5.9-5.7
	C566.2,233.7,561.2,240.3,560.2,243z"/>
<linearGradient id="SVGID_4_" gradientUnits="userSpaceOnUse" x1="212.4448" y1="476.2796" x2="212.4448" y2="599.5496" gradientTransform="matrix(-1 0 0 -1 816.0699 773.43)">
	<stop  offset="0" style="stop-color:#808080;stop-opacity:0.25"/>
	<stop  offset="0.54" style="stop-color:#808080;stop-opacity:0.12"/>
	<stop  offset="1" style="stop-color:#808080;stop-opacity:0.1"/>
</linearGradient>
<path class="st29" d="M590.2,247.4l0.1,0.5l1.3,6.2l1.5,8.1c0,0,0.8,4.6,0,5.6s1.6,14.9,1.6,14.9l0.9,6.4v0.2
	c-0.3,0.2-0.5,0.5-0.7,0.8c-0.3,1.4-0.9,2.7-1.7,3.9l0,0c-0.3,0.3-0.4,0.7-0.4,1.2c0,1,0.9,1.9,1.9,1.9c0,0,0,0,0,0h3.6
	c0.6,0,1.2-0.3,1.6-0.8l0.9-1.2c0.3-0.4,0.4-0.8,0.4-1.2c0-0.2,0-0.4-0.1-0.6c-0.4-1.2-0.7-2.4-0.8-3.6c0-0.2-0.1-0.5-0.3-0.7v-0.2
	c-0.3-2.1-0.5-5.6,0.2-6.9c0.8-1.3,0.5-8.1,0.2-12.1c-0.2-2.3,0-4.5,0.6-6.7c0.1-0.4,0.2-0.9,0.3-1.3c0.3-1.2-0.2-7.6-0.7-12.4
	l0-0.5c0.2-0.1,0.3-0.1,0.4-0.2c0.9-0.4,1.9-0.6,2.8-0.7l-0.1,0.6c-0.5,4.8-1.2,12.1-0.8,13.4c0.1,0.5,0.3,1,0.4,1.5
	c0.5,2.1,0.7,4.2,0.5,6.4c-0.3,4-0.6,10.8,0.2,12.2c0.8,1.4,0.5,4.8,0.2,7v0.2c-0.2,0.2-0.3,0.4-0.3,0.7c-0.1,1.3-0.4,2.5-0.9,3.7
	c-0.1,0.2-0.1,0.3-0.1,0.5c0,0.4,0.1,0.7,0.3,1l1,1.3c0.4,0.5,1,0.8,1.6,0.8h3.6c1,0,1.9-0.8,1.9-1.9c0,0,0,0,0,0
	c0-0.4-0.1-0.8-0.4-1.2l0,0c-0.9-1.1-1.4-2.5-1.7-3.9c-0.2-0.3-0.4-0.6-0.7-0.8v-0.2l0.9-6.4c0,0,2.4-13.9,1.6-14.9s0-5.6,0-5.6
	l1.5-8.1l1-5l0.1-0.5h0.9h0.2h0.1h0.2h0.1h0.2h0.1l0.1,0h0.1l0.1-0.1h0.1l0.1-0.1l0.1,0l0.1-0.1l0-0.1l0.1-0.1l0,0l0,0v-0.1
	c0.6-1.1,1.7-1.8,3-1.8h1.1l0,0l0,0v-0.1l0,0v-0.1l0,0v-0.1l0,0c-0.2-1.1-1.2-5.1-2.5-9.6c0.1-0.6,0.2-1.2,0.3-1.9l-0.7-15.7
	c0.6-0.1,1.2-0.3,1.7-0.5c0,0,0.4-4,0.4-7.8c0-3.3-0.3-6.4-1.5-6.8c-0.4-0.1-0.7-0.1-1.1-0.2v-0.2c-0.6-4.8-1.3-5.2-7-6.1
	c-3.2-0.5-4.5-2.1-5-3.6v-0.1c0.4-0.3,0.8-0.6,1.1-1c1.8-1.3,2.8-3.4,2.8-5.7c0-0.9-0.2-1.7-0.5-2.6c0-1.3-0.6-2.5-1.7-3.2l-0.2-0.2
	c0.7,0.6,1.2,1.4,1.4,2.2c-0.8-1.4-2.1-2.5-3.6-3.1c0.5-0.6,0.7-1.4,0.7-2.2c0-2.3-1.9-4.1-4.1-4.1c-2.3,0-4.1,1.8-4.1,4.1
	c0,0.7,0.2,1.4,0.6,2c-0.1-0.2-0.3-0.4-0.4-0.6c-1.1-1.8-0.5-4.1,1.3-5.2l-0.3,0.1c-1.9,1-2.6,3.3-1.7,5.2c0,0.1,0.1,0.1,0.1,0.2
	c0.2,0.4,0.5,0.7,0.8,1c-2.2,1.3-3.5,3.6-3.5,6.1c0,1.6,0.6,3.2,1.6,4.5c-1.4,0.8-3.1,0.8-4.4,0l0.2,0.2c1.3,0.9,3.1,1,4.5,0.2
	c0.2,0.2,0.4,0.4,0.5,0.5c0.7,0.9,1.6,1.5,2.7,1.9v0.2c-0.8,2.7-3.9,3.9-5.8,4.4c-2.5,0.5-4.2,2.8-4,5.3l0,0v0.2
	c-0.5,0.1-0.9,0.2-1.3,0.5c-0.6,0.6-0.7,3.5-0.7,6.5c0,3.6,0.2,7.5,0.2,7.5c0.3-0.6,1.2-0.9,2.3-1c-0.1,2.1-0.2,4-0.2,4l-2.2,14
	c0,0-2.1,5.3-0.8,5.7c0.2,0,0.5,0,0.7-0.2c-0.7,3.8-1.1,6.6-1.1,6.6S588.4,247.4,590.2,247.4z M613.8,224.4
	c-1.1-2.3-1.4-4.9-0.9-7.4c0.2,0.1,0.4,0.1,0.6,0.2C613.7,219.6,613.8,222,613.8,224.4L613.8,224.4z"/>
<path class="st30" d="M603.2,262c0.1,0.5,0.3,1,0.4,1.5c0.5,2.1,0.7,4.2,0.5,6.3c-0.2,3.9-0.6,10.8,0.2,12.1s0.5,4.8,0.2,6.9
	c-0.1,1-0.2,1.7-0.2,1.7l4.3-0.5l0.1-1l0.9-6.3c0,0,2.3-13.8,1.6-14.8s0-5.6,0-5.6l1.5-8.1l1-5l1.1-5.7l-10.3,0.7
	c0,0-0.2,1.8-0.5,4.3C603.5,253.5,602.9,260.8,603.2,262z"/>
<path class="st30" d="M590,243.5l0.9,4.5l1.2,6.2l1.5,8.1c0,0,0.7,4.6,0,5.6s1.6,14.8,1.6,14.8l0.9,6.3l0.1,1l4.3,0.5
	c0,0-0.1-0.7-0.2-1.7c-0.2-2.1-0.5-5.6,0.2-6.9s0.5-8.1,0.2-12c-0.1-2.2,0-4.5,0.6-6.7c0.1-0.4,0.2-0.9,0.3-1.2
	c0.3-1.2-0.2-7.6-0.7-12.4c-0.3-3-0.5-5.3-0.5-5.3L590,243.5z"/>
<circle class="st31" cx="601.5" cy="178.1" r="3.9"/>
<path class="st31" d="M598.8,174.5l0.2-0.1c-1.8,1.2-2.3,3.7-1.1,5.5c1.1,1.6,3.1,2.2,4.9,1.4l-0.2,0.1c-1.9,1-4.3,0.2-5.3-1.7
	C596.4,177.9,597,175.6,598.8,174.5L598.8,174.5z"/>
<path class="st31" d="M592.2,191.6l-0.2-0.2c1.8,1.2,4.3,0.6,5.4-1.2c1-1.6,0.7-3.8-0.8-5.1l0.2,0.2c1.7,1.3,2.1,3.8,0.8,5.5
	C596.4,192.6,594,192.9,592.2,191.6L592.2,191.6z"/>
<path class="st31" d="M602.4,187.6l-0.2-0.2c1.8,1.2,4.3,0.6,5.4-1.2c1-1.6,0.7-3.8-0.8-5.1l0.2,0.2c1.7,1.3,2.1,3.8,0.8,5.5
	C606.6,188.6,604.2,188.9,602.4,187.6L602.4,187.6z"/>
<circle class="st31" cx="602" cy="187" r="7.2"/>
<path class="st30" d="M587.7,241.3c1.3,0.4,3.7-5.5,3.7-5.5l4.6-13.9l-0.1-4.9l-0.3-10.5l13.7,0.4c0,0,2.6,6.6,3.5,8.4
	c0.2,0.4,0.3,0.9,0.4,1.4c0.3,2.9,0.4,5.8,0.4,8.7l1,9.8c0,0,0.1,4.9,1.7,3.9c1.7-0.9,1.8-4.8,1.8-4.8l-0.7-15.8c0,0,0-0.2,0-0.5
	c0.2-4.5,0.1-9.1-0.3-13.6c0-0.4-0.1-0.7-0.1-1.1c-0.6-4.8-1.3-5.2-6.7-6.1c-3.1-0.5-4.3-2.1-4.7-3.6c-0.2-0.8-0.3-1.6-0.2-2.4
	c0,0-6.2-4.9-5.5,1c0.1,0.7,0.1,1.4-0.1,2.1c-0.8,2.7-3.8,3.9-5.6,4.3c-2.4,0.6-4,2.8-3.9,5.3l0,0c0,0.6,0.2,1.2,0.3,1.8
	c-0.1,1.8,0,3.7,0.2,5.5c0.1,1.9,0.1,3.8,0,5.6c-0.1,2.4-0.2,4.6-0.2,4.6l-2.1,13.9C588.3,235.6,586.4,241,587.7,241.3z"/>
<path class="st17" d="M599.6,194.5c1.9,0.8,4.2,0.5,5.8-0.7c-0.2-0.8-0.3-1.6-0.2-2.4c0,0-6.2-4.9-5.5,1
	C599.8,193.1,599.8,193.8,599.6,194.5z"/>
<circle class="st30" cx="601.9" cy="188.7" r="6"/>
<path class="st17" d="M604.3,290.6l4.3-0.5l0.1-1c-0.6-0.5-1.4-0.8-2.2-1c-0.3-0.1-1.2,0.3-1.8,0.6c-0.1,0.1-0.2,0.1-0.3,0.2
	C604.4,289.9,604.3,290.6,604.3,290.6z"/>
<path class="st32" d="M606.6,288.3c0,0,2.1,0.4,2.8,1.8c0.3,1.4,0.8,2.7,1.7,3.9l0,0c0.6,0.8,0.5,2-0.3,2.6
	c-0.3,0.3-0.7,0.4-1.2,0.4h-3.5c-0.6,0-1.1-0.3-1.5-0.8l-1-1.3c-0.3-0.4-0.4-0.9-0.2-1.4c0.4-1.2,0.7-2.4,0.8-3.7
	c0-0.4,0.2-0.7,0.6-0.9C605.4,288.6,606.3,288.2,606.6,288.3z"/>
<path class="st17" d="M596,289.1l0.1,1l4.3,0.5c0,0-0.1-0.7-0.2-1.7c-0.1-0.1-0.1-0.1-0.2-0.1c-0.6-0.3-1.5-0.7-1.8-0.6
	C597.4,288.2,596.7,288.6,596,289.1z"/>
<path class="st32" d="M598.2,288.2c0,0-2.1,0.4-2.8,1.8c-0.3,1.4-0.8,2.7-1.7,3.9l0,0c-0.6,0.8-0.5,2,0.3,2.6
	c0.3,0.3,0.7,0.4,1.2,0.4h3.5c0.6,0,1.1-0.3,1.5-0.8l0.8-1.2c0.4-0.5,0.5-1.2,0.3-1.8c-0.4-1.2-0.7-2.4-0.8-3.6
	c0-0.4-0.2-0.7-0.5-0.8C599.4,288.5,598.6,288.1,598.2,288.2z"/>
<path class="st17" d="M604.4,244.4c0,0-0.2,1.8-0.5,4.3c1.9-0.2,3.9-0.1,4.3-0.2c0.4-0.1,3.2,0.8,5.4,0.9l1.1-5.7L604.4,244.4z"/>
<path class="st17" d="M590,243.5l0.9,4.5c0.9-0.1,1.8,0,2.7,0.4c0.9,0.8,5,2,7.3,1.1c-0.3-3-0.5-5.3-0.5-5.3L590,243.5z"/>
<path class="st33" d="M613.8,213.8c0,0-3.4,5,0,11.7s6.3,20.6,6.3,20.6s-3.1-0.3-3.9,1.8c-0.8,2.1-7.2-0.2-7.9,0s-4.7-0.3-7,0.9
	c-2.3,1.2-6.8-0.1-7.7-0.9c-0.9-0.8-6.4-0.2-6.4-0.2s2.9-21.4,7.1-25.1c0,0,2.5-3-0.6-8.1S613.8,213.8,613.8,213.8z"/>
<path class="st17" d="M590.5,206c-0.1,1.8,0,3.7,0.2,5.5c0.1,1.9,0.1,3.8,0,5.6c1.3-0.2,2.6-0.2,3.8,0c0.4,0,0.8,0,1.2-0.1
	c1.5-0.3,3.8-1,4.5-1.8c0.9-1.1,3.8,0.7,4.5,1.2s4.5,0.6,5.5,0.2c0.9-0.3,1.9-0.3,2.8,0.1c0.5,0.2,1,0.5,1.5,0.9
	c0.8,0.6,1.9,0.7,2.9,0.5c0.2-4.5,0.1-9.1-0.3-13.6c0-0.4-0.1-0.8-0.1-1.1c-3.9-0.4-14.3-0.3-14.3-0.3s-9,0.2-12.4,1
	C590.2,204.7,590.3,205.4,590.5,206z"/>
<ellipse class="st17" cx="601.5" cy="184.5" rx="5.5" ry="3.2"/>
<ellipse class="st31" cx="601.5" cy="184.3" rx="5.5" ry="3.2"/>
<path class="st17" d="M612,198.3c-0.2,0-4.9,0-5.8-0.2"/>
<path class="st17" d="M598.2,199.2c-1.3,0.1-2.5,0-3.8-0.2"/>
<path class="st34" d="M605.6,202.5c0,0-2.4,1.3-2.5,2.5c0,0-0.9-2.4-2.2-2.5"/>
<path class="st17" d="M603.6,294.7l1,1.3c0.4,0.5,0.9,0.8,1.5,0.8h3.5c1,0,1.8-0.8,1.9-1.7c0.1,1-0.7,1.9-1.7,2c0,0-0.1,0-0.1,0
	h-3.5c-0.6,0-1.1-0.3-1.5-0.8l-1-1.3c-0.2-0.3-0.3-0.7-0.3-1.1C603.4,294.2,603.5,294.5,603.6,294.7z"/>
<path class="st17" d="M595.2,296.7h3.5c0.6,0,1.1-0.3,1.5-0.8l0.8-1.2c0.2-0.3,0.3-0.6,0.4-1c0,0.5-0.1,0.9-0.4,1.3l-0.8,1.2
	c-0.4,0.5-0.9,0.8-1.5,0.8h-3.5c-1,0-1.9-0.8-1.9-1.9c0,0,0-0.1,0-0.1C593.4,296,594.2,296.7,595.2,296.7z"/>
<g class="st35">
	<path d="M594.2,222.6c0,0,2.5-3-0.6-8.1c-0.8-1.3,0.2-2,2.2-2.3c-0.3,0.4-0.4,0.9,0,1.5c3.1,5,0.6,8.1,0.6,8.1
		c-4.1,3.7-7.1,25.1-7.1,25.1s5.5-0.6,6.4,0.2c0.9,0.8,5.4,2.1,7.7,0.9s6.3-0.7,7-0.9c0.4-0.1,3.5,0.9,5.7,0.9
		c-0.9,2-7.2-0.2-7.8-0.1c-0.6,0.2-4.7-0.3-7,0.9c-2.3,1.2-6.8-0.1-7.7-0.9c-0.9-0.8-6.4-0.2-6.4-0.2S590.1,226.3,594.2,222.6z"/>
	<path d="M620,245.6l0.1,0.5c-0.3,0-0.7,0-1,0C619.4,245.9,619.7,245.7,620,245.6z"/>
</g>
<path class="st17" d="M602.6,203.8c0,0,12.9-0.2,15.3,0.5s1,14,1,14s-3,1.3-4.5,0c-1.1-1.1-2.7-1.5-4.2-1c-1,0.5-4.9,0.3-5.5-0.2
	s-3.6-2.3-4.5-1.2c-0.9,1.1-4.9,2.1-5.7,1.9c-0.8-0.2-5.4-0.5-6,1c0,0-0.7-12.2,0.5-13.5C590.2,204,602.6,203.8,602.6,203.8z"/>
<path class="st33" d="M602.6,203.3c0,0,12.9-0.2,15.3,0.5s1,14,1,14s-3,1.3-4.5,0c-1.1-1.1-2.7-1.5-4.2-1c-1,0.5-4.9,0.3-5.5-0.2
	s-3.6-2.3-4.5-1.2c-0.9,1.1-4.9,2.1-5.7,1.9c-0.8-0.2-5.4-0.5-6,1c0,0-0.7-12.2,0.5-13.5C590.2,203.6,602.6,203.3,602.6,203.3z"/>
<linearGradient id="SVGID_5_" gradientUnits="userSpaceOnUse" x1="226.205" y1="124.5" x2="226.205" y2="359.43" gradientTransform="matrix(-1 0 0 -1 816.07 773.43)">
	<stop  offset="0" style="stop-color:#808080;stop-opacity:0.25"/>
	<stop  offset="0.54" style="stop-color:#808080;stop-opacity:0.12"/>
	<stop  offset="1" style="stop-color:#808080;stop-opacity:0.1"/>
</linearGradient>
<rect x="472.4" y="414" class="st36" width="234.9" height="234.9"/>
<rect x="475.9" y="417.5" class="st8" width="228" height="228"/>
<rect x="486.2" y="427.8" class="st10" width="207.2" height="155.3"/>
<ellipse class="st14" cx="639.6" cy="563.7" rx="36.1" ry="5.5"/>
<circle class="st37" cx="523.5" cy="449.9" r="8.5"/>
<path class="st20" d="M656.2,529.7c0,0-0.9,1.2,0.4,2.9c1.3,1.8,2.4,3.2,1.9,4.3c0,0-2-3.2-3.6-3.3
	C653.4,533.6,654.4,531.7,656.2,529.7z"/>
<path class="st38" d="M656.2,529.7c-0.1,0.1-0.1,0.2-0.2,0.4c-1.5,1.8-2.4,3.5-0.9,3.6s3.1,2.5,3.5,3.2v0.1c0,0-2-3.2-3.6-3.3
	C653.5,533.6,654.4,531.7,656.2,529.7z"/>
<path class="st21" d="M654.5,531.2c0,0.4,0,0.7,0.1,0.7s0.1-0.3,0.1-0.7s-0.1-0.2-0.1-0.2C654.5,531,654.5,530.8,654.5,531.2z"/>
<path class="st21" d="M653.9,531.7c0.4,0.2,0.7,0.3,0.7,0.3s-0.2-0.2-0.6-0.4s-0.2,0-0.2,0S653.6,531.5,653.9,531.7z"/>
<path class="st20" d="M660.8,529.7c0,0,0.9,1.2-0.4,2.9c-1.3,1.8-2.4,3.2-1.9,4.3c0,0,2-3.2,3.6-3.3
	C663.6,533.6,662.6,531.7,660.8,529.7z"/>
<path class="st38" d="M660.8,529.7c0.1,0.1,0.1,0.2,0.2,0.4c1.5,1.8,2.4,3.5,0.9,3.6s-3.1,2.5-3.5,3.2v0.1c0,0,2-3.2,3.6-3.3
	C663.6,533.6,662.6,531.7,660.8,529.7z"/>
<path class="st21" d="M662.5,531.2c0,0.4,0,0.7-0.1,0.7s-0.1-0.3-0.1-0.7s0.1-0.2,0.1-0.2C662.5,531,662.5,530.8,662.5,531.2z"/>
<path class="st21" d="M663.1,531.7c-0.4,0.2-0.7,0.3-0.7,0.3s0.2-0.2,0.6-0.4s0.2,0,0.2,0S663.4,531.5,663.1,531.7z"/>
<path class="st18" d="M662.2,536.8c0,0-2.5-0.1-3.2-0.6s-3.8-1.2-4-0.3c-0.2,0.9-3.7,4.2-0.9,4.3c2.8,0,6.5-0.4,7.3-0.9
	S662.2,536.8,662.2,536.8z"/>
<path class="st19" d="M654,539.8c2.8,0,6.5-0.4,7.3-0.9c0.6-0.3,0.8-1.6,0.9-2.2h0.1c0,0-0.2,2-0.9,2.5c-0.7,0.5-4.4,0.9-7.3,0.9
	c-0.8,0-1.1-0.3-1.1-0.7C653.1,539.7,653.4,539.8,654,539.8z"/>
<rect x="573.1" y="461.2" class="st39" width="34" height="11.5"/>
<rect x="596" y="461.7" class="st40" width="8.6" height="10.5"/>
<rect x="597.7" y="464.8" class="st41" width="5.1" height="4.1"/>
<rect x="585.5" y="461.7" class="st40" width="8.6" height="10.5"/>
<rect x="587.3" y="464.8" class="st41" width="5.1" height="4.1"/>
<rect x="575.1" y="461.7" class="st40" width="8.6" height="10.5"/>
<rect x="576.8" y="464.8" class="st41" width="5.1" height="4.1"/>
<path class="st17" d="M573.1,461.2v0.9H607v-0.9H573.1z"/>
<path class="st42" d="M574.7,454.6l4.5-3.5h21.9l4.2,3.5l0,0c2.3,1.1,5,1.5,7.5,1c0,0-0.2,6-6,6h-34c0,0-4.9,0.2-5.6-6
	C569.8,456,572.3,455.6,574.7,454.6z"/>
<rect x="565.4" y="484.6" class="st39" width="48" height="16.2"/>
<rect x="597.8" y="483.9" class="st40" width="12.2" height="14.9"/>
<rect x="600.2" y="488.4" class="st41" width="7.2" height="5.8"/>
<rect x="583" y="483.9" class="st40" width="12.2" height="14.9"/>
<rect x="585.5" y="488.4" class="st41" width="7.2" height="5.8"/>
<rect x="568.2" y="483.9" class="st40" width="12.2" height="14.9"/>
<rect x="570.7" y="488.4" class="st41" width="7.2" height="5.8"/>
<rect x="559.7" y="518.7" class="st15" width="58.3" height="20.4"/>
<rect x="559.7" y="518.7" class="st39" width="58.3" height="20.4"/>
<rect x="594.3" y="518.6" class="st41" width="17.6" height="19.9"/>
<rect x="597.8" y="518.6" class="st40" width="10.6" height="19.9"/>
<rect x="600.7" y="521.6" class="st41" width="5.3" height="14.2"/>
<rect x="566" y="518.6" class="st41" width="17.6" height="19.9"/>
<rect x="569.5" y="518.6" class="st40" width="10.6" height="19.9"/>
<rect x="572.4" y="521.6" class="st41" width="5.3" height="14.2"/>
<path class="st42" d="M626.3,538.1v-19.5c11.3-0.8,11.6-12.7,11.6-12.7c-5.5,1-11.1,0.2-16.1-2.2l0,0l-8.9-7.4H566l-9.7,7.5
	c-5,2.2-10.5,2.9-15.9,2.2c1.4,12.1,10.2,12.8,11.7,12.8v19.5 M552.2,538.1h74.1 M622.2,538.1h-66 M556.2,538.1v-19.5h66v19.5"/>
<rect x="565.4" y="484.6" class="st17" width="48" height="2.1"/>
<path class="st42" d="M566.6,475.7l6.5-5.3H607l6,5.2l0,0c3.5,1.7,7.5,2.3,11.4,1.6c0,0-0.2,9-9.1,9h-51.5c0,0-7.4,0.3-8.5-9
	C559.2,477.8,563.1,477.2,566.6,475.7z"/>
<rect x="559.7" y="518.6" class="st17" width="58.3" height="0.6"/>
<path class="st17" d="M621.8,503.7h-65.5C578.1,505.2,600,505.2,621.8,503.7z"/>
<path class="st17" d="M613.4,475.5h-46.8C582.2,477,597.9,477,613.4,475.5z"/>
<path class="st17" d="M605.3,454.5h-30.7C584.8,456,595.2,456,605.3,454.5z"/>
<rect x="502.8" y="538" class="st41" width="163.1" height="4.4"/>
<linearGradient id="SVGID_6_" gradientUnits="userSpaceOnUse" x1="1257.2948" y1="205.78" x2="1257.2948" y2="297.73" gradientTransform="matrix(1 0 0 -1 -613.9301 773.43)">
	<stop  offset="0" style="stop-color:#808080;stop-opacity:0.25"/>
	<stop  offset="0.54" style="stop-color:#808080;stop-opacity:0.12"/>
	<stop  offset="1" style="stop-color:#808080;stop-opacity:0.1"/>
</linearGradient>
<path class="st43" d="M653.6,497.6c0.6,0.8,1.2,1.5,2,2.2c1.9,1.4,4.4,1.3,6.8,1.5c0.9,0.1,1.7,0.1,2.6,0c0.3-0.1,0.7-0.2,1-0.3
	c0.6-0.2,1.1-0.7,1.3-1.3c0.4-1.2-0.3-2.4-1.2-3.2c-1-0.7-1.9-1.6-2.5-2.7c-0.7-1.5-0.1-3.4-1-4.8c-0.2-0.3-0.4-0.5-0.7-0.6
	c-0.4-0.1-0.8-0.1-1.2,0c-1.6-0.1-3-1.1-3.6-2.6c-0.7-1.4-1-3-1.7-4.4c-0.7-1.6-2-3-3.6-3.7c-1-0.3-2-0.6-3-0.8
	c-1.1-0.4-2.2-0.8-3.4-1c-0.9-0.2-1.9-0.1-2.8,0.3c-0.3,0.1-0.6,0.3-0.8,0.5c-0.8,0.8-1,2-1.8,2.8c-0.3,0.3-0.6,0.6-0.8,1
	c-0.2,0.6,0.3,0.8,0.9,1c-0.4,0.8-0.7,1.7-0.7,2.7c0,2.8,2.1,5.1,4.9,5.5l0.2,0.3l0,0c0.3,0.6,0.6,1.2,0.9,1.8
	c-0.2,0.5-0.3,1.1-0.3,1.7c0.1,0.5,0.4,0.9,0.8,1.2c-0.7,0.4-1.4,1-2,1.7c-0.5,0.7-1.3,1.3-2.1,1.6l-0.3,0.1
	c-1.5,0.6-2.3,2.2-1.8,3.7c0.6,3-0.8,7.6-0.8,7.6l-0.5,3.8v0.1l-4.6,3c0,0-7.2,2.4-4.8,5.2c2.4,2.8,6.2-3,6.2-3l2.8-1.3l-0.1,0.7
	c-0.4,3.5-1,8-1.7,10.1l0,0l-0.9,3.5l-1.7,7.7c0,0-0.9,1.6,0,5l-2.9,9.5l0,0v0.1v0.1l0,0c-0.5,1.8-1.1,3.5-1.9,5.2l0,0l-0.2,0.3l0,0
	l-0.1,0.1l0,0v0l0,0l0,0l0,0c-0.3-0.2-0.7-0.1-0.9,0.2c-0.1,0.1-0.2,0.3-0.3,0.5c-0.5,0.9-4.3,1.6-5.1,1.4s-3.4-0.5-2.8,1.4
	s12.1,4.7,12.1,4.7s1.3-1.8,1.1-3c-0.1-0.8-0.1-1.7,0-2.5c-0.2,0.1-0.3,0.3-0.5,0.4v-0.1v-0.1l0.1-0.3l0,0v-0.1v-0.1v-0.1v-0.2l0,0
	v-0.1v0v-0.1l0,0l0.1-0.2l0,0v-0.1v0l0-0.2l0,0l0.1-0.2v0v-0.1v-0.1l0.1-0.2l0,0l0.1-0.2v-0.1v-0.1v-0.1l0.1-0.2l0,0l0.1-0.1v-0.1
	l0-0.1l0,0l0.1-0.1l0,0l0-0.1l0,0l0.1-0.1l0,0l0.1-0.1l0,0l0.1-0.1l0,0l0.1-0.1c1-0.9,4.3-9.7,4.3-9.7l1-6.2c0,0,2.5-6.8,5.1-9.7
	l4.6,7.6c1.2,1.7,2.6,3.4,4.1,4.9c0,0,3.3,6.6,5.5,9.2c1,1.4,1.5,3.1,1.4,4.8c0,0.3,0,0.6-0.1,0.8c-0.3,0.9-0.9,1.6-1.7,2
	c-1.9,0.8-4.6,2-3.7,3.2s3.9,2.2,6.6,1.3c2.2-0.8,4.4-1.8,6.5-3l-1.4-5.4c-0.1,0.3-0.3,0.5-0.4,0.8l-0.2-0.2c-1-1.5-2.7-6.7-2.7-6.7
	c-1.7-7.7-6-11.4-6-11.4l-2-4l-2.1-8.3c0.4-0.2,0.9-0.4,1.3-0.6c0.3,0.4,0.9,0.5,1.3,0.2c0.1-0.1,0.1-0.1,0.2-0.2
	c2.5-2.3-0.5-7.8-0.5-7.8s-0.1-2.8,0-4.8s-1.1-6.2-1.1-6.2l-0.8-5.2l1.1-3.1C653.4,499.9,653.6,498.8,653.6,497.6z M650.8,514.8
	c0.4,1.1,0.6,2.3,0.6,3.6c-0.4-0.6-0.9-1.2-1.5-1.7c0,0-2.5-3.9-0.7-6.8c0.2-0.3,0.4-0.6,0.6-0.9C649.9,511,650.2,512.9,650.8,514.8
	z"/>
<path class="st44" d="M651.7,503.5l1,6.2c0,0,1.2,4.1,1.1,6s0,4.7,0,4.7s3,5.4,0.5,7.7s-3.2-7-3.2-7s0.4-4-0.5-6s-1-6.7-1-6.7
	L651.7,503.5z"/>
<path class="st34" d="M651.7,503.5l1,6.2c0,0,1.2,4.1,1.1,6s0,4.7,0,4.7s3,5.4,0.5,7.7s-3.2-7-3.2-7s0.4-4-0.5-6s-1-6.7-1-6.7
	L651.7,503.5z"/>
<path class="st44" d="M637.2,524.7l-1.7,6.4l-1.6,7.5c0,0-0.9,1.6,0,4.9l-2.8,9.2c0,0-1.6,5.9-2.6,6s1,4.7,1,4.7l2.7-1.6
	c0,0,0.7-3.7,1.7-4.6s4.2-9.5,4.2-9.5l1-6c0,0,3.1-8.3,5.8-10.2c1.7-1.3,3-3.1,3.6-5.2L637.2,524.7z"/>
<path class="st34" d="M648.5,526.5c-0.6,2.1-1.9,3.9-3.6,5.2c-2.7,2-5.8,10.2-5.8,10.2l-1,6c0,0-3.2,8.6-4.2,9.5
	c-0.7,0.6-1.3,2.8-1.6,3.9c-0.1,0.4-0.2,0.7-0.2,0.7l-2.7,1.6c0,0-2-4.6-1-4.7c0.2,0,0.3-0.2,0.5-0.4c1-1.4,2.1-5.6,2.1-5.6l2.8-9.2
	c-0.9-3.3,0-4.9,0-4.9l1.6-7.5l1.8-6.4L648.5,526.5z"/>
<path class="st44" d="M664.4,558.5l-1,2.3l-4.5-0.5c0.1-0.6,0.2-1.3,0.2-1.9c0.1-1.7-0.4-3.4-1.3-4.7c-2.1-2.6-5.3-9-5.3-9
	c-1.4-1.5-2.8-3.1-4-4.8l-6.2-10.4l0.2-0.9l-1.7-1.5h10.4l2.5,9.6l2,4c0,0,4.2,3.6,5.8,11.1c0,0,1.6,5,2.6,6.5
	C664.2,558.4,664.3,558.5,664.4,558.5z"/>
<path class="st17" d="M632.3,561.3c-0.1,0.4-0.2,0.7-0.2,0.7l-2.7,1.6c0,0-2-4.6-1-4.7c0.2,0,0.3-0.2,0.5-0.4
	c0.3,0.2,0.4,0.5,0.3,0.8c0,0.2-0.1,0.4-0.2,0.5c-0.4,0.6,1.2,1.6,1.2,1.6C630.8,562.1,631.7,561.7,632.3,561.3z"/>
<path class="st45" d="M629.1,559.5c0.1-0.4-0.2-0.8-0.5-0.9c-0.3-0.1-0.5,0-0.7,0.2c-0.1,0.1-0.2,0.3-0.3,0.4
	c-0.5,0.9-4.2,1.6-5,1.4s-3.3-0.5-2.7,1.4s11.8,4.5,11.8,4.5c0.6-0.9,1-1.9,1.1-3c-0.1-0.8-0.1-1.6,0-2.5c0,0-1.7,1.6-2.6,0.5
	c0,0-1.6-1-1.2-1.6C629,559.8,629.1,559.7,629.1,559.5z"/>
<path class="st17" d="M664.4,558.5l-1,2.3l-4.5-0.5c0.1-0.6,0.2-1.3,0.2-1.9c0.1-0.3,0.5-0.4,0.8-0.3c0.1,0,0.1,0.1,0.2,0.1
	c0.2,0.2,0.5,0.5,0.6,0.7c0.5,0.6,2.1,0.2,2.1,0.2c0.4,0.1,0.9-0.5,1.3-1C664.2,558.4,664.3,558.5,664.4,558.5z"/>
<path class="st45" d="M660.3,558.5c-0.2-0.2-0.6-0.2-0.9,0c-0.1,0.1-0.1,0.1-0.1,0.2c-0.2,1.1-0.8,2-1.8,2.4c-1.9,0.7-4.5,2-3.6,3.1
	c0.9,1.1,3.8,2.1,6.5,1.2c2.2-0.8,4.3-1.8,6.3-3l-1.9-4.9c0,0-1,2.1-1.7,1.8c0,0-1.6,0.4-2.1-0.2
	C660.7,559.1,660.5,558.8,660.3,558.5z"/>
<path class="st44" d="M643.4,489.2c0,0,3,4.1,2.2,6.9s6-1.8,6-1.8c-2.2-2.1-3.2-5.1-2.8-8.1L643.4,489.2z"/>
<path class="st33" d="M653.2,527.8c-5,3-10.9,1.7-10.9,1.7l0.1-0.9h-0.3c-4.7,0.4-5.8-1-5.8-1c0.9-3.2,1.4-6.5,1.7-9.9
	c0-0.5,0.1-1,0.1-1.4c0.1-1,0.2-1.8,0.2-2.4c0-0.6,0.1-0.8,0.1-0.8l0.5-3.7c0,0,1.4-4.4,0.7-7.4c-0.4-1.5,0.3-3,1.7-3.6l0.2-0.1
	c0.8-0.3,1.5-0.9,2.1-1.6c0.9-1.1,2.1-1.9,3.5-2.4c0.6-0.2,1.2-0.5,1.2-0.5c0.9-1,3.2-0.4,3.2-0.4c2.8,1.8,1.4,7.9,1.4,7.9l-1.2,3.4
	c-0.7,1.9-1.6,3.6-2.7,5.3c-1.8,2.8,0.7,6.6,0.7,6.6C653.6,519.9,653.2,527.8,653.2,527.8z"/>
<path class="st34" d="M642.6,522.1l-0.4,6.6c-4.7,0.4-5.8-1-5.8-1c0.9-3.2,1.4-6.5,1.7-9.9c0-0.5,0.1-1,0.1-1.4L642.6,522.1z"/>
<path class="st17" d="M650.5,504.8c0,0-2.2,4.2-3,6s-0.7,1.2-1.1,1.8c-1.4,1.2-2.8,2.3-4.3,3.3l-4,1.8c0.2-1.6,0.3-3,0.4-3.8
	l3.8-2.5c0,0,2.6-1.6,2.7-3.7c0.3-2,0.9-4,1.7-5.9c0,0,3.2-3.5,4.6-1.8C652.7,501.7,650.5,504.8,650.5,504.8z"/>
<path class="st44" d="M646.7,501.3c-0.8,1.9-1.4,3.9-1.7,5.9c-0.1,2.1-2.7,3.7-2.7,3.7l-8.2,5.4c0,0-7.1,2.3-4.7,5.1s6.1-3,6.1-3
	l6.7-3.1c1.5-1,3-2.1,4.3-3.3c0.4-0.6,0.4,0,1.1-1.8s3-6,3-6s2.1-3.1,0.7-4.7S646.7,501.3,646.7,501.3z"/>
<path class="st17" d="M645.7,502.9c1.1-0.8,2.1-1.6,3-2.5c0.2-0.2,0.6-0.3,0.9-0.1c0.6,0.2,1.2,0.3,1.8,0.3c0.5,0,1.1,0,1,0.3
	c-0.1,0.6,0.4-3.2,0.4-3.2l-2.1-0.7l-2.7,1.5L645.7,502.9z"/>
<path class="st33" d="M645.7,502.7c1.1-0.8,2.1-1.6,3-2.5c0.2-0.2,0.6-0.3,0.9-0.1c0.6,0.2,1.2,0.3,1.8,0.3c0.5,0,1.1,0,1,0.3
	c-0.1,0.6,0.4-3.2,0.4-3.2l-2.1-0.7l-2.7,1.5L645.7,502.7z"/>
<path class="st17" d="M639.8,502.9c0.9,0.4,2,0.3,2.8-0.2"/>
<path class="st17" d="M647.9,486.4c-0.1-0.7,0.8,0.8,0.9-0.1l-5.3,3.1c0,0,0.3,0.4,0.7,1.1c0.2,0,0.4,0,0.6,0
	C646.5,490.5,647,487.5,647.9,486.4z"/>
<ellipse class="st44" cx="644.7" cy="485" rx="5.4" ry="5.4"/>
<path class="st17" d="M642.3,485c0,0.3,0.1,0.7,0.2,1c0.2,0.4,0.7,0.6,1.1,0.9c1.6,1.2,2.2,3.3,1.6,5.1c-0.3,0.6-0.4,1.3-0.4,2
	c0.2,1.2,1.5,1.8,2.7,1.8c1.2-0.1,2.4,0.1,3.5,0.3c1.8,0.7,2.7,2.9,4.2,4.1c1.8,1.4,4.3,1.3,6.6,1.5c0.8,0.1,1.7,0.1,2.5,0
	c0.9-0.1,1.6-0.7,2-1.5c0.4-1.1-0.3-2.3-1.2-3.2c-1-0.7-1.8-1.6-2.5-2.6c-0.7-1.5-0.1-3.3-1-4.7c-0.2-0.3-0.4-0.5-0.7-0.6
	c-0.4-0.1-0.8-0.1-1.2,0c-1.6-0.1-2.9-1.1-3.5-2.5c-0.7-1.3-1-2.9-1.7-4.3c-0.7-1.6-2-2.9-3.6-3.6c-1-0.3-1.9-0.6-2.9-0.8
	c-1.1-0.4-2.2-0.7-3.3-1c-1.1-0.3-2.3,0-3.2,0.7c-0.8,0.8-1,1.9-1.8,2.7c-0.3,0.3-0.6,0.6-0.8,0.9c-0.3,0.9,1.2,1,1.8,1.4
	C641.6,483.3,642.1,484.1,642.3,485z"/>
<path class="st46" d="M642.6,484.9c0,0.3,0.1,0.7,0.2,1c0.2,0.4,0.7,0.6,1.1,0.9c1.6,1.2,2.2,3.3,1.6,5.1c-0.3,0.6-0.4,1.3-0.4,2
	c0.2,1.2,1.5,1.8,2.7,1.8c1.2-0.1,2.4,0.1,3.5,0.3c1.8,0.7,2.7,2.9,4.2,4.1c1.8,1.4,4.3,1.3,6.6,1.5c0.8,0.1,1.7,0.1,2.5,0
	c0.9-0.1,1.6-0.7,2-1.5c0.4-1.1-0.3-2.3-1.2-3.2c-1-0.7-1.8-1.6-2.5-2.6c-0.7-1.5-0.1-3.3-1-4.7c-0.2-0.3-0.4-0.5-0.7-0.6
	c-0.4-0.1-0.8-0.1-1.2,0c-1.6-0.1-2.9-1.1-3.5-2.5c-0.7-1.3-1-2.9-1.7-4.3c-0.7-1.6-2-2.9-3.6-3.6c-1-0.3-1.9-0.6-2.9-0.8
	c-1.1-0.4-2.2-0.7-3.3-1c-1.1-0.3-2.3,0-3.2,0.7c-0.8,0.8-1,1.9-1.8,2.7c-0.3,0.3-0.6,0.6-0.8,0.9c-0.3,0.9,1.2,1,1.8,1.4
	C641.9,483.2,642.4,484,642.6,484.9z"/>
<linearGradient id="SVGID_7_" gradientUnits="userSpaceOnUse" x1="433.9631" y1="346.489" x2="433.9631" y2="581.4191" gradientTransform="matrix(-0.9911 -0.1333 0.1333 -0.9911 767.7391 872.4315)">
	<stop  offset="0" style="stop-color:#808080;stop-opacity:0.25"/>
	<stop  offset="0.54" style="stop-color:#808080;stop-opacity:0.12"/>
	<stop  offset="1" style="stop-color:#808080;stop-opacity:0.1"/>
</linearGradient>
<polygon class="st47" points="267.4,455.5 298.7,222.7 531.6,254 500.3,486.8 "/>
<rect x="285.5" y="240.8" transform="matrix(0.1333 -0.9911 0.9911 0.1333 -5.3706 703.4169)" class="st8" width="228" height="228"/>
<rect x="325.3" y="225.4" transform="matrix(0.1333 -0.9911 0.9911 0.1333 23.1385 684.5466)" class="st10" width="155.3" height="207.2"/>
<path class="st16" d="M335.8,328.7c0,0-4,5.8-1.9,9.6S332,351,332,351"/>
<path class="st15" d="M335.1,326.7c-0.1,0.8,0.1,1.6,0.6,2.3c1.3-1.1,1.6-3,0.6-4.4C335.7,325.2,335.3,325.9,335.1,326.7z"/>
<path class="st16" d="M334.1,328.5c0,0,2.3,6.7-0.7,9.7S332,351,332,351"/>
<path class="st15" d="M335.3,326.7c-0.2,0.8-0.6,1.5-1.2,2.1c-1-1.4-0.8-3.3,0.6-4.4C335.2,325.1,335.4,325.9,335.3,326.7z"/>
<path class="st17" d="M335.3,326.7c-0.2,0.8-0.6,1.5-1.2,2.1c-1-1.4-0.8-3.3,0.6-4.4C335.2,325.1,335.4,325.9,335.3,326.7z"/>
<path class="st16" d="M332.8,328.3c0,0-4,5.8-1.9,9.6s-1.9,12.6-1.9,12.6"/>
<path class="st15" d="M332.2,326.3c-0.1,0.8,0.1,1.6,0.6,2.3c1.3-1.1,1.6-3,0.6-4.4C332.7,324.8,332.3,325.5,332.2,326.3z"/>
<path class="st15" d="M332,331.3c0.5,0.6,1.2,1.1,2,1.2c0.2-1.7-0.9-3.3-2.6-3.5C331.3,329.9,331.5,330.7,332,331.3z"/>
<path class="st15" d="M331.3,335.6c0.5,0.6,1.2,1.1,2,1.2c0.2-1.7-0.9-3.3-2.6-3.5C330.7,334.1,330.9,334.9,331.3,335.6z"/>
<path class="st15" d="M335.5,338.6c-0.6,0.6-0.9,1.3-1.1,2.1c1.7,0.1,3.2-1.2,3.3-2.9C336.9,337.8,336.2,338.1,335.5,338.6z"/>
<path class="st15" d="M336,329.3c-0.7,0.4-1.3,1-1.6,1.8c1.6,0.5,3.4-0.3,4-1.9C337.6,329,336.8,329,336,329.3z"/>
<path class="st17" d="M336,329.3c-0.7,0.4-1.3,1-1.6,1.8c1.6,0.5,3.4-0.3,4-1.9C337.6,329,336.8,329,336,329.3z"/>
<path class="st16" d="M331.2,328.1c0,0,2.3,6.7-0.7,9.7s-1.5,12.7-1.5,12.7"/>
<path class="st15" d="M332.4,326.3c-0.2,0.8-0.6,1.5-1.2,2.1c-1-1.4-0.8-3.3,0.6-4.4C332.3,324.7,332.5,325.5,332.4,326.3z"/>
<path class="st17" d="M332.4,326.3c-0.2,0.8-0.6,1.5-1.2,2.1c-1-1.4-0.8-3.3,0.6-4.4C332.3,324.7,332.5,325.5,332.4,326.3z"/>
<path class="st15" d="M331.5,331.4c0.4,0.7,0.7,1.5,0.6,2.3c-0.2,1.7-1.8,2.9-3.5,2.7c-1.7-0.2-2.9-1.8-2.7-3.5s1.8-2.9,3.5-2.7
	C330.2,330.2,330.9,330.7,331.5,331.4z"/>
<path class="st17" d="M331.5,331.4c0.4,0.7,0.7,1.5,0.6,2.3c-0.2,1.7-1.8,2.9-3.5,2.7c-1.7-0.2-2.9-1.8-2.7-3.5s1.8-2.9,3.5-2.7
	C330.2,330.2,330.9,330.7,331.5,331.4z"/>
<path class="st15" d="M329,337.1c0.4,0.7,0.7,1.5,0.6,2.3c-0.2,1.7-1.8,2.9-3.5,2.7c-1.7-0.2-2.9-1.8-2.7-3.5s1.8-2.9,3.5-2.7
	C327.7,336,328.5,336.4,329,337.1z"/>
<path class="st16" d="M331.6,336.1c0,0-1.5-3.3-4.2-3.7"/>
<path class="st16" d="M333.4,334.5c0,0,2.3-2.8,5-2.5"/>
<path class="st16" d="M333,338.8c0,0-1.5-3.3-4.2-3.7"/>
<circle class="st15" cx="327.5" cy="332.4" r="0.5"/>
<circle class="st15" cx="338.3" cy="332" r="0.5"/>
<path class="st16" d="M331.5,339.6c0,0,2.3-2.8,5-2.5"/>
<circle class="st15" cx="336.4" cy="337.2" r="0.5"/>
<circle class="st15" cx="328.8" cy="335.2" r="0.5"/>
<path class="st18" d="M319.9,345.7c0,0,4.7-0.3,6.1-1.4s7.2-2.5,7.6-0.9s7.4,7.9,2,8.1s-12.4-0.4-13.9-1.2S319.9,345.7,319.9,345.7z
	"/>
<path class="st19" d="M335.8,351c-5.3,0.2-12.4-0.4-13.9-1.2c-1.1-0.6-1.6-3-1.8-4.1h-0.2c0,0,0.4,3.8,1.9,4.6s8.5,1.5,13.9,1.2
	c1.5-0.1,2.1-0.6,2-1.4C337.5,350.6,336.9,350.9,335.8,351z"/>
<path class="st20" d="M472.9,373c0,0-1.8,1.8,0,5.1s3.3,6.1,2.3,7.9c0,0-2.6-6-5.3-6.5S469.5,376,472.9,373z"/>
<path class="st38" d="M472.9,373c-0.2,0.2-0.3,0.4-0.4,0.6c-3.1,2.8-4.9,5.5-2.3,5.9c2.4,0.4,4.7,5,5.2,6.2c0,0.1-0.1,0.2-0.1,0.2
	c0,0-2.6-6-5.3-6.5S469.5,376,472.9,373z"/>
<path class="st21" d="M469.7,375.2c-0.1,0.7-0.1,1.3,0,1.3s0.2-0.5,0.3-1.2s0-0.4-0.2-0.4S469.8,374.5,469.7,375.2z"/>
<path class="st21" d="M468.7,375.9c0.6,0.4,1.1,0.7,1.1,0.6s-0.4-0.5-0.9-0.9s-0.4-0.1-0.4-0.1S468.1,375.4,468.7,375.9z"/>
<path class="st20" d="M480.9,374.1c0,0,1.2,2.2-1.4,4.9s-4.8,5-4.3,7c0,0,4.1-5.1,6.8-4.8S483.5,377.8,480.9,374.1z"/>
<path class="st17" d="M480.9,374.1c0.1,0.2,0.2,0.4,0.2,0.7c2.2,3.5,3.3,6.6,0.7,6.3c-2.4-0.2-5.8,3.6-6.7,4.6c0,0.1,0,0.2,0,0.3
	c0,0,4.1-5.1,6.8-4.8S483.5,377.8,480.9,374.1z"/>
<rect x="415.7" y="355.4" transform="matrix(0.7991 -0.6013 0.6013 0.7991 -130.108 325.0023)" class="st11" width="11" height="3.5"/>
<path class="st21" d="M483.4,377c-0.1,0.7-0.2,1.3-0.3,1.2s-0.1-0.6,0-1.3s0.2-0.4,0.2-0.3S483.5,376.3,483.4,377z"/>
<path class="st21" d="M484.3,378c-0.7,0.2-1.2,0.4-1.3,0.3s0.5-0.4,1.1-0.6s0.4,0,0.4,0S484.9,377.7,484.3,378z"/>
<path class="st18" d="M481.6,386.5c0,0-4.2-0.7-5.4-1.8s-6.3-2.9-6.8-1.5s-7.4,6.4-2.6,7.1s11.2,0.8,12.6,0.1
	S481.6,386.5,481.6,386.5z"/>
<path class="st19" d="M466.9,389.9c4.8,0.7,11.2,0.8,12.6,0.1c1-0.5,1.7-2.5,2-3.5h0.1c0,0-0.7,3.4-2.1,4s-7.8,0.5-12.6-0.1
	c-1.4-0.2-1.8-0.8-1.7-1.5C465.4,389.4,465.9,389.7,466.9,389.9z"/>
<linearGradient id="SVGID_8_" gradientUnits="userSpaceOnUse" x1="433.2608" y1="427.0273" x2="433.2608" y2="551.9373" gradientTransform="matrix(-0.99 -0.13 0.13 -0.99 770.5643 871.8411)">
	<stop  offset="0" style="stop-color:#808080;stop-opacity:0.25"/>
	<stop  offset="0.54" style="stop-color:#808080;stop-opacity:0.12"/>
	<stop  offset="1" style="stop-color:#808080;stop-opacity:0.1"/>
</linearGradient>
<path class="st48" d="M338.6,361.5c-1.7,12.1,6.6,23.3,18.7,25c12.1,1.7,23.3-6.6,25-18.7c1.3-8.8-2.9-17.5-10.5-22.1l-0.2-0.1
	l5.4-10.2l22,29.7c-0.6,1-0.8,2.1-0.7,3.2c-0.4,0.1-0.7,0.3-1,0.4c-1.1,0.6-2.3,0.8-3.5,0.8c0,0-2.9,1.9,2.1,2.9l0.3,0.1l-0.4,3
	l11.2,1.5l0.3-2.5c3.5,0.8,7,1.3,10.6,1.4c0.4,12.1,10.5,21.7,22.7,21.3s21.7-10.5,21.3-22.7s-10.5-21.7-22.7-21.3
	c-4,0.1-7.9,1.3-11.3,3.5l-0.3,0.2l-2.1-2.9l2.7-1.7l-4.5-3.9c-0.2,0.3-0.3,0.6-0.6,0.9L423,349c-0.6-0.4-1.4-1-2.2-1.7l0,0
	l-0.1-0.1l1-7.5v-0.3c1.1,0.2,2.2,0.3,3.3,0.4c4.8,0.2,5.8-2.8,4.3-4.8c-1.2-1.6-6.7-1.5-8.8-1.4c-0.5,0-1.1,0-1.7,0h-0.3
	c1.7-2.5,4-5.7,6.8-10.5c3.3-5.7,3.4-9.4,2.9-11.5c0-0.7-0.4-7.6-3-10.1s-4.5-5.7-7.1-14.7c-1.7-6-5.8-7.5-8.3-7.9l0,0
	c0.6-0.4,0.9-1,1.5-1.4c1.1-0.8,3-0.6,3.6-1.7c1.2-2.5-2.9-2.2-4.1-2.5s-1-1.1-1-2c-0.1-1.2-0.4-2.4-1-3.4c-0.2-0.3-0.4-0.6-0.7-0.8
	c-0.4-0.2-0.9-0.4-1.3-0.4c-1.6-0.1-3.3,0.2-4.8-0.2c-0.6-0.1-1.2-0.4-1.8-0.5c-2-0.3-4,0.7-5,2.4c-0.9,1.7-1.2,3.6-0.9,5.5
	c0,0.9,0.4,1.8,1,2.5c0.4,0.3,0.7,0.6,1,0.9c0.2,0.3,0.3,0.6,0.5,0.9c0,0.3,0,0.5,0,0.8c-0.4,0.2-0.8,0.4-1.1,0.6
	c-4.1,2.6-6.5,7.1-6.5,11.9c0,3.8-0.5,8.6-0.5,8.6c0.5,0.6,1.1,1,1.8,1.4l-0.2,3.2c0,0.7-0.1,1.4-0.3,2.1v0.9c0,0,0,0.1,0,0.2l0,0
	c0,0,0,0.1,0,0.1s0,0,0,0.1s0,0.1,0,0.1s0,0.1,0,0.1s0,0.1,0,0.2v0v0.2v0.3v0.2v0.1v0.1c0,0.2,0.1,0.5,0.1,0.8
	c0.5,2.2,0.6,4.5,0.3,6.8l-0.5,4.1c-2.9-0.4-5.8-0.4-8.7-0.2l-0.3-0.1c0,0-3.6,0-2.7,3.1l0.5,0.2l-0.1,0.3l-9.5,19.7
	c-1.8-0.7-3.6-1.2-5.5-1.5C351.4,341,340.3,349.4,338.6,361.5C338.6,361.4,338.6,361.4,338.6,361.5z M350.4,377.4l9.1-10.9
	c0.1,0.1,0.3,0.1,0.5,0.2l-2.7,13.9C354.7,380,352.4,378.9,350.4,377.4z M365.2,380.3l-2.9-14.2l0,0l10.4,9.8
	C370.7,377.9,368.1,379.5,365.2,380.3z M362.1,347.9l-1.4,13.4l-0.2,0.5c-0.4,0-0.8,0.2-1.1,0.4l-4.6-13.3
	C357.1,348,359.6,347.7,362.1,347.9L362.1,347.9z M362.5,347.9h0.4c1.3,0.2,2.6,0.5,3.8,1l-5.5,11.4L362.5,347.9z M373.8,354.1
	l1.2,1.6c0.5,0.8,0.9,1.6,1.2,2.5l-13,5.1c-0.1-0.3-0.2-0.5-0.4-0.7l6.5-12.5l0.2,0.1C371.2,351.4,372.6,352.7,373.8,354.1
	L373.8,354.1z M377.2,366.1l-14-1.6v-0.1c0-0.2,0-0.4,0-0.6l13-5.1C377.1,361,377.5,363.6,377.2,366.1L377.2,366.1z M358.2,364
	c-0.1,0.4,0,0.9,0.2,1.3l-13,5.9c-2.1-4.4-2.1-9.5,0-13.9l12.8,6.4C358.2,363.9,358.2,363.9,358.2,364L358.2,364z M354.5,349
	l4.7,13.4c-0.3,0.3-0.5,0.6-0.7,1l-12.8-6.4C347.5,353.3,350.6,350.5,354.5,349L354.5,349z M382,325.7l5.3,2.4
	c0.1,0.3,0.3,0.6,0.5,0.9c0-0.2,0-0.4,0-0.6l8.9,4l-0.6,3.3l-15.6-7.2l1.3-2.5L382,325.7z M429.8,388l9-10.9
	c0.2,0.1,0.3,0.1,0.5,0.1l-2.8,13.9C434.1,390.6,431.8,389.5,429.8,388L429.8,388z M444.6,390.8l-2.9-14.2l0,0l10.4,9.8
	C450,388.5,447.4,390.1,444.6,390.8L444.6,390.8z M442.5,375c0-0.2,0-0.4,0-0.6l13.3-5.2c0.9,2.4,1.2,4.9,1,7.5L442.5,375z
	 M441.5,358.5l-1.4,14l0,0c-0.3-0.1-0.6-0.1-0.9,0l-0.8-1l-4.2-12.1C436.6,358.6,439,358.3,441.5,358.5z M436.5,373.4l-11.5-5.8
	c0.8-1.6,1.8-3,3-4.2L436.5,373.4z M437.3,374.3c-2.2-0.9-7.4-2.9-13-4.9l0.1-0.3c0.2-0.4,0.3-0.8,0.5-1.2l12.3,6.2L437.3,374.3z
	 M441.9,358.5h0.3c2.1,0.3,4,0.9,5.9,1.9l-6.7,12.5c-0.3-0.2-0.6-0.4-1-0.4L441.9,358.5z M448.4,360.7c1.8,1.1,3.4,2.4,4.7,4.1
	l1.2,1.7c0.5,0.8,0.9,1.6,1.2,2.5l-13.3,5.2c-0.1-0.3-0.3-0.6-0.5-0.8L448.4,360.7z M437.6,376l-12.7,5.8c-0.9-1.8-1.4-3.8-1.5-5.8
	C429.4,376.2,435.1,376.1,437.6,376L437.6,376z M419.1,367.6l-1.3-0.4v-0.3l0.5-4.1l5.7-4.2l0.5,0.6c-2.4,2.3-4.2,5.1-5.4,8.1
	L419.1,367.6z M419.1,357.9l0.1-0.1L419.1,357.9L419.1,357.9z M415.6,354.7c-0.7,1.4-1.7,2.7-2.9,3.7l0.9-6.5
	c0.4-0.7,0.7-1.5,0.9-2.3l0.2,0.2l0.1,0.1l0.2,0.2l0.1,0.1l0.2,0.1l0.1,0.1l0.1,0.1l0.1,0.1l0.1,0.1l0.2,0.2l0,0L415.6,354.7z
	 M398.6,322.3l-2.6-0.4c1.2-0.9,2.3-1.7,2.3-1.7l0.8-0.5L398.6,322.3z M397.4,329.1l-6.4-3.2c0.4-0.1,0.9-0.2,1.3-0.3l0.1-0.1
	c2.1,0.3,4.1,0.5,5.6,0.6L397.4,329.1z M394.6,317.4c0.2-1.5,0.5-3,1.1-4.4l0.1-0.1l0,0v-0.1l0,0l0-0.2l0,0v-0.2l0,0
	c0-0.1,0.1-0.3,0.1-0.5l0,0c0-0.2,0.1-0.4,0.1-0.6l0,0v-0.3l0,0c0-0.2,0.1-0.5,0.1-0.7l0,0c0-0.2,0.1-0.5,0.1-0.8l0,0
	c0-0.3,0-0.5,0.1-0.8l0,0v-0.4v-0.1v-0.4l0,0v-0.4v-0.1v-0.3V307v-0.4v-0.2v-0.2v-0.2V306v-0.5v-0.1c0.1-1.4,0.2-2.9,0.2-4V301
	c2.9,1.6,4.2,4.6,4.8,7.4c-1.5,1.9-2.8,3.9-3.9,6C397.3,314.3,396.4,315.5,394.6,317.4L394.6,317.4z M414,366.1
	c-0.9-0.2-1.7-0.4-2.4-0.6l0.5-3.2l0,0l2.7-1.7l-0.7,5.2L414,366.1z M417.7,339l-0.7,5c-0.6-0.6-1.2-1.2-1.9-1.8h0.1l0.4-2.8
	c0-0.5,0.1-0.9,0.3-1.4c0.6,0.2,1.2,0.4,1.8,0.5L417.7,339z M431,361c0.9-0.6,1.8-1,2.8-1.4l3.8,11l-6.9-9.4L431,361z M452.4,386.1
	l-10.4-9.8c0.2-0.3,0.3-0.6,0.4-0.9l14.2,1.7v0.1C456.1,380.5,454.7,383.7,452.4,386.1L452.4,386.1z M437,391.2l2.8-13.9
	c0.6,0.1,1.2-0.1,1.6-0.4l2.8,14c-2.1,0.5-4.3,0.7-6.4,0.4L437,391.2z M425,382.2l12.8-5.8c0.2,0.2,0.4,0.5,0.7,0.6l-9,10.8
	C427.6,386.3,426.1,384.4,425,382.2L425,382.2z M378.5,332.4l0.5-0.9l26.9,13.4l0.4,8.8c0,1.2,0.2,2.5,0.5,3.7
	c0.3,2.1,0.1,4.3-0.6,6.4c-0.6-0.4-1.3-0.7-2.1-0.8h-0.1h-0.1c-0.4-0.1-0.9-0.1-1.3,0L378.5,332.4z M373,375.5l-10.4-9.8l0.1-0.2
	c0.2-0.2,0.3-0.4,0.4-0.7l14.1,1.7l0,0C376.8,369.9,375.3,373.1,373,375.5z M357.5,380.5l2.8-13.9c0.6,0.1,1.2-0.1,1.6-0.4l2.8,14
	c-2.1,0.5-4.3,0.7-6.4,0.4L357.5,380.5z M345.6,371.5l13-5.9c0.2,0.2,0.3,0.4,0.6,0.6l-9.1,10.9
	C348.2,375.6,346.7,373.7,345.6,371.5z"/>
<path class="st49" d="M350.7,376.8l10.8-13.1l-0.6,0.2l-16.3,7.6l0.1-16.8l16.9,8.6v-0.1v-0.1l-1-1l-5.6-16.4l8.4-0.4v-0.3h0.4v0.2
	l5.7-0.2l1.3,1.8l0.2-0.3l5.9,9.1l4,5.8l-1.2,3.9l-16.5-1.9v-0.4l16.1,1.9l1-3.5l-2.9-4.2l-15.1,6l0.8,0.7h0.1l0,0l12.1,11.5
	l-9.1,4.9l-3.2-16.1l-1.1-0.5l0,0l-3.5,17.6L350.7,376.8z M351.3,376.8l6.8,4.1l3.3-16.4L351.3,376.8z M363.5,364.8l3,15.1l8.3-4.4
	L363.5,364.8z M345.1,355.3l-0.1,15.7l15.8-7.3l0.4-0.2L345.1,355.3z M370.6,347.3l-1.3-1.8l-5.5,0.2l-1.8,17.2l0.1,0.1l0.5-0.7
	L370.6,347.3z M376.6,355.9l-5.8-8.3l-7.8,14.9l-0.3,0.4l14.6-5.8L376.6,355.9z M355.6,346l5.4,15.8l0.7,0.7l1.7-16.9L355.6,346z"/>
<path class="st49" d="M428,387.2l10.8-13.1l-0.6,0.2l-16.3,7.6L422,365l16.9,8.6v-0.1v-0.1l-1-1l-5.6-16.4l8.4-0.4v-0.3h0.4v0.2
	l5.7-0.2l1.3,1.8l0.2-0.3l5.9,9.1l4,5.8l-1.2,3.9l-16.5-1.9v-0.4l16.1,1.9l1-3.5l-2.9-4.2l-15.1,6l0.8,0.7h0.1l0,0l12.1,11.5
	l-9.2,4.8l-3.2-16.1l-1.1-0.5l0,0l-3.5,17.6L428,387.2z M428.6,387.1l6.8,4.1l3.3-16.4L428.6,387.1z M440.8,375.1l3,15.1l8.3-4.4
	L440.8,375.1z M422.4,365.6l-0.1,15.7l15.8-7.3l0.4-0.2L422.4,365.6z M447.9,357.6l-1.3-1.8l-5.5,0.2l-1.8,17.2l0.1,0.1l0.5-0.7
	L447.9,357.6z M453.9,366.2l-5.8-8.3l-7.8,14.9l-0.3,0.4l14.6-5.8L453.9,366.2z M432.9,356.3l5.4,15.8l0.7,0.7l1.7-16.9L432.9,356.3
	z"/>
<rect x="415.7" y="355.4" transform="matrix(0.7991 -0.6013 0.6013 0.7991 -130.108 325.0023)" class="st13" width="11" height="3.5"/>
<path class="st50" d="M423.2,348.5c-2-1.4-3.9-3-5.7-4.7c-0.9-1.1-1.9-2-3-2.9l-5.2-4.2l-11.7-2.5l-0.8,1.9c0,0-1.3,2.8,7.4,6.5
	s12.7,8.4,12.7,8.4S422.4,353.8,423.2,348.5z"/>
<path class="st17" d="M416.5,350.6c0.3,0.3,0.4,0.5,0.4,0.5s5.5,2.8,6.2-2.5l-0.7-0.5c-1.1,1.4-2.9,2.1-4.6,1.8l-0.6-0.1
	L416.5,350.6z"/>
<path class="st34" d="M396.8,337.2c0.4,1.1,1.9,3.1,7.4,5.5c4.6,1.9,8.7,4.5,12.3,7.9c0.3,0.3,0.4,0.5,0.4,0.5s5.5,2.8,6.2-2.5
	l-0.7-0.5c-1.8-1.3-3.5-2.7-5-4.2c-0.9-1.1-1.9-2-3-2.9l-5.3-4.2l-2.1-0.4l-9.6-2l-0.8,1.9C396.7,336.5,396.7,336.9,396.8,337.2z"/>
<path class="st51" d="M423.2,347.4l4.4,3.8l-15.7,9.9c0,0-1.9-1.5-0.6-2.9c0,0,4-2.6,4.8-6.9l1.3-1.3l0.6,0.1
	C420.2,350.4,422.3,349.3,423.2,347.4L423.2,347.4z"/>
<path class="st17" d="M396.8,337.2c3.1-1,10.2-0.2,10.2-0.2l0.2-0.7l-9.6-2l-0.8,1.9C396.7,336.5,396.7,336.9,396.8,337.2z"/>
<path class="st51" d="M407,336.6c0,0-8.5-1-11,0.6l4-21.8l11.8,1.6L407,336.6z"/>
<path class="st34" d="M407,336.5c0,0-8.5-1-11,0.6l4-21.8l11.8,1.6L407,336.5z"/>
<path class="st49" d="M340.4,360.4c-1.6,11.8,6.7,22.6,18.5,24.2c11.8,1.6,22.6-6.7,24.2-18.5c1.1-8.5-2.9-16.9-10.2-21.3
	c-0.9-0.5-1.7-1-2.7-1.4c-10.9-4.7-23.6,0.4-28.3,11.4C341.2,356.6,340.7,358.5,340.4,360.4L340.4,360.4z M345.7,361
	c1.2-8.9,9.4-15.1,18.3-13.9c1.4,0.2,2.7,0.5,4,1.1c0.9,0.4,1.7,0.8,2.5,1.3c7.6,4.8,9.9,14.8,5.1,22.4c-4.8,7.6-14.8,9.9-22.4,5.1
	C347.8,373.5,344.9,367.3,345.7,361L345.7,361z"/>
<path class="st49" d="M402,322.3c0,0-21.2-3.6-22-0.9s21.1,4.5,21.1,4.5C402.2,325,402.6,323.5,402,322.3z"/>
<path class="st34" d="M402,322.3c0,0-21.2-3.6-22-0.9s21.1,4.5,21.1,4.5C402.2,325,402.6,323.5,402,322.3z"/>
<polygon class="st52" points="408.3,383 408.3,383 408.3,383 408.3,383 "/>
<rect x="400.9" y="350.4" transform="matrix(0.1333 -0.9911 0.9911 0.1333 12.7002 719.0724)" class="st13" width="33.1" height="3.8"/>
<path class="st17" d="M417.8,335.6l-0.3,2.5c1.2,0.3,2.5,0.6,3.7,0.8l0.4-2.8L417.8,335.6z"/>
<path class="st49" d="M418.4,332.9c0.5,0,1.1,0,1.6,0c2.1-0.1,7.4-0.2,8.6,1.3c1.5,2,0.5,5-4.2,4.8s-12.5-2.4-13.9-4.4
	C413,333.3,415.7,332.7,418.4,332.9z"/>
<polygon class="st13" points="417.6,344.8 379.6,327.1 377.9,330 416.7,349.4 "/>
<polygon class="st13" points="403.2,362.6 378.4,330.6 376.5,332.7 400,364.8 "/>
<path class="st17" d="M368,348.1c0.9,0.4,1.7,0.8,2.5,1.3l2.4-4.6c-0.9-0.5-1.7-1-2.7-1.4L368,348.1z"/>
<polygon class="st13" points="361.2,361.7 363.1,363.1 382.6,325.4 383.5,323.8 380.4,321.4 379.2,323.9 "/>
<polygon class="st17" points="379.2,323.9 382.6,325.4 383.5,323.8 380.4,321.4 "/>
<path class="st49" d="M400.4,329.9l-19-9.5c0,0-3.5,0-2.6,3L398,332C398,332,401,332.8,400.4,329.9z"/>
<path class="st49" d="M417.7,370.7c-0.1,1.1-0.2,2.2-0.2,3.4c0.3,12,10.2,21.5,22.2,21.3c12-0.3,21.5-10.2,21.3-22.2
	c-0.3-12-10.2-21.5-22.2-21.3C428.1,352.1,419.2,360.1,417.7,370.7z M422.9,374.3c-0.1-2.2,0.2-4.4,1-6.5
	c3.1-8.4,12.5-12.7,20.9-9.6c8.4,3.1,12.7,12.5,9.6,20.9s-12.5,12.7-20.9,9.6C427.4,386.4,423.2,380.8,422.9,374.3z"/>
<path class="st17" d="M417.7,370.7c-0.1,1.1-0.2,2.2-0.2,3.4c1.8,0.1,3.6,0.2,5.4,0.2c-0.1-2.2,0.2-4.4,1-6.5
	c-1.7-0.6-3.4-1.2-5-1.7C418.3,367.6,417.9,369.1,417.7,370.7z"/>
<path class="st17" d="M413.9,364.5l-0.5,3.9l3.8,0.5l0.4-3.3C416.3,365.3,415.1,364.9,413.9,364.5z"/>
<path class="st13" d="M437.6,373.3c0,0-29.4-12.1-32.3-9.4s-6,6.4,1.5,8.9s31.2,1.7,31.2,1.7L437.6,373.3z"/>
<path class="st17" d="M424.4,357.8l3.4,4.1c0.8-0.8,1.7-1.5,2.6-2.1l-3.1-4.3C426.2,356.2,425.3,357,424.4,357.8z"/>
<polygon class="st13" points="438.8,371.8 419.2,345 417.7,350.4 437.3,373.9 "/>
<ellipse transform="matrix(0.1333 -0.9911 0.9911 0.1333 10.2209 758.6295)" class="st17" cx="438.9" cy="373.5" rx="2.3" ry="2.3"/>
<ellipse transform="matrix(0.1333 -0.9911 0.9911 0.1333 10.4332 758.9481)" class="st49" cx="439.1" cy="373.5" rx="2.3" ry="2.3"/>
<circle class="st17" cx="362" cy="362.9" r="2.3"/>
<circle class="st49" cx="361.8" cy="363.2" r="2.3"/>
<circle class="st17" cx="401.4" cy="365.5" r="4.7"/>
<circle class="st49" cx="403.2" cy="366.3" r="4.7"/>
<path class="st15" d="M398.8,372.7l-0.7-0.7c-0.3-0.3-0.3-0.8,0-1l5.1-5.2c0.3-0.3,0.8-0.3,1,0l0.7,0.7c0.3,0.3,0.3,0.8,0,1
	l-5.1,5.2C399.5,373,399.1,373,398.8,372.7z"/>
<path class="st50" d="M390.9,299l-0.3,5.5c-0.1,0.7-0.2,1.4-0.4,2c-0.2,1.1-0.1,2.3,0.1,3.4c0.5,2.2,0.6,4.4,0.3,6.7l-0.8,6.2
	l4.3-0.2c0,0,1-8.7,1.9-10.1s1.4-14.4,1.4-14.4L390.9,299z"/>
<path class="st34" d="M390.7,301.7l-0.1,2.8c-0.1,0.7-0.2,1.4-0.4,2c-0.2,1.1-0.1,2.3,0.1,3.4c0.5,2.2,0.6,4.4,0.3,6.7l-0.8,6.2
	l4.3-0.2c0,0,1-8.7,1.9-10.1c0.6-1,1.1-7.8,1.3-11.7c0.1-1.6,0.1-2.7,0.1-2.7l-6.6,0.8L390.7,301.7z"/>
<path class="st50" d="M405.9,343.5l0.4,9.1c0,1.2,0.2,2.4,0.5,3.6c0.6,2.6-0.5,6.1-1.2,8c-0.3,0.8-0.5,1.3-0.5,1.3l4.4,3.2l1.6-0.9
	l0.1-0.7l2.3-16.1c1.2-2.4,1.6-5.2,1-7.8c-0.1-0.5-0.2-1-0.2-1.5c0-1.6,0-3.2,0.1-4.7c0,0-2.2-5.3-6.1-2.5c-1.3,1-2.2,2.4-2.4,4
	C405.5,340.1,405.5,341.8,405.9,343.5z"/>
<path class="st17" d="M405.8,338.4c2.3,1.8,6.6,2.8,8.4,3.2c0-1.6,0-3.2,0.1-4.7c0,0-2.2-5.3-6.1-2.5
	C407,335.3,406.1,336.8,405.8,338.4z"/>
<path class="st51" d="M400.3,333.1c1.8,1.3,3.5,2.7,5,4.4c2.6,2.8,9.8,3.9,9.8,3.9l0.4-2.7c0.3-3.3,3.8-6.5,9.4-16.1
	c3.5-6.1,3.3-9.9,2.7-11.8c-0.2-0.6-0.5-1.1-0.8-1.6l-23.3,1.3l-1.2,2.3l-2.4,5c0,0,6.3,1.2,7.3,1.9s-0.4,5.5-0.4,5.5
	C407.1,330.3,400.3,333.1,400.3,333.1z"/>
<path class="st17" d="M390.9,299l-0.1,2.7c3,1.3,5.7-1.2,5.7-1.2c0.3,0.1,0.6,0.3,0.9,0.5c0.1-1.6,0.1-2.7,0.1-2.7L390.9,299z"/>
<path class="st17" d="M402.2,312.8c0,0.9-0.1,1.4-0.1,1.4s3.7,4,11.5-0.3s13.9-2,13.9-2s0-0.4-0.1-1.1c-0.2-0.6-0.5-1.1-0.8-1.6
	l-23.3,1.3L402.2,312.8z"/>
<path class="st8" d="M389.4,291.5c0,3.8-0.5,8.4-0.5,8.4c3.7,3.8,7.6,0.1,7.6,0.1c3.8,1.6,5.2,5.3,5.6,8.4c0.2,1.7,0.3,3.4,0.1,5.1
	c0.8,0.8,1.9,1.3,3,1.5c1.9,0.4,4.7,0.3,8.5-1.8c7.8-4.3,13.9-2,13.9-2s-0.3-7.4-2.9-10s-4.4-5.6-6.9-14.4s-10.2-7.8-10.2-7.8
	s-0.1-1.7-7.1-1c-1.7,0.2-3.3,0.8-4.7,1.7C391.8,282.3,389.4,286.8,389.4,291.5z"/>
<path class="st50" d="M397.5,281.9c0,0.2,0,0.5,0,0.8c-0.1,3.3,0.3,3,4.2,4.3c2.4,0.8,4-1.1,4.8-2.7c0.3-0.6,0.6-1.2,0.8-1.8
	l-8.5-2.6C398.8,279.9,397.8,279.5,397.5,281.9z"/>
<path class="st34" d="M402.1,308.5c0.2,1.7,0.3,3.4,0.1,5.1c0.8,0.8,1.9,1.3,3,1.5c0.1-0.1,0.1-0.2,0.2-0.3c0.6-1.6,3.7-4.1,3.7-4.1
	c1.3-1.1,2.3-2.6,2.8-4.2l4.2-8.4l1.1-0.7c0,0-3.7-3.8-7.7-1.6s-3.7,8.2-3.7,8.2l-1,1.9C403.7,306.6,402.8,307.5,402.1,308.5z"/>
<path class="st50" d="M416.6,297.1l-5.3,9.1c-0.5,1.7-1.4,3.2-2.8,4.2c0,0-3.1,2.5-3.7,4.1s-6.2,5.2-6.2,5.2s-5.3,3.7-5.9,5.3
	c0,0-4.5,0.7-4.3,3.3c0,0-2.8-3.7,0.9-6.4s8.9-8.4,8.9-8.4s3.4-6.4,6.1-8l1-1.9c0,0-0.3-6,3.7-8.2S416.6,297.1,416.6,297.1z"/>
<path class="st17" d="M405,365.5l4.4,3.2l1.6-0.9l0.1-0.7c-1.6-0.3-3.1-1-4.5-2c-0.4-0.3-0.8-0.6-1.1-0.9
	C405.2,365,405,365.5,405,365.5z"/>
<path class="st17" d="M409.8,288.4l-3.9,9.6c0,0,7.6,2.3,9.4,1.3c1.6-0.7,3.2-1,4.9-1c0,0-2-9.9-3.7-11.2S409.8,288.4,409.8,288.4z"
	/>
<path class="st8" d="M409.9,288l-3.9,9.6c0,0,7.6,2.3,9.4,1.3c1.6-0.7,3.2-1,4.9-1c0,0-2-9.9-3.7-11.2S409.9,288,409.9,288z"/>
<path class="st17" d="M397.6,281.7c1.7,3.1,5.6,4.3,8.7,2.6c0.1-0.1,0.2-0.1,0.3-0.2c0.3-0.6,0.6-1.2,0.8-1.8l-8.5-2.6
	C398.8,279.7,397.8,279.3,397.6,281.7z"/>
<path class="st50" d="M396.9,277.6c-0.4,3.5,2.2,6.7,5.7,7c3.4,0.4,6.4-2,7-5.3c0-0.1,0-0.2,0-0.3c0.4-3.5-2.2-6.7-5.7-7.1
	C400.4,271.6,397.2,274.1,396.9,277.6L396.9,277.6z"/>
<path class="st17" d="M396.9,277.6c-0.1,0.6-0.1,1.2,0,1.8c0.5,0.2,1,0.2,1.5,0.1c0.7-0.2,1.4-0.6,2-0.8c2-0.7,4.1-0.2,6.1,0.4
	c1,0.4,2,0.4,3,0l0.1-0.1c0.4-3.5-2.2-6.7-5.7-7.1C400.4,271.5,397.3,274.1,396.9,277.6L396.9,277.6z"/>
<rect x="399.9" y="367.5" transform="matrix(0.1333 -0.9911 0.9911 0.1333 -21.533 721.3879)" class="st11" width="3.5" height="11"/>
<path class="st53" d="M414.7,276c-0.5,1.2-2.4,1-3.5,1.7c-0.6,0.4-0.9,1-1.5,1.4c-0.9,0.3-1.9,0.3-2.9-0.1c-1.9-0.5-4-1-5.8-0.4
	c-0.7,0.2-1.3,0.5-2,0.7c-0.7,0.2-1.5,0.1-2-0.4c-0.4-0.4-0.5-1-0.8-1.4c-0.3-0.3-0.6-0.6-1-0.9c-0.6-0.7-1-1.6-1-2.5
	c-0.3-1.9,0-3.7,0.9-5.4c1-1.7,2.9-2.6,4.9-2.4c0.6,0.1,1.1,0.4,1.7,0.5c1.5,0.4,3.1,0.1,4.7,0.2c0.5,0,0.9,0.1,1.3,0.4
	c0.3,0.2,0.5,0.5,0.7,0.8c0.6,1,0.9,2.2,1,3.4c0.1,0.9,0,1.7,1,2S415.9,273.5,414.7,276z"/>
<path class="st34" d="M423.9,301.1c0,0-4.9,0.6-6.8,3.7s-5.9,3.1-5.9,3.1"/>
<rect x="399.9" y="367.5" transform="matrix(0.1333 -0.9911 0.9911 0.1333 -21.533 721.3879)" class="st13" width="3.5" height="11"/>
<path class="st51" d="M406.6,365.4c-0.7-0.4-1.2-1-1.7-1.6c-1.5,1.2-3.2,2.2-5.1,2.8c-0.8,0.2-1.5,0.4-2.2,0.8
	c-1,0.5-2.2,0.8-3.4,0.8c0,0-2.8,1.8,2,2.9s16.5,1.3,16.5,1.3l-0.1-4.6l0,0C410.3,367.5,408.3,366.7,406.6,365.4z"/>
<linearGradient id="SVGID_9_" gradientUnits="userSpaceOnUse" x1="555.6472" y1="-10.6852" x2="555.6472" y2="627.4411" gradientTransform="matrix(-1 0 0 -1 816.0699 773.43)">
	<stop  offset="0" style="stop-color:#808080;stop-opacity:0.25"/>
	<stop  offset="0.54" style="stop-color:#808080;stop-opacity:0.12"/>
	<stop  offset="1" style="stop-color:#808080;stop-opacity:0.1"/>
</linearGradient>
<path class="st54" d="M106.1,276c0-0.5,0-1,0.1-1.4c0.1-0.5,0.2-1,0.3-1.6c0.2-1,0.4-2,0.6-3c0.1-0.5,0.2-1,0.4-1.4
	c1.4-5.4,4-10.3,7.5-14.6l0.6-0.7c0.4-0.5,0.8-0.9,1.2-1.3c0.4-0.4,0.8-0.8,1.2-1.1c0.4-0.4,0.8-0.7,1.1-1c0.7-0.6,1.4-1.1,2-1.5
	s0.8-0.6,1.2-0.8c0.9-0.5,1.8-0.8,2.8-0.9l6.2-0.6l0,0l8.3-0.8l30.1-11.9l1.2,0.4c0.9-2.5,1.6-5,2.2-7.5c-0.9-0.4-1.7-1-2.4-1.8
	c-0.7-0.6-1.3-1.3-1.6-2.1c-0.8-1.8,0.7-5.6,0.4-7.8c-0.5-3.5-2.3-6.9-3.7-10c-3.1-6.8-5.4-14.1-5-21.6s3.7-15,9.9-19.2
	c3.2-2.1,7-3.3,10.3-5.3c2.6-1.5,4.9-3.5,7.3-5.2c12.3-8.4,28.1-9.5,41.5-3c6.3,3.1,11.6,7.8,17.5,11.6s12.9,6.6,19.8,5.5
	c0.1,0.3,0.2,0.6,0.2,0.9l0.6-0.1c1.2,3.3-1.7,6.6-4.4,8.8c-5.1,4.3-10.9,8.5-17.5,8.7c-2.6,0.1-5.3-0.5-7.6,0.6
	c-0.5,0.2-1,0.5-1.4,0.9c3,12.3-1,25.2-10.4,33.6l15.4-5.6c0,0,0.6,0.3,1.6,1l21.4-14.5c0,0,42.8-15.9,54.7,8.7
	s-51.6,11.9-51.6,11.9l-13.6,7.6c0.4,2.8-0.1,5.8-1.5,8.3l-37,23.3c7.5,2.3,19.8,6.1,22,6.1c3.2,0,11.9,3.2,17.5,15.9
	s25.4,74.6,42.8,84.9s63.5,79.3,63.5,79.3l-0.2,0.5c0.8,0.2,1.6,0.5,2.4,0.7c11.5,3.8,19.2,11.8,23.9,18.3c2.5,3.5,1.7,8.4-1.9,10.9
	c-1,0.7-2.2,1.2-3.5,1.4c-18.2,2.3-28.1-6.2-32.9-12.6c-0.3-0.4-0.6-0.8-0.9-1.2c-1.4,0.6-3,0.7-4.5,0.2L322,447.4
	c0,0,17.4,17.4,7.2,33.2l0.8,1.1c17.2,25,29.8,52.8,37.2,82.3c0,0,9.5,7.1,10.3,35.7s10.3,74.6,10.3,74.6s6.4,54.7,2.4,71.4
	c0,0-0.5,0.7-1.3,1.7c0.3,0.4,0.6,0.7,1,1.2c3.5,3.8,9.7,9,17,7.5c11.1-2.4,11.1,17.5-4.8,19c-10.2,1-30.3,5.7-43.3,8.8
	c-4.9,1.2-9.9-1.8-11.1-6.7c-0.3-1-0.3-2.1-0.2-3.2c0.8-7.1,2.2-15.7,4.8-21.8c0.2-0.4,0.3-0.8,0.5-1.1c-0.5-0.4-0.9-0.9-1.4-1.4
	c0,0,0-34.9-5.5-44.4c0,0-15.1-72.2-14.3-90.4c0.6-14.2-39.1-69.8-56.4-93.3l0.1-0.9c-4.4-6-7.2-9.7-7.2-9.7l-13.5,86.5
	c0,0-6.4,19-14.3,29.3c0,0-34.1,65.8-38.1,86.5c-3,15.6-9.2,24.9-12,28.4c0.3,0.3,0.7,0.7,1,1c3.6,3.4,8.9,6.7,15,5.5
	c11.1-2.4,11.1,17.5-4.8,19c-10.2,1-30.3,5.7-43.3,8.8c-4.9,1.2-9.9-1.8-11.1-6.7c-0.3-1-0.3-2.1-0.2-3.2c0.9-8.3,2.7-18.5,6.1-24.6
	c0.3-0.5,0.6-1,0.9-1.4c-1.2-0.5-2.3-1.3-3.1-2.3c0,0,20.6-50,20.6-63.5c0,0,8.7-51.6,38.1-70.6c0,0-2.8-64.5-11.1-100.4
	c-0.2-0.9-0.4-1.8-0.6-2.6c-7.8-1.2-15.5-2.9-23.1-4.9l-0.8-23.8l-4,19l-44.5-27.7c0,0,0.4-5,1.1-12.7c0.4-3.8,0.8-8.3,1.4-13.2
	c0.4-3.9,0.9-8,1.5-12.3c0.1-1.1,0.3-2.1,0.4-3.2c0.6-4.3,1.2-8.6,1.9-12.8c0.3-1.6,0.5-3.2,0.8-4.7c0.4-2.1,0.7-4.1,1.1-6.1
	c0.2-1,0.4-2,0.6-2.9c0.2-1,0.4-1.9,0.6-2.8c0.2-0.9,0.4-1.8,0.6-2.7l0.3-1.3c0.2-0.9,0.4-1.7,0.7-2.5c0.9-3.4,1.5-6.9,1.6-10.4
	c0.1-1.4,0.1-2.8,0-4.2c-0.1-1.4-0.2-2.8-0.4-4.2c-0.1-0.7-0.2-1.4-0.3-2.1c-0.5-2.8-1.3-5.5-2.2-8.1c-0.5-1.3-1-2.6-1.7-3.9
	c-1.4-3-3-6.2-4.6-9.7c-0.8-1.7-1.6-3.5-2.4-5.2c-0.8-1.8-1.6-3.6-2.4-5.4c-7.7-17.5-15.3-37-17.4-49.8c-0.2-1.4-0.4-2.6-0.4-3.8
	C106.1,278.2,106.1,277.1,106.1,276z"/>
<path class="st55" d="M238.6,227.2l26.2-17.7c0,0,41.5-15.4,53.1,8.5s-50,11.5-50,11.5l-26.2,14.6L238.6,227.2z"/>
<path class="st49" d="M161.2,766.6c12.6-3.1,32.1-7.6,42-8.6c15.4-1.5,15.4-20.8,4.6-18.5c-5.8,1.2-11-2-14.5-5.3
	c-1.1-1-2.1-2.1-3-3.3c-1.3-1.5-3-2.6-5-3c-5.8-1.3-17.8-3.2-25.2,0.8c-1.7,1.1-3.1,2.6-4,4.4c-3.3,5.9-5,15.8-5.9,23.8
	c-0.5,4.9,3,9.3,7.9,9.8C159.2,766.9,160.2,766.9,161.2,766.6z"/>
<path class="st49" d="M355.9,774.3c12.6-3.1,32.1-7.6,42-8.6c15.4-1.5,15.4-20.8,4.6-18.5c-7,1.5-13.1-3.6-16.5-7.3
	c-0.4-0.5-0.8-0.9-1.1-1.3c-1.3-1.5-3-2.6-5-3c-5.8-1.3-17.8-3.2-25.2,0.8c-2.2,1.2-3.9,3.7-5.3,7c-2.5,5.9-3.9,14.3-4.6,21.2
	c-0.5,4.9,3,9.3,7.9,9.8C353.8,774.6,354.9,774.5,355.9,774.3z"/>
<path class="st17" d="M349.5,743.5c18.4,18.9,34.1-0.3,36.5-3.5c-0.4-0.5-0.8-0.9-1.1-1.3c-1.3-1.5-3-2.6-5-3
	c-5.8-1.3-17.8-3.2-25.2,0.8C352.6,737.6,350.9,740.2,349.5,743.5z"/>
<path class="st17" d="M156.2,733.1c8,5.4,34.8,4.1,34.8,4.1c0.9-0.9,1.7-1.9,2.4-3c-1.1-1-2.1-2.1-3-3.3c-1.3-1.5-3-2.6-5-3
	c-5.8-1.3-17.8-3.2-25.2,0.8C158.5,729.9,157.1,731.4,156.2,733.1z"/>
<path class="st56" d="M154.8,729.5c5.4,6.9,36.2,5.4,36.2,5.4s9.2-9.2,13.1-29.2s36.9-83.9,36.9-83.9c7.7-10,13.9-28.5,13.9-28.5
	l13.1-83.8c0,0,63.1,83.1,62.4,100.8s13.9,87.7,13.9,87.7c5.4,9.2,5.4,43.1,5.4,43.1c20,20.8,36.9-3.8,36.9-3.8
	c3.9-16.2-2.3-69.2-2.3-69.2s-9.2-44.6-10-72.3s-10-34.6-10-34.6c-7.2-28.5-19.4-55.6-36.1-79.8c-4.7-6.7-7.7-10.2-7.7-10.2
	l-124.7,14.6c2,4,3.8,9.7,5.4,16.5c8.1,34.8,10.8,97.4,10.8,97.4C183.2,618,174.8,668,174.8,668
	C174.8,681.1,154.8,729.5,154.8,729.5z"/>
<g class="st35">
	<path d="M274.7,519.8l1.6-10.2c0,0,63.1,83.1,62.3,100.8s13.9,87.7,13.9,87.7c5.4,9.2,5.4,43.1,5.4,43.1c4.2,4.3,8.2,6.7,12,7.7
		c-6.1,1.6-13.4,0.4-21.3-7.7c0,0,0-33.8-5.4-43.1c0,0-14.6-70-13.9-87.7C330,596.5,291.5,542.5,274.7,519.8z"/>
	<path d="M174,668c0,0,8.5-50,36.9-68.5c0,0-2.7-62.5-10.8-97.4c-1.6-6.8-3.4-12.5-5.4-16.5L319.4,471c0,0,0.3,0.3,0.8,1L204,485.7
		c2,4,3.8,9.7,5.4,16.5c8.1,34.8,10.8,97.4,10.8,97.4C191.7,618,183.2,668,183.2,668c0,13.1-20,61.5-20,61.5
		c3.2,4.1,15.2,5.2,24.5,5.5c-7.4,0.2-29.3,0.3-33.7-5.5C154,729.5,174,681.1,174,668z"/>
</g>
<path class="st55" d="M343.2,460.3c0.9,2.3,2.2,4.4,3.6,6.4c4.6,6.2,14.2,14.5,31.9,12.2c4.1-0.5,7.1-4.3,6.5-8.5
	c-0.2-1.2-0.6-2.4-1.3-3.4c-4.5-6.3-12-14.1-23.2-17.8c-3.2-1.1-6.5-1.7-9.8-2L343.2,460.3z"/>
<path class="st57" d="M180.8,245.1l61.7-22.6c0,0,17.7,9.2,10.7,22.3l-60,37.7L180.8,245.1z"/>
<path class="st58" d="M180.8,245.1l61.7-22.6c0,0,17.7,9.2,10.7,22.3l-60,37.7L180.8,245.1z"/>
<path class="st55" d="M178.6,207.9c0,0,0.8,36.2-15.4,48.5c-16.2,12.3,46.9,19.2,46.9,19.2s-10-36.9,0-56.2S178.6,207.9,178.6,207.9
	z"/>
<path class="st17" d="M195.5,485.7c2,4,3.8,9.7,5.4,16.5c74.4,11.4,126.2-19.6,126.2-19.6c0.3-0.5,0.5-0.9,0.8-1.3
	c-4.7-6.6-7.7-10.2-7.7-10.2L195.5,485.7z"/>
<path class="st17" d="M343.2,460.3c0.9,2.3,2.2,4.4,3.6,6.4c7.1-1.2,12.8-14.8,13.9-17.5c-3.2-1.1-6.5-1.7-9.8-2L343.2,460.3z"/>
<path class="st8" d="M172.5,240.2l27.7,10l11.5,15.4c0,0,23.9,7.7,26.9,7.7s11.5,3.1,16.9,15.4s24.6,72.3,41.5,82.3
	s61.5,76.9,61.5,76.9s-7.7,20.8-16.9,17.7L320.2,448c0,0,16.9,16.9,6.9,32.3c0,0-63.1,37.7-150,14.6l-0.8-23.1l-3.9,18.5l-43.1-26.9
	c0,0,3.8-49.6,10.8-74.9c2.9-10.6,1.8-22-3-31.9c-11.2-23.3-28.4-62.2-26.3-76.3c2.5-16.7,11.9-24,15.5-26.2
	c0.8-0.5,1.8-0.8,2.7-0.9l14.1-1.4L172.5,240.2z"/>
<path class="st34" d="M219.8,317.5c0,0,15.4,71.5,32.3,83.1s62.3,48.5,63.9,54.6"/>
<path class="st8" d="M226.7,315.2c0,0,15.4,71.6,32.3,83.1s62.3,48.5,63.9,54.6"/>
<path class="st17" d="M212.1,265.2c0,0-53.1-17.7-68.5-13.1"/>
<g class="st35">
	<path d="M137.2,356.5c-11.2-23.3-28.4-62.2-26.3-76.3c2.5-16.7,11.9-24,15.5-26.2c0.8-0.5,1.8-0.8,2.7-0.9l6-0.6
		c-0.6,0.2-1.2,0.4-1.8,0.7c-3.6,2.2-13,9.4-15.5,26.2c-2.1,14.2,15.1,53.1,26.3,76.3c4.8,9.9,5.9,21.2,3,31.8
		c-7,25.3-10.8,74.9-10.8,74.9l37.1,23.2l-0.9,4.5l-43.1-26.9c0,0,3.8-49.6,10.8-74.9C143.1,377.8,142,366.5,137.2,356.5z"/>
	<polygon points="150.1,251 143.5,251.7 172.5,240.2 175.1,241.2 	"/>
</g>
<path class="st34" d="M226.7,389.9c0,0-23.9-13.1-31.5-10s-36.2-0.8-36.2-0.8"/>
<path class="st34" d="M181.3,217.5c0.9-7.7-2.7-6.5-2.7-6.5s41.5-7.7,31.5,11.5c-2.5,4.8-3.8,10.7-4.2,16.9h-0.4
	C194,239.5,187.2,226.5,181.3,217.5z"/>
<circle class="st55" cx="205.6" cy="203.3" r="33.1"/>
<path class="st17" d="M169.5,213.1c-3-6.6-5.2-13.7-4.8-21s3.6-14.6,9.6-18.6c3.1-2.1,6.8-3.2,10-5.1c2.5-1.5,4.7-3.4,7.1-5.1
	c11.9-8.1,27.3-9.2,40.3-2.9c6.1,3,11.2,7.6,17,11.2s12.5,6.4,19.2,5.4c1.1,3.2-1.7,6.4-4.3,8.6c-5,4.1-10.6,8.3-17,8.4
	c-2.5,0.1-5.1-0.5-7.4,0.6c-1.5,0.8-2.8,2-3.8,3.5c-3.1,4.1-5.7,8.6-7.9,13.3c-0.9,1.9-1.7,4-3.5,5.2c-3,1.9-6.8,0.3-10.4,0.2
	c-5.5-0.2-10.4,3.2-14.5,6.9s-7.9,7.9-13,9.9c-3.8,1.5-11.5,1.4-13.4-3.2c-0.7-1.7,0.7-5.4,0.4-7.5
	C172.6,219.4,170.9,216.2,169.5,213.1z"/>
<path class="st59" d="M168.7,212.3c-3-6.6-5.2-13.7-4.8-21s3.6-14.6,9.6-18.6c3.1-2.1,6.8-3.2,10-5.1c2.5-1.5,4.7-3.4,7.1-5.1
	c11.9-8.1,27.3-9.2,40.3-2.9c6.1,3,11.2,7.6,17,11.2s12.5,6.4,19.2,5.4c1.1,3.2-1.7,6.4-4.3,8.6c-5,4.1-10.6,8.3-17,8.4
	c-2.5,0.1-5.1-0.5-7.4,0.6c-1.5,0.8-2.8,2-3.8,3.5c-3.1,4.1-5.7,8.6-7.9,13.3c-0.9,1.9-1.7,4-3.5,5.2c-3,1.9-6.8,0.3-10.4,0.2
	c-5.5-0.2-10.4,3.2-14.5,6.9s-7.9,7.9-13,9.9c-3.8,1.5-11.5,1.4-13.4-3.2c-0.7-1.7,0.7-5.4,0.4-7.5
	C171.8,218.7,170.1,215.4,168.7,212.3z"/>
<path class="st18" d="M771.7,749.1c0,0,22.6-4.5,28.6-10.5s33.1-16.5,36.1-9s40.6,33.1,15,37.6s-60.2,6-67.7,3
	S771.7,749.1,771.7,749.1z"/>
<path class="st19" d="M851.5,764.4c-25.6,4.5-60.2,6-67.7,3c-5.7-2.3-9.7-13.3-11.3-18.4l-0.8,0.2c0,0,4.5,18.1,12,21.1
	s42.1,1.5,67.7-3c7.4-1.3,9.5-4.4,8.7-8.2C859.5,761.5,857,763.4,851.5,764.4z"/>
</svg>
