<?xml version="1.0" encoding="UTF-8" standalone="no"?><!DOCTYPE svg PUBLIC "-//W3C//DTD SVG 1.1//EN" "http://www.w3.org/Graphics/SVG/1.1/DTD/svg11.dtd"><svg width="100%" height="100%" viewBox="0 0 165 51" version="1.1" xmlns="http://www.w3.org/2000/svg" xmlns:xlink="http://www.w3.org/1999/xlink" xml:space="preserve" xmlns:serif="http://www.serif.com/" style="fill-rule:evenodd;clip-rule:evenodd;stroke-linejoin:round;stroke-miterlimit:1.41421;"><path d="M14.083,36.518l-3.047,3.046l0,9.876l-10.806,0l0,-49.285l10.806,0l0,26.166l1.091,-1.443l8.144,-10.133l12.955,0l-12.153,14.269l12.954,20.426l-12.377,0l-7.567,-12.922Z" style="fill-rule:nonzero;"/><path d="M34.701,31.772c0,-2.523 0.363,-4.863 1.09,-7.022c0.727,-2.159 1.796,-4.03 3.206,-5.612c1.411,-1.582 3.159,-2.816 5.243,-3.703c2.084,-0.888 4.473,-1.331 7.167,-1.331c2.736,0 5.146,0.443 7.231,1.331c2.084,0.887 3.831,2.121 5.242,3.703c1.411,1.582 2.48,3.453 3.207,5.612c0.727,2.159 1.09,4.499 1.09,7.022l0,0.673c0,2.544 -0.358,4.89 -1.074,7.039c-0.716,2.148 -1.78,4.008 -3.191,5.579c-1.411,1.571 -3.158,2.8 -5.242,3.688c-2.085,0.887 -4.484,1.33 -7.199,1.33c-2.715,0 -5.115,-0.443 -7.199,-1.33c-2.084,-0.888 -3.837,-2.117 -5.259,-3.688c-1.421,-1.571 -2.495,-3.431 -3.222,-5.579c-0.727,-2.149 -1.09,-4.495 -1.09,-7.039l0,-0.673Zm10.806,0.673c0,1.304 0.091,2.523 0.272,3.656c0.182,1.133 0.503,2.116 0.962,2.95c0.46,0.833 1.074,1.491 1.844,1.972c0.77,0.481 1.732,0.721 2.886,0.721c1.133,0 2.079,-0.24 2.838,-0.721c0.759,-0.481 1.362,-1.139 1.811,-1.972c0.449,-0.834 0.77,-1.817 0.962,-2.95c0.193,-1.133 0.289,-2.352 0.289,-3.656l0,-0.673c0,-1.261 -0.091,-2.458 -0.273,-3.591c-0.181,-1.133 -0.502,-2.122 -0.962,-2.966c-0.459,-0.845 -1.074,-1.518 -1.843,-2.021c-0.77,-0.502 -1.732,-0.753 -2.886,-0.753c-1.133,0 -2.079,0.251 -2.838,0.753c-0.759,0.503 -1.363,1.176 -1.812,2.021c-0.449,0.844 -0.769,1.833 -0.962,2.966c-0.192,1.133 -0.288,2.33 -0.288,3.591l0,0.673Z" style="fill-rule:nonzero;"/><path d="M85.524,6.12l0,8.625l5.708,0l0,7.504l-5.708,0l0,15.872c0,0.684 0.059,1.25 0.177,1.699c0.117,0.449 0.31,0.807 0.577,1.075c0.267,0.267 0.625,0.454 1.074,0.561c0.449,0.107 1.005,0.16 1.668,0.16c0.619,0 1.133,-0.016 1.539,-0.048c0.406,-0.032 0.791,-0.08 1.154,-0.144l0,7.727c-0.941,0.3 -1.903,0.529 -2.886,0.69c-0.983,0.16 -2.052,0.24 -3.206,0.24c-1.732,0 -3.276,-0.197 -4.634,-0.593c-1.357,-0.395 -2.501,-1.021 -3.431,-1.876c-0.93,-0.855 -1.635,-1.956 -2.116,-3.302c-0.481,-1.347 -0.722,-2.961 -0.722,-4.842l0,-17.219l-4.425,0l0,-7.504l4.425,0l0,-8.625l10.806,0Z" style="fill-rule:nonzero;"/><path d="M115.025,49.44c-0.236,-0.428 -0.433,-0.903 -0.594,-1.427c-0.16,-0.524 -0.304,-1.085 -0.432,-1.683c-0.834,1.047 -1.914,1.934 -3.239,2.661c-1.325,0.727 -3.025,1.09 -5.098,1.09c-1.604,0 -3.116,-0.256 -4.538,-0.769c-1.421,-0.513 -2.667,-1.224 -3.735,-2.133c-1.069,-0.908 -1.919,-2.004 -2.55,-3.286c-0.63,-1.283 -0.946,-2.694 -0.946,-4.233c0,-1.796 0.326,-3.399 0.978,-4.81c0.652,-1.411 1.647,-2.602 2.983,-3.575c1.336,-0.973 3.024,-1.721 5.066,-2.245c2.041,-0.523 4.462,-0.785 7.263,-0.785l3.335,0l0,-1.828c0,-1.475 -0.321,-2.64 -0.962,-3.495c-0.642,-0.855 -1.7,-1.283 -3.175,-1.283c-1.24,0 -2.191,0.31 -2.854,0.93c-0.662,0.62 -0.994,1.571 -0.994,2.854l-10.806,0c0,-1.603 0.358,-3.1 1.074,-4.489c0.717,-1.39 1.737,-2.587 3.063,-3.592c1.325,-1.004 2.923,-1.795 4.793,-2.372c1.871,-0.578 3.961,-0.866 6.269,-0.866c2.074,0 3.992,0.256 5.756,0.769c1.764,0.514 3.287,1.288 4.569,2.325c1.283,1.037 2.288,2.33 3.014,3.88c0.727,1.55 1.091,3.351 1.091,5.403l0,14.205c0,1.133 0.032,2.116 0.096,2.95c0.064,0.834 0.16,1.566 0.288,2.197c0.129,0.63 0.284,1.191 0.465,1.683c0.182,0.492 0.391,0.951 0.626,1.379l0,0.545l-10.806,0Zm-6.766,-7.054c1.347,0 2.464,-0.289 3.351,-0.866c0.887,-0.577 1.523,-1.229 1.908,-1.956l0,-5.547l-3.399,0c-1.005,0 -1.855,0.138 -2.55,0.416c-0.694,0.278 -1.25,0.652 -1.667,1.123c-0.417,0.47 -0.716,1.01 -0.898,1.619c-0.182,0.609 -0.272,1.245 -0.272,1.908c0,0.983 0.331,1.779 0.994,2.389c0.662,0.609 1.507,0.914 2.533,0.914Z" style="fill-rule:nonzero;"/><path d="M144.268,36.518l-3.046,3.046l0,9.876l-10.806,0l0,-49.285l10.806,0l0,26.166l1.09,-1.443l8.145,-10.133l12.954,0l-12.152,14.269l12.954,20.426l-12.377,0l-7.568,-12.922Z" style="fill-rule:nonzero;"/></svg>